  0
SECTION
  2
HEADER
  9
$ANGBASE
  50
0.0
  9
$ANGDIR
  70
1
  9
$MEASUREMENT
  70
1
  0
ENDSEC
  0
SECTION
  2
TABLES
  0
TABLE
  2
LTYPE
  70
4
  0
LTYPE
  5
40F
  2
CONTINUOUS
  70
0
  3
Solid line
  72
65
  73
0
  40
0.0
  0
LTYPE
  5
410
  2
DASHDOT
 70
0
  3
Dash Dot ____ _ ____ _
 72
65
 73
4
 40
2.0
 49
1.25
 49
-0.25
 49
0.25
 49
-0.25
  0
LTYPE
  5
411
  2
DASHED
 70
0
  3
Dashed __ __ __ __ __
 72
65
 73
2
 40
0.75
 49
0.5
 49
-0.25
  0
LTYPE
  5
43B
  2
DOTTED
 70
0
  3
Dotted .  .  .  .
 72
65
 73
2
 40
0.2
 49
0.0
 49
-0.2
  0
ENDTAB
  0
TABLE
  2
STYLE
  70
4
  0
STYLE
  2
KICAD
  70
0
  40
0
  41
1
  42
1
  50
0
  71
0
  3
isocp.shx
  0
STYLE
  2
KICADB
  70
0
  40
0
  41
1
  42
1
  50
0
  71
0
  3
isocp.shx
  0
STYLE
  2
KICADI
  70
0
  40
0
  41
1
  42
1
  50
15
  71
0
  3
isocp.shx
  0
STYLE
  2
KICADBI
  70
0
  40
0
  41
1
  42
1
  50
15
  71
0
  3
isocp.shx
  0
ENDTAB
  0
TABLE
  2
LAYER
  70
1
  0
LAYER
  2
BLACK
  70
0
  62
7
  6
CONTINUOUS
  0
ENDTAB
  0
ENDSEC
  0
SECTION
  2
ENTITIES
0
ARC
8
BLACK
10
313.1
20
-189.575
40
0.5
50
90
51
180
0
LINE
8
BLACK
6
CONTINUOUS
10
312.6
20
-189.575
11
312.6
21
-191.275
0
ARC
8
BLACK
10
313.1
20
-191.275
40
0.5
50
-180
51
-90
0
LINE
8
BLACK
6
CONTINUOUS
10
315.4
20
-191.775
11
313.1
21
-191.775
0
ARC
8
BLACK
10
315.4
20
-192.275
40
0.5
50
-0
51
90
0
LINE
8
BLACK
6
CONTINUOUS
10
315.9
20
-192.275
11
315.9
21
-205.275
0
ARC
8
BLACK
10
315.4
20
-205.275
40
0.5
50
-90
51
-0
0
LINE
8
BLACK
6
CONTINUOUS
10
315.4
20
-205.775
11
313.1
21
-205.775
0
ARC
8
BLACK
10
313.1
20
-206.275
40
0.5
50
90
51
180
0
LINE
8
BLACK
6
CONTINUOUS
10
312.6
20
-210.175
11
312.6
21
-206.275
0
ARC
8
BLACK
10
313.1
20
-210.175
40
0.5
50
-180
51
-90
0
LINE
8
BLACK
6
CONTINUOUS
10
315.4
20
-210.675
11
313.1
21
-210.675
0
ARC
8
BLACK
10
315.4
20
-211.175
40
0.5
50
-0
51
90
0
LINE
8
BLACK
6
CONTINUOUS
10
315.9
20
-211.175
11
315.9
21
-224.175
0
ARC
8
BLACK
10
315.4
20
-224.175
40
0.5
50
-90
51
-0
0
LINE
8
BLACK
6
CONTINUOUS
10
315.4
20
-224.675
11
313.1
21
-224.675
0
ARC
8
BLACK
10
313.1
20
-225.175
40
0.5
50
90
51
162.542
0
ARC
8
BLACK
10
313.1
20
-224.875
40
0.5
50
-162.542
51
-90
0
LINE
8
BLACK
6
CONTINUOUS
10
313.1
20
-225.375
11
317.175
21
-225.375
0
ARC
8
BLACK
10
317.175
20
-225.875
40
0.5
50
-0
51
90
0
LINE
8
BLACK
6
CONTINUOUS
10
317.675
20
-241.925
11
317.675
21
-225.875
0
ARC
8
BLACK
10
315.325
20
-241.925
40
2.35
50
-90
51
-0
0
LINE
8
BLACK
6
CONTINUOUS
10
285.86
20
-244.275
11
315.325
21
-244.275
0
ARC
8
BLACK
10
285.86
20
-241.925
40
2.35
50
-148.927
51
-90.0008
0
ARC
8
BLACK
10
280.55
20
-245.125
40
3.85
50
31.073
51
148.927
0
ARC
8
BLACK
10
275.24
20
-241.925
40
2.35003
50
-89.9992
51
-31.0725
0
LINE
8
BLACK
6
CONTINUOUS
10
228.325
20
-244.275
11
275.24
21
-244.275
0
ARC
8
BLACK
10
228.325
20
-243.775
40
0.5
50
-180
51
-90
0
LINE
8
BLACK
6
CONTINUOUS
10
227.825
20
-240.775
11
227.825
21
-243.775
0
ARC
8
BLACK
10
227.325
20
-240.775
40
0.5
50
-0
51
90
0
LINE
8
BLACK
6
CONTINUOUS
10
226.85
20
-240.275
11
227.325
21
-240.275
0
ARC
8
BLACK
10
226.85
20
-240.775
40
0.5
50
90
51
180
0
LINE
8
BLACK
6
CONTINUOUS
10
226.35
20
-243.075
11
226.35
21
-240.775
0
ARC
8
BLACK
10
225.85
20
-243.075
40
0.5
50
-90
51
-0
0
LINE
8
BLACK
6
CONTINUOUS
10
212.487
20
-243.575
11
225.85
21
-243.575
0
ARC
8
BLACK
10
214.16
20
-241.925
40
2.34974
50
-140.388
51
-135.403
0
LINE
8
BLACK
6
CONTINUOUS
10
212.35
20
-240.775
11
212.35
21
-243.423
0
ARC
8
BLACK
10
211.85
20
-240.775
40
0.5
50
-0
51
90
0
LINE
8
BLACK
6
CONTINUOUS
10
211.375
20
-240.275
11
211.85
21
-240.275
0
ARC
8
BLACK
10
211.375
20
-240.775
40
0.5
50
90
51
180
0
LINE
8
BLACK
6
CONTINUOUS
10
210.875
20
-241.051
11
210.875
21
-240.775
0
ARC
8
BLACK
10
210.375
20
-241.051
40
0.5
50
-110.523
51
0.00297938
0
ARC
8
BLACK
10
208.85
20
-245.125
40
3.85
50
69.4775
51
148.927
0
ARC
8
BLACK
10
203.54
20
-241.925
40
2.35003
50
-89.9992
51
-31.0725
0
LINE
8
BLACK
6
CONTINUOUS
10
177.157
20
-244.275
11
203.54
21
-244.275
0
ARC
8
BLACK
10
177.157
20
-248.126
40
3.8508
50
89.9996
51
94.3815
0
ARC
8
BLACK
10
176.825
20
-243.788
40
0.50002
50
-179.998
51
-85.6174
0
LINE
8
BLACK
6
CONTINUOUS
10
176.325
20
-225.575
11
176.325
21
-243.788
0
ARC
8
BLACK
10
175.825
20
-225.575
40
0.5
50
-0
51
90
0
LINE
8
BLACK
6
CONTINUOUS
10
119.375
20
-225.075
11
175.825
21
-225.075
0
ARC
8
BLACK
10
119.375
20
-225.575
40
0.500001
50
90.0001
51
180
0
LINE
8
BLACK
6
CONTINUOUS
10
118.875
20
-229.075
11
118.875
21
-225.575
0
ARC
8
BLACK
10
119.375
20
-229.075
40
0.500001
50
-180
51
-90.0001
0
LINE
8
BLACK
6
CONTINUOUS
10
121.675
20
-229.575
11
119.375
21
-229.575
0
ARC
8
BLACK
10
121.675
20
-230.075
40
0.500001
50
0.000114591
51
89.9999
0
LINE
8
BLACK
6
CONTINUOUS
10
122.175
20
-243.075
11
122.175
21
-230.075
0
ARC
8
BLACK
10
121.675
20
-243.075
40
0.500001
50
-89.9999
51
-0.000114591
0
LINE
8
BLACK
6
CONTINUOUS
10
108.675
20
-243.575
11
121.675
21
-243.575
0
ARC
8
BLACK
10
108.675
20
-243.075
40
0.500001
50
-180
51
-90.0001
0
LINE
8
BLACK
6
CONTINUOUS
10
108.175
20
-230.075
11
108.175
21
-243.075
0
ARC
8
BLACK
10
108.675
20
-230.075
40
0.500001
50
90.0001
51
180
0
LINE
8
BLACK
6
CONTINUOUS
10
110.975
20
-229.575
11
108.675
21
-229.575
0
ARC
8
BLACK
10
110.975
20
-229.075
40
0.500001
50
-89.9999
51
-0.000114591
0
LINE
8
BLACK
6
CONTINUOUS
10
111.475
20
-225.575
11
111.475
21
-229.075
0
ARC
8
BLACK
10
110.975
20
-225.575
40
0.500001
50
0.000114591
51
89.9999
0
LINE
8
BLACK
6
CONTINUOUS
10
110.975
20
-225.075
11
54.525
21
-225.075
0
ARC
8
BLACK
10
54.525
20
-225.575
40
0.500001
50
90.0001
51
180
0
LINE
8
BLACK
6
CONTINUOUS
10
54.025
20
-225.575
11
54.025
21
-243.788
0
ARC
8
BLACK
10
53.525
20
-243.788
40
0.5
50
-94.3828
51
-0
0
ARC
8
BLACK
10
53.1925
20
-248.126
40
3.85077
50
85.6177
51
89.9996
0
LINE
8
BLACK
6
CONTINUOUS
10
26.8104
20
-244.275
11
53.1926
21
-244.275
0
ARC
8
BLACK
10
26.8104
20
-241.925
40
2.35
50
-148.927
51
-90
0
ARC
8
BLACK
10
21.5
20
-245.125
40
3.85
50
31.073
51
110.522
0
ARC
8
BLACK
10
19.975
20
-241.051
40
0.499999
50
-180
51
-69.4776
0
LINE
8
BLACK
6
CONTINUOUS
10
19.475
20
-240.775
11
19.475
21
-241.051
0
ARC
8
BLACK
10
18.975
20
-240.775
40
0.500001
50
0.000114591
51
89.9999
0
LINE
8
BLACK
6
CONTINUOUS
10
18.5
20
-240.275
11
18.975
21
-240.275
0
ARC
8
BLACK
10
18.5
20
-240.775
40
0.500001
50
90.0001
51
180
0
LINE
8
BLACK
6
CONTINUOUS
10
18
20
-243.423
11
18
21
-240.775
0
ARC
8
BLACK
10
16.1898
20
-241.925
40
2.34977
50
-44.5982
51
-39.6127
0
LINE
8
BLACK
6
CONTINUOUS
10
4.5
20
-243.575
11
17.863
21
-243.575
0
ARC
8
BLACK
10
4.5
20
-243.075
40
0.500001
50
-180
51
-90.0001
0
LINE
8
BLACK
6
CONTINUOUS
10
4
20
-240.775
11
4
21
-243.075
0
ARC
8
BLACK
10
3.5
20
-240.775
40
0.500001
50
0.000114591
51
89.9999
0
LINE
8
BLACK
6
CONTINUOUS
10
3.025
20
-240.275
11
3.5
21
-240.275
0
ARC
8
BLACK
10
3.025
20
-240.775
40
0.500001
50
90.0001
51
180
0
LINE
8
BLACK
6
CONTINUOUS
10
2.525
20
-243.775
11
2.525
21
-240.775
0
ARC
8
BLACK
10
2.025
20
-243.775
40
0.500001
50
-89.9999
51
-0.000114591
0
LINE
8
BLACK
6
CONTINUOUS
10
-23.55
20
-244.275
11
2.025
21
-244.275
0
ARC
8
BLACK
10
-23.55
20
-241.925
40
2.35
50
-180
51
-90
0
LINE
8
BLACK
6
CONTINUOUS
10
-25.9
20
-130
11
-25.9
21
-241.925
0
ARC
8
BLACK
10
-23.55
20
-130
40
2.35
50
90
51
180
0
LINE
8
BLACK
6
CONTINUOUS
10
-10.6229
20
-127.65
11
-23.55
21
-127.65
0
ARC
8
BLACK
10
-10.6229
20
-130
40
2.35
50
31.0729
51
90
0
ARC
8
BLACK
10
-5.3125
20
-126.8
40
3.85
50
-148.927
51
-31.073
0
ARC
8
BLACK
10
-0.002133
20
-130
40
2.35
50
90
51
148.927
0
LINE
8
BLACK
6
CONTINUOUS
10
69.7021
20
-127.65
11
-0.002133
21
-127.65
0
ARC
8
BLACK
10
69.7021
20
-130
40
2.35
50
31.0729
51
90
0
ARC
8
BLACK
10
75.0125
20
-126.8
40
3.85
50
-148.927
51
-31.073
0
ARC
8
BLACK
10
80.3229
20
-130
40
2.35
50
90
51
148.927
0
LINE
8
BLACK
6
CONTINUOUS
10
171.29
20
-127.65
11
80.3229
21
-127.65
0
ARC
8
BLACK
10
171.29
20
-130
40
2.35
50
31.0725
51
89.9992
0
ARC
8
BLACK
10
176.6
20
-126.8
40
3.85
50
-148.927
51
-31.073
0
ARC
8
BLACK
10
181.91
20
-130
40
2.35003
50
90.0008
51
148.927
0
LINE
8
BLACK
6
CONTINUOUS
10
294.14
20
-127.65
11
181.91
21
-127.65
0
ARC
8
BLACK
10
294.14
20
-130
40
2.35
50
31.0725
51
89.9992
0
ARC
8
BLACK
10
299.45
20
-126.8
40
3.85
50
-148.927
51
-31.073
0
ARC
8
BLACK
10
304.76
20
-130
40
2.35003
50
90.0008
51
148.927
0
LINE
8
BLACK
6
CONTINUOUS
10
315.325
20
-127.65
11
304.76
21
-127.65
0
ARC
8
BLACK
10
315.325
20
-130
40
2.35
50
-0
51
90
0
LINE
8
BLACK
6
CONTINUOUS
10
317.675
20
-188.575
11
317.675
21
-130
0
ARC
8
BLACK
10
317.175
20
-188.575
40
0.5
50
-90
51
-0
0
LINE
8
BLACK
6
CONTINUOUS
10
317.175
20
-189.075
11
313.1
21
-189.075
0
ARC
8
BLACK
10
266.9
20
-191.275
40
0.5
50
-90
51
-0
0
LINE
8
BLACK
6
CONTINUOUS
10
267.4
20
-189.575
11
267.4
21
-191.275
0
ARC
8
BLACK
10
266.9
20
-189.575
40
0.5
50
-0
51
90
0
LINE
8
BLACK
6
CONTINUOUS
10
261.4
20
-189.075
11
266.9
21
-189.075
0
ARC
8
BLACK
10
261.4
20
-189.575
40
0.5
50
90
51
180
0
LINE
8
BLACK
6
CONTINUOUS
10
260.9
20
-189.575
11
260.9
21
-224.875
0
ARC
8
BLACK
10
261.4
20
-224.875
40
0.5
50
-180
51
-90
0
LINE
8
BLACK
6
CONTINUOUS
10
266.9
20
-225.375
11
261.4
21
-225.375
0
ARC
8
BLACK
10
266.9
20
-224.875
40
0.5
50
-90
51
-17.4576
0
ARC
8
BLACK
10
266.9
20
-225.175
40
0.5
50
17.4576
51
90
0
LINE
8
BLACK
6
CONTINUOUS
10
264.6
20
-224.675
11
266.9
21
-224.675
0
ARC
8
BLACK
10
264.6
20
-224.175
40
0.5
50
-180
51
-90
0
LINE
8
BLACK
6
CONTINUOUS
10
264.1
20
-211.175
11
264.1
21
-224.175
0
ARC
8
BLACK
10
264.6
20
-211.175
40
0.5
50
90
51
180
0
LINE
8
BLACK
6
CONTINUOUS
10
264.6
20
-210.675
11
266.9
21
-210.675
0
ARC
8
BLACK
10
266.9
20
-210.175
40
0.5
50
-90
51
-0
0
LINE
8
BLACK
6
CONTINUOUS
10
267.4
20
-210.175
11
267.4
21
-206.275
0
ARC
8
BLACK
10
266.9
20
-206.275
40
0.5
50
-0
51
90
0
LINE
8
BLACK
6
CONTINUOUS
10
264.6
20
-205.775
11
266.9
21
-205.775
0
ARC
8
BLACK
10
264.6
20
-205.275
40
0.5
50
-180
51
-90
0
LINE
8
BLACK
6
CONTINUOUS
10
264.1
20
-192.275
11
264.1
21
-205.275
0
ARC
8
BLACK
10
264.6
20
-192.275
40
0.5
50
90
51
180
0
LINE
8
BLACK
6
CONTINUOUS
10
264.6
20
-191.775
11
266.9
21
-191.775
0
ARC
8
BLACK
10
275.3
20
-225.175
40
0.5
50
90
51
162.542
0
ARC
8
BLACK
10
275.3
20
-224.875
40
0.5
50
-162.542
51
-90
0
LINE
8
BLACK
6
CONTINUOUS
10
275.3
20
-225.375
11
282.5
21
-225.375
0
ARC
8
BLACK
10
282.5
20
-224.875
40
0.5
50
-90
51
-0
0
LINE
8
BLACK
6
CONTINUOUS
10
283
20
-211.175
11
283
21
-224.875
0
ARC
8
BLACK
10
283.5
20
-211.175
40
0.5
50
90
51
180
0
LINE
8
BLACK
6
CONTINUOUS
10
285.8
20
-210.675
11
283.5
21
-210.675
0
ARC
8
BLACK
10
285.8
20
-210.175
40
0.5
50
-90
51
-0
0
LINE
8
BLACK
6
CONTINUOUS
10
286.3
20
-206.275
11
286.3
21
-210.175
0
ARC
8
BLACK
10
285.8
20
-206.275
40
0.5
50
-0
51
90
0
LINE
8
BLACK
6
CONTINUOUS
10
283.5
20
-205.775
11
285.8
21
-205.775
0
ARC
8
BLACK
10
283.5
20
-205.275
40
0.5
50
-180
51
-90
0
LINE
8
BLACK
6
CONTINUOUS
10
283
20
-192.275
11
283
21
-205.275
0
ARC
8
BLACK
10
283.5
20
-192.275
40
0.5
50
90
51
180
0
LINE
8
BLACK
6
CONTINUOUS
10
285.8
20
-191.775
11
283.5
21
-191.775
0
ARC
8
BLACK
10
285.8
20
-191.275
40
0.5
50
-90
51
-0
0
LINE
8
BLACK
6
CONTINUOUS
10
286.3
20
-189.575
11
286.3
21
-191.275
0
ARC
8
BLACK
10
285.8
20
-189.575
40
0.5
50
-0
51
90
0
LINE
8
BLACK
6
CONTINUOUS
10
275.3
20
-189.075
11
285.8
21
-189.075
0
ARC
8
BLACK
10
275.3
20
-189.575
40
0.5
50
90
51
180
0
LINE
8
BLACK
6
CONTINUOUS
10
274.8
20
-189.575
11
274.8
21
-191.275
0
ARC
8
BLACK
10
275.3
20
-191.275
40
0.5
50
-180
51
-90
0
LINE
8
BLACK
6
CONTINUOUS
10
277.6
20
-191.775
11
275.3
21
-191.775
0
ARC
8
BLACK
10
277.6
20
-192.275
40
0.5
50
-0
51
90
0
LINE
8
BLACK
6
CONTINUOUS
10
278.1
20
-192.275
11
278.1
21
-205.275
0
ARC
8
BLACK
10
277.6
20
-205.275
40
0.5
50
-90
51
-0
0
LINE
8
BLACK
6
CONTINUOUS
10
277.6
20
-205.775
11
275.3
21
-205.775
0
ARC
8
BLACK
10
275.3
20
-206.275
40
0.5
50
90
51
180
0
LINE
8
BLACK
6
CONTINUOUS
10
274.8
20
-210.175
11
274.8
21
-206.275
0
ARC
8
BLACK
10
275.3
20
-210.175
40
0.5
50
-180
51
-90
0
LINE
8
BLACK
6
CONTINUOUS
10
277.6
20
-210.675
11
275.3
21
-210.675
0
ARC
8
BLACK
10
277.6
20
-211.175
40
0.5
50
-0
51
90
0
LINE
8
BLACK
6
CONTINUOUS
10
278.1
20
-224.175
11
278.1
21
-211.175
0
ARC
8
BLACK
10
277.6
20
-224.175
40
0.5
50
-90
51
-0
0
LINE
8
BLACK
6
CONTINUOUS
10
277.6
20
-224.675
11
275.3
21
-224.675
0
ARC
8
BLACK
10
294.2
20
-206.275
40
0.5
50
90
51
180
0
LINE
8
BLACK
6
CONTINUOUS
10
293.7
20
-206.275
11
293.7
21
-210.175
0
ARC
8
BLACK
10
294.2
20
-210.175
40
0.5
50
-180
51
-90
0
LINE
8
BLACK
6
CONTINUOUS
10
294.2
20
-210.675
11
296.5
21
-210.675
0
ARC
8
BLACK
10
296.5
20
-211.175
40
0.5
50
-0
51
90
0
LINE
8
BLACK
6
CONTINUOUS
10
297
20
-211.175
11
297
21
-224.875
0
ARC
8
BLACK
10
297.5
20
-224.875
40
0.5
50
-180
51
-90
0
LINE
8
BLACK
6
CONTINUOUS
10
304.7
20
-225.375
11
297.5
21
-225.375
0
ARC
8
BLACK
10
304.7
20
-224.875
40
0.5
50
-90
51
-17.4576
0
ARC
8
BLACK
10
304.7
20
-225.175
40
0.5
50
17.4576
51
90
0
LINE
8
BLACK
6
CONTINUOUS
10
302.4
20
-224.675
11
304.7
21
-224.675
0
ARC
8
BLACK
10
302.4
20
-224.175
40
0.5
50
-180
51
-90
0
LINE
8
BLACK
6
CONTINUOUS
10
301.9
20
-224.175
11
301.9
21
-211.175
0
ARC
8
BLACK
10
302.4
20
-211.175
40
0.5
50
90
51
180
0
LINE
8
BLACK
6
CONTINUOUS
10
302.4
20
-210.675
11
304.7
21
-210.675
0
ARC
8
BLACK
10
304.7
20
-210.175
40
0.5
50
-90
51
-0
0
LINE
8
BLACK
6
CONTINUOUS
10
305.2
20
-210.175
11
305.2
21
-206.275
0
ARC
8
BLACK
10
304.7
20
-206.275
40
0.5
50
-0
51
90
0
LINE
8
BLACK
6
CONTINUOUS
10
302.4
20
-205.775
11
304.7
21
-205.775
0
ARC
8
BLACK
10
302.4
20
-205.275
40
0.5
50
-180
51
-90
0
LINE
8
BLACK
6
CONTINUOUS
10
301.9
20
-192.275
11
301.9
21
-205.275
0
ARC
8
BLACK
10
302.4
20
-192.275
40
0.5
50
90
51
180
0
LINE
8
BLACK
6
CONTINUOUS
10
302.4
20
-191.775
11
304.7
21
-191.775
0
ARC
8
BLACK
10
304.7
20
-191.275
40
0.5
50
-90
51
-0
0
LINE
8
BLACK
6
CONTINUOUS
10
305.2
20
-189.575
11
305.2
21
-191.275
0
ARC
8
BLACK
10
304.7
20
-189.575
40
0.5
50
-0
51
90
0
LINE
8
BLACK
6
CONTINUOUS
10
304.7
20
-189.075
11
294.2
21
-189.075
0
ARC
8
BLACK
10
294.2
20
-189.575
40
0.5
50
90
51
180
0
LINE
8
BLACK
6
CONTINUOUS
10
293.7
20
-189.575
11
293.7
21
-191.275
0
ARC
8
BLACK
10
294.2
20
-191.275
40
0.5
50
-180
51
-90
0
LINE
8
BLACK
6
CONTINUOUS
10
294.2
20
-191.775
11
296.5
21
-191.775
0
ARC
8
BLACK
10
296.5
20
-192.275
40
0.5
50
-0
51
90
0
LINE
8
BLACK
6
CONTINUOUS
10
297
20
-192.275
11
297
21
-205.275
0
ARC
8
BLACK
10
296.5
20
-205.275
40
0.5
50
-90
51
-0
0
LINE
8
BLACK
6
CONTINUOUS
10
296.5
20
-205.775
11
294.2
21
-205.775
0
ARC
8
BLACK
10
-8.33125
20
-210.175
40
0.500001
50
-89.9999
51
-0.000114591
0
LINE
8
BLACK
6
CONTINUOUS
10
-7.83125
20
-208.675
11
-7.83125
21
-210.175
0
ARC
8
BLACK
10
-8.33125
20
-208.675
40
0.500001
50
0.000114591
51
89.9999
0
LINE
8
BLACK
6
CONTINUOUS
10
-21.2625
20
-208.175
11
-8.33125
21
-208.175
0
ARC
8
BLACK
10
-21.2625
20
-208.675
40
0.500001
50
90.0001
51
180
0
LINE
8
BLACK
6
CONTINUOUS
10
-21.7625
20
-208.675
11
-21.7625
21
-228.675
0
ARC
8
BLACK
10
-21.2625
20
-228.675
40
0.500001
50
-180
51
-90.0001
0
LINE
8
BLACK
6
CONTINUOUS
10
-21.2625
20
-229.175
11
2.025
21
-229.175
0
ARC
8
BLACK
10
2.025
20
-229.675
40
0.500001
50
0.000114591
51
89.9999
0
LINE
8
BLACK
6
CONTINUOUS
10
2.525
20
-232.375
11
2.525
21
-229.675
0
ARC
8
BLACK
10
3.025
20
-232.375
40
0.500001
50
-180
51
-90.0001
0
LINE
8
BLACK
6
CONTINUOUS
10
3.025
20
-232.875
11
3.5
21
-232.875
0
ARC
8
BLACK
10
3.5
20
-232.375
40
0.500001
50
-89.9999
51
-0.000114591
0
LINE
8
BLACK
6
CONTINUOUS
10
4
20
-232.375
11
4
21
-230.075
0
ARC
8
BLACK
10
4.5
20
-230.075
40
0.500001
50
90.0001
51
180
0
LINE
8
BLACK
6
CONTINUOUS
10
4.5
20
-229.575
11
17.5
21
-229.575
0
ARC
8
BLACK
10
17.5
20
-230.075
40
0.500001
50
0.000114591
51
89.9999
0
LINE
8
BLACK
6
CONTINUOUS
10
18
20
-230.075
11
18
21
-232.375
0
ARC
8
BLACK
10
18.5
20
-232.375
40
0.500001
50
-180
51
-90.0001
0
LINE
8
BLACK
6
CONTINUOUS
10
18.5
20
-232.875
11
18.975
21
-232.875
0
ARC
8
BLACK
10
18.975
20
-232.375
40
0.500001
50
-89.9999
51
-0.000114591
0
LINE
8
BLACK
6
CONTINUOUS
10
19.475
20
-232.375
11
19.475
21
-229.675
0
ARC
8
BLACK
10
18.975
20
-229.675
40
0.500001
50
0.000114591
51
89.9999
0
LINE
8
BLACK
6
CONTINUOUS
10
18.975
20
-229.175
11
18.4
21
-229.175
0
ARC
8
BLACK
10
18.4
20
-228.675
40
0.500001
50
-180
51
-90.0001
0
LINE
8
BLACK
6
CONTINUOUS
10
17.9
20
-208.675
11
17.9
21
-228.675
0
ARC
8
BLACK
10
17.4
20
-208.675
40
0.500001
50
0.000114591
51
89.9999
0
LINE
8
BLACK
6
CONTINUOUS
10
17.4
20
-208.175
11
0.06875
21
-208.175
0
ARC
8
BLACK
10
0.068751
20
-208.675
40
0.500001
50
90.0001
51
180
0
LINE
8
BLACK
6
CONTINUOUS
10
-0.43125
20
-210.175
11
-0.43125
21
-208.675
0
ARC
8
BLACK
10
0.068751
20
-210.175
40
0.500001
50
-180
51
-90.0001
0
LINE
8
BLACK
6
CONTINUOUS
10
2.36875
20
-210.675
11
0.06875
21
-210.675
0
ARC
8
BLACK
10
2.36875
20
-211.175
40
0.500001
50
0.000114591
51
89.9999
0
LINE
8
BLACK
6
CONTINUOUS
10
2.86875
20
-224.175
11
2.86875
21
-211.175
0
ARC
8
BLACK
10
2.36875
20
-224.175
40
0.500001
50
-89.9999
51
-0.000114591
0
LINE
8
BLACK
6
CONTINUOUS
10
-10.6312
20
-224.675
11
2.36875
21
-224.675
0
ARC
8
BLACK
10
-10.6312
20
-224.175
40
0.500001
50
-180
51
-90.0001
0
LINE
8
BLACK
6
CONTINUOUS
10
-11.1312
20
-211.175
11
-11.1312
21
-224.175
0
ARC
8
BLACK
10
-10.6312
20
-211.175
40
0.500001
50
90.0001
51
180
0
LINE
8
BLACK
6
CONTINUOUS
10
-8.33125
20
-210.675
11
-10.6312
21
-210.675
0
CIRCLE
8
BLACK
10
-22.205
20
-137.35
40
0.875
0
CIRCLE
8
BLACK
10
308.9
20
-198.775
40
2.5
0
CIRCLE
8
BLACK
10
313.98
20
-198.775
40
0.875
0
CIRCLE
8
BLACK
10
266.02
20
-217.675
40
0.875
0
CIRCLE
8
BLACK
10
271.1
20
-217.675
40
2.5
0
CIRCLE
8
BLACK
10
276.18
20
-217.675
40
0.875
0
CIRCLE
8
BLACK
10
284.92
20
-217.675
40
0.875
0
CIRCLE
8
BLACK
10
290
20
-217.675
40
2.5
0
CIRCLE
8
BLACK
10
295.08
20
-217.675
40
0.875
0
CIRCLE
8
BLACK
10
303.82
20
-198.775
40
0.875
0
CIRCLE
8
BLACK
10
295.08
20
-198.775
40
0.875
0
CIRCLE
8
BLACK
10
290
20
-198.775
40
2.5
0
CIRCLE
8
BLACK
10
284.92
20
-198.775
40
0.875
0
CIRCLE
8
BLACK
10
276.18
20
-198.775
40
0.875
0
CIRCLE
8
BLACK
10
16.08
20
-236.575
40
0.875
0
CIRCLE
8
BLACK
10
214.27
20
-236.575
40
0.875
0
CIRCLE
8
BLACK
10
313.98
20
-217.675
40
0.875
0
CIRCLE
8
BLACK
10
308.9
20
-217.675
40
2.5
0
CIRCLE
8
BLACK
10
303.82
20
-217.675
40
0.875
0
CIRCLE
8
BLACK
10
219.35
20
-236.575
40
2.5
0
CIRCLE
8
BLACK
10
224.43
20
-236.575
40
0.875
0
CIRCLE
8
BLACK
10
5.92
20
-236.575
40
0.875
0
CIRCLE
8
BLACK
10
11
20
-236.575
40
2.5
0
CIRCLE
8
BLACK
10
308.9
20
-137.35
40
2.5
0
CIRCLE
8
BLACK
10
303.82
20
-137.35
40
0.875
0
CIRCLE
8
BLACK
10
295.08
20
-137.35
40
0.875
0
CIRCLE
8
BLACK
10
290
20
-137.35
40
2.5
0
CIRCLE
8
BLACK
10
284.92
20
-137.35
40
0.875
0
CIRCLE
8
BLACK
10
276.18
20
-137.35
40
0.875
0
CIRCLE
8
BLACK
10
271.1
20
-137.35
40
2.5
0
CIRCLE
8
BLACK
10
266.02
20
-137.35
40
0.875
0
CIRCLE
8
BLACK
10
6.145
20
-179.875
40
0.875
0
CIRCLE
8
BLACK
10
11.225
20
-179.875
40
2.5
0
CIRCLE
8
BLACK
10
214.755
20
-160.975
40
0.875
0
CIRCLE
8
BLACK
10
209.675
20
-160.975
40
2.5
0
CIRCLE
8
BLACK
10
204.595
20
-160.975
40
0.875
0
CIRCLE
8
BLACK
10
195.855
20
-160.975
40
0.875
0
CIRCLE
8
BLACK
10
190.775
20
-160.975
40
2.5
0
CIRCLE
8
BLACK
10
185.695
20
-160.975
40
0.875
0
CIRCLE
8
BLACK
10
176.955
20
-160.975
40
0.875
0
CIRCLE
8
BLACK
10
171.875
20
-160.975
40
2.5
0
CIRCLE
8
BLACK
10
166.795
20
-160.975
40
0.875
0
CIRCLE
8
BLACK
10
158.055
20
-160.975
40
0.875
0
CIRCLE
8
BLACK
10
152.975
20
-160.975
40
2.5
0
CIRCLE
8
BLACK
10
147.895
20
-160.975
40
0.875
0
CIRCLE
8
BLACK
10
139.155
20
-160.975
40
0.875
0
CIRCLE
8
BLACK
10
134.075
20
-160.975
40
2.5
0
CIRCLE
8
BLACK
10
128.995
20
-160.975
40
0.875
0
CIRCLE
8
BLACK
10
120.255
20
-160.975
40
0.875
0
CIRCLE
8
BLACK
10
73.005
20
-179.875
40
0.875
0
CIRCLE
8
BLACK
10
67.925
20
-179.875
40
2.5
0
CIRCLE
8
BLACK
10
62.845
20
-179.875
40
0.875
0
CIRCLE
8
BLACK
10
58.83
20
-198.775
40
0.875
0
CIRCLE
8
BLACK
10
53.75
20
-198.775
40
2.5
0
CIRCLE
8
BLACK
10
48.67
20
-198.775
40
0.875
0
CIRCLE
8
BLACK
10
54.105
20
-179.875
40
0.875
0
CIRCLE
8
BLACK
10
49.025
20
-179.875
40
2.5
0
CIRCLE
8
BLACK
10
35.205
20
-179.875
40
0.875
0
CIRCLE
8
BLACK
10
30.125
20
-179.875
40
2.5
0
CIRCLE
8
BLACK
10
25.045
20
-179.875
40
0.875
0
CIRCLE
8
BLACK
10
30.48
20
-217.675
40
0.875
0
CIRCLE
8
BLACK
10
29.77
20
-198.775
40
0.875
0
CIRCLE
8
BLACK
10
34.85
20
-198.775
40
2.5
0
CIRCLE
8
BLACK
10
39.93
20
-198.775
40
0.875
0
CIRCLE
8
BLACK
10
43.945
20
-179.875
40
0.875
0
CIRCLE
8
BLACK
10
303.82
20
-160.975
40
0.875
0
CIRCLE
8
BLACK
10
295.08
20
-160.975
40
0.875
0
CIRCLE
8
BLACK
10
290
20
-160.975
40
2.5
0
CIRCLE
8
BLACK
10
284.92
20
-160.975
40
0.875
0
CIRCLE
8
BLACK
10
313.98
20
-137.35
40
0.875
0
CIRCLE
8
BLACK
10
266.02
20
-160.975
40
0.875
0
CIRCLE
8
BLACK
10
271.1
20
-160.975
40
2.5
0
CIRCLE
8
BLACK
10
276.18
20
-160.975
40
0.875
0
CIRCLE
8
BLACK
10
25.4
20
-217.675
40
2.5
0
CIRCLE
8
BLACK
10
20.32
20
-217.675
40
0.875
0
CIRCLE
8
BLACK
10
21.03
20
-198.775
40
0.875
0
CIRCLE
8
BLACK
10
15.95
20
-198.775
40
2.5
0
CIRCLE
8
BLACK
10
10.87
20
-198.775
40
0.875
0
CIRCLE
8
BLACK
10
16.305
20
-179.875
40
0.875
0
CIRCLE
8
BLACK
10
313.98
20
-160.975
40
0.875
0
CIRCLE
8
BLACK
10
308.9
20
-160.975
40
2.5
0
CIRCLE
8
BLACK
10
-17.125
20
-137.35
40
2.5
0
CIRCLE
8
BLACK
10
-12.045
20
-137.35
40
0.875
0
CIRCLE
8
BLACK
10
1.42
20
-137.35
40
0.875
0
CIRCLE
8
BLACK
10
6.5
20
-137.35
40
2.5
0
CIRCLE
8
BLACK
10
11.58
20
-137.35
40
0.875
0
CIRCLE
8
BLACK
10
20.32
20
-137.35
40
0.875
0
CIRCLE
8
BLACK
10
25.4
20
-137.35
40
2.5
0
CIRCLE
8
BLACK
10
30.48
20
-137.35
40
0.875
0
CIRCLE
8
BLACK
10
39.22
20
-137.35
40
0.875
0
CIRCLE
8
BLACK
10
44.3
20
-137.35
40
2.5
0
CIRCLE
8
BLACK
10
49.38
20
-137.35
40
0.875
0
CIRCLE
8
BLACK
10
58.12
20
-137.35
40
0.875
0
CIRCLE
8
BLACK
10
63.2
20
-137.35
40
2.5
0
CIRCLE
8
BLACK
10
68.28
20
-137.35
40
0.875
0
CIRCLE
8
BLACK
10
81.745
20
-137.35
40
0.875
0
CIRCLE
8
BLACK
10
86.825
20
-137.35
40
2.5
0
CIRCLE
8
BLACK
10
91.905
20
-137.35
40
0.875
0
CIRCLE
8
BLACK
10
100.645
20
-137.35
40
0.875
0
CIRCLE
8
BLACK
10
105.725
20
-137.35
40
2.5
0
CIRCLE
8
BLACK
10
110.805
20
-137.35
40
0.875
0
CIRCLE
8
BLACK
10
119.545
20
-137.35
40
0.875
0
CIRCLE
8
BLACK
10
124.625
20
-137.35
40
2.5
0
CIRCLE
8
BLACK
10
129.705
20
-137.35
40
0.875
0
CIRCLE
8
BLACK
10
138.445
20
-137.35
40
0.875
0
CIRCLE
8
BLACK
10
143.525
20
-137.35
40
2.5
0
CIRCLE
8
BLACK
10
148.605
20
-137.35
40
0.875
0
CIRCLE
8
BLACK
10
162.07
20
-137.35
40
0.875
0
CIRCLE
8
BLACK
10
167.15
20
-137.35
40
2.5
0
CIRCLE
8
BLACK
10
172.23
20
-137.35
40
0.875
0
CIRCLE
8
BLACK
10
180.97
20
-137.35
40
0.875
0
CIRCLE
8
BLACK
10
186.05
20
-137.35
40
2.5
0
CIRCLE
8
BLACK
10
191.13
20
-137.35
40
0.875
0
CIRCLE
8
BLACK
10
115.175
20
-160.975
40
2.5
0
CIRCLE
8
BLACK
10
110.095
20
-160.975
40
0.875
0
CIRCLE
8
BLACK
10
101.355
20
-160.975
40
0.875
0
CIRCLE
8
BLACK
10
96.275
20
-160.975
40
2.5
0
CIRCLE
8
BLACK
10
91.195
20
-160.975
40
0.875
0
CIRCLE
8
BLACK
10
82.455
20
-160.975
40
0.875
0
CIRCLE
8
BLACK
10
77.375
20
-160.975
40
2.5
0
CIRCLE
8
BLACK
10
72.295
20
-160.975
40
0.875
0
CIRCLE
8
BLACK
10
63.555
20
-160.975
40
0.875
0
CIRCLE
8
BLACK
10
58.475
20
-160.975
40
2.5
0
CIRCLE
8
BLACK
10
53.395
20
-160.975
40
0.875
0
CIRCLE
8
BLACK
10
44.655
20
-160.975
40
0.875
0
CIRCLE
8
BLACK
10
39.575
20
-160.975
40
2.5
0
CIRCLE
8
BLACK
10
34.495
20
-160.975
40
0.875
0
CIRCLE
8
BLACK
10
25.755
20
-160.975
40
0.875
0
CIRCLE
8
BLACK
10
20.675
20
-160.975
40
2.5
0
CIRCLE
8
BLACK
10
199.87
20
-137.35
40
0.875
0
CIRCLE
8
BLACK
10
204.95
20
-137.35
40
2.5
0
CIRCLE
8
BLACK
10
210.03
20
-137.35
40
0.875
0
CIRCLE
8
BLACK
10
218.77
20
-137.35
40
0.875
0
CIRCLE
8
BLACK
10
223.85
20
-137.35
40
2.5
0
CIRCLE
8
BLACK
10
228.93
20
-137.35
40
0.875
0
CIRCLE
8
BLACK
10
242.395
20
-137.35
40
0.875
0
CIRCLE
8
BLACK
10
247.475
20
-137.35
40
2.5
0
CIRCLE
8
BLACK
10
15.595
20
-160.975
40
0.875
0
CIRCLE
8
BLACK
10
6.855
20
-160.975
40
0.875
0
CIRCLE
8
BLACK
10
1.775
20
-160.975
40
2.5
0
CIRCLE
8
BLACK
10
-3.305
20
-160.975
40
0.875
0
CIRCLE
8
BLACK
10
252.555
20
-137.35
40
0.875
0
CIRCLE
8
BLACK
10
-22.205
20
-160.975
40
0.875
0
CIRCLE
8
BLACK
10
-17.125
20
-160.975
40
2.5
0
CIRCLE
8
BLACK
10
-12.045
20
-160.975
40
0.875
0
CIRCLE
8
BLACK
10
63.2
20
-217.675
40
2.5
0
CIRCLE
8
BLACK
10
68.28
20
-217.675
40
0.875
0
CIRCLE
8
BLACK
10
77.02
20
-217.675
40
0.875
0
CIRCLE
8
BLACK
10
82.1
20
-217.675
40
2.5
0
CIRCLE
8
BLACK
10
87.18
20
-217.675
40
0.875
0
CIRCLE
8
BLACK
10
95.92
20
-217.675
40
0.875
0
CIRCLE
8
BLACK
10
101
20
-217.675
40
2.5
0
CIRCLE
8
BLACK
10
106.08
20
-217.675
40
0.875
0
CIRCLE
8
BLACK
10
114.82
20
-217.675
40
0.875
0
CIRCLE
8
BLACK
10
119.9
20
-217.675
40
2.5
0
CIRCLE
8
BLACK
10
124.98
20
-217.675
40
0.875
0
CIRCLE
8
BLACK
10
133.72
20
-217.675
40
0.875
0
CIRCLE
8
BLACK
10
138.8
20
-217.675
40
2.5
0
CIRCLE
8
BLACK
10
143.88
20
-217.675
40
0.875
0
CIRCLE
8
BLACK
10
152.62
20
-217.675
40
0.875
0
CIRCLE
8
BLACK
10
157.7
20
-217.675
40
2.5
0
CIRCLE
8
BLACK
10
162.78
20
-217.675
40
0.875
0
CIRCLE
8
BLACK
10
171.52
20
-217.675
40
0.875
0
CIRCLE
8
BLACK
10
176.6
20
-217.675
40
2.5
0
CIRCLE
8
BLACK
10
181.68
20
-217.675
40
0.875
0
CIRCLE
8
BLACK
10
190.42
20
-217.675
40
0.875
0
CIRCLE
8
BLACK
10
195.5
20
-217.675
40
2.5
0
CIRCLE
8
BLACK
10
200.58
20
-217.675
40
0.875
0
CIRCLE
8
BLACK
10
266.02
20
-179.875
40
0.875
0
CIRCLE
8
BLACK
10
271.1
20
-179.875
40
2.5
0
CIRCLE
8
BLACK
10
276.18
20
-179.875
40
0.875
0
CIRCLE
8
BLACK
10
284.92
20
-179.875
40
0.875
0
CIRCLE
8
BLACK
10
290
20
-179.875
40
2.5
0
CIRCLE
8
BLACK
10
295.08
20
-179.875
40
0.875
0
CIRCLE
8
BLACK
10
303.82
20
-179.875
40
0.875
0
CIRCLE
8
BLACK
10
308.9
20
-179.875
40
2.5
0
CIRCLE
8
BLACK
10
313.98
20
-179.875
40
0.875
0
CIRCLE
8
BLACK
10
39.48
20
-236.575
40
0.875
0
CIRCLE
8
BLACK
10
110.095
20
-236.575
40
0.875
0
CIRCLE
8
BLACK
10
115.175
20
-236.575
40
2.5
0
CIRCLE
8
BLACK
10
120.255
20
-236.575
40
0.875
0
CIRCLE
8
BLACK
10
-4.9575
20
-198.775
40
0.875
0
CIRCLE
8
BLACK
10
-10.0375
20
-198.775
40
2.5
0
CIRCLE
8
BLACK
10
-15.1175
20
-198.775
40
0.875
0
CIRCLE
8
BLACK
10
271.1
20
-236.575
40
2.5
0
CIRCLE
8
BLACK
10
266.02
20
-236.575
40
0.875
0
CIRCLE
8
BLACK
10
29.32
20
-236.575
40
0.875
0
CIRCLE
8
BLACK
10
224.205
20
-179.875
40
0.875
0
CIRCLE
8
BLACK
10
271.1
20
-198.775
40
2.5
0
CIRCLE
8
BLACK
10
266.02
20
-198.775
40
0.875
0
CIRCLE
8
BLACK
10
219.125
20
-179.875
40
2.5
0
CIRCLE
8
BLACK
10
214.045
20
-179.875
40
0.875
0
CIRCLE
8
BLACK
10
303.82
20
-236.575
40
0.875
0
CIRCLE
8
BLACK
10
308.9
20
-236.575
40
2.5
0
CIRCLE
8
BLACK
10
313.98
20
-236.575
40
0.875
0
CIRCLE
8
BLACK
10
34.4
20
-236.575
40
2.5
0
CIRCLE
8
BLACK
10
295.08
20
-236.575
40
0.875
0
CIRCLE
8
BLACK
10
290
20
-236.575
40
2.5
0
CIRCLE
8
BLACK
10
284.92
20
-236.575
40
0.875
0
CIRCLE
8
BLACK
10
276.18
20
-236.575
40
0.875
0
CIRCLE
8
BLACK
10
67.57
20
-198.775
40
0.875
0
CIRCLE
8
BLACK
10
72.65
20
-198.775
40
2.5
0
CIRCLE
8
BLACK
10
77.73
20
-198.775
40
0.875
0
CIRCLE
8
BLACK
10
81.745
20
-179.875
40
0.875
0
CIRCLE
8
BLACK
10
86.825
20
-179.875
40
2.5
0
CIRCLE
8
BLACK
10
91.905
20
-179.875
40
0.875
0
CIRCLE
8
BLACK
10
86.47
20
-198.775
40
0.875
0
CIRCLE
8
BLACK
10
91.55
20
-198.775
40
2.5
0
CIRCLE
8
BLACK
10
119.545
20
-179.875
40
0.875
0
CIRCLE
8
BLACK
10
115.53
20
-198.775
40
0.875
0
CIRCLE
8
BLACK
10
110.45
20
-198.775
40
2.5
0
CIRCLE
8
BLACK
10
105.37
20
-198.775
40
0.875
0
CIRCLE
8
BLACK
10
110.805
20
-179.875
40
0.875
0
CIRCLE
8
BLACK
10
105.725
20
-179.875
40
2.5
0
CIRCLE
8
BLACK
10
100.645
20
-179.875
40
0.875
0
CIRCLE
8
BLACK
10
96.63
20
-198.775
40
0.875
0
CIRCLE
8
BLACK
10
167.15
20
-198.775
40
2.5
0
CIRCLE
8
BLACK
10
162.07
20
-198.775
40
0.875
0
CIRCLE
8
BLACK
10
167.505
20
-179.875
40
0.875
0
CIRCLE
8
BLACK
10
162.425
20
-179.875
40
2.5
0
CIRCLE
8
BLACK
10
157.345
20
-179.875
40
0.875
0
CIRCLE
8
BLACK
10
153.33
20
-198.775
40
0.875
0
CIRCLE
8
BLACK
10
148.25
20
-198.775
40
2.5
0
CIRCLE
8
BLACK
10
143.17
20
-198.775
40
0.875
0
CIRCLE
8
BLACK
10
148.605
20
-179.875
40
0.875
0
CIRCLE
8
BLACK
10
143.525
20
-179.875
40
2.5
0
CIRCLE
8
BLACK
10
138.445
20
-179.875
40
0.875
0
CIRCLE
8
BLACK
10
134.43
20
-198.775
40
0.875
0
CIRCLE
8
BLACK
10
129.35
20
-198.775
40
2.5
0
CIRCLE
8
BLACK
10
124.27
20
-198.775
40
0.875
0
CIRCLE
8
BLACK
10
129.705
20
-179.875
40
0.875
0
CIRCLE
8
BLACK
10
124.625
20
-179.875
40
2.5
0
CIRCLE
8
BLACK
10
200.225
20
-179.875
40
2.5
0
CIRCLE
8
BLACK
10
205.305
20
-179.875
40
0.875
0
CIRCLE
8
BLACK
10
199.87
20
-198.775
40
0.875
0
CIRCLE
8
BLACK
10
204.95
20
-198.775
40
2.5
0
CIRCLE
8
BLACK
10
-7.32
20
-179.875
40
0.875
0
CIRCLE
8
BLACK
10
-12.4
20
-179.875
40
2.5
0
CIRCLE
8
BLACK
10
-17.48
20
-179.875
40
0.875
0
CIRCLE
8
BLACK
10
210.03
20
-198.775
40
0.875
0
CIRCLE
8
BLACK
10
172.23
20
-198.775
40
0.875
0
CIRCLE
8
BLACK
10
176.245
20
-179.875
40
0.875
0
CIRCLE
8
BLACK
10
181.325
20
-179.875
40
2.5
0
CIRCLE
8
BLACK
10
186.405
20
-179.875
40
0.875
0
CIRCLE
8
BLACK
10
180.97
20
-198.775
40
0.875
0
CIRCLE
8
BLACK
10
186.05
20
-198.775
40
2.5
0
CIRCLE
8
BLACK
10
191.13
20
-198.775
40
0.875
0
CIRCLE
8
BLACK
10
195.145
20
-179.875
40
0.875
0
CIRCLE
8
BLACK
10
58.12
20
-217.675
40
0.875
0
CIRCLE
8
BLACK
10
49.38
20
-217.675
40
0.875
0
CIRCLE
8
BLACK
10
44.3
20
-217.675
40
2.5
0
CIRCLE
8
BLACK
10
39.22
20
-217.675
40
0.875
0
CIRCLE
8
BLACK
10
247.83
20
-236.575
40
0.875
0
CIRCLE
8
BLACK
10
242.75
20
-236.575
40
2.5
0
CIRCLE
8
BLACK
10
237.67
20
-236.575
40
0.875
0
CIRCLE
8
BLACK
10
201.03
20
-236.575
40
0.875
0
CIRCLE
8
BLACK
10
-9.21125
20
-217.675
40
0.875
0
CIRCLE
8
BLACK
10
-7.32
20
-236.575
40
0.875
0
CIRCLE
8
BLACK
10
-12.4
20
-236.575
40
2.5
0
CIRCLE
8
BLACK
10
-17.48
20
-236.575
40
0.875
0
CIRCLE
8
BLACK
10
-4.13125
20
-217.675
40
2.5
0
CIRCLE
8
BLACK
10
0.94875
20
-217.675
40
0.875
0
CIRCLE
8
BLACK
10
190.87
20
-236.575
40
0.875
0
CIRCLE
8
BLACK
10
195.95
20
-236.575
40
2.5
0
ARC
8
BLACK
10
226.125
20
-186.875
40
0.5
50
-90
51
-0
0
LINE
8
BLACK
6
CONTINUOUS
10
226.125
20
-187.375
11
212.95
21
-187.375
0
ARC
8
BLACK
10
212.95
20
-187.875
40
0.5
50
90
51
180
0
LINE
8
BLACK
6
CONTINUOUS
10
212.45
20
-187.875
11
212.45
21
-207.575
0
ARC
8
BLACK
10
211.95
20
-207.575
40
0.5
50
-90
51
-0
0
LINE
8
BLACK
6
CONTINUOUS
10
211.95
20
-208.075
11
203.5
21
-208.075
0
ARC
8
BLACK
10
203.5
20
-208.575
40
0.5
50
90
51
180
0
LINE
8
BLACK
6
CONTINUOUS
10
203
20
-208.575
11
203
21
-228.575
0
ARC
8
BLACK
10
203.5
20
-228.575
40
0.5
50
-180
51
-90
0
LINE
8
BLACK
6
CONTINUOUS
10
203.5
20
-229.075
11
210.375
21
-229.075
0
ARC
8
BLACK
10
210.375
20
-229.575
40
0.5
50
-0
51
90
0
LINE
8
BLACK
6
CONTINUOUS
10
210.875
20
-229.575
11
210.875
21
-232.375
0
ARC
8
BLACK
10
211.375
20
-232.375
40
0.5
50
-180
51
-90
0
LINE
8
BLACK
6
CONTINUOUS
10
211.375
20
-232.875
11
211.85
21
-232.875
0
ARC
8
BLACK
10
211.85
20
-232.375
40
0.5
50
-90
51
-0
0
LINE
8
BLACK
6
CONTINUOUS
10
212.35
20
-232.375
11
212.35
21
-230.075
0
ARC
8
BLACK
10
212.85
20
-230.075
40
0.5
50
90
51
180
0
LINE
8
BLACK
6
CONTINUOUS
10
225.85
20
-229.575
11
212.85
21
-229.575
0
ARC
8
BLACK
10
225.85
20
-230.075
40
0.5
50
-0
51
90
0
LINE
8
BLACK
6
CONTINUOUS
10
226.35
20
-232.375
11
226.35
21
-230.075
0
ARC
8
BLACK
10
226.85
20
-232.375
40
0.5
50
-180
51
-90
0
LINE
8
BLACK
6
CONTINUOUS
10
227.325
20
-232.875
11
226.85
21
-232.875
0
ARC
8
BLACK
10
227.325
20
-232.375
40
0.5
50
-90
51
-0
0
LINE
8
BLACK
6
CONTINUOUS
10
227.825
20
-230.075
11
227.825
21
-232.375
0
ARC
8
BLACK
10
228.325
20
-230.075
40
0.5
50
90
51
180
0
LINE
8
BLACK
6
CONTINUOUS
10
228.325
20
-229.575
11
246.375
21
-229.575
0
ARC
8
BLACK
10
246.375
20
-229.075
40
0.5
50
-90
51
-0
0
LINE
8
BLACK
6
CONTINUOUS
10
246.875
20
-229.075
11
246.875
21
-225.675
0
ARC
8
BLACK
10
247.375
20
-225.675
40
0.5
50
90
51
180
0
LINE
8
BLACK
6
CONTINUOUS
10
247.375
20
-225.175
11
254.475
21
-225.175
0
ARC
8
BLACK
10
254.475
20
-224.675
40
0.5
50
-90
51
-0
0
LINE
8
BLACK
6
CONTINUOUS
10
254.975
20
-224.675
11
254.975
21
-151.875
0
ARC
8
BLACK
10
254.475
20
-151.875
40
0.5
50
-0
51
90
0
LINE
8
BLACK
6
CONTINUOUS
10
246.463
20
-151.375
11
254.475
21
-151.375
0
ARC
8
BLACK
10
246.463
20
-151.875
40
0.5
50
90
51
180
0
LINE
8
BLACK
6
CONTINUOUS
10
245.963
20
-152.975
11
245.963
21
-151.875
0
ARC
8
BLACK
10
245.463
20
-152.975
40
0.5
50
-90
51
-0
0
LINE
8
BLACK
6
CONTINUOUS
10
230.587
20
-153.475
11
245.463
21
-153.475
0
ARC
8
BLACK
10
230.587
20
-152.975
40
0.5
50
-180
51
-90
0
LINE
8
BLACK
6
CONTINUOUS
10
230.087
20
-151.875
11
230.087
21
-152.975
0
ARC
8
BLACK
10
229.587
20
-151.875
40
0.5
50
-0
51
90
0
LINE
8
BLACK
6
CONTINUOUS
10
221.575
20
-151.375
11
229.587
21
-151.375
0
ARC
8
BLACK
10
221.575
20
-151.875
40
0.5
50
90
51
180
0
LINE
8
BLACK
6
CONTINUOUS
10
221.075
20
-151.875
11
221.075
21
-171.875
0
ARC
8
BLACK
10
221.575
20
-171.875
40
0.5
50
-180
51
-90
0
LINE
8
BLACK
6
CONTINUOUS
10
221.575
20
-172.375
11
226.125
21
-172.375
0
ARC
8
BLACK
10
226.125
20
-172.875
40
0.5
50
-0
51
90
0
LINE
8
BLACK
6
CONTINUOUS
10
226.625
20
-172.875
11
226.625
21
-186.875
  0
ENDSEC
  0
EOF
