  0
SECTION
  2
HEADER
  9
$ANGBASE
  50
0.0
  9
$ANGDIR
  70
1
  9
$MEASUREMENT
  70
1
  0
ENDSEC
  0
SECTION
  2
TABLES
  0
TABLE
  2
LTYPE
  70
4
  0
LTYPE
  5
40F
  2
CONTINUOUS
  70
0
  3
Solid line
  72
65
  73
0
  40
0.0
  0
LTYPE
  5
410
  2
DASHDOT
 70
0
  3
Dash Dot ____ _ ____ _
 72
65
 73
4
 40
2.0
 49
1.25
 49
-0.25
 49
0.25
 49
-0.25
  0
LTYPE
  5
411
  2
DASHED
 70
0
  3
Dashed __ __ __ __ __
 72
65
 73
2
 40
0.75
 49
0.5
 49
-0.25
  0
LTYPE
  5
43B
  2
DOTTED
 70
0
  3
Dotted .  .  .  .
 72
65
 73
2
 40
0.2
 49
0.0
 49
-0.2
  0
ENDTAB
  0
TABLE
  2
STYLE
  70
4
  0
STYLE
  2
KICAD
  70
0
  40
0
  41
1
  42
1
  50
0
  71
0
  3
isocp.shx
  0
STYLE
  2
KICADB
  70
0
  40
0
  41
1
  42
1
  50
0
  71
0
  3
isocp.shx
  0
STYLE
  2
KICADI
  70
0
  40
0
  41
1
  42
1
  50
15
  71
0
  3
isocp.shx
  0
STYLE
  2
KICADBI
  70
0
  40
0
  41
1
  42
1
  50
15
  71
0
  3
isocp.shx
  0
ENDTAB
  0
TABLE
  2
LAYER
  70
1
  0
LAYER
  2
BLACK
  70
0
  62
7
  6
CONTINUOUS
  0
ENDTAB
  0
ENDSEC
  0
SECTION
  2
ENTITIES
0
CIRCLE
8
BLACK
10
-16.5375
20
4.175
40
0.8
0
CIRCLE
8
BLACK
10
224.438
20
4.175
40
0.8
0
CIRCLE
8
BLACK
10
63.7875
20
4.175
40
0.8
0
ARC
8
BLACK
10
40.5
20
-88.6
40
0.500001
50
90.0001
51
180
0
LINE
8
BLACK
6
CONTINUOUS
10
40
20
-88.6
11
40
21
-101.5
0
ARC
8
BLACK
10
40.5
20
-101.5
40
0.500001
50
-180
51
-90.0001
0
LINE
8
BLACK
6
CONTINUOUS
10
53.1
20
-102
11
40.5
21
-102
0
ARC
8
BLACK
10
53.1
20
-101.5
40
0.500001
50
-89.9999
51
-0.000114591
0
LINE
8
BLACK
6
CONTINUOUS
10
53.6
20
-88.6
11
53.6
21
-101.5
0
ARC
8
BLACK
10
53.1
20
-88.6
40
0.500001
50
0.000114591
51
89.9999
0
LINE
8
BLACK
6
CONTINUOUS
10
53.1
20
-88.1
11
40.5
21
-88.1
0
ARC
8
BLACK
10
154.8
20
-88.6
40
0.5
50
90
51
180
0
LINE
8
BLACK
6
CONTINUOUS
10
154.3
20
-88.6
11
154.3
21
-101.5
0
ARC
8
BLACK
10
154.8
20
-101.5
40
0.5
50
-180
51
-90
0
LINE
8
BLACK
6
CONTINUOUS
10
154.8
20
-102
11
167.4
21
-102
0
ARC
8
BLACK
10
167.4
20
-101.5
40
0.5
50
-90
51
-0
0
LINE
8
BLACK
6
CONTINUOUS
10
167.9
20
-88.6
11
167.9
21
-101.5
0
ARC
8
BLACK
10
167.4
20
-88.6
40
0.5
50
-0
51
90
0
LINE
8
BLACK
6
CONTINUOUS
10
154.8
20
-88.1
11
167.4
21
-88.1
0
LINE
8
BLACK
6
CONTINUOUS
10
214.695
20
-100.35
11
213.695
21
-101.35
0
LINE
8
BLACK
6
CONTINUOUS
10
214.695
20
-100.35
11
214.695
21
-89.75
0
LINE
8
BLACK
6
CONTINUOUS
10
213.695
20
-88.75
11
214.695
21
-89.75
0
LINE
8
BLACK
6
CONTINUOUS
10
213.695
20
-88.75
11
202.555
21
-88.75
0
LINE
8
BLACK
6
CONTINUOUS
10
201.555
20
-89.75
11
202.555
21
-88.75
0
LINE
8
BLACK
6
CONTINUOUS
10
201.555
20
-89.75
11
201.555
21
-100.35
0
LINE
8
BLACK
6
CONTINUOUS
10
202.555
20
-101.35
11
201.555
21
-100.35
0
LINE
8
BLACK
6
CONTINUOUS
10
202.555
20
-101.35
11
213.695
21
-101.35
0
LINE
8
BLACK
6
CONTINUOUS
10
6.345
20
-100.35
11
5.345
21
-101.35
0
LINE
8
BLACK
6
CONTINUOUS
10
6.345
20
-100.35
11
6.345
21
-89.75
0
LINE
8
BLACK
6
CONTINUOUS
10
5.345
20
-88.75
11
6.345
21
-89.75
0
LINE
8
BLACK
6
CONTINUOUS
10
5.345
20
-88.75
11
-5.795
21
-88.75
0
LINE
8
BLACK
6
CONTINUOUS
10
-6.795
20
-89.75
11
-5.795
21
-88.75
0
LINE
8
BLACK
6
CONTINUOUS
10
-6.795
20
-89.75
11
-6.795
21
-100.35
0
LINE
8
BLACK
6
CONTINUOUS
10
-5.795
20
-101.35
11
-6.795
21
-100.35
0
LINE
8
BLACK
6
CONTINUOUS
10
-5.795
20
-101.35
11
5.345
21
-101.35
0
LINE
8
BLACK
6
CONTINUOUS
10
111.25
20
-101.05
11
110.25
21
-102.05
0
LINE
8
BLACK
6
CONTINUOUS
10
111.25
20
-101.05
11
111.25
21
-89.05
0
LINE
8
BLACK
6
CONTINUOUS
10
110.25
20
-88.05
11
111.25
21
-89.05
0
LINE
8
BLACK
6
CONTINUOUS
10
110.25
20
-88.05
11
97.65
21
-88.05
0
LINE
8
BLACK
6
CONTINUOUS
10
96.65
20
-89.05
11
97.65
21
-88.05
0
LINE
8
BLACK
6
CONTINUOUS
10
96.65
20
-89.05
11
96.65
21
-101.05
0
LINE
8
BLACK
6
CONTINUOUS
10
97.65
20
-102.05
11
96.65
21
-101.05
0
LINE
8
BLACK
6
CONTINUOUS
10
97.65
20
-102.05
11
110.25
21
-102.05
0
LINE
8
BLACK
6
CONTINUOUS
10
44.675
20
-70.15
11
45.675
21
-69.15
0
LINE
8
BLACK
6
CONTINUOUS
10
44.675
20
-70.15
11
44.675
21
-82.15
0
LINE
8
BLACK
6
CONTINUOUS
10
45.675
20
-83.15
11
44.675
21
-82.15
0
LINE
8
BLACK
6
CONTINUOUS
10
45.675
20
-83.15
11
58.275
21
-83.15
0
LINE
8
BLACK
6
CONTINUOUS
10
59.275
20
-82.15
11
58.275
21
-83.15
0
LINE
8
BLACK
6
CONTINUOUS
10
59.275
20
-82.15
11
59.275
21
-70.15
0
LINE
8
BLACK
6
CONTINUOUS
10
58.275
20
-69.15
11
59.275
21
-70.15
0
LINE
8
BLACK
6
CONTINUOUS
10
58.275
20
-69.15
11
45.675
21
-69.15
0
LINE
8
BLACK
6
CONTINUOUS
10
49.825
20
-63.25
11
48.825
21
-64.25
0
LINE
8
BLACK
6
CONTINUOUS
10
49.825
20
-63.25
11
49.825
21
-51.25
0
LINE
8
BLACK
6
CONTINUOUS
10
48.825
20
-50.25
11
49.825
21
-51.25
0
LINE
8
BLACK
6
CONTINUOUS
10
48.825
20
-50.25
11
36.225
21
-50.25
0
LINE
8
BLACK
6
CONTINUOUS
10
35.225
20
-51.25
11
36.225
21
-50.25
0
LINE
8
BLACK
6
CONTINUOUS
10
35.225
20
-51.25
11
35.225
21
-63.25
0
LINE
8
BLACK
6
CONTINUOUS
10
36.225
20
-64.25
11
35.225
21
-63.25
0
LINE
8
BLACK
6
CONTINUOUS
10
36.225
20
-64.25
11
48.825
21
-64.25
0
LINE
8
BLACK
6
CONTINUOUS
10
45.1
20
-44.35
11
44.1
21
-45.35
0
LINE
8
BLACK
6
CONTINUOUS
10
45.1
20
-44.35
11
45.1
21
-32.35
0
LINE
8
BLACK
6
CONTINUOUS
10
44.1
20
-31.35
11
45.1
21
-32.35
0
LINE
8
BLACK
6
CONTINUOUS
10
44.1
20
-31.35
11
31.5
21
-31.35
0
LINE
8
BLACK
6
CONTINUOUS
10
30.5
20
-32.35
11
31.5
21
-31.35
0
LINE
8
BLACK
6
CONTINUOUS
10
30.5
20
-32.35
11
30.5
21
-44.35
0
LINE
8
BLACK
6
CONTINUOUS
10
31.5
20
-45.35
11
30.5
21
-44.35
0
LINE
8
BLACK
6
CONTINUOUS
10
31.5
20
-45.35
11
44.1
21
-45.35
0
LINE
8
BLACK
6
CONTINUOUS
10
25.775
20
-70.15
11
26.775
21
-69.15
0
LINE
8
BLACK
6
CONTINUOUS
10
25.775
20
-70.15
11
25.775
21
-82.15
0
LINE
8
BLACK
6
CONTINUOUS
10
26.775
20
-83.15
11
25.775
21
-82.15
0
LINE
8
BLACK
6
CONTINUOUS
10
26.775
20
-83.15
11
39.375
21
-83.15
0
LINE
8
BLACK
6
CONTINUOUS
10
40.375
20
-82.15
11
39.375
21
-83.15
0
LINE
8
BLACK
6
CONTINUOUS
10
40.375
20
-82.15
11
40.375
21
-70.15
0
LINE
8
BLACK
6
CONTINUOUS
10
39.375
20
-69.15
11
40.375
21
-70.15
0
LINE
8
BLACK
6
CONTINUOUS
10
39.375
20
-69.15
11
26.775
21
-69.15
0
LINE
8
BLACK
6
CONTINUOUS
10
82.9
20
-44.35
11
81.9
21
-45.35
0
LINE
8
BLACK
6
CONTINUOUS
10
82.9
20
-44.35
11
82.9
21
-32.35
0
LINE
8
BLACK
6
CONTINUOUS
10
81.9
20
-31.35
11
82.9
21
-32.35
0
LINE
8
BLACK
6
CONTINUOUS
10
81.9
20
-31.35
11
69.3
21
-31.35
0
LINE
8
BLACK
6
CONTINUOUS
10
68.3
20
-32.35
11
69.3
21
-31.35
0
LINE
8
BLACK
6
CONTINUOUS
10
68.3
20
-32.35
11
68.3
21
-44.35
0
LINE
8
BLACK
6
CONTINUOUS
10
69.3
20
-45.35
11
68.3
21
-44.35
0
LINE
8
BLACK
6
CONTINUOUS
10
69.3
20
-45.35
11
81.9
21
-45.35
0
LINE
8
BLACK
6
CONTINUOUS
10
63.575
20
-70.15
11
64.575
21
-69.15
0
LINE
8
BLACK
6
CONTINUOUS
10
63.575
20
-70.15
11
63.575
21
-82.15
0
LINE
8
BLACK
6
CONTINUOUS
10
64.575
20
-83.15
11
63.575
21
-82.15
0
LINE
8
BLACK
6
CONTINUOUS
10
64.575
20
-83.15
11
77.175
21
-83.15
0
LINE
8
BLACK
6
CONTINUOUS
10
78.175
20
-82.15
11
77.175
21
-83.15
0
LINE
8
BLACK
6
CONTINUOUS
10
78.175
20
-82.15
11
78.175
21
-70.15
0
LINE
8
BLACK
6
CONTINUOUS
10
77.175
20
-69.15
11
78.175
21
-70.15
0
LINE
8
BLACK
6
CONTINUOUS
10
77.175
20
-69.15
11
64.575
21
-69.15
0
LINE
8
BLACK
6
CONTINUOUS
10
68.725
20
-63.25
11
67.725
21
-64.25
0
LINE
8
BLACK
6
CONTINUOUS
10
68.725
20
-63.25
11
68.725
21
-51.25
0
LINE
8
BLACK
6
CONTINUOUS
10
67.725
20
-50.25
11
68.725
21
-51.25
0
LINE
8
BLACK
6
CONTINUOUS
10
67.725
20
-50.25
11
55.125
21
-50.25
0
LINE
8
BLACK
6
CONTINUOUS
10
54.125
20
-51.25
11
55.125
21
-50.25
0
LINE
8
BLACK
6
CONTINUOUS
10
54.125
20
-51.25
11
54.125
21
-63.25
0
LINE
8
BLACK
6
CONTINUOUS
10
55.125
20
-64.25
11
54.125
21
-63.25
0
LINE
8
BLACK
6
CONTINUOUS
10
55.125
20
-64.25
11
67.725
21
-64.25
0
LINE
8
BLACK
6
CONTINUOUS
10
64
20
-44.35
11
63
21
-45.35
0
LINE
8
BLACK
6
CONTINUOUS
10
64
20
-44.35
11
64
21
-32.35
0
LINE
8
BLACK
6
CONTINUOUS
10
63
20
-31.35
11
64
21
-32.35
0
LINE
8
BLACK
6
CONTINUOUS
10
63
20
-31.35
11
50.4
21
-31.35
0
LINE
8
BLACK
6
CONTINUOUS
10
49.4
20
-32.35
11
50.4
21
-31.35
0
LINE
8
BLACK
6
CONTINUOUS
10
49.4
20
-32.35
11
49.4
21
-44.35
0
LINE
8
BLACK
6
CONTINUOUS
10
50.4
20
-45.35
11
49.4
21
-44.35
0
LINE
8
BLACK
6
CONTINUOUS
10
50.4
20
-45.35
11
63
21
-45.35
0
LINE
8
BLACK
6
CONTINUOUS
10
173.25
20
-26.45
11
172.25
21
-25.45
0
LINE
8
BLACK
6
CONTINUOUS
10
173.25
20
-26.45
11
185.85
21
-26.45
0
LINE
8
BLACK
6
CONTINUOUS
10
186.85
20
-25.45
11
185.85
21
-26.45
0
LINE
8
BLACK
6
CONTINUOUS
10
186.85
20
-25.45
11
186.85
21
-13.45
0
LINE
8
BLACK
6
CONTINUOUS
10
185.85
20
-12.45
11
186.85
21
-13.45
0
LINE
8
BLACK
6
CONTINUOUS
10
185.85
20
-12.45
11
173.25
21
-12.45
0
LINE
8
BLACK
6
CONTINUOUS
10
172.25
20
-13.45
11
173.25
21
-12.45
0
LINE
8
BLACK
6
CONTINUOUS
10
172.25
20
-13.45
11
172.25
21
-25.45
0
LINE
8
BLACK
6
CONTINUOUS
10
192.15
20
-26.45
11
191.15
21
-25.45
0
LINE
8
BLACK
6
CONTINUOUS
10
192.15
20
-26.45
11
204.75
21
-26.45
0
LINE
8
BLACK
6
CONTINUOUS
10
205.75
20
-25.45
11
204.75
21
-26.45
0
LINE
8
BLACK
6
CONTINUOUS
10
205.75
20
-25.45
11
205.75
21
-13.45
0
LINE
8
BLACK
6
CONTINUOUS
10
204.75
20
-12.45
11
205.75
21
-13.45
0
LINE
8
BLACK
6
CONTINUOUS
10
204.75
20
-12.45
11
192.15
21
-12.45
0
LINE
8
BLACK
6
CONTINUOUS
10
191.15
20
-13.45
11
192.15
21
-12.45
0
LINE
8
BLACK
6
CONTINUOUS
10
191.15
20
-13.45
11
191.15
21
-25.45
0
LINE
8
BLACK
6
CONTINUOUS
10
12.025
20
-63.25
11
11.025
21
-64.25
0
LINE
8
BLACK
6
CONTINUOUS
10
12.025
20
-63.25
11
12.025
21
-51.25
0
LINE
8
BLACK
6
CONTINUOUS
10
11.025
20
-50.25
11
12.025
21
-51.25
0
LINE
8
BLACK
6
CONTINUOUS
10
11.025
20
-50.25
11
-1.575
21
-50.25
0
LINE
8
BLACK
6
CONTINUOUS
10
-2.575
20
-51.25
11
-1.575
21
-50.25
0
LINE
8
BLACK
6
CONTINUOUS
10
-2.575
20
-51.25
11
-2.575
21
-63.25
0
LINE
8
BLACK
6
CONTINUOUS
10
-1.575
20
-64.25
11
-2.575
21
-63.25
0
LINE
8
BLACK
6
CONTINUOUS
10
-1.575
20
-64.25
11
11.025
21
-64.25
0
LINE
8
BLACK
6
CONTINUOUS
10
15.875
20
-89.05
11
16.875
21
-88.05
0
LINE
8
BLACK
6
CONTINUOUS
10
15.875
20
-89.05
11
15.875
21
-101.05
0
LINE
8
BLACK
6
CONTINUOUS
10
16.875
20
-102.05
11
15.875
21
-101.05
0
LINE
8
BLACK
6
CONTINUOUS
10
16.875
20
-102.05
11
29.475
21
-102.05
0
LINE
8
BLACK
6
CONTINUOUS
10
30.475
20
-101.05
11
29.475
21
-102.05
0
LINE
8
BLACK
6
CONTINUOUS
10
30.475
20
-101.05
11
30.475
21
-89.05
0
LINE
8
BLACK
6
CONTINUOUS
10
29.475
20
-88.05
11
30.475
21
-89.05
0
LINE
8
BLACK
6
CONTINUOUS
10
29.475
20
-88.05
11
16.875
21
-88.05
0
LINE
8
BLACK
6
CONTINUOUS
10
30.925
20
-63.25
11
29.925
21
-64.25
0
LINE
8
BLACK
6
CONTINUOUS
10
30.925
20
-63.25
11
30.925
21
-51.25
0
LINE
8
BLACK
6
CONTINUOUS
10
29.925
20
-50.25
11
30.925
21
-51.25
0
LINE
8
BLACK
6
CONTINUOUS
10
29.925
20
-50.25
11
17.325
21
-50.25
0
LINE
8
BLACK
6
CONTINUOUS
10
16.325
20
-51.25
11
17.325
21
-50.25
0
LINE
8
BLACK
6
CONTINUOUS
10
16.325
20
-51.25
11
16.325
21
-63.25
0
LINE
8
BLACK
6
CONTINUOUS
10
17.325
20
-64.25
11
16.325
21
-63.25
0
LINE
8
BLACK
6
CONTINUOUS
10
17.325
20
-64.25
11
29.925
21
-64.25
0
LINE
8
BLACK
6
CONTINUOUS
10
196.3
20
-44.35
11
195.3
21
-45.35
0
LINE
8
BLACK
6
CONTINUOUS
10
196.3
20
-44.35
11
196.3
21
-32.35
0
LINE
8
BLACK
6
CONTINUOUS
10
195.3
20
-31.35
11
196.3
21
-32.35
0
LINE
8
BLACK
6
CONTINUOUS
10
195.3
20
-31.35
11
182.7
21
-31.35
0
LINE
8
BLACK
6
CONTINUOUS
10
181.7
20
-32.35
11
182.7
21
-31.35
0
LINE
8
BLACK
6
CONTINUOUS
10
181.7
20
-32.35
11
181.7
21
-44.35
0
LINE
8
BLACK
6
CONTINUOUS
10
182.7
20
-45.35
11
181.7
21
-44.35
0
LINE
8
BLACK
6
CONTINUOUS
10
182.7
20
-45.35
11
195.3
21
-45.35
0
LINE
8
BLACK
6
CONTINUOUS
10
26.2
20
-44.35
11
25.2
21
-45.35
0
LINE
8
BLACK
6
CONTINUOUS
10
26.2
20
-44.35
11
26.2
21
-32.35
0
LINE
8
BLACK
6
CONTINUOUS
10
25.2
20
-31.35
11
26.2
21
-32.35
0
LINE
8
BLACK
6
CONTINUOUS
10
25.2
20
-31.35
11
12.6
21
-31.35
0
LINE
8
BLACK
6
CONTINUOUS
10
11.6
20
-32.35
11
12.6
21
-31.35
0
LINE
8
BLACK
6
CONTINUOUS
10
11.6
20
-32.35
11
11.6
21
-44.35
0
LINE
8
BLACK
6
CONTINUOUS
10
12.6
20
-45.35
11
11.6
21
-44.35
0
LINE
8
BLACK
6
CONTINUOUS
10
12.6
20
-45.35
11
25.2
21
-45.35
0
LINE
8
BLACK
6
CONTINUOUS
10
6.875
20
-70.15
11
7.875
21
-69.15
0
LINE
8
BLACK
6
CONTINUOUS
10
6.875
20
-70.15
11
6.875
21
-82.15
0
LINE
8
BLACK
6
CONTINUOUS
10
7.875
20
-83.15
11
6.875
21
-82.15
0
LINE
8
BLACK
6
CONTINUOUS
10
7.875
20
-83.15
11
20.475
21
-83.15
0
LINE
8
BLACK
6
CONTINUOUS
10
21.475
20
-82.15
11
20.475
21
-83.15
0
LINE
8
BLACK
6
CONTINUOUS
10
21.475
20
-82.15
11
21.475
21
-70.15
0
LINE
8
BLACK
6
CONTINUOUS
10
20.475
20
-69.15
11
21.475
21
-70.15
0
LINE
8
BLACK
6
CONTINUOUS
10
20.475
20
-69.15
11
7.875
21
-69.15
0
LINE
8
BLACK
6
CONTINUOUS
10
158.5
20
-44.35
11
157.5
21
-45.35
0
LINE
8
BLACK
6
CONTINUOUS
10
158.5
20
-44.35
11
158.5
21
-32.35
0
LINE
8
BLACK
6
CONTINUOUS
10
157.5
20
-31.35
11
158.5
21
-32.35
0
LINE
8
BLACK
6
CONTINUOUS
10
157.5
20
-31.35
11
144.9
21
-31.35
0
LINE
8
BLACK
6
CONTINUOUS
10
143.9
20
-32.35
11
144.9
21
-31.35
0
LINE
8
BLACK
6
CONTINUOUS
10
143.9
20
-32.35
11
143.9
21
-44.35
0
LINE
8
BLACK
6
CONTINUOUS
10
144.9
20
-45.35
11
143.9
21
-44.35
0
LINE
8
BLACK
6
CONTINUOUS
10
144.9
20
-45.35
11
157.5
21
-45.35
0
LINE
8
BLACK
6
CONTINUOUS
10
139.175
20
-70.15
11
140.175
21
-69.15
0
LINE
8
BLACK
6
CONTINUOUS
10
139.175
20
-70.15
11
139.175
21
-82.15
0
LINE
8
BLACK
6
CONTINUOUS
10
140.175
20
-83.15
11
139.175
21
-82.15
0
LINE
8
BLACK
6
CONTINUOUS
10
140.175
20
-83.15
11
152.775
21
-83.15
0
LINE
8
BLACK
6
CONTINUOUS
10
153.775
20
-82.15
11
152.775
21
-83.15
0
LINE
8
BLACK
6
CONTINUOUS
10
153.775
20
-82.15
11
153.775
21
-70.15
0
LINE
8
BLACK
6
CONTINUOUS
10
152.775
20
-69.15
11
153.775
21
-70.15
0
LINE
8
BLACK
6
CONTINUOUS
10
152.775
20
-69.15
11
140.175
21
-69.15
0
LINE
8
BLACK
6
CONTINUOUS
10
144.325
20
-63.25
11
143.325
21
-64.25
0
LINE
8
BLACK
6
CONTINUOUS
10
144.325
20
-63.25
11
144.325
21
-51.25
0
LINE
8
BLACK
6
CONTINUOUS
10
143.325
20
-50.25
11
144.325
21
-51.25
0
LINE
8
BLACK
6
CONTINUOUS
10
143.325
20
-50.25
11
130.725
21
-50.25
0
LINE
8
BLACK
6
CONTINUOUS
10
129.725
20
-51.25
11
130.725
21
-50.25
0
LINE
8
BLACK
6
CONTINUOUS
10
129.725
20
-51.25
11
129.725
21
-63.25
0
LINE
8
BLACK
6
CONTINUOUS
10
130.725
20
-64.25
11
129.725
21
-63.25
0
LINE
8
BLACK
6
CONTINUOUS
10
130.725
20
-64.25
11
143.325
21
-64.25
0
LINE
8
BLACK
6
CONTINUOUS
10
139.6
20
-44.35
11
138.6
21
-45.35
0
LINE
8
BLACK
6
CONTINUOUS
10
139.6
20
-44.35
11
139.6
21
-32.35
0
LINE
8
BLACK
6
CONTINUOUS
10
138.6
20
-31.35
11
139.6
21
-32.35
0
LINE
8
BLACK
6
CONTINUOUS
10
138.6
20
-31.35
11
126
21
-31.35
0
LINE
8
BLACK
6
CONTINUOUS
10
125
20
-32.35
11
126
21
-31.35
0
LINE
8
BLACK
6
CONTINUOUS
10
125
20
-32.35
11
125
21
-44.35
0
LINE
8
BLACK
6
CONTINUOUS
10
126
20
-45.35
11
125
21
-44.35
0
LINE
8
BLACK
6
CONTINUOUS
10
126
20
-45.35
11
138.6
21
-45.35
0
LINE
8
BLACK
6
CONTINUOUS
10
182.125
20
-63.25
11
181.125
21
-64.25
0
LINE
8
BLACK
6
CONTINUOUS
10
182.125
20
-63.25
11
182.125
21
-51.25
0
LINE
8
BLACK
6
CONTINUOUS
10
181.125
20
-50.25
11
182.125
21
-51.25
0
LINE
8
BLACK
6
CONTINUOUS
10
181.125
20
-50.25
11
168.525
21
-50.25
0
LINE
8
BLACK
6
CONTINUOUS
10
167.525
20
-51.25
11
168.525
21
-50.25
0
LINE
8
BLACK
6
CONTINUOUS
10
167.525
20
-51.25
11
167.525
21
-63.25
0
LINE
8
BLACK
6
CONTINUOUS
10
168.525
20
-64.25
11
167.525
21
-63.25
0
LINE
8
BLACK
6
CONTINUOUS
10
168.525
20
-64.25
11
181.125
21
-64.25
0
LINE
8
BLACK
6
CONTINUOUS
10
177.4
20
-44.35
11
176.4
21
-45.35
0
LINE
8
BLACK
6
CONTINUOUS
10
177.4
20
-44.35
11
177.4
21
-32.35
0
LINE
8
BLACK
6
CONTINUOUS
10
176.4
20
-31.35
11
177.4
21
-32.35
0
LINE
8
BLACK
6
CONTINUOUS
10
176.4
20
-31.35
11
163.8
21
-31.35
0
LINE
8
BLACK
6
CONTINUOUS
10
162.8
20
-32.35
11
163.8
21
-31.35
0
LINE
8
BLACK
6
CONTINUOUS
10
162.8
20
-32.35
11
162.8
21
-44.35
0
LINE
8
BLACK
6
CONTINUOUS
10
163.8
20
-45.35
11
162.8
21
-44.35
0
LINE
8
BLACK
6
CONTINUOUS
10
163.8
20
-45.35
11
176.4
21
-45.35
0
LINE
8
BLACK
6
CONTINUOUS
10
158.075
20
-70.15
11
159.075
21
-69.15
0
LINE
8
BLACK
6
CONTINUOUS
10
158.075
20
-70.15
11
158.075
21
-82.15
0
LINE
8
BLACK
6
CONTINUOUS
10
159.075
20
-83.15
11
158.075
21
-82.15
0
LINE
8
BLACK
6
CONTINUOUS
10
159.075
20
-83.15
11
171.675
21
-83.15
0
LINE
8
BLACK
6
CONTINUOUS
10
172.675
20
-82.15
11
171.675
21
-83.15
0
LINE
8
BLACK
6
CONTINUOUS
10
172.675
20
-82.15
11
172.675
21
-70.15
0
LINE
8
BLACK
6
CONTINUOUS
10
171.675
20
-69.15
11
172.675
21
-70.15
0
LINE
8
BLACK
6
CONTINUOUS
10
171.675
20
-69.15
11
159.075
21
-69.15
0
LINE
8
BLACK
6
CONTINUOUS
10
163.225
20
-63.25
11
162.225
21
-64.25
0
LINE
8
BLACK
6
CONTINUOUS
10
163.225
20
-63.25
11
163.225
21
-51.25
0
LINE
8
BLACK
6
CONTINUOUS
10
162.225
20
-50.25
11
163.225
21
-51.25
0
LINE
8
BLACK
6
CONTINUOUS
10
162.225
20
-50.25
11
149.625
21
-50.25
0
LINE
8
BLACK
6
CONTINUOUS
10
148.625
20
-51.25
11
149.625
21
-50.25
0
LINE
8
BLACK
6
CONTINUOUS
10
148.625
20
-51.25
11
148.625
21
-63.25
0
LINE
8
BLACK
6
CONTINUOUS
10
149.625
20
-64.25
11
148.625
21
-63.25
0
LINE
8
BLACK
6
CONTINUOUS
10
149.625
20
-64.25
11
162.225
21
-64.25
0
LINE
8
BLACK
6
CONTINUOUS
10
106.525
20
-63.25
11
105.525
21
-64.25
0
LINE
8
BLACK
6
CONTINUOUS
10
106.525
20
-63.25
11
106.525
21
-51.25
0
LINE
8
BLACK
6
CONTINUOUS
10
105.525
20
-50.25
11
106.525
21
-51.25
0
LINE
8
BLACK
6
CONTINUOUS
10
105.525
20
-50.25
11
92.925
21
-50.25
0
LINE
8
BLACK
6
CONTINUOUS
10
91.925
20
-51.25
11
92.925
21
-50.25
0
LINE
8
BLACK
6
CONTINUOUS
10
91.925
20
-51.25
11
91.925
21
-63.25
0
LINE
8
BLACK
6
CONTINUOUS
10
92.925
20
-64.25
11
91.925
21
-63.25
0
LINE
8
BLACK
6
CONTINUOUS
10
92.925
20
-64.25
11
105.525
21
-64.25
0
LINE
8
BLACK
6
CONTINUOUS
10
101.8
20
-44.35
11
100.8
21
-45.35
0
LINE
8
BLACK
6
CONTINUOUS
10
101.8
20
-44.35
11
101.8
21
-32.35
0
LINE
8
BLACK
6
CONTINUOUS
10
100.8
20
-31.35
11
101.8
21
-32.35
0
LINE
8
BLACK
6
CONTINUOUS
10
100.8
20
-31.35
11
88.2
21
-31.35
0
LINE
8
BLACK
6
CONTINUOUS
10
87.2
20
-32.35
11
88.2
21
-31.35
0
LINE
8
BLACK
6
CONTINUOUS
10
87.2
20
-32.35
11
87.2
21
-44.35
0
LINE
8
BLACK
6
CONTINUOUS
10
88.2
20
-45.35
11
87.2
21
-44.35
0
LINE
8
BLACK
6
CONTINUOUS
10
88.2
20
-45.35
11
100.8
21
-45.35
0
LINE
8
BLACK
6
CONTINUOUS
10
82.475
20
-70.15
11
83.475
21
-69.15
0
LINE
8
BLACK
6
CONTINUOUS
10
82.475
20
-70.15
11
82.475
21
-82.15
0
LINE
8
BLACK
6
CONTINUOUS
10
83.475
20
-83.15
11
82.475
21
-82.15
0
LINE
8
BLACK
6
CONTINUOUS
10
83.475
20
-83.15
11
96.075
21
-83.15
0
LINE
8
BLACK
6
CONTINUOUS
10
97.075
20
-82.15
11
96.075
21
-83.15
0
LINE
8
BLACK
6
CONTINUOUS
10
97.075
20
-82.15
11
97.075
21
-70.15
0
LINE
8
BLACK
6
CONTINUOUS
10
96.075
20
-69.15
11
97.075
21
-70.15
0
LINE
8
BLACK
6
CONTINUOUS
10
96.075
20
-69.15
11
83.475
21
-69.15
0
LINE
8
BLACK
6
CONTINUOUS
10
87.625
20
-63.25
11
86.625
21
-64.25
0
LINE
8
BLACK
6
CONTINUOUS
10
87.625
20
-63.25
11
87.625
21
-51.25
0
LINE
8
BLACK
6
CONTINUOUS
10
86.625
20
-50.25
11
87.625
21
-51.25
0
LINE
8
BLACK
6
CONTINUOUS
10
86.625
20
-50.25
11
74.025
21
-50.25
0
LINE
8
BLACK
6
CONTINUOUS
10
73.025
20
-51.25
11
74.025
21
-50.25
0
LINE
8
BLACK
6
CONTINUOUS
10
73.025
20
-51.25
11
73.025
21
-63.25
0
LINE
8
BLACK
6
CONTINUOUS
10
74.025
20
-64.25
11
73.025
21
-63.25
0
LINE
8
BLACK
6
CONTINUOUS
10
74.025
20
-64.25
11
86.625
21
-64.25
0
LINE
8
BLACK
6
CONTINUOUS
10
120.275
20
-70.15
11
121.275
21
-69.15
0
LINE
8
BLACK
6
CONTINUOUS
10
120.275
20
-70.15
11
120.275
21
-82.15
0
LINE
8
BLACK
6
CONTINUOUS
10
121.275
20
-83.15
11
120.275
21
-82.15
0
LINE
8
BLACK
6
CONTINUOUS
10
121.275
20
-83.15
11
133.875
21
-83.15
0
LINE
8
BLACK
6
CONTINUOUS
10
134.875
20
-82.15
11
133.875
21
-83.15
0
LINE
8
BLACK
6
CONTINUOUS
10
134.875
20
-82.15
11
134.875
21
-70.15
0
LINE
8
BLACK
6
CONTINUOUS
10
133.875
20
-69.15
11
134.875
21
-70.15
0
LINE
8
BLACK
6
CONTINUOUS
10
133.875
20
-69.15
11
121.275
21
-69.15
0
LINE
8
BLACK
6
CONTINUOUS
10
125.425
20
-63.25
11
124.425
21
-64.25
0
LINE
8
BLACK
6
CONTINUOUS
10
125.425
20
-63.25
11
125.425
21
-51.25
0
LINE
8
BLACK
6
CONTINUOUS
10
124.425
20
-50.25
11
125.425
21
-51.25
0
LINE
8
BLACK
6
CONTINUOUS
10
124.425
20
-50.25
11
111.825
21
-50.25
0
LINE
8
BLACK
6
CONTINUOUS
10
110.825
20
-51.25
11
111.825
21
-50.25
0
LINE
8
BLACK
6
CONTINUOUS
10
110.825
20
-51.25
11
110.825
21
-63.25
0
LINE
8
BLACK
6
CONTINUOUS
10
111.825
20
-64.25
11
110.825
21
-63.25
0
LINE
8
BLACK
6
CONTINUOUS
10
111.825
20
-64.25
11
124.425
21
-64.25
0
LINE
8
BLACK
6
CONTINUOUS
10
120.7
20
-44.35
11
119.7
21
-45.35
0
LINE
8
BLACK
6
CONTINUOUS
10
120.7
20
-44.35
11
120.7
21
-32.35
0
LINE
8
BLACK
6
CONTINUOUS
10
119.7
20
-31.35
11
120.7
21
-32.35
0
LINE
8
BLACK
6
CONTINUOUS
10
119.7
20
-31.35
11
107.1
21
-31.35
0
LINE
8
BLACK
6
CONTINUOUS
10
106.1
20
-32.35
11
107.1
21
-31.35
0
LINE
8
BLACK
6
CONTINUOUS
10
106.1
20
-32.35
11
106.1
21
-44.35
0
LINE
8
BLACK
6
CONTINUOUS
10
107.1
20
-45.35
11
106.1
21
-44.35
0
LINE
8
BLACK
6
CONTINUOUS
10
107.1
20
-45.35
11
119.7
21
-45.35
0
LINE
8
BLACK
6
CONTINUOUS
10
101.375
20
-70.15
11
102.375
21
-69.15
0
LINE
8
BLACK
6
CONTINUOUS
10
101.375
20
-70.15
11
101.375
21
-82.15
0
LINE
8
BLACK
6
CONTINUOUS
10
102.375
20
-83.15
11
101.375
21
-82.15
0
LINE
8
BLACK
6
CONTINUOUS
10
102.375
20
-83.15
11
114.975
21
-83.15
0
LINE
8
BLACK
6
CONTINUOUS
10
115.975
20
-82.15
11
114.975
21
-83.15
0
LINE
8
BLACK
6
CONTINUOUS
10
115.975
20
-82.15
11
115.975
21
-70.15
0
LINE
8
BLACK
6
CONTINUOUS
10
114.975
20
-69.15
11
115.975
21
-70.15
0
LINE
8
BLACK
6
CONTINUOUS
10
114.975
20
-69.15
11
102.375
21
-69.15
0
LINE
8
BLACK
6
CONTINUOUS
10
26.775
20
-2.825
11
25.775
21
-1.825
0
LINE
8
BLACK
6
CONTINUOUS
10
26.775
20
-2.825
11
39.375
21
-2.825
0
LINE
8
BLACK
6
CONTINUOUS
10
40.375
20
-1.825
11
39.375
21
-2.825
0
LINE
8
BLACK
6
CONTINUOUS
10
40.375
20
-1.825
11
40.375
21
10.175
0
LINE
8
BLACK
6
CONTINUOUS
10
39.375
20
11.175
11
40.375
21
10.175
0
LINE
8
BLACK
6
CONTINUOUS
10
39.375
20
11.175
11
26.775
21
11.175
0
LINE
8
BLACK
6
CONTINUOUS
10
25.775
20
10.175
11
26.775
21
11.175
0
LINE
8
BLACK
6
CONTINUOUS
10
25.775
20
10.175
11
25.775
21
-1.825
0
LINE
8
BLACK
6
CONTINUOUS
10
-11.025
20
-2.825
11
-12.025
21
-1.825
0
LINE
8
BLACK
6
CONTINUOUS
10
-11.025
20
-2.825
11
1.575
21
-2.825
0
LINE
8
BLACK
6
CONTINUOUS
10
2.575
20
-1.825
11
1.575
21
-2.825
0
LINE
8
BLACK
6
CONTINUOUS
10
2.575
20
-1.825
11
2.575
21
10.175
0
LINE
8
BLACK
6
CONTINUOUS
10
1.575
20
11.175
11
2.575
21
10.175
0
LINE
8
BLACK
6
CONTINUOUS
10
1.575
20
11.175
11
-11.025
21
11.175
0
LINE
8
BLACK
6
CONTINUOUS
10
-12.025
20
10.175
11
-11.025
21
11.175
0
LINE
8
BLACK
6
CONTINUOUS
10
-12.025
20
10.175
11
-12.025
21
-1.825
0
LINE
8
BLACK
6
CONTINUOUS
10
206.325
20
-2.825
11
205.325
21
-1.825
0
LINE
8
BLACK
6
CONTINUOUS
10
206.325
20
-2.825
11
218.925
21
-2.825
0
LINE
8
BLACK
6
CONTINUOUS
10
219.925
20
-1.825
11
218.925
21
-2.825
0
LINE
8
BLACK
6
CONTINUOUS
10
219.925
20
-1.825
11
219.925
21
10.175
0
LINE
8
BLACK
6
CONTINUOUS
10
218.925
20
11.175
11
219.925
21
10.175
0
LINE
8
BLACK
6
CONTINUOUS
10
218.925
20
11.175
11
206.325
21
11.175
0
LINE
8
BLACK
6
CONTINUOUS
10
205.325
20
10.175
11
206.325
21
11.175
0
LINE
8
BLACK
6
CONTINUOUS
10
205.325
20
10.175
11
205.325
21
-1.825
0
LINE
8
BLACK
6
CONTINUOUS
10
7.875
20
-2.825
11
6.875
21
-1.825
0
LINE
8
BLACK
6
CONTINUOUS
10
7.875
20
-2.825
11
20.475
21
-2.825
0
LINE
8
BLACK
6
CONTINUOUS
10
21.475
20
-1.825
11
20.475
21
-2.825
0
LINE
8
BLACK
6
CONTINUOUS
10
21.475
20
-1.825
11
21.475
21
10.175
0
LINE
8
BLACK
6
CONTINUOUS
10
20.475
20
11.175
11
21.475
21
10.175
0
LINE
8
BLACK
6
CONTINUOUS
10
20.475
20
11.175
11
7.875
21
11.175
0
LINE
8
BLACK
6
CONTINUOUS
10
6.875
20
10.175
11
7.875
21
11.175
0
LINE
8
BLACK
6
CONTINUOUS
10
6.875
20
10.175
11
6.875
21
-1.825
0
LINE
8
BLACK
6
CONTINUOUS
10
-16.325
20
-44.35
11
-17.325
21
-45.35
0
LINE
8
BLACK
6
CONTINUOUS
10
-16.325
20
-44.35
11
-16.325
21
-32.35
0
LINE
8
BLACK
6
CONTINUOUS
10
-17.325
20
-31.35
11
-16.325
21
-32.35
0
LINE
8
BLACK
6
CONTINUOUS
10
-17.325
20
-31.35
11
-29.925
21
-31.35
0
LINE
8
BLACK
6
CONTINUOUS
10
-30.925
20
-32.35
11
-29.925
21
-31.35
0
LINE
8
BLACK
6
CONTINUOUS
10
-30.925
20
-32.35
11
-30.925
21
-44.35
0
LINE
8
BLACK
6
CONTINUOUS
10
-29.925
20
-45.35
11
-30.925
21
-44.35
0
LINE
8
BLACK
6
CONTINUOUS
10
-29.925
20
-45.35
11
-17.325
21
-45.35
0
LINE
8
BLACK
6
CONTINUOUS
10
253.575
20
-2.825
11
252.575
21
-1.825
0
LINE
8
BLACK
6
CONTINUOUS
10
253.575
20
-2.825
11
266.175
21
-2.825
0
LINE
8
BLACK
6
CONTINUOUS
10
267.175
20
-1.825
11
266.175
21
-2.825
0
LINE
8
BLACK
6
CONTINUOUS
10
267.175
20
-1.825
11
267.175
21
10.175
0
LINE
8
BLACK
6
CONTINUOUS
10
266.175
20
11.175
11
267.175
21
10.175
0
LINE
8
BLACK
6
CONTINUOUS
10
266.175
20
11.175
11
253.575
21
11.175
0
LINE
8
BLACK
6
CONTINUOUS
10
252.575
20
10.175
11
253.575
21
11.175
0
LINE
8
BLACK
6
CONTINUOUS
10
252.575
20
10.175
11
252.575
21
-1.825
0
LINE
8
BLACK
6
CONTINUOUS
10
272.475
20
-2.825
11
271.475
21
-1.825
0
LINE
8
BLACK
6
CONTINUOUS
10
272.475
20
-2.825
11
285.075
21
-2.825
0
LINE
8
BLACK
6
CONTINUOUS
10
286.075
20
-1.825
11
285.075
21
-2.825
0
LINE
8
BLACK
6
CONTINUOUS
10
286.075
20
-1.825
11
286.075
21
10.175
0
LINE
8
BLACK
6
CONTINUOUS
10
285.075
20
11.175
11
286.075
21
10.175
0
LINE
8
BLACK
6
CONTINUOUS
10
285.075
20
11.175
11
272.475
21
11.175
0
LINE
8
BLACK
6
CONTINUOUS
10
271.475
20
10.175
11
272.475
21
11.175
0
LINE
8
BLACK
6
CONTINUOUS
10
271.475
20
10.175
11
271.475
21
-1.825
0
LINE
8
BLACK
6
CONTINUOUS
10
45.675
20
-2.825
11
44.675
21
-1.825
0
LINE
8
BLACK
6
CONTINUOUS
10
45.675
20
-2.825
11
58.275
21
-2.825
0
LINE
8
BLACK
6
CONTINUOUS
10
59.275
20
-1.825
11
58.275
21
-2.825
0
LINE
8
BLACK
6
CONTINUOUS
10
59.275
20
-1.825
11
59.275
21
10.175
0
LINE
8
BLACK
6
CONTINUOUS
10
58.275
20
11.175
11
59.275
21
10.175
0
LINE
8
BLACK
6
CONTINUOUS
10
58.275
20
11.175
11
45.675
21
11.175
0
LINE
8
BLACK
6
CONTINUOUS
10
44.675
20
10.175
11
45.675
21
11.175
0
LINE
8
BLACK
6
CONTINUOUS
10
44.675
20
10.175
11
44.675
21
-1.825
0
LINE
8
BLACK
6
CONTINUOUS
10
88.2
20
-2.825
11
87.2
21
-1.825
0
LINE
8
BLACK
6
CONTINUOUS
10
88.2
20
-2.825
11
100.8
21
-2.825
0
LINE
8
BLACK
6
CONTINUOUS
10
101.8
20
-1.825
11
100.8
21
-2.825
0
LINE
8
BLACK
6
CONTINUOUS
10
101.8
20
-1.825
11
101.8
21
10.175
0
LINE
8
BLACK
6
CONTINUOUS
10
100.8
20
11.175
11
101.8
21
10.175
0
LINE
8
BLACK
6
CONTINUOUS
10
100.8
20
11.175
11
88.2
21
11.175
0
LINE
8
BLACK
6
CONTINUOUS
10
87.2
20
10.175
11
88.2
21
11.175
0
LINE
8
BLACK
6
CONTINUOUS
10
87.2
20
10.175
11
87.2
21
-1.825
0
LINE
8
BLACK
6
CONTINUOUS
10
69.3
20
-2.825
11
68.3
21
-1.825
0
LINE
8
BLACK
6
CONTINUOUS
10
69.3
20
-2.825
11
81.9
21
-2.825
0
LINE
8
BLACK
6
CONTINUOUS
10
82.9
20
-1.825
11
81.9
21
-2.825
0
LINE
8
BLACK
6
CONTINUOUS
10
82.9
20
-1.825
11
82.9
21
10.175
0
LINE
8
BLACK
6
CONTINUOUS
10
81.9
20
11.175
11
82.9
21
10.175
0
LINE
8
BLACK
6
CONTINUOUS
10
81.9
20
11.175
11
69.3
21
11.175
0
LINE
8
BLACK
6
CONTINUOUS
10
68.3
20
10.175
11
69.3
21
11.175
0
LINE
8
BLACK
6
CONTINUOUS
10
68.3
20
10.175
11
68.3
21
-1.825
0
LINE
8
BLACK
6
CONTINUOUS
10
149.625
20
-2.825
11
148.625
21
-1.825
0
LINE
8
BLACK
6
CONTINUOUS
10
149.625
20
-2.825
11
162.225
21
-2.825
0
LINE
8
BLACK
6
CONTINUOUS
10
163.225
20
-1.825
11
162.225
21
-2.825
0
LINE
8
BLACK
6
CONTINUOUS
10
163.225
20
-1.825
11
163.225
21
10.175
0
LINE
8
BLACK
6
CONTINUOUS
10
162.225
20
11.175
11
163.225
21
10.175
0
LINE
8
BLACK
6
CONTINUOUS
10
162.225
20
11.175
11
149.625
21
11.175
0
LINE
8
BLACK
6
CONTINUOUS
10
148.625
20
10.175
11
149.625
21
11.175
0
LINE
8
BLACK
6
CONTINUOUS
10
148.625
20
10.175
11
148.625
21
-1.825
0
LINE
8
BLACK
6
CONTINUOUS
10
107.1
20
-2.825
11
106.1
21
-1.825
0
LINE
8
BLACK
6
CONTINUOUS
10
107.1
20
-2.825
11
119.7
21
-2.825
0
LINE
8
BLACK
6
CONTINUOUS
10
120.7
20
-1.825
11
119.7
21
-2.825
0
LINE
8
BLACK
6
CONTINUOUS
10
120.7
20
-1.825
11
120.7
21
10.175
0
LINE
8
BLACK
6
CONTINUOUS
10
119.7
20
11.175
11
120.7
21
10.175
0
LINE
8
BLACK
6
CONTINUOUS
10
119.7
20
11.175
11
107.1
21
11.175
0
LINE
8
BLACK
6
CONTINUOUS
10
106.1
20
10.175
11
107.1
21
11.175
0
LINE
8
BLACK
6
CONTINUOUS
10
106.1
20
10.175
11
106.1
21
-1.825
0
LINE
8
BLACK
6
CONTINUOUS
10
126
20
-2.825
11
125
21
-1.825
0
LINE
8
BLACK
6
CONTINUOUS
10
126
20
-2.825
11
138.6
21
-2.825
0
LINE
8
BLACK
6
CONTINUOUS
10
139.6
20
-1.825
11
138.6
21
-2.825
0
LINE
8
BLACK
6
CONTINUOUS
10
139.6
20
-1.825
11
139.6
21
10.175
0
LINE
8
BLACK
6
CONTINUOUS
10
138.6
20
11.175
11
139.6
21
10.175
0
LINE
8
BLACK
6
CONTINUOUS
10
138.6
20
11.175
11
126
21
11.175
0
LINE
8
BLACK
6
CONTINUOUS
10
125
20
10.175
11
126
21
11.175
0
LINE
8
BLACK
6
CONTINUOUS
10
125
20
10.175
11
125
21
-1.825
0
LINE
8
BLACK
6
CONTINUOUS
10
168.525
20
-2.825
11
167.525
21
-1.825
0
LINE
8
BLACK
6
CONTINUOUS
10
168.525
20
-2.825
11
181.125
21
-2.825
0
LINE
8
BLACK
6
CONTINUOUS
10
182.125
20
-1.825
11
181.125
21
-2.825
0
LINE
8
BLACK
6
CONTINUOUS
10
182.125
20
-1.825
11
182.125
21
10.175
0
LINE
8
BLACK
6
CONTINUOUS
10
181.125
20
11.175
11
182.125
21
10.175
0
LINE
8
BLACK
6
CONTINUOUS
10
181.125
20
11.175
11
168.525
21
11.175
0
LINE
8
BLACK
6
CONTINUOUS
10
167.525
20
10.175
11
168.525
21
11.175
0
LINE
8
BLACK
6
CONTINUOUS
10
167.525
20
10.175
11
167.525
21
-1.825
0
LINE
8
BLACK
6
CONTINUOUS
10
229.95
20
-2.825
11
228.95
21
-1.825
0
LINE
8
BLACK
6
CONTINUOUS
10
229.95
20
-2.825
11
242.55
21
-2.825
0
LINE
8
BLACK
6
CONTINUOUS
10
243.55
20
-1.825
11
242.55
21
-2.825
0
LINE
8
BLACK
6
CONTINUOUS
10
243.55
20
-1.825
11
243.55
21
10.175
0
LINE
8
BLACK
6
CONTINUOUS
10
242.55
20
11.175
11
243.55
21
10.175
0
LINE
8
BLACK
6
CONTINUOUS
10
242.55
20
11.175
11
229.95
21
11.175
0
LINE
8
BLACK
6
CONTINUOUS
10
228.95
20
10.175
11
229.95
21
11.175
0
LINE
8
BLACK
6
CONTINUOUS
10
228.95
20
10.175
11
228.95
21
-1.825
0
LINE
8
BLACK
6
CONTINUOUS
10
187.425
20
-2.825
11
186.425
21
-1.825
0
LINE
8
BLACK
6
CONTINUOUS
10
187.425
20
-2.825
11
200.025
21
-2.825
0
LINE
8
BLACK
6
CONTINUOUS
10
201.025
20
-1.825
11
200.025
21
-2.825
0
LINE
8
BLACK
6
CONTINUOUS
10
201.025
20
-1.825
11
201.025
21
10.175
0
LINE
8
BLACK
6
CONTINUOUS
10
200.025
20
11.175
11
201.025
21
10.175
0
LINE
8
BLACK
6
CONTINUOUS
10
200.025
20
11.175
11
187.425
21
11.175
0
LINE
8
BLACK
6
CONTINUOUS
10
186.425
20
10.175
11
187.425
21
11.175
0
LINE
8
BLACK
6
CONTINUOUS
10
186.425
20
10.175
11
186.425
21
-1.825
0
LINE
8
BLACK
6
CONTINUOUS
10
154.35
20
-26.45
11
153.35
21
-25.45
0
LINE
8
BLACK
6
CONTINUOUS
10
154.35
20
-26.45
11
166.95
21
-26.45
0
LINE
8
BLACK
6
CONTINUOUS
10
167.95
20
-25.45
11
166.95
21
-26.45
0
LINE
8
BLACK
6
CONTINUOUS
10
167.95
20
-25.45
11
167.95
21
-13.45
0
LINE
8
BLACK
6
CONTINUOUS
10
166.95
20
-12.45
11
167.95
21
-13.45
0
LINE
8
BLACK
6
CONTINUOUS
10
166.95
20
-12.45
11
154.35
21
-12.45
0
LINE
8
BLACK
6
CONTINUOUS
10
153.35
20
-13.45
11
154.35
21
-12.45
0
LINE
8
BLACK
6
CONTINUOUS
10
153.35
20
-13.45
11
153.35
21
-25.45
0
LINE
8
BLACK
6
CONTINUOUS
10
135.45
20
-26.45
11
134.45
21
-25.45
0
LINE
8
BLACK
6
CONTINUOUS
10
135.45
20
-26.45
11
148.05
21
-26.45
0
LINE
8
BLACK
6
CONTINUOUS
10
149.05
20
-25.45
11
148.05
21
-26.45
0
LINE
8
BLACK
6
CONTINUOUS
10
149.05
20
-25.45
11
149.05
21
-13.45
0
LINE
8
BLACK
6
CONTINUOUS
10
148.05
20
-12.45
11
149.05
21
-13.45
0
LINE
8
BLACK
6
CONTINUOUS
10
148.05
20
-12.45
11
135.45
21
-12.45
0
LINE
8
BLACK
6
CONTINUOUS
10
134.45
20
-13.45
11
135.45
21
-12.45
0
LINE
8
BLACK
6
CONTINUOUS
10
134.45
20
-13.45
11
134.45
21
-25.45
0
LINE
8
BLACK
6
CONTINUOUS
10
116.55
20
-26.45
11
115.55
21
-25.45
0
LINE
8
BLACK
6
CONTINUOUS
10
116.55
20
-26.45
11
129.15
21
-26.45
0
LINE
8
BLACK
6
CONTINUOUS
10
130.15
20
-25.45
11
129.15
21
-26.45
0
LINE
8
BLACK
6
CONTINUOUS
10
130.15
20
-25.45
11
130.15
21
-13.45
0
LINE
8
BLACK
6
CONTINUOUS
10
129.15
20
-12.45
11
130.15
21
-13.45
0
LINE
8
BLACK
6
CONTINUOUS
10
129.15
20
-12.45
11
116.55
21
-12.45
0
LINE
8
BLACK
6
CONTINUOUS
10
115.55
20
-13.45
11
116.55
21
-12.45
0
LINE
8
BLACK
6
CONTINUOUS
10
115.55
20
-13.45
11
115.55
21
-25.45
0
LINE
8
BLACK
6
CONTINUOUS
10
97.65
20
-26.45
11
96.65
21
-25.45
0
LINE
8
BLACK
6
CONTINUOUS
10
97.65
20
-26.45
11
110.25
21
-26.45
0
LINE
8
BLACK
6
CONTINUOUS
10
111.25
20
-25.45
11
110.25
21
-26.45
0
LINE
8
BLACK
6
CONTINUOUS
10
111.25
20
-25.45
11
111.25
21
-13.45
0
LINE
8
BLACK
6
CONTINUOUS
10
110.25
20
-12.45
11
111.25
21
-13.45
0
LINE
8
BLACK
6
CONTINUOUS
10
110.25
20
-12.45
11
97.65
21
-12.45
0
LINE
8
BLACK
6
CONTINUOUS
10
96.65
20
-13.45
11
97.65
21
-12.45
0
LINE
8
BLACK
6
CONTINUOUS
10
96.65
20
-13.45
11
96.65
21
-25.45
0
LINE
8
BLACK
6
CONTINUOUS
10
78.75
20
-26.45
11
77.75
21
-25.45
0
LINE
8
BLACK
6
CONTINUOUS
10
78.75
20
-26.45
11
91.35
21
-26.45
0
LINE
8
BLACK
6
CONTINUOUS
10
92.35
20
-25.45
11
91.35
21
-26.45
0
LINE
8
BLACK
6
CONTINUOUS
10
92.35
20
-25.45
11
92.35
21
-13.45
0
LINE
8
BLACK
6
CONTINUOUS
10
91.35
20
-12.45
11
92.35
21
-13.45
0
LINE
8
BLACK
6
CONTINUOUS
10
91.35
20
-12.45
11
78.75
21
-12.45
0
LINE
8
BLACK
6
CONTINUOUS
10
77.75
20
-13.45
11
78.75
21
-12.45
0
LINE
8
BLACK
6
CONTINUOUS
10
77.75
20
-13.45
11
77.75
21
-25.45
0
LINE
8
BLACK
6
CONTINUOUS
10
59.85
20
-26.45
11
58.85
21
-25.45
0
LINE
8
BLACK
6
CONTINUOUS
10
59.85
20
-26.45
11
72.45
21
-26.45
0
LINE
8
BLACK
6
CONTINUOUS
10
73.45
20
-25.45
11
72.45
21
-26.45
0
LINE
8
BLACK
6
CONTINUOUS
10
73.45
20
-25.45
11
73.45
21
-13.45
0
LINE
8
BLACK
6
CONTINUOUS
10
72.45
20
-12.45
11
73.45
21
-13.45
0
LINE
8
BLACK
6
CONTINUOUS
10
72.45
20
-12.45
11
59.85
21
-12.45
0
LINE
8
BLACK
6
CONTINUOUS
10
58.85
20
-13.45
11
59.85
21
-12.45
0
LINE
8
BLACK
6
CONTINUOUS
10
58.85
20
-13.45
11
58.85
21
-25.45
0
LINE
8
BLACK
6
CONTINUOUS
10
40.95
20
-26.45
11
39.95
21
-25.45
0
LINE
8
BLACK
6
CONTINUOUS
10
40.95
20
-26.45
11
53.55
21
-26.45
0
LINE
8
BLACK
6
CONTINUOUS
10
54.55
20
-25.45
11
53.55
21
-26.45
0
LINE
8
BLACK
6
CONTINUOUS
10
54.55
20
-25.45
11
54.55
21
-13.45
0
LINE
8
BLACK
6
CONTINUOUS
10
53.55
20
-12.45
11
54.55
21
-13.45
0
LINE
8
BLACK
6
CONTINUOUS
10
53.55
20
-12.45
11
40.95
21
-12.45
0
LINE
8
BLACK
6
CONTINUOUS
10
39.95
20
-13.45
11
40.95
21
-12.45
0
LINE
8
BLACK
6
CONTINUOUS
10
39.95
20
-13.45
11
39.95
21
-25.45
0
LINE
8
BLACK
6
CONTINUOUS
10
22.05
20
-26.45
11
21.05
21
-25.45
0
LINE
8
BLACK
6
CONTINUOUS
10
22.05
20
-26.45
11
34.65
21
-26.45
0
LINE
8
BLACK
6
CONTINUOUS
10
35.65
20
-25.45
11
34.65
21
-26.45
0
LINE
8
BLACK
6
CONTINUOUS
10
35.65
20
-25.45
11
35.65
21
-13.45
0
LINE
8
BLACK
6
CONTINUOUS
10
34.65
20
-12.45
11
35.65
21
-13.45
0
LINE
8
BLACK
6
CONTINUOUS
10
34.65
20
-12.45
11
22.05
21
-12.45
0
LINE
8
BLACK
6
CONTINUOUS
10
21.05
20
-13.45
11
22.05
21
-12.45
0
LINE
8
BLACK
6
CONTINUOUS
10
21.05
20
-13.45
11
21.05
21
-25.45
0
LINE
8
BLACK
6
CONTINUOUS
10
291.375
20
-2.825
11
290.375
21
-1.825
0
LINE
8
BLACK
6
CONTINUOUS
10
291.375
20
-2.825
11
303.975
21
-2.825
0
LINE
8
BLACK
6
CONTINUOUS
10
304.975
20
-1.825
11
303.975
21
-2.825
0
LINE
8
BLACK
6
CONTINUOUS
10
304.975
20
-1.825
11
304.975
21
10.175
0
LINE
8
BLACK
6
CONTINUOUS
10
303.975
20
11.175
11
304.975
21
10.175
0
LINE
8
BLACK
6
CONTINUOUS
10
303.975
20
11.175
11
291.375
21
11.175
0
LINE
8
BLACK
6
CONTINUOUS
10
290.375
20
10.175
11
291.375
21
11.175
0
LINE
8
BLACK
6
CONTINUOUS
10
290.375
20
10.175
11
290.375
21
-1.825
0
LINE
8
BLACK
6
CONTINUOUS
10
-21.05
20
-25.45
11
-22.05
21
-26.45
0
LINE
8
BLACK
6
CONTINUOUS
10
-21.05
20
-25.45
11
-21.05
21
-13.45
0
LINE
8
BLACK
6
CONTINUOUS
10
-22.05
20
-12.45
11
-21.05
21
-13.45
0
LINE
8
BLACK
6
CONTINUOUS
10
-22.05
20
-12.45
11
-34.65
21
-12.45
0
LINE
8
BLACK
6
CONTINUOUS
10
-35.65
20
-13.45
11
-34.65
21
-12.45
0
LINE
8
BLACK
6
CONTINUOUS
10
-35.65
20
-13.45
11
-35.65
21
-25.45
0
LINE
8
BLACK
6
CONTINUOUS
10
-34.65
20
-26.45
11
-35.65
21
-25.45
0
LINE
8
BLACK
6
CONTINUOUS
10
-34.65
20
-26.45
11
-22.05
21
-26.45
0
LINE
8
BLACK
6
CONTINUOUS
10
-28.5625
20
-51.25
11
-27.5625
21
-50.25
0
LINE
8
BLACK
6
CONTINUOUS
10
-28.5625
20
-51.25
11
-28.5625
21
-63.25
0
LINE
8
BLACK
6
CONTINUOUS
10
-27.5625
20
-64.25
11
-28.5625
21
-63.25
0
LINE
8
BLACK
6
CONTINUOUS
10
-27.5625
20
-64.25
11
-14.9625
21
-64.25
0
LINE
8
BLACK
6
CONTINUOUS
10
-13.9625
20
-63.25
11
-14.9625
21
-64.25
0
LINE
8
BLACK
6
CONTINUOUS
10
-13.9625
20
-63.25
11
-13.9625
21
-51.25
0
LINE
8
BLACK
6
CONTINUOUS
10
-14.9625
20
-50.25
11
-13.9625
21
-51.25
0
LINE
8
BLACK
6
CONTINUOUS
10
-14.9625
20
-50.25
11
-27.5625
21
-50.25
0
LINE
8
BLACK
6
CONTINUOUS
10
-32.537
20
-70.15
11
-31.537
21
-69.15
0
LINE
8
BLACK
6
CONTINUOUS
10
-32.537
20
-70.15
11
-32.537
21
-81.4179
0
LINE
8
BLACK
6
CONTINUOUS
10
-32.537
20
-81.4179
11
-29.537
21
-83.15
0
LINE
8
BLACK
6
CONTINUOUS
10
-29.537
20
-83.15
11
-3.537
21
-83.15
0
LINE
8
BLACK
6
CONTINUOUS
10
-3.537
20
-83.15
11
-0.537
21
-81.4179
0
LINE
8
BLACK
6
CONTINUOUS
10
-0.537
20
-81.4179
11
-0.537
21
-70.15
0
LINE
8
BLACK
6
CONTINUOUS
10
-1.537
20
-69.15
11
-0.537
21
-70.15
0
LINE
8
BLACK
6
CONTINUOUS
10
-1.537
20
-69.15
11
-31.537
21
-69.15
0
LINE
8
BLACK
6
CONTINUOUS
10
-30.925
20
-89.05
11
-29.925
21
-88.05
0
LINE
8
BLACK
6
CONTINUOUS
10
-30.925
20
-89.05
11
-30.925
21
-101.05
0
LINE
8
BLACK
6
CONTINUOUS
10
-29.925
20
-102.05
11
-30.925
21
-101.05
0
LINE
8
BLACK
6
CONTINUOUS
10
-29.925
20
-102.05
11
-17.325
21
-102.05
0
LINE
8
BLACK
6
CONTINUOUS
10
-16.325
20
-101.05
11
-17.325
21
-102.05
0
LINE
8
BLACK
6
CONTINUOUS
10
-16.325
20
-101.05
11
-16.325
21
-89.05
0
LINE
8
BLACK
6
CONTINUOUS
10
-17.325
20
-88.05
11
-16.325
21
-89.05
0
LINE
8
BLACK
6
CONTINUOUS
10
-17.325
20
-88.05
11
-29.925
21
-88.05
0
LINE
8
BLACK
6
CONTINUOUS
10
7.3
20
-44.35
11
6.3
21
-45.35
0
LINE
8
BLACK
6
CONTINUOUS
10
7.3
20
-44.35
11
7.3
21
-32.35
0
LINE
8
BLACK
6
CONTINUOUS
10
6.3
20
-31.35
11
7.3
21
-32.35
0
LINE
8
BLACK
6
CONTINUOUS
10
6.3
20
-31.35
11
-6.3
21
-31.35
0
LINE
8
BLACK
6
CONTINUOUS
10
-7.3
20
-32.35
11
-6.3
21
-31.35
0
LINE
8
BLACK
6
CONTINUOUS
10
-7.3
20
-32.35
11
-7.3
21
-44.35
0
LINE
8
BLACK
6
CONTINUOUS
10
-6.3
20
-45.35
11
-7.3
21
-44.35
0
LINE
8
BLACK
6
CONTINUOUS
10
-6.3
20
-45.35
11
6.3
21
-45.35
0
LINE
8
BLACK
6
CONTINUOUS
10
-15.75
20
-26.45
11
-16.75
21
-25.45
0
LINE
8
BLACK
6
CONTINUOUS
10
-15.75
20
-26.45
11
-3.15
21
-26.45
0
LINE
8
BLACK
6
CONTINUOUS
10
-2.15
20
-25.45
11
-3.15
21
-26.45
0
LINE
8
BLACK
6
CONTINUOUS
10
-2.15
20
-25.45
11
-2.15
21
-13.45
0
LINE
8
BLACK
6
CONTINUOUS
10
-3.15
20
-12.45
11
-2.15
21
-13.45
0
LINE
8
BLACK
6
CONTINUOUS
10
-3.15
20
-12.45
11
-15.75
21
-12.45
0
LINE
8
BLACK
6
CONTINUOUS
10
-16.75
20
-13.45
11
-15.75
21
-12.45
0
LINE
8
BLACK
6
CONTINUOUS
10
-16.75
20
-13.45
11
-16.75
21
-25.45
0
LINE
8
BLACK
6
CONTINUOUS
10
3.15
20
-26.45
11
2.15
21
-25.45
0
LINE
8
BLACK
6
CONTINUOUS
10
3.15
20
-26.45
11
15.75
21
-26.45
0
LINE
8
BLACK
6
CONTINUOUS
10
16.75
20
-25.45
11
15.75
21
-26.45
0
LINE
8
BLACK
6
CONTINUOUS
10
16.75
20
-25.45
11
16.75
21
-13.45
0
LINE
8
BLACK
6
CONTINUOUS
10
15.75
20
-12.45
11
16.75
21
-13.45
0
LINE
8
BLACK
6
CONTINUOUS
10
15.75
20
-12.45
11
3.15
21
-12.45
0
LINE
8
BLACK
6
CONTINUOUS
10
2.15
20
-13.45
11
3.15
21
-12.45
0
LINE
8
BLACK
6
CONTINUOUS
10
2.15
20
-13.45
11
2.15
21
-25.45
0
LINE
8
BLACK
6
CONTINUOUS
10
224.225
20
-89.05
11
225.225
21
-88.05
0
LINE
8
BLACK
6
CONTINUOUS
10
224.225
20
-89.05
11
224.225
21
-101.05
0
LINE
8
BLACK
6
CONTINUOUS
10
225.225
20
-102.05
11
224.225
21
-101.05
0
LINE
8
BLACK
6
CONTINUOUS
10
225.225
20
-102.05
11
237.825
21
-102.05
0
LINE
8
BLACK
6
CONTINUOUS
10
238.825
20
-101.05
11
237.825
21
-102.05
0
LINE
8
BLACK
6
CONTINUOUS
10
238.825
20
-101.05
11
238.825
21
-89.05
0
LINE
8
BLACK
6
CONTINUOUS
10
237.825
20
-88.05
11
238.825
21
-89.05
0
LINE
8
BLACK
6
CONTINUOUS
10
237.825
20
-88.05
11
225.225
21
-88.05
0
LINE
8
BLACK
6
CONTINUOUS
10
272.475
20
-83.15
11
271.475
21
-82.15
0
LINE
8
BLACK
6
CONTINUOUS
10
272.475
20
-83.15
11
285.075
21
-83.15
0
LINE
8
BLACK
6
CONTINUOUS
10
286.075
20
-82.15
11
285.075
21
-83.15
0
LINE
8
BLACK
6
CONTINUOUS
10
286.075
20
-82.15
11
286.075
21
-70.15
0
LINE
8
BLACK
6
CONTINUOUS
10
285.075
20
-69.15
11
286.075
21
-70.15
0
LINE
8
BLACK
6
CONTINUOUS
10
285.075
20
-69.15
11
272.475
21
-69.15
0
LINE
8
BLACK
6
CONTINUOUS
10
271.475
20
-70.15
11
272.475
21
-69.15
0
LINE
8
BLACK
6
CONTINUOUS
10
271.475
20
-70.15
11
271.475
21
-82.15
0
LINE
8
BLACK
6
CONTINUOUS
10
291.375
20
-102.05
11
290.375
21
-101.05
0
LINE
8
BLACK
6
CONTINUOUS
10
291.375
20
-102.05
11
303.975
21
-102.05
0
LINE
8
BLACK
6
CONTINUOUS
10
304.975
20
-101.05
11
303.975
21
-102.05
0
LINE
8
BLACK
6
CONTINUOUS
10
304.975
20
-101.05
11
304.975
21
-89.05
0
LINE
8
BLACK
6
CONTINUOUS
10
303.975
20
-88.05
11
304.975
21
-89.05
0
LINE
8
BLACK
6
CONTINUOUS
10
303.975
20
-88.05
11
291.375
21
-88.05
0
LINE
8
BLACK
6
CONTINUOUS
10
290.375
20
-89.05
11
291.375
21
-88.05
0
LINE
8
BLACK
6
CONTINUOUS
10
290.375
20
-89.05
11
290.375
21
-101.05
0
LINE
8
BLACK
6
CONTINUOUS
10
237.437
20
-64.25
11
240.437
21
-62.5179
0
LINE
8
BLACK
6
CONTINUOUS
10
240.437
20
-62.5179
11
240.437
21
-51.25
0
LINE
8
BLACK
6
CONTINUOUS
10
239.437
20
-50.25
11
240.437
21
-51.25
0
LINE
8
BLACK
6
CONTINUOUS
10
239.437
20
-50.25
11
209.437
21
-50.25
0
LINE
8
BLACK
6
CONTINUOUS
10
208.437
20
-51.25
11
209.437
21
-50.25
0
LINE
8
BLACK
6
CONTINUOUS
10
208.437
20
-51.25
11
208.437
21
-62.5179
0
LINE
8
BLACK
6
CONTINUOUS
10
208.437
20
-62.5179
11
211.437
21
-64.25
0
LINE
8
BLACK
6
CONTINUOUS
10
211.437
20
-64.25
11
237.437
21
-64.25
0
LINE
8
BLACK
6
CONTINUOUS
10
213.8
20
-26.45
11
239.8
21
-26.45
0
LINE
8
BLACK
6
CONTINUOUS
10
239.8
20
-26.45
11
242.8
21
-24.7179
0
LINE
8
BLACK
6
CONTINUOUS
10
242.8
20
-24.7179
11
242.8
21
-13.45
0
LINE
8
BLACK
6
CONTINUOUS
10
241.8
20
-12.45
11
242.8
21
-13.45
0
LINE
8
BLACK
6
CONTINUOUS
10
241.8
20
-12.45
11
211.8
21
-12.45
0
LINE
8
BLACK
6
CONTINUOUS
10
210.8
20
-13.45
11
211.8
21
-12.45
0
LINE
8
BLACK
6
CONTINUOUS
10
210.8
20
-13.45
11
210.8
21
-24.7179
0
LINE
8
BLACK
6
CONTINUOUS
10
210.8
20
-24.7179
11
213.8
21
-26.45
0
LINE
8
BLACK
6
CONTINUOUS
10
238.825
20
-44.35
11
237.825
21
-45.35
0
LINE
8
BLACK
6
CONTINUOUS
10
238.825
20
-44.35
11
238.825
21
-32.35
0
LINE
8
BLACK
6
CONTINUOUS
10
237.825
20
-31.35
11
238.825
21
-32.35
0
LINE
8
BLACK
6
CONTINUOUS
10
237.825
20
-31.35
11
225.225
21
-31.35
0
LINE
8
BLACK
6
CONTINUOUS
10
224.225
20
-32.35
11
225.225
21
-31.35
0
LINE
8
BLACK
6
CONTINUOUS
10
224.225
20
-32.35
11
224.225
21
-44.35
0
LINE
8
BLACK
6
CONTINUOUS
10
225.225
20
-45.35
11
224.225
21
-44.35
0
LINE
8
BLACK
6
CONTINUOUS
10
225.225
20
-45.35
11
237.825
21
-45.35
0
LINE
8
BLACK
6
CONTINUOUS
10
272.475
20
-26.45
11
271.475
21
-25.45
0
LINE
8
BLACK
6
CONTINUOUS
10
272.475
20
-26.45
11
285.075
21
-26.45
0
LINE
8
BLACK
6
CONTINUOUS
10
286.075
20
-25.45
11
285.075
21
-26.45
0
LINE
8
BLACK
6
CONTINUOUS
10
286.075
20
-25.45
11
286.075
21
-13.45
0
LINE
8
BLACK
6
CONTINUOUS
10
285.075
20
-12.45
11
286.075
21
-13.45
0
LINE
8
BLACK
6
CONTINUOUS
10
285.075
20
-12.45
11
272.475
21
-12.45
0
LINE
8
BLACK
6
CONTINUOUS
10
271.475
20
-13.45
11
272.475
21
-12.45
0
LINE
8
BLACK
6
CONTINUOUS
10
271.475
20
-13.45
11
271.475
21
-25.45
0
LINE
8
BLACK
6
CONTINUOUS
10
176.975
20
-70.15
11
177.975
21
-69.15
0
LINE
8
BLACK
6
CONTINUOUS
10
176.975
20
-70.15
11
176.975
21
-82.15
0
LINE
8
BLACK
6
CONTINUOUS
10
177.975
20
-83.15
11
176.975
21
-82.15
0
LINE
8
BLACK
6
CONTINUOUS
10
177.975
20
-83.15
11
190.575
21
-83.15
0
LINE
8
BLACK
6
CONTINUOUS
10
191.575
20
-82.15
11
190.575
21
-83.15
0
LINE
8
BLACK
6
CONTINUOUS
10
191.575
20
-82.15
11
191.575
21
-70.15
0
LINE
8
BLACK
6
CONTINUOUS
10
190.575
20
-69.15
11
191.575
21
-70.15
0
LINE
8
BLACK
6
CONTINUOUS
10
190.575
20
-69.15
11
177.975
21
-69.15
0
LINE
8
BLACK
6
CONTINUOUS
10
201.025
20
-63.25
11
200.025
21
-64.25
0
LINE
8
BLACK
6
CONTINUOUS
10
201.025
20
-63.25
11
201.025
21
-51.25
0
LINE
8
BLACK
6
CONTINUOUS
10
200.025
20
-50.25
11
201.025
21
-51.25
0
LINE
8
BLACK
6
CONTINUOUS
10
200.025
20
-50.25
11
187.425
21
-50.25
0
LINE
8
BLACK
6
CONTINUOUS
10
186.425
20
-51.25
11
187.425
21
-50.25
0
LINE
8
BLACK
6
CONTINUOUS
10
186.425
20
-51.25
11
186.425
21
-63.25
0
LINE
8
BLACK
6
CONTINUOUS
10
187.425
20
-64.25
11
186.425
21
-63.25
0
LINE
8
BLACK
6
CONTINUOUS
10
187.425
20
-64.25
11
200.025
21
-64.25
0
LINE
8
BLACK
6
CONTINUOUS
10
215.2
20
-44.35
11
214.2
21
-45.35
0
LINE
8
BLACK
6
CONTINUOUS
10
215.2
20
-44.35
11
215.2
21
-32.35
0
LINE
8
BLACK
6
CONTINUOUS
10
214.2
20
-31.35
11
215.2
21
-32.35
0
LINE
8
BLACK
6
CONTINUOUS
10
214.2
20
-31.35
11
201.6
21
-31.35
0
LINE
8
BLACK
6
CONTINUOUS
10
200.6
20
-32.35
11
201.6
21
-31.35
0
LINE
8
BLACK
6
CONTINUOUS
10
200.6
20
-32.35
11
200.6
21
-44.35
0
LINE
8
BLACK
6
CONTINUOUS
10
201.6
20
-45.35
11
200.6
21
-44.35
0
LINE
8
BLACK
6
CONTINUOUS
10
201.6
20
-45.35
11
214.2
21
-45.35
0
LINE
8
BLACK
6
CONTINUOUS
10
206.712
20
-83.15
11
232.712
21
-83.15
0
LINE
8
BLACK
6
CONTINUOUS
10
232.712
20
-83.15
11
235.712
21
-81.4179
0
LINE
8
BLACK
6
CONTINUOUS
10
235.712
20
-81.4179
11
235.712
21
-70.15
0
LINE
8
BLACK
6
CONTINUOUS
10
234.712
20
-69.15
11
235.712
21
-70.15
0
LINE
8
BLACK
6
CONTINUOUS
10
234.712
20
-69.15
11
204.712
21
-69.15
0
LINE
8
BLACK
6
CONTINUOUS
10
203.712
20
-70.15
11
204.712
21
-69.15
0
LINE
8
BLACK
6
CONTINUOUS
10
203.712
20
-70.15
11
203.712
21
-81.4179
0
LINE
8
BLACK
6
CONTINUOUS
10
203.712
20
-81.4179
11
206.712
21
-83.15
0
LINE
8
BLACK
6
CONTINUOUS
10
291.375
20
-45.35
11
290.375
21
-44.35
0
LINE
8
BLACK
6
CONTINUOUS
10
291.375
20
-45.35
11
303.975
21
-45.35
0
LINE
8
BLACK
6
CONTINUOUS
10
304.975
20
-44.35
11
303.975
21
-45.35
0
LINE
8
BLACK
6
CONTINUOUS
10
304.975
20
-44.35
11
304.975
21
-32.35
0
LINE
8
BLACK
6
CONTINUOUS
10
303.975
20
-31.35
11
304.975
21
-32.35
0
LINE
8
BLACK
6
CONTINUOUS
10
303.975
20
-31.35
11
291.375
21
-31.35
0
LINE
8
BLACK
6
CONTINUOUS
10
290.375
20
-32.35
11
291.375
21
-31.35
0
LINE
8
BLACK
6
CONTINUOUS
10
290.375
20
-32.35
11
290.375
21
-44.35
0
LINE
8
BLACK
6
CONTINUOUS
10
177.425
20
-89.05
11
178.425
21
-88.05
0
LINE
8
BLACK
6
CONTINUOUS
10
177.425
20
-89.05
11
177.425
21
-101.05
0
LINE
8
BLACK
6
CONTINUOUS
10
178.425
20
-102.05
11
177.425
21
-101.05
0
LINE
8
BLACK
6
CONTINUOUS
10
178.425
20
-102.05
11
191.025
21
-102.05
0
LINE
8
BLACK
6
CONTINUOUS
10
192.025
20
-101.05
11
191.025
21
-102.05
0
LINE
8
BLACK
6
CONTINUOUS
10
192.025
20
-101.05
11
192.025
21
-89.05
0
LINE
8
BLACK
6
CONTINUOUS
10
191.025
20
-88.05
11
192.025
21
-89.05
0
LINE
8
BLACK
6
CONTINUOUS
10
191.025
20
-88.05
11
178.425
21
-88.05
0
LINE
8
BLACK
6
CONTINUOUS
10
272.475
20
-102.05
11
271.475
21
-101.05
0
LINE
8
BLACK
6
CONTINUOUS
10
272.475
20
-102.05
11
285.075
21
-102.05
0
LINE
8
BLACK
6
CONTINUOUS
10
286.075
20
-101.05
11
285.075
21
-102.05
0
LINE
8
BLACK
6
CONTINUOUS
10
286.075
20
-101.05
11
286.075
21
-89.05
0
LINE
8
BLACK
6
CONTINUOUS
10
285.075
20
-88.05
11
286.075
21
-89.05
0
LINE
8
BLACK
6
CONTINUOUS
10
285.075
20
-88.05
11
272.475
21
-88.05
0
LINE
8
BLACK
6
CONTINUOUS
10
271.475
20
-89.05
11
272.475
21
-88.05
0
LINE
8
BLACK
6
CONTINUOUS
10
271.475
20
-89.05
11
271.475
21
-101.05
0
LINE
8
BLACK
6
CONTINUOUS
10
253.575
20
-102.05
11
252.575
21
-101.05
0
LINE
8
BLACK
6
CONTINUOUS
10
253.575
20
-102.05
11
266.175
21
-102.05
0
LINE
8
BLACK
6
CONTINUOUS
10
267.175
20
-101.05
11
266.175
21
-102.05
0
LINE
8
BLACK
6
CONTINUOUS
10
267.175
20
-101.05
11
267.175
21
-89.05
0
LINE
8
BLACK
6
CONTINUOUS
10
266.175
20
-88.05
11
267.175
21
-89.05
0
LINE
8
BLACK
6
CONTINUOUS
10
266.175
20
-88.05
11
253.575
21
-88.05
0
LINE
8
BLACK
6
CONTINUOUS
10
252.575
20
-89.05
11
253.575
21
-88.05
0
LINE
8
BLACK
6
CONTINUOUS
10
252.575
20
-89.05
11
252.575
21
-101.05
0
LINE
8
BLACK
6
CONTINUOUS
10
253.575
20
-45.35
11
252.575
21
-44.35
0
LINE
8
BLACK
6
CONTINUOUS
10
253.575
20
-45.35
11
266.175
21
-45.35
0
LINE
8
BLACK
6
CONTINUOUS
10
267.175
20
-44.35
11
266.175
21
-45.35
0
LINE
8
BLACK
6
CONTINUOUS
10
267.175
20
-44.35
11
267.175
21
-32.35
0
LINE
8
BLACK
6
CONTINUOUS
10
266.175
20
-31.35
11
267.175
21
-32.35
0
LINE
8
BLACK
6
CONTINUOUS
10
266.175
20
-31.35
11
253.575
21
-31.35
0
LINE
8
BLACK
6
CONTINUOUS
10
252.575
20
-32.35
11
253.575
21
-31.35
0
LINE
8
BLACK
6
CONTINUOUS
10
252.575
20
-32.35
11
252.575
21
-44.35
0
LINE
8
BLACK
6
CONTINUOUS
10
272.475
20
-45.35
11
271.475
21
-44.35
0
LINE
8
BLACK
6
CONTINUOUS
10
272.475
20
-45.35
11
285.075
21
-45.35
0
LINE
8
BLACK
6
CONTINUOUS
10
286.075
20
-44.35
11
285.075
21
-45.35
0
LINE
8
BLACK
6
CONTINUOUS
10
286.075
20
-44.35
11
286.075
21
-32.35
0
LINE
8
BLACK
6
CONTINUOUS
10
285.075
20
-31.35
11
286.075
21
-32.35
0
LINE
8
BLACK
6
CONTINUOUS
10
285.075
20
-31.35
11
272.475
21
-31.35
0
LINE
8
BLACK
6
CONTINUOUS
10
271.475
20
-32.35
11
272.475
21
-31.35
0
LINE
8
BLACK
6
CONTINUOUS
10
271.475
20
-32.35
11
271.475
21
-44.35
0
LINE
8
BLACK
6
CONTINUOUS
10
291.375
20
-26.45
11
290.375
21
-25.45
0
LINE
8
BLACK
6
CONTINUOUS
10
291.375
20
-26.45
11
303.975
21
-26.45
0
LINE
8
BLACK
6
CONTINUOUS
10
304.975
20
-25.45
11
303.975
21
-26.45
0
LINE
8
BLACK
6
CONTINUOUS
10
304.975
20
-25.45
11
304.975
21
-13.45
0
LINE
8
BLACK
6
CONTINUOUS
10
303.975
20
-12.45
11
304.975
21
-13.45
0
LINE
8
BLACK
6
CONTINUOUS
10
303.975
20
-12.45
11
291.375
21
-12.45
0
LINE
8
BLACK
6
CONTINUOUS
10
290.375
20
-13.45
11
291.375
21
-12.45
0
LINE
8
BLACK
6
CONTINUOUS
10
290.375
20
-13.45
11
290.375
21
-25.45
0
LINE
8
BLACK
6
CONTINUOUS
10
253.575
20
-26.45
11
252.575
21
-25.45
0
LINE
8
BLACK
6
CONTINUOUS
10
253.575
20
-26.45
11
266.175
21
-26.45
0
LINE
8
BLACK
6
CONTINUOUS
10
267.175
20
-25.45
11
266.175
21
-26.45
0
LINE
8
BLACK
6
CONTINUOUS
10
267.175
20
-25.45
11
267.175
21
-13.45
0
LINE
8
BLACK
6
CONTINUOUS
10
266.175
20
-12.45
11
267.175
21
-13.45
0
LINE
8
BLACK
6
CONTINUOUS
10
266.175
20
-12.45
11
253.575
21
-12.45
0
LINE
8
BLACK
6
CONTINUOUS
10
252.575
20
-13.45
11
253.575
21
-12.45
0
LINE
8
BLACK
6
CONTINUOUS
10
252.575
20
-13.45
11
252.575
21
-25.45
0
LINE
8
BLACK
6
CONTINUOUS
10
-21.05
20
-1.825
11
-22.05
21
-2.825
0
LINE
8
BLACK
6
CONTINUOUS
10
-21.05
20
-1.825
11
-21.05
21
10.175
0
LINE
8
BLACK
6
CONTINUOUS
10
-22.05
20
11.175
11
-21.05
21
10.175
0
LINE
8
BLACK
6
CONTINUOUS
10
-22.05
20
11.175
11
-34.65
21
11.175
0
LINE
8
BLACK
6
CONTINUOUS
10
-35.65
20
10.175
11
-34.65
21
11.175
0
LINE
8
BLACK
6
CONTINUOUS
10
-35.65
20
10.175
11
-35.65
21
-1.825
0
LINE
8
BLACK
6
CONTINUOUS
10
-34.65
20
-2.825
11
-35.65
21
-1.825
0
LINE
8
BLACK
6
CONTINUOUS
10
-34.65
20
-2.825
11
-22.05
21
-2.825
0
LINE
8
BLACK
6
CONTINUOUS
10
253.375
20
-49.15
11
304.175
21
-49.15
0
ARC
8
BLACK
10
253.375
20
-49.65
40
0.5
50
90
51
180
0
LINE
8
BLACK
6
CONTINUOUS
10
252.875
20
-49.65
11
252.875
21
-64.85
0
ARC
8
BLACK
10
253.375
20
-64.85
40
0.5
50
-180
51
-90
0
LINE
8
BLACK
6
CONTINUOUS
10
253.375
20
-65.35
11
304.175
21
-65.35
0
ARC
8
BLACK
10
304.175
20
-64.85
40
0.5
50
-90
51
-0
0
LINE
8
BLACK
6
CONTINUOUS
10
304.675
20
-49.65
11
304.675
21
-64.85
0
ARC
8
BLACK
10
304.175
20
-49.65
40
0.5
50
-0
51
90
0
ARC
8
BLACK
10
10.325
20
-107.2
40
2.9
50
-90
51
1.97572e-05
0
LINE
8
BLACK
6
CONTINUOUS
10
10.325
20
-110.1
11
10.225
21
-110.1
0
ARC
8
BLACK
10
10.225
20
-107.2
40
2.9
50
-180
51
-90
0
LINE
8
BLACK
6
CONTINUOUS
10
7.325
20
-107.2
11
7.325
21
-105.1
0
LINE
8
BLACK
6
CONTINUOUS
10
7.325
20
-105.1
11
-19.4074
21
-105.1
0
ARC
8
BLACK
10
-19.4074
20
-102.2
40
2.90002
50
-112.798
51
-90.0001
0
ARC
8
BLACK
10
-21.8874
20
-108.1
40
3.5
50
67.2018
51
90
0
LINE
8
BLACK
6
CONTINUOUS
10
-25.3626
20
-104.6
11
-21.8874
21
-104.6
0
ARC
8
BLACK
10
-25.3626
20
-108.1
40
3.5
50
90
51
112.798
0
ARC
8
BLACK
10
-27.8426
20
-102.2
40
2.90002
50
-89.9999
51
-67.2019
0
LINE
8
BLACK
6
CONTINUOUS
10
-27.8426
20
-105.1
11
-36.8
21
-105.1
0
ARC
8
BLACK
10
-36.8
20
-103.5
40
1.6
50
-180
51
-90
0
LINE
8
BLACK
6
CONTINUOUS
10
-38.4
20
-103.5
11
-38.4
21
12.625
0
ARC
8
BLACK
10
-36.8
20
12.625
40
1.6
50
-270
51
-180
0
LINE
8
BLACK
6
CONTINUOUS
10
-36.8
20
14.225
11
-32.5676
21
14.225
0
ARC
8
BLACK
10
-32.5676
20
11.325
40
2.90002
50
67.2019
51
89.9999
0
ARC
8
BLACK
10
-30.0876
20
17.225
40
3.5
50
-112.798
51
-90
0
LINE
8
BLACK
6
CONTINUOUS
10
-26.6124
20
13.725
11
-30.0876
21
13.725
0
ARC
8
BLACK
10
-26.6124
20
17.225
40
3.5
50
-90
51
-67.2018
0
ARC
8
BLACK
10
-24.1324
20
11.325
40
2.90002
50
90.0001
51
112.798
0
LINE
8
BLACK
6
CONTINUOUS
10
-24.1324
20
14.225
11
-19.4875
21
14.225
0
LINE
8
BLACK
6
CONTINUOUS
10
-19.4875
20
14.225
11
-19.4875
21
16.325
0
ARC
8
BLACK
10
-16.5875
20
16.325
40
2.9
50
-270
51
-180
0
LINE
8
BLACK
6
CONTINUOUS
10
-16.5875
20
19.225
11
-16.4875
21
19.225
0
ARC
8
BLACK
10
-16.4875
20
16.325
40
2.9
50
-1.97572e-05
51
90
0
LINE
8
BLACK
6
CONTINUOUS
10
-13.5875
20
16.325
11
-13.5875
21
14.225
0
LINE
8
BLACK
6
CONTINUOUS
10
-13.5875
20
14.225
11
71.4688
21
14.225
0
LINE
8
BLACK
6
CONTINUOUS
10
71.4688
20
14.225
11
71.4688
21
16.325
0
ARC
8
BLACK
10
74.3687
20
16.325
40
2.9
50
-270
51
-180
0
LINE
8
BLACK
6
CONTINUOUS
10
74.3687
20
19.225
11
74.4688
21
19.225
0
ARC
8
BLACK
10
74.4688
20
16.325
40
2.9
50
-1.97572e-05
51
90
0
LINE
8
BLACK
6
CONTINUOUS
10
77.3687
20
16.325
11
77.3687
21
14.225
0
LINE
8
BLACK
6
CONTINUOUS
10
77.3687
20
14.225
11
162.425
21
14.225
0
LINE
8
BLACK
6
CONTINUOUS
10
162.425
20
14.225
11
162.425
21
16.325
0
ARC
8
BLACK
10
165.325
20
16.325
40
2.9
50
90
51
180
0
LINE
8
BLACK
6
CONTINUOUS
10
165.325
20
19.225
11
165.425
21
19.225
0
ARC
8
BLACK
10
165.425
20
16.325
40
2.9
50
-0
51
90
0
LINE
8
BLACK
6
CONTINUOUS
10
168.325
20
16.325
11
168.325
21
14.225
0
LINE
8
BLACK
6
CONTINUOUS
10
168.325
20
14.225
11
285.275
21
14.225
0
LINE
8
BLACK
6
CONTINUOUS
10
285.275
20
14.225
11
285.275
21
16.325
0
ARC
8
BLACK
10
288.175
20
16.325
40
2.9
50
90
51
180
0
LINE
8
BLACK
6
CONTINUOUS
10
288.175
20
19.225
11
288.275
21
19.225
0
ARC
8
BLACK
10
288.275
20
16.325
40
2.9
50
-0
51
90
0
LINE
8
BLACK
6
CONTINUOUS
10
291.175
20
16.325
11
291.175
21
14.225
0
LINE
8
BLACK
6
CONTINUOUS
10
291.175
20
14.225
11
293.457
21
14.225
0
ARC
8
BLACK
10
293.457
20
11.325
40
2.9
50
67.201
51
89.9991
0
ARC
8
BLACK
10
295.937
20
17.225
40
3.5
50
-112.799
51
-90.0006
0
LINE
8
BLACK
6
CONTINUOUS
10
299.413
20
13.725
11
295.937
21
13.725
0
ARC
8
BLACK
10
299.413
20
17.225
40
3.50001
50
-89.9994
51
-67.2012
0
ARC
8
BLACK
10
301.893
20
11.325
40
2.90002
50
90.0009
51
112.799
0
LINE
8
BLACK
6
CONTINUOUS
10
301.893
20
14.225
11
306.125
21
14.225
0
ARC
8
BLACK
10
306.125
20
12.625
40
1.6
50
-0
51
90
0
LINE
8
BLACK
6
CONTINUOUS
10
307.725
20
12.625
11
307.725
21
-103.5
0
ARC
8
BLACK
10
306.125
20
-103.5
40
1.6
50
-90
51
-0
0
LINE
8
BLACK
6
CONTINUOUS
10
306.125
20
-105.1
11
301.893
21
-105.1
0
ARC
8
BLACK
10
301.893
20
-102.2
40
2.9
50
-112.799
51
-90.0009
0
ARC
8
BLACK
10
299.413
20
-108.1
40
3.5
50
67.2012
51
89.9994
0
LINE
8
BLACK
6
CONTINUOUS
10
295.937
20
-104.6
11
299.413
21
-104.6
0
ARC
8
BLACK
10
295.937
20
-108.1
40
3.50001
50
90.0006
51
112.799
0
ARC
8
BLACK
10
293.457
20
-102.2
40
2.90002
50
-89.9991
51
-67.201
0
LINE
8
BLACK
6
CONTINUOUS
10
293.457
20
-105.1
11
272.275
21
-105.1
0
LINE
8
BLACK
6
CONTINUOUS
10
272.275
20
-105.1
11
272.275
21
-107.2
0
ARC
8
BLACK
10
269.375
20
-107.2
40
2.9
50
-90
51
-0
0
LINE
8
BLACK
6
CONTINUOUS
10
269.375
20
-110.1
11
269.275
21
-110.1
0
ARC
8
BLACK
10
269.275
20
-107.2
40
2.9
50
-180
51
-90
0
LINE
8
BLACK
6
CONTINUOUS
10
266.375
20
-107.2
11
266.375
21
-105.1
0
LINE
8
BLACK
6
CONTINUOUS
10
266.375
20
-105.1
11
200.575
21
-105.1
0
LINE
8
BLACK
6
CONTINUOUS
10
200.575
20
-105.1
11
200.575
21
-107.2
0
ARC
8
BLACK
10
197.675
20
-107.2
40
2.9
50
-90
51
-0
0
LINE
8
BLACK
6
CONTINUOUS
10
197.675
20
-110.1
11
197.575
21
-110.1
0
ARC
8
BLACK
10
197.575
20
-107.2
40
2.9
50
-180
51
-90
0
LINE
8
BLACK
6
CONTINUOUS
10
194.675
20
-107.2
11
194.675
21
-105.1
0
LINE
8
BLACK
6
CONTINUOUS
10
194.675
20
-105.1
11
13.225
21
-105.1
0
LINE
8
BLACK
6
CONTINUOUS
10
13.225
20
-105.1
11
13.225
21
-107.2
0
CIRCLE
8
BLACK
10
197.625
20
-107.65
40
1.35
0
CIRCLE
8
BLACK
10
10.275
20
-107.65
40
1.35
0
CIRCLE
8
BLACK
10
288.225
20
16.775
40
1.35
0
CIRCLE
8
BLACK
10
165.375
20
16.775
40
1.35
0
CIRCLE
8
BLACK
10
74.4188
20
16.775
40
1.35
0
CIRCLE
8
BLACK
10
-16.5375
20
16.775
40
1.35
0
CIRCLE
8
BLACK
10
269.325
20
-107.65
40
1.35
0
CIRCLE
8
BLACK
10
137.025
20
-76.15
40
0.8
0
CIRCLE
8
BLACK
10
80.325
20
-76.15
40
0.8
0
CIRCLE
8
BLACK
10
4.725
20
-76.15
40
0.8
0
CIRCLE
8
BLACK
10
266.525
20
-76.15
40
0.8
0
CIRCLE
8
BLACK
10
193.725
20
-76.15
40
0.8
0
CIRCLE
8
BLACK
10
165.375
20
-57.25
40
0.8
0
CIRCLE
8
BLACK
10
-33.075
20
-38.35
40
0.8
0
CIRCLE
8
BLACK
10
151.2
20
-19.45
40
0.8
0
CIRCLE
8
BLACK
10
-33.075
20
-95.05
40
0.8
0
CIRCLE
8
BLACK
10
297.675
20
-7.6375
40
0.8
0
CIRCLE
8
BLACK
10
189
20
-19.45
40
0.8
0
CIRCLE
8
BLACK
10
155.925
20
-76.15
40
0.8
0
CIRCLE
8
BLACK
10
66.15
20
-38.35
40
0.8
0
CIRCLE
8
BLACK
10
37.8
20
-19.45
40
0.8
0
CIRCLE
8
BLACK
10
23.625
20
4.175
40
0.8
0
CIRCLE
8
BLACK
10
-18.9
20
-19.45
40
0.8
0
CIRCLE
8
BLACK
10
-11.8125
20
-38.35
40
0.8
0
CIRCLE
8
BLACK
10
14.175
20
-57.25
40
0.8
0
CIRCLE
8
BLACK
10
-11.8125
20
-57.25
40
0.8
0
CIRCLE
8
BLACK
10
-14.175
20
-95.05
40
0.8
0
CIRCLE
8
BLACK
10
10.275
20
-95.05
40
0.8
0
CIRCLE
8
BLACK
10
42.525
20
-76.15
40
0.8
0
CIRCLE
8
BLACK
10
80.325
20
-95.05
40
0.8
0
CIRCLE
8
BLACK
10
127.575
20
-95.05
40
0.8
0
CIRCLE
8
BLACK
10
108.675
20
-57.25
40
0.8
0
CIRCLE
8
BLACK
10
113.4
20
-19.45
40
0.8
0
CIRCLE
8
BLACK
10
160.65
20
-38.35
40
0.8
0
CIRCLE
8
BLACK
10
144.112
20
4.175
40
0.8
0
CIRCLE
8
BLACK
10
165.375
20
4.175
40
0.8
0
CIRCLE
8
BLACK
10
203.175
20
-57.25
40
0.8
0
CIRCLE
8
BLACK
10
197.625
20
-95.05
40
0.8
0
CIRCLE
8
BLACK
10
245.7
20
-95.05
40
0.8
0
CIRCLE
8
BLACK
10
269.325
20
-95.05
40
0.8
0
CIRCLE
8
BLACK
10
288.225
20
-95.05
40
0.8
0
CIRCLE
8
BLACK
10
219.712
20
-38.35
40
0.8
0
CIRCLE
8
BLACK
10
269.325
20
4.175
40
0.8
0
CIRCLE
8
BLACK
10
288.225
20
4.175
40
0.8
0
CIRCLE
8
BLACK
10
269.325
20
-19.45
40
0.8
0
CIRCLE
8
BLACK
10
288.225
20
-38.35
40
0.8
0
CIRCLE
8
BLACK
10
294.367
20
-76.15
40
0.8
  0
ENDSEC
  0
EOF
