  0
SECTION
  2
HEADER
  9
$ANGBASE
  50
0.0
  9
$ANGDIR
  70
1
  9
$MEASUREMENT
  70
1
  0
ENDSEC
  0
SECTION
  2
TABLES
  0
TABLE
  2
LTYPE
  70
4
  0
LTYPE
  5
40F
  2
CONTINUOUS
  70
0
  3
Solid line
  72
65
  73
0
  40
0.0
  0
LTYPE
  5
410
  2
DASHDOT
 70
0
  3
Dash Dot ____ _ ____ _
 72
65
 73
4
 40
2.0
 49
1.25
 49
-0.25
 49
0.25
 49
-0.25
  0
LTYPE
  5
411
  2
DASHED
 70
0
  3
Dashed __ __ __ __ __
 72
65
 73
2
 40
0.75
 49
0.5
 49
-0.25
  0
LTYPE
  5
43B
  2
DOTTED
 70
0
  3
Dotted .  .  .  .
 72
65
 73
2
 40
0.2
 49
0.0
 49
-0.2
  0
ENDTAB
  0
TABLE
  2
STYLE
  70
4
  0
STYLE
  2
KICAD
  70
0
  40
0
  41
1
  42
1
  50
0
  71
0
  3
isocp.shx
  0
STYLE
  2
KICADB
  70
0
  40
0
  41
1
  42
1
  50
0
  71
0
  3
isocp.shx
  0
STYLE
  2
KICADI
  70
0
  40
0
  41
1
  42
1
  50
15
  71
0
  3
isocp.shx
  0
STYLE
  2
KICADBI
  70
0
  40
0
  41
1
  42
1
  50
15
  71
0
  3
isocp.shx
  0
ENDTAB
  0
TABLE
  2
LAYER
  70
1
  0
LAYER
  2
BLACK
  70
0
  62
7
  6
CONTINUOUS
  0
ENDTAB
  0
ENDSEC
  0
SECTION
  2
ENTITIES
0
LINE
8
BLACK
6
CONTINUOUS
10
340.625
20
-83.1
11
336.393
21
-83.1
0
LINE
8
BLACK
6
CONTINUOUS
10
336.393
20
36.225
11
340.625
21
36.225
0
ARC
8
BLACK
10
327.957
20
33.325
40
2.9
50
67.201
51
89.9991
0
LINE
8
BLACK
6
CONTINUOUS
10
325.675
20
36.225
11
327.957
21
36.225
0
ARC
8
BLACK
10
322.675
20
38.325
40
2.9
50
90
51
180
0
ARC
8
BLACK
10
336.393
20
33.325
40
2.90002
50
90.0009
51
112.799
0
ARC
8
BLACK
10
336.393
20
-80.2
40
2.9
50
-112.799
51
-90.0009
0
ARC
8
BLACK
10
330.437
20
39.225
40
3.5
50
-112.799
51
-90.0006
0
LINE
8
BLACK
6
CONTINUOUS
10
322.675
20
41.225
11
322.775
21
41.225
0
LINE
8
BLACK
6
CONTINUOUS
10
319.775
20
36.225
11
319.775
21
38.325
0
LINE
8
BLACK
6
CONTINUOUS
10
342.225
20
34.625
11
342.225
21
-81.5
0
ARC
8
BLACK
10
340.625
20
-81.5
40
1.6
50
-90
51
-0
0
ARC
8
BLACK
10
333.913
20
39.225
40
3.50001
50
-89.9994
51
-67.2012
0
ARC
8
BLACK
10
333.913
20
-86.1
40
3.5
50
67.2012
51
89.9994
0
LINE
8
BLACK
6
CONTINUOUS
10
325.675
20
38.325
11
325.675
21
36.225
0
ARC
8
BLACK
10
322.775
20
38.325
40
2.9
50
-0
51
90
0
LINE
8
BLACK
6
CONTINUOUS
10
333.913
20
35.725
11
330.437
21
35.725
0
LINE
8
BLACK
6
CONTINUOUS
10
202.825
20
36.225
11
319.775
21
36.225
0
LINE
8
BLACK
6
CONTINUOUS
10
202.825
20
38.325
11
202.825
21
36.225
0
ARC
8
BLACK
10
199.925
20
38.325
40
2.9
50
-0
51
90
0
LINE
8
BLACK
6
CONTINUOUS
10
199.825
20
41.225
11
199.925
21
41.225
0
ARC
8
BLACK
10
340.625
20
34.625
40
1.6
50
-0
51
90
0
ARC
8
BLACK
10
199.825
20
38.325
40
2.9
50
90
51
180
0
LINE
8
BLACK
6
CONTINUOUS
10
196.925
20
36.225
11
196.925
21
38.325
0
LINE
8
BLACK
6
CONTINUOUS
10
111.869
20
36.225
11
196.925
21
36.225
0
LINE
8
BLACK
6
CONTINUOUS
10
111.869
20
38.325
11
111.869
21
36.225
0
ARC
8
BLACK
10
108.969
20
38.325
40
2.9
50
-1.97572e-05
51
90
0
ARC
8
BLACK
10
191.6
20
-77.85
40
0.5
50
-90
51
-0
0
LINE
8
BLACK
6
CONTINUOUS
10
300.875
20
-85.2
11
300.875
21
-83.1
0
ARC
8
BLACK
10
303.775
20
-85.2
40
2.9
50
-180
51
-90
0
LINE
8
BLACK
6
CONTINUOUS
10
108.869
20
41.225
11
108.969
21
41.225
0
LINE
8
BLACK
6
CONTINUOUS
10
44.825
20
-88.1
11
44.725
21
-88.1
0
ARC
8
BLACK
10
4.41236
20
39.225
40
3.5
50
-112.798
51
-90
0
LINE
8
BLACK
6
CONTINUOUS
10
20.9125
20
36.225
11
105.969
21
36.225
0
LINE
8
BLACK
6
CONTINUOUS
10
76.8
20
-78.35
11
77.3
21
-78.35
0
ARC
8
BLACK
10
-2.3
20
-81.5
40
1.6
50
-180
51
-90
0
LINE
8
BLACK
6
CONTINUOUS
10
9.13736
20
-82.6
11
12.6126
21
-82.6
0
LINE
8
BLACK
6
CONTINUOUS
10
-2.3
20
36.225
11
1.93244
21
36.225
0
LINE
8
BLACK
6
CONTINUOUS
10
105.969
20
36.225
11
105.969
21
38.325
0
LINE
8
BLACK
6
CONTINUOUS
10
41.825
20
-83.1
11
15.0926
21
-83.1
0
ARC
8
BLACK
10
77.3
20
-77.85
40
0.500001
50
-89.9999
51
-0.000114591
0
LINE
8
BLACK
6
CONTINUOUS
10
77.8
20
-77.85
11
77.8
21
-64.55
0
ARC
8
BLACK
10
84.3
20
-64.55
40
0.500001
50
0.000114591
51
89.9999
0
LINE
8
BLACK
6
CONTINUOUS
10
84.8
20
-77.85
11
84.8
21
-64.55
0
LINE
8
BLACK
6
CONTINUOUS
10
85.3
20
-78.35
11
85.8
21
-78.35
0
LINE
8
BLACK
6
CONTINUOUS
10
90.55
20
-83.1
11
90.2526
21
-83.0864
0
LINE
8
BLACK
6
CONTINUOUS
10
90.2526
20
-83.0864
11
89.984
21
-83.0467
0
LINE
8
BLACK
6
CONTINUOUS
10
89.984
20
-83.0467
11
89.7423
21
-82.9826
0
LINE
8
BLACK
6
CONTINUOUS
10
89.7423
20
-82.9826
11
89.332
21
-82.7883
0
LINE
8
BLACK
6
CONTINUOUS
10
89.332
20
-82.7883
11
89.0063
21
-82.5176
0
LINE
8
BLACK
6
CONTINUOUS
10
89.0063
20
-82.5176
11
88.7498
21
-82.1842
0
LINE
8
BLACK
6
CONTINUOUS
10
88.7498
20
-82.1842
11
88.5471
21
-81.802
0
LINE
8
BLACK
6
CONTINUOUS
10
88.5471
20
-81.802
11
88.3829
21
-81.3851
0
LINE
8
BLACK
6
CONTINUOUS
10
88.3829
20
-81.3851
11
88.2417
21
-80.9474
0
LINE
8
BLACK
6
CONTINUOUS
10
88.2417
20
-80.9474
11
88.1083
21
-80.5026
0
LINE
8
BLACK
6
CONTINUOUS
10
88.1083
20
-80.5026
11
87.9671
21
-80.0649
0
LINE
8
BLACK
6
CONTINUOUS
10
87.9671
20
-80.0649
11
87.8029
21
-79.648
0
LINE
8
BLACK
6
CONTINUOUS
10
87.8029
20
-79.648
11
87.6002
21
-79.2658
0
LINE
8
BLACK
6
CONTINUOUS
10
87.6002
20
-79.2658
11
87.3437
21
-78.9324
0
LINE
8
BLACK
6
CONTINUOUS
10
87.3437
20
-78.9324
11
87.018
21
-78.6617
0
LINE
8
BLACK
6
CONTINUOUS
10
87.018
20
-78.6617
11
86.6077
21
-78.4674
0
LINE
8
BLACK
6
CONTINUOUS
10
86.6077
20
-78.4674
11
86.366
21
-78.4033
0
LINE
8
BLACK
6
CONTINUOUS
10
86.366
20
-78.4033
11
86.0974
21
-78.3636
0
LINE
8
BLACK
6
CONTINUOUS
10
86.0974
20
-78.3636
11
85.8
21
-78.35
0
ARC
8
BLACK
10
15.0926
20
-80.2
40
2.90002
50
-112.798
51
-90.0001
0
ARC
8
BLACK
10
192.6
20
-64.55
40
0.5
50
90
51
180
0
LINE
8
BLACK
6
CONTINUOUS
10
10.3676
20
36.225
11
15.0125
21
36.225
0
ARC
8
BLACK
10
44.725
20
-85.2
40
2.9
50
-180
51
-90
0
ARC
8
BLACK
10
198.6
20
-64.55
40
0.5
50
-0
51
90
0
LINE
8
BLACK
6
CONTINUOUS
10
229.175
20
-83.1
11
204.85
21
-83.1
0
LINE
8
BLACK
6
CONTINUOUS
10
72.05
20
-83.1
11
47.725
21
-83.1
0
LINE
8
BLACK
6
CONTINUOUS
10
200.1
20
-78.35
11
199.6
21
-78.35
0
LINE
8
BLACK
6
CONTINUOUS
10
15.0125
20
36.225
11
15.0125
21
38.325
0
LINE
8
BLACK
6
CONTINUOUS
10
7.88764
20
35.725
11
4.41236
21
35.725
0
LINE
8
BLACK
6
CONTINUOUS
10
-3.9
20
-81.5
11
-3.9
21
34.625
0
ARC
8
BLACK
10
18.0125
20
38.325
40
2.9
50
-1.97572e-05
51
90
0
ARC
8
BLACK
10
6.65744
20
-80.2
40
2.90002
50
-89.9999
51
-67.2019
0
LINE
8
BLACK
6
CONTINUOUS
10
41.825
20
-85.2
11
41.825
21
-83.1
0
LINE
8
BLACK
6
CONTINUOUS
10
229.175
20
-85.2
11
229.175
21
-83.1
0
ARC
8
BLACK
10
44.825
20
-85.2
40
2.9
50
-90
51
1.97572e-05
0
LINE
8
BLACK
6
CONTINUOUS
10
199.1
20
-77.85
11
199.1
21
-64.55
0
LINE
8
BLACK
6
CONTINUOUS
10
204.85
20
-83.1
11
204.553
21
-83.0864
0
LINE
8
BLACK
6
CONTINUOUS
10
204.553
20
-83.0864
11
204.284
21
-83.0467
0
LINE
8
BLACK
6
CONTINUOUS
10
204.284
20
-83.0467
11
204.042
21
-82.9826
0
LINE
8
BLACK
6
CONTINUOUS
10
204.042
20
-82.9826
11
203.632
21
-82.7883
0
LINE
8
BLACK
6
CONTINUOUS
10
203.632
20
-82.7883
11
203.306
21
-82.5176
0
LINE
8
BLACK
6
CONTINUOUS
10
203.306
20
-82.5176
11
203.05
21
-82.1842
0
LINE
8
BLACK
6
CONTINUOUS
10
203.05
20
-82.1842
11
202.847
21
-81.802
0
LINE
8
BLACK
6
CONTINUOUS
10
202.847
20
-81.802
11
202.683
21
-81.3851
0
LINE
8
BLACK
6
CONTINUOUS
10
202.683
20
-81.3851
11
202.542
21
-80.9474
0
LINE
8
BLACK
6
CONTINUOUS
10
202.542
20
-80.9474
11
202.408
21
-80.5026
0
LINE
8
BLACK
6
CONTINUOUS
10
202.408
20
-80.5026
11
202.267
21
-80.0649
0
LINE
8
BLACK
6
CONTINUOUS
10
202.267
20
-80.0649
11
202.103
21
-79.648
0
LINE
8
BLACK
6
CONTINUOUS
10
202.103
20
-79.648
11
201.9
21
-79.2658
0
LINE
8
BLACK
6
CONTINUOUS
10
201.9
20
-79.2658
11
201.644
21
-78.9324
0
LINE
8
BLACK
6
CONTINUOUS
10
201.644
20
-78.9324
11
201.318
21
-78.6617
0
LINE
8
BLACK
6
CONTINUOUS
10
201.318
20
-78.6617
11
200.908
21
-78.4674
0
LINE
8
BLACK
6
CONTINUOUS
10
200.908
20
-78.4674
11
200.666
21
-78.4033
0
LINE
8
BLACK
6
CONTINUOUS
10
200.666
20
-78.4033
11
200.397
21
-78.3636
0
LINE
8
BLACK
6
CONTINUOUS
10
200.397
20
-78.3636
11
200.1
21
-78.35
0
ARC
8
BLACK
10
85.3
20
-77.85
40
0.500001
50
-180
51
-90.0001
0
ARC
8
BLACK
10
10.3676
20
33.325
40
2.90002
50
90.0001
51
112.798
0
ARC
8
BLACK
10
232.075
20
-85.2
40
2.9
50
-180
51
-90
0
LINE
8
BLACK
6
CONTINUOUS
10
232.175
20
-88.1
11
232.075
21
-88.1
0
ARC
8
BLACK
10
108.869
20
38.325
40
2.9
50
-270
51
-180
0
ARC
8
BLACK
10
9.13736
20
-86.1
40
3.5
50
90
51
112.798
0
LINE
8
BLACK
6
CONTINUOUS
10
186.35
20
-83.1
11
90.55
21
-83.1
0
LINE
8
BLACK
6
CONTINUOUS
10
192.1
20
-77.85
11
192.1
21
-64.55
0
LINE
8
BLACK
6
CONTINUOUS
10
198.6
20
-64.05
11
192.6
21
-64.05
0
ARC
8
BLACK
10
199.6
20
-77.85
40
0.5
50
-180
51
-90
0
ARC
8
BLACK
10
232.175
20
-85.2
40
2.9
50
-90
51
-0
0
LINE
8
BLACK
6
CONTINUOUS
10
235.075
20
-83.1
11
235.075
21
-85.2
0
LINE
8
BLACK
6
CONTINUOUS
10
300.875
20
-83.1
11
235.075
21
-83.1
0
LINE
8
BLACK
6
CONTINUOUS
10
20.9125
20
38.325
11
20.9125
21
36.225
0
ARC
8
BLACK
10
78.3
20
-64.55
40
0.500001
50
90.0001
51
180
0
ARC
8
BLACK
10
17.9125
20
38.325
40
2.9
50
-270
51
-180
0
LINE
8
BLACK
6
CONTINUOUS
10
6.65744
20
-83.1
11
-2.3
21
-83.1
0
LINE
8
BLACK
6
CONTINUOUS
10
17.9125
20
41.225
11
18.0125
21
41.225
0
ARC
8
BLACK
10
7.88764
20
39.225
40
3.5
50
-90
51
-67.2018
0
ARC
8
BLACK
10
1.93244
20
33.325
40
2.90002
50
67.2019
51
89.9999
0
ARC
8
BLACK
10
12.6126
20
-86.1
40
3.5
50
67.2018
51
90
0
LINE
8
BLACK
6
CONTINUOUS
10
47.725
20
-83.1
11
47.725
21
-85.2
0
LINE
8
BLACK
6
CONTINUOUS
10
72.05
20
-83.1
11
72.3474
21
-83.0864
0
LINE
8
BLACK
6
CONTINUOUS
10
72.3474
20
-83.0864
11
72.616
21
-83.0467
0
LINE
8
BLACK
6
CONTINUOUS
10
72.616
20
-83.0467
11
72.8577
21
-82.9826
0
LINE
8
BLACK
6
CONTINUOUS
10
72.8577
20
-82.9826
11
73.268
21
-82.7883
0
LINE
8
BLACK
6
CONTINUOUS
10
73.268
20
-82.7883
11
73.5937
21
-82.5176
0
LINE
8
BLACK
6
CONTINUOUS
10
73.5937
20
-82.5176
11
73.8502
21
-82.1842
0
LINE
8
BLACK
6
CONTINUOUS
10
73.8502
20
-82.1842
11
74.0529
21
-81.802
0
LINE
8
BLACK
6
CONTINUOUS
10
74.0529
20
-81.802
11
74.2171
21
-81.3851
0
LINE
8
BLACK
6
CONTINUOUS
10
74.2171
20
-81.3851
11
74.3583
21
-80.9474
0
LINE
8
BLACK
6
CONTINUOUS
10
74.3583
20
-80.9474
11
74.4917
21
-80.5026
0
LINE
8
BLACK
6
CONTINUOUS
10
74.4917
20
-80.5026
11
74.6329
21
-80.0649
0
LINE
8
BLACK
6
CONTINUOUS
10
74.6329
20
-80.0649
11
74.7971
21
-79.648
0
LINE
8
BLACK
6
CONTINUOUS
10
74.7971
20
-79.648
11
74.9998
21
-79.2658
0
LINE
8
BLACK
6
CONTINUOUS
10
74.9998
20
-79.2658
11
75.2563
21
-78.9324
0
LINE
8
BLACK
6
CONTINUOUS
10
75.2563
20
-78.9324
11
75.582
21
-78.6617
0
LINE
8
BLACK
6
CONTINUOUS
10
75.582
20
-78.6617
11
75.9923
21
-78.4674
0
LINE
8
BLACK
6
CONTINUOUS
10
75.9923
20
-78.4674
11
76.234
21
-78.4033
0
LINE
8
BLACK
6
CONTINUOUS
10
76.234
20
-78.4033
11
76.5026
21
-78.3636
0
LINE
8
BLACK
6
CONTINUOUS
10
76.5026
20
-78.3636
11
76.8
21
-78.35
0
LINE
8
BLACK
6
CONTINUOUS
10
84.3
20
-64.05
11
78.3
21
-64.05
0
ARC
8
BLACK
10
-2.3
20
34.625
40
1.6
50
-270
51
-180
0
LINE
8
BLACK
6
CONTINUOUS
10
186.35
20
-83.1
11
186.647
21
-83.0864
0
LINE
8
BLACK
6
CONTINUOUS
10
186.647
20
-83.0864
11
186.916
21
-83.0467
0
LINE
8
BLACK
6
CONTINUOUS
10
186.916
20
-83.0467
11
187.158
21
-82.9826
0
LINE
8
BLACK
6
CONTINUOUS
10
187.158
20
-82.9826
11
187.568
21
-82.7883
0
LINE
8
BLACK
6
CONTINUOUS
10
187.568
20
-82.7883
11
187.894
21
-82.5176
0
LINE
8
BLACK
6
CONTINUOUS
10
187.894
20
-82.5176
11
188.15
21
-82.1842
0
LINE
8
BLACK
6
CONTINUOUS
10
188.15
20
-82.1842
11
188.353
21
-81.802
0
LINE
8
BLACK
6
CONTINUOUS
10
188.353
20
-81.802
11
188.517
21
-81.3851
0
LINE
8
BLACK
6
CONTINUOUS
10
188.517
20
-81.3851
11
188.658
21
-80.9474
0
LINE
8
BLACK
6
CONTINUOUS
10
188.658
20
-80.9474
11
188.792
21
-80.5026
0
LINE
8
BLACK
6
CONTINUOUS
10
188.792
20
-80.5026
11
188.933
21
-80.0649
0
LINE
8
BLACK
6
CONTINUOUS
10
188.933
20
-80.0649
11
189.097
21
-79.648
0
LINE
8
BLACK
6
CONTINUOUS
10
189.097
20
-79.648
11
189.3
21
-79.2658
0
LINE
8
BLACK
6
CONTINUOUS
10
189.3
20
-79.2658
11
189.556
21
-78.9324
0
LINE
8
BLACK
6
CONTINUOUS
10
189.556
20
-78.9324
11
189.882
21
-78.6617
0
LINE
8
BLACK
6
CONTINUOUS
10
189.882
20
-78.6617
11
190.292
21
-78.4674
0
LINE
8
BLACK
6
CONTINUOUS
10
190.292
20
-78.4674
11
190.534
21
-78.4033
0
LINE
8
BLACK
6
CONTINUOUS
10
190.534
20
-78.4033
11
190.803
21
-78.3636
0
LINE
8
BLACK
6
CONTINUOUS
10
190.803
20
-78.3636
11
191.1
21
-78.35
0
LINE
8
BLACK
6
CONTINUOUS
10
191.6
20
-78.35
11
191.1
21
-78.35
0
ARC
8
BLACK
10
237.125
20
-67.55
40
1
50
90
51
180
0
LINE
8
BLACK
6
CONTINUOUS
10
126.55
20
-68.55
11
126.55
21
-73.55
0
ARC
8
BLACK
10
245.274
20
-62.65
40
0.5
50
-90
51
-0
0
ARC
8
BLACK
10
231.175
20
-60.65
40
0.5
50
-180
51
-90
0
ARC
8
BLACK
10
269.9
20
-61.4
40
0.25
50
90
51
180
0
ARC
8
BLACK
10
231.175
20
-47.65
40
0.5
50
90
51
180
0
LINE
8
BLACK
6
CONTINUOUS
10
306.775
20
-83.1
11
306.775
21
-85.2
0
LINE
8
BLACK
6
CONTINUOUS
10
330.437
20
-82.6
11
333.913
21
-82.6
0
LINE
8
BLACK
6
CONTINUOUS
10
239.274
20
-63.15
11
245.274
21
-63.15
0
LINE
8
BLACK
6
CONTINUOUS
10
230.675
20
-47.65
11
230.675
21
-60.65
0
ARC
8
BLACK
10
327.957
20
-80.2
40
2.90002
50
-89.9991
51
-67.201
0
LINE
8
BLACK
6
CONTINUOUS
10
262.65
20
-61.4
11
262.65
21
-62.65
0
LINE
8
BLACK
6
CONTINUOUS
10
277.75
20
-47.65
11
277.75
21
-60.65
0
ARC
8
BLACK
10
330.437
20
-86.1
40
3.50001
50
90.0006
51
112.799
0
LINE
8
BLACK
6
CONTINUOUS
10
249.125
20
-67.55
11
249.125
21
-78.55
0
ARC
8
BLACK
10
248.125
20
-78.55
40
1
50
-90
51
-0
0
LINE
8
BLACK
6
CONTINUOUS
10
237.125
20
-79.55
11
248.125
21
-79.55
0
LINE
8
BLACK
6
CONTINUOUS
10
238.774
20
-61.4
11
238.774
21
-62.65
0
LINE
8
BLACK
6
CONTINUOUS
10
236.125
20
-67.55
11
236.125
21
-78.55
0
LINE
8
BLACK
6
CONTINUOUS
10
90.7
20
-74.55
11
125.55
21
-74.55
0
ARC
8
BLACK
10
90.7
20
-73.55
40
0.999999
50
-180
51
-89.9999
0
ARC
8
BLACK
10
90.7
20
-68.55
40
0.999999
50
-270
51
-180
0
ARC
8
BLACK
10
125.55
20
-73.55
40
0.999999
50
-90.0001
51
5.72958e-05
0
LINE
8
BLACK
6
CONTINUOUS
10
246.024
20
-61.15
11
262.4
21
-61.15
0
LINE
8
BLACK
6
CONTINUOUS
10
231.175
20
-61.15
11
238.524
21
-61.15
0
ARC
8
BLACK
10
248.125
20
-67.55
40
1
50
-0
51
90
0
ARC
8
BLACK
10
277.25
20
-60.65
40
0.5
50
-90
51
-0
0
LINE
8
BLACK
6
CONTINUOUS
10
183.925
20
15.8625
11
253.625
21
15.8625
0
LINE
8
BLACK
6
CONTINUOUS
10
89.7
20
-68.55
11
89.7
21
-73.55
0
ARC
8
BLACK
10
253.625
20
13.3625
40
0.5
50
-90
51
-0
0
ARC
8
BLACK
10
283.562
20
9.05
40
0.5
50
-0
51
90
0
LINE
8
BLACK
6
CONTINUOUS
10
183.925
20
12.8625
11
253.625
21
12.8625
0
LINE
8
BLACK
6
CONTINUOUS
10
284.062
20
9.05
11
284.062
21
-79.55
0
LINE
8
BLACK
6
CONTINUOUS
10
303.875
20
-88.1
11
303.775
21
-88.1
0
LINE
8
BLACK
6
CONTINUOUS
10
254.125
20
15.3625
11
254.125
21
13.3625
0
LINE
8
BLACK
6
CONTINUOUS
10
231.175
20
-47.15
11
277.25
21
-47.15
0
LINE
8
BLACK
6
CONTINUOUS
10
269.65
20
-61.4
11
269.65
21
-62.65
0
ARC
8
BLACK
10
283.562
20
-79.55
40
0.5
50
-90
51
-0
0
ARC
8
BLACK
10
281.562
20
-79.55
40
0.5
50
-180
51
-90
0
ARC
8
BLACK
10
238.524
20
-61.4
40
0.25
50
-0
51
90
0
ARC
8
BLACK
10
239.274
20
-62.65
40
0.5
50
-180
51
-90
0
LINE
8
BLACK
6
CONTINUOUS
10
245.774
20
-61.4
11
245.774
21
-62.65
0
LINE
8
BLACK
6
CONTINUOUS
10
281.062
20
9.05
11
281.062
21
-79.55
0
LINE
8
BLACK
6
CONTINUOUS
10
263.15
20
-63.15
11
269.15
21
-63.15
0
ARC
8
BLACK
10
237.125
20
-78.55
40
1
50
-180
51
-90
0
ARC
8
BLACK
10
269.15
20
-62.65
40
0.5
50
-90
51
-0
0
LINE
8
BLACK
6
CONTINUOUS
10
281.562
20
9.55
11
283.562
21
9.55
0
LINE
8
BLACK
6
CONTINUOUS
10
264.25
20
15.8625
11
277.25
21
15.8625
0
LINE
8
BLACK
6
CONTINUOUS
10
183.425
20
15.3625
11
183.425
21
13.3625
0
ARC
8
BLACK
10
246.024
20
-61.4
40
0.25
50
90
51
180
0
LINE
8
BLACK
6
CONTINUOUS
10
327.957
20
-83.1
11
306.775
21
-83.1
0
LINE
8
BLACK
6
CONTINUOUS
10
281.562
20
-80.05
11
283.562
21
-80.05
0
ARC
8
BLACK
10
183.925
20
13.3625
40
0.5
50
-180
51
-90
0
ARC
8
BLACK
10
277.25
20
-47.65
40
0.5
50
-0
51
90
0
ARC
8
BLACK
10
281.562
20
9.05
40
0.5
50
90
51
180
0
LINE
8
BLACK
6
CONTINUOUS
10
269.9
20
-61.15
11
277.25
21
-61.15
0
LINE
8
BLACK
6
CONTINUOUS
10
90.7
20
-67.55
11
125.55
21
-67.55
0
ARC
8
BLACK
10
253.625
20
15.3625
40
0.5
50
-0
51
90
0
ARC
8
BLACK
10
263.15
20
-62.65
40
0.5
50
-180
51
-90
0
LINE
8
BLACK
6
CONTINUOUS
10
237.125
20
-66.55
11
248.125
21
-66.55
0
ARC
8
BLACK
10
262.4
20
-61.4
40
0.25
50
-0
51
90
0
ARC
8
BLACK
10
183.925
20
15.3625
40
0.5
50
90
51
180
0
ARC
8
BLACK
10
125.55
20
-68.55
40
0.999999
50
-5.72958e-05
51
90.0001
0
ARC
8
BLACK
10
303.875
20
-85.2
40
2.9
50
-90
51
-0
0
LINE
8
BLACK
6
CONTINUOUS
10
217
20
-23.35
11
230
21
-23.35
0
ARC
8
BLACK
10
198.1
20
-22.85
40
0.5
50
-180
51
-90
0
LINE
8
BLACK
6
CONTINUOUS
10
27.775
20
-67.55
11
27.775
21
-78.55
0
LINE
8
BLACK
6
CONTINUOUS
10
277.75
20
15.3625
11
277.75
21
13.3625
0
ARC
8
BLACK
10
28.775
20
-78.55
40
0.999999
50
-180
51
-89.9999
0
ARC
8
BLACK
10
18.9625
20
13.3625
40
0.500001
50
-89.9999
51
-0.000114591
0
LINE
8
BLACK
6
CONTINUOUS
10
40.775
20
-67.55
11
40.775
21
-78.55
0
ARC
8
BLACK
10
257.938
20
13.3625
40
0.5
50
-180
51
-90
0
ARC
8
BLACK
10
259.938
20
32.675
40
0.5
50
-0
51
90
0
LINE
8
BLACK
6
CONTINUOUS
10
264.25
20
12.8625
11
277.25
21
12.8625
0
ARC
8
BLACK
10
257.938
20
32.675
40
0.5
50
90
51
180
0
LINE
8
BLACK
6
CONTINUOUS
10
16.4625
20
32.675
11
16.4625
21
13.3625
0
LINE
8
BLACK
6
CONTINUOUS
10
18.9625
20
12.8625
11
16.9625
21
12.8625
0
LINE
8
BLACK
6
CONTINUOUS
10
257.938
20
33.175
11
259.938
21
33.175
0
LINE
8
BLACK
6
CONTINUOUS
10
300.875
20
-9.35
11
287.875
21
-9.35
0
LINE
8
BLACK
6
CONTINUOUS
10
260.438
20
13.3625
11
260.438
21
32.675
0
ARC
8
BLACK
10
300.875
20
-9.85
40
0.5
50
-0
51
90
0
ARC
8
BLACK
10
287.875
20
-22.85
40
0.5
50
-180
51
-90
0
LINE
8
BLACK
6
CONTINUOUS
10
301.375
20
-22.85
11
301.375
21
-9.85
0
ARC
8
BLACK
10
235.9
20
-22.85
40
0.5
50
-180
51
-90
0
ARC
8
BLACK
10
177.612
20
13.3625
40
0.5
50
-180
51
-90
0
LINE
8
BLACK
6
CONTINUOUS
10
177.112
20
32.675
11
177.112
21
13.3625
0
LINE
8
BLACK
6
CONTINUOUS
10
248.9
20
-9.35
11
235.9
21
-9.35
0
ARC
8
BLACK
10
39.775
20
-78.55
40
0.999999
50
-90.0001
51
5.72958e-05
0
LINE
8
BLACK
6
CONTINUOUS
10
18.9625
20
33.175
11
16.9625
21
33.175
0
ARC
8
BLACK
10
179.612
20
32.675
40
0.5
50
-0
51
90
0
ARC
8
BLACK
10
264.25
20
15.3625
40
0.5
50
90
51
180
0
ARC
8
BLACK
10
287.875
20
-9.85
40
0.5
50
90
51
180
0
LINE
8
BLACK
6
CONTINUOUS
10
235.4
20
-9.85
11
235.4
21
-22.85
0
LINE
8
BLACK
6
CONTINUOUS
10
216.5
20
-9.85
11
216.5
21
-22.85
0
ARC
8
BLACK
10
217
20
-9.85
40
0.5
50
90
51
180
0
ARC
8
BLACK
10
179.612
20
13.3625
40
0.5
50
-90
51
-0
0
LINE
8
BLACK
6
CONTINUOUS
10
177.612
20
33.175
11
179.612
21
33.175
0
ARC
8
BLACK
10
177.612
20
32.675
40
0.5
50
90
51
180
0
ARC
8
BLACK
10
264.25
20
13.3625
40
0.5
50
-180
51
-90
0
LINE
8
BLACK
6
CONTINUOUS
10
28.775
20
-66.55
11
39.775
21
-66.55
0
ARC
8
BLACK
10
28.775
20
-67.55
40
0.999999
50
-270
51
-180
0
LINE
8
BLACK
6
CONTINUOUS
10
180.112
20
32.675
11
180.112
21
13.3625
0
ARC
8
BLACK
10
259.938
20
13.3625
40
0.5
50
-90
51
-0
0
LINE
8
BLACK
6
CONTINUOUS
10
287.375
20
-9.85
11
287.375
21
-22.85
0
LINE
8
BLACK
6
CONTINUOUS
10
177.612
20
12.8625
11
179.612
21
12.8625
0
ARC
8
BLACK
10
277.25
20
15.3625
40
0.5
50
-0
51
90
0
LINE
8
BLACK
6
CONTINUOUS
10
19.4625
20
32.675
11
19.4625
21
13.3625
0
ARC
8
BLACK
10
39.775
20
-67.55
40
0.999999
50
-5.72958e-05
51
90.0001
0
ARC
8
BLACK
10
277.25
20
13.3625
40
0.5
50
-90
51
-0
0
LINE
8
BLACK
6
CONTINUOUS
10
263.75
20
15.3625
11
263.75
21
13.3625
0
ARC
8
BLACK
10
16.9625
20
13.3625
40
0.500001
50
-180
51
-90.0001
0
ARC
8
BLACK
10
300.875
20
-22.85
40
0.5
50
-90
51
-0
0
ARC
8
BLACK
10
248.9
20
-9.85
40
0.5
50
-0
51
90
0
ARC
8
BLACK
10
18.9625
20
32.675
40
0.500001
50
0.000114591
51
89.9999
0
LINE
8
BLACK
6
CONTINUOUS
10
257.438
20
13.3625
11
257.438
21
32.675
0
LINE
8
BLACK
6
CONTINUOUS
10
249.4
20
-22.85
11
249.4
21
-9.85
0
ARC
8
BLACK
10
248.9
20
-22.85
40
0.5
50
-90
51
-0
0
LINE
8
BLACK
6
CONTINUOUS
10
287.875
20
-23.35
11
300.875
21
-23.35
0
LINE
8
BLACK
6
CONTINUOUS
10
230
20
-9.35
11
217
21
-9.35
0
ARC
8
BLACK
10
235.9
20
-9.85
40
0.5
50
90
51
180
0
ARC
8
BLACK
10
230
20
-9.85
40
0.5
50
-0
51
90
0
LINE
8
BLACK
6
CONTINUOUS
10
230.5
20
-22.85
11
230.5
21
-9.85
0
LINE
8
BLACK
6
CONTINUOUS
10
235.9
20
-23.35
11
248.9
21
-23.35
0
ARC
8
BLACK
10
217
20
-22.85
40
0.5
50
-180
51
-90
0
ARC
8
BLACK
10
16.9625
20
32.675
40
0.500001
50
90.0001
51
180
0
LINE
8
BLACK
6
CONTINUOUS
10
28.775
20
-79.55
11
39.775
21
-79.55
0
ARC
8
BLACK
10
230
20
-22.85
40
0.5
50
-90
51
-0
0
LINE
8
BLACK
6
CONTINUOUS
10
257.938
20
12.8625
11
259.938
21
12.8625
0
ARC
8
BLACK
10
198.1
20
-9.85
40
0.5
50
90
51
180
0
LINE
8
BLACK
6
CONTINUOUS
10
198.1
20
-23.35
11
211.1
21
-23.35
0
LINE
8
BLACK
6
CONTINUOUS
10
154.4
20
-9.35
11
141.4
21
-9.35
0
ARC
8
BLACK
10
154.4
20
-22.85
40
0.500001
50
-89.9999
51
-0.000114591
0
ARC
8
BLACK
10
179.2
20
-22.85
40
0.5
50
-180
51
-90
0
LINE
8
BLACK
6
CONTINUOUS
10
140.9
20
-9.85
11
140.9
21
-22.85
0
ARC
8
BLACK
10
211.1
20
-9.85
40
0.5
50
-0
51
90
0
LINE
8
BLACK
6
CONTINUOUS
10
192.2
20
-9.35
11
179.2
21
-9.35
0
LINE
8
BLACK
6
CONTINUOUS
10
179.2
20
-23.35
11
192.2
21
-23.35
0
LINE
8
BLACK
6
CONTINUOUS
10
173.3
20
-9.35
11
160.3
21
-9.35
0
ARC
8
BLACK
10
173.3
20
-22.85
40
0.5
50
-90
51
-0
0
LINE
8
BLACK
6
CONTINUOUS
10
141.4
20
-23.35
11
154.4
21
-23.35
0
LINE
8
BLACK
6
CONTINUOUS
10
59.9
20
-9.35
11
46.9
21
-9.35
0
LINE
8
BLACK
6
CONTINUOUS
10
211.6
20
-22.85
11
211.6
21
-9.85
0
LINE
8
BLACK
6
CONTINUOUS
10
173.8
20
-22.85
11
173.8
21
-9.85
0
LINE
8
BLACK
6
CONTINUOUS
10
211.1
20
-9.35
11
198.1
21
-9.35
0
ARC
8
BLACK
10
141.4
20
-22.85
40
0.500001
50
-180
51
-90.0001
0
ARC
8
BLACK
10
59.9
20
-9.85
40
0.500001
50
0.000114591
51
89.9999
0
ARC
8
BLACK
10
28
20
-22.85
40
0.500001
50
-180
51
-90.0001
0
ARC
8
BLACK
10
211.1
20
-22.85
40
0.5
50
-90
51
-0
0
LINE
8
BLACK
6
CONTINUOUS
10
159.8
20
-9.85
11
159.8
21
-22.85
0
ARC
8
BLACK
10
154.4
20
-9.85
40
0.500001
50
0.000114591
51
89.9999
0
ARC
8
BLACK
10
192.2
20
-9.85
40
0.5
50
-0
51
90
0
ARC
8
BLACK
10
179.2
20
-9.85
40
0.5
50
90
51
180
0
LINE
8
BLACK
6
CONTINUOUS
10
160.3
20
-23.35
11
173.3
21
-23.35
0
ARC
8
BLACK
10
141.4
20
-9.85
40
0.500001
50
90.0001
51
180
0
ARC
8
BLACK
10
46.9
20
-22.85
40
0.500001
50
-180
51
-90.0001
0
LINE
8
BLACK
6
CONTINUOUS
10
46.4
20
-9.85
11
46.4
21
-22.85
0
ARC
8
BLACK
10
46.9
20
-9.85
40
0.500001
50
90.0001
51
180
0
ARC
8
BLACK
10
160.3
20
-9.85
40
0.500001
50
90.0001
51
180
0
LINE
8
BLACK
6
CONTINUOUS
10
60.4
20
-22.85
11
60.4
21
-9.85
0
ARC
8
BLACK
10
59.9
20
-22.85
40
0.500001
50
-89.9999
51
-0.000114591
0
LINE
8
BLACK
6
CONTINUOUS
10
46.9
20
-23.35
11
59.9
21
-23.35
0
ARC
8
BLACK
10
192.2
20
-22.85
40
0.5
50
-90
51
-0
0
LINE
8
BLACK
6
CONTINUOUS
10
27.5
20
-9.85
11
27.5
21
-22.85
0
ARC
8
BLACK
10
28
20
-9.85
40
0.500001
50
90.0001
51
180
0
LINE
8
BLACK
6
CONTINUOUS
10
192.7
20
-22.85
11
192.7
21
-9.85
0
ARC
8
BLACK
10
160.3
20
-22.85
40
0.500001
50
-180
51
-90.0001
0
LINE
8
BLACK
6
CONTINUOUS
10
154.9
20
-22.85
11
154.9
21
-9.85
0
LINE
8
BLACK
6
CONTINUOUS
10
178.7
20
-9.85
11
178.7
21
-22.85
0
ARC
8
BLACK
10
173.3
20
-9.85
40
0.5
50
-0
51
90
0
LINE
8
BLACK
6
CONTINUOUS
10
197.6
20
-9.85
11
197.6
21
-22.85
0
LINE
8
BLACK
6
CONTINUOUS
10
41
20
-9.35
11
28
21
-9.35
0
ARC
8
BLACK
10
169.75
20
9.05
40
0.5
50
90
51
180
0
LINE
8
BLACK
6
CONTINUOUS
10
183.25
20
-3.95
11
183.25
21
9.05
0
ARC
8
BLACK
10
226.45
20
-3.95
40
0.5
50
-180
51
-90
0
ARC
8
BLACK
10
239.45
20
-3.95
40
0.5
50
-90
51
-0
0
ARC
8
BLACK
10
220.55
20
-3.95
40
0.5
50
-90
51
-0
0
ARC
8
BLACK
10
207.55
20
-3.95
40
0.5
50
-180
51
-90
0
LINE
8
BLACK
6
CONTINUOUS
10
225.95
20
9.05
11
225.95
21
-3.95
0
LINE
8
BLACK
6
CONTINUOUS
10
188.65
20
-4.45
11
201.65
21
-4.45
0
LINE
8
BLACK
6
CONTINUOUS
10
226.45
20
-4.45
11
239.45
21
-4.45
0
LINE
8
BLACK
6
CONTINUOUS
10
169.25
20
9.05
11
169.25
21
-3.95
0
ARC
8
BLACK
10
201.65
20
-3.95
40
0.5
50
-90
51
-0
0
LINE
8
BLACK
6
CONTINUOUS
10
220.55
20
9.55
11
207.55
21
9.55
0
LINE
8
BLACK
6
CONTINUOUS
10
202.15
20
-3.95
11
202.15
21
9.05
0
LINE
8
BLACK
6
CONTINUOUS
10
169.75
20
-4.45
11
182.75
21
-4.45
0
LINE
8
BLACK
6
CONTINUOUS
10
163.85
20
9.55
11
150.85
21
9.55
0
ARC
8
BLACK
10
163.85
20
-3.95
40
0.500001
50
-89.9999
51
-0.000114591
0
ARC
8
BLACK
10
131.95
20
9.05
40
0.500001
50
90.0001
51
180
0
LINE
8
BLACK
6
CONTINUOUS
10
239.45
20
9.55
11
226.45
21
9.55
0
LINE
8
BLACK
6
CONTINUOUS
10
131.95
20
-4.45
11
144.95
21
-4.45
0
ARC
8
BLACK
10
150.85
20
-3.95
40
0.500001
50
-180
51
-90.0001
0
LINE
8
BLACK
6
CONTINUOUS
10
112.55
20
9.05
11
112.55
21
-3.95
0
LINE
8
BLACK
6
CONTINUOUS
10
113.05
20
-4.45
11
126.05
21
-4.45
0
ARC
8
BLACK
10
182.75
20
-3.95
40
0.5
50
-90
51
-0
0
LINE
8
BLACK
6
CONTINUOUS
10
301.375
20
-3.95
11
301.375
21
9.05
0
LINE
8
BLACK
6
CONTINUOUS
10
239.95
20
-3.95
11
239.95
21
9.05
0
ARC
8
BLACK
10
201.65
20
9.05
40
0.5
50
-0
51
90
0
ARC
8
BLACK
10
220.55
20
9.05
40
0.5
50
-0
51
90
0
ARC
8
BLACK
10
144.95
20
9.05
40
0.500001
50
0.000114591
51
89.9999
0
LINE
8
BLACK
6
CONTINUOUS
10
150.35
20
9.05
11
150.35
21
-3.95
0
ARC
8
BLACK
10
126.05
20
9.05
40
0.500001
50
0.000114591
51
89.9999
0
ARC
8
BLACK
10
94.15
20
-3.95
40
0.500001
50
-180
51
-90.0001
0
LINE
8
BLACK
6
CONTINUOUS
10
150.85
20
-4.45
11
163.85
21
-4.45
0
ARC
8
BLACK
10
94.15
20
9.05
40
0.500001
50
90.0001
51
180
0
LINE
8
BLACK
6
CONTINUOUS
10
164.35
20
-3.95
11
164.35
21
9.05
0
ARC
8
BLACK
10
113.05
20
9.05
40
0.500001
50
90.0001
51
180
0
LINE
8
BLACK
6
CONTINUOUS
10
207.05
20
9.05
11
207.05
21
-3.95
0
LINE
8
BLACK
6
CONTINUOUS
10
207.55
20
-4.45
11
220.55
21
-4.45
0
LINE
8
BLACK
6
CONTINUOUS
10
126.55
20
-3.95
11
126.55
21
9.05
0
LINE
8
BLACK
6
CONTINUOUS
10
107.15
20
9.55
11
94.15
21
9.55
0
ARC
8
BLACK
10
239.45
20
9.05
40
0.5
50
-0
51
90
0
ARC
8
BLACK
10
226.45
20
9.05
40
0.5
50
90
51
180
0
LINE
8
BLACK
6
CONTINUOUS
10
287.875
20
-4.45
11
300.875
21
-4.45
0
LINE
8
BLACK
6
CONTINUOUS
10
145.45
20
-3.95
11
145.45
21
9.05
0
LINE
8
BLACK
6
CONTINUOUS
10
188.15
20
9.05
11
188.15
21
-3.95
0
ARC
8
BLACK
10
169.75
20
-3.95
40
0.5
50
-180
51
-90
0
ARC
8
BLACK
10
188.65
20
-3.95
40
0.5
50
-180
51
-90
0
ARC
8
BLACK
10
144.95
20
-3.95
40
0.500001
50
-89.9999
51
-0.000114591
0
ARC
8
BLACK
10
113.05
20
-3.95
40
0.500001
50
-180
51
-90.0001
0
LINE
8
BLACK
6
CONTINUOUS
10
131.45
20
9.05
11
131.45
21
-3.95
0
ARC
8
BLACK
10
300.875
20
-3.95
40
0.5
50
-90
51
-0
0
LINE
8
BLACK
6
CONTINUOUS
10
126.05
20
9.55
11
113.05
21
9.55
0
ARC
8
BLACK
10
126.05
20
-3.95
40
0.500001
50
-89.9999
51
-0.000114591
0
ARC
8
BLACK
10
131.95
20
-3.95
40
0.500001
50
-180
51
-90.0001
0
ARC
8
BLACK
10
207.55
20
9.05
40
0.5
50
90
51
180
0
LINE
8
BLACK
6
CONTINUOUS
10
144.95
20
9.55
11
131.95
21
9.55
0
LINE
8
BLACK
6
CONTINUOUS
10
221.05
20
-3.95
11
221.05
21
9.05
0
LINE
8
BLACK
6
CONTINUOUS
10
182.75
20
9.55
11
169.75
21
9.55
0
ARC
8
BLACK
10
163.85
20
9.05
40
0.500001
50
0.000114591
51
89.9999
0
ARC
8
BLACK
10
188.65
20
9.05
40
0.5
50
90
51
180
0
LINE
8
BLACK
6
CONTINUOUS
10
201.65
20
9.55
11
188.65
21
9.55
0
ARC
8
BLACK
10
107.15
20
9.05
40
0.500001
50
0.000114591
51
89.9999
0
LINE
8
BLACK
6
CONTINUOUS
10
93.65
20
9.05
11
93.65
21
-3.95
0
ARC
8
BLACK
10
182.75
20
9.05
40
0.5
50
-0
51
90
0
ARC
8
BLACK
10
150.85
20
9.05
40
0.500001
50
90.0001
51
180
0
LINE
8
BLACK
6
CONTINUOUS
10
28
20
-23.35
11
41
21
-23.35
0
ARC
8
BLACK
10
103.6
20
-9.85
40
0.500001
50
90.0001
51
180
0
ARC
8
BLACK
10
325.675
20
-3.95
40
0.5
50
-180
51
-90
0
ARC
8
BLACK
10
338.675
20
-3.95
40
0.5
50
-90
51
-0
0
ARC
8
BLACK
10
78.8
20
-22.85
40
0.500001
50
-89.9999
51
-0.000114591
0
ARC
8
BLACK
10
65.8
20
-22.85
40
0.500001
50
-180
51
-90.0001
0
LINE
8
BLACK
6
CONTINUOUS
10
325.175
20
9.05
11
325.175
21
-3.95
0
ARC
8
BLACK
10
17.375
20
-9.85
40
0.500001
50
0.000114591
51
89.9999
0
LINE
8
BLACK
6
CONTINUOUS
10
325.675
20
-4.45
11
338.675
21
-4.45
0
LINE
8
BLACK
6
CONTINUOUS
10
84.7
20
-23.35
11
97.7
21
-23.35
0
ARC
8
BLACK
10
97.7
20
-22.85
40
0.500001
50
-89.9999
51
-0.000114591
0
LINE
8
BLACK
6
CONTINUOUS
10
78.8
20
-9.35
11
65.8
21
-9.35
0
LINE
8
BLACK
6
CONTINUOUS
10
41.5
20
-22.85
11
41.5
21
-9.85
0
LINE
8
BLACK
6
CONTINUOUS
10
98.2
20
-22.85
11
98.2
21
-9.85
0
LINE
8
BLACK
6
CONTINUOUS
10
17.875
20
-22.85
11
17.875
21
-9.85
0
LINE
8
BLACK
6
CONTINUOUS
10
103.1
20
-9.85
11
103.1
21
-22.85
0
LINE
8
BLACK
6
CONTINUOUS
10
117.1
20
-22.85
11
117.1
21
-9.85
0
LINE
8
BLACK
6
CONTINUOUS
10
338.675
20
9.55
11
325.675
21
9.55
0
LINE
8
BLACK
6
CONTINUOUS
10
103.6
20
-23.35
11
116.6
21
-23.35
0
ARC
8
BLACK
10
122.5
20
-22.85
40
0.500001
50
-180
51
-90.0001
0
LINE
8
BLACK
6
CONTINUOUS
10
135.5
20
-9.35
11
122.5
21
-9.35
0
ARC
8
BLACK
10
135.5
20
-22.85
40
0.500001
50
-89.9999
51
-0.000114591
0
ARC
8
BLACK
10
116.6
20
-22.85
40
0.500001
50
-89.9999
51
-0.000114591
0
ARC
8
BLACK
10
127.225
20
-28.75
40
0.500001
50
90.0001
51
180
0
LINE
8
BLACK
6
CONTINUOUS
10
339.175
20
-3.95
11
339.175
21
9.05
0
ARC
8
BLACK
10
97.7
20
-9.85
40
0.500001
50
0.000114591
51
89.9999
0
ARC
8
BLACK
10
78.8
20
-9.85
40
0.500001
50
0.000114591
51
89.9999
0
ARC
8
BLACK
10
140.225
20
-28.75
40
0.500001
50
0.000114591
51
89.9999
0
ARC
8
BLACK
10
4.375
20
-9.85
40
0.500001
50
90.0001
51
180
0
LINE
8
BLACK
6
CONTINUOUS
10
122
20
-9.85
11
122
21
-22.85
0
ARC
8
BLACK
10
140.225
20
-41.75
40
0.500001
50
-89.9999
51
-0.000114591
0
LINE
8
BLACK
6
CONTINUOUS
10
122.5
20
-23.35
11
135.5
21
-23.35
0
LINE
8
BLACK
6
CONTINUOUS
10
3.875
20
-9.85
11
3.875
21
-22.85
0
LINE
8
BLACK
6
CONTINUOUS
10
136
20
-22.85
11
136
21
-9.85
0
LINE
8
BLACK
6
CONTINUOUS
10
127.225
20
-42.25
11
140.225
21
-42.25
0
ARC
8
BLACK
10
41
20
-22.85
40
0.500001
50
-89.9999
51
-0.000114591
0
LINE
8
BLACK
6
CONTINUOUS
10
65.3
20
-9.85
11
65.3
21
-22.85
0
LINE
8
BLACK
6
CONTINUOUS
10
65.8
20
-23.35
11
78.8
21
-23.35
0
ARC
8
BLACK
10
146.125
20
-41.75
40
0.500001
50
-180
51
-90.0001
0
ARC
8
BLACK
10
338.675
20
9.05
40
0.5
50
-0
51
90
0
ARC
8
BLACK
10
325.675
20
9.05
40
0.5
50
90
51
180
0
LINE
8
BLACK
6
CONTINUOUS
10
4.375
20
-23.35
11
17.375
21
-23.35
0
LINE
8
BLACK
6
CONTINUOUS
10
140.725
20
-41.75
11
140.725
21
-28.75
0
LINE
8
BLACK
6
CONTINUOUS
10
84.2
20
-9.85
11
84.2
21
-22.85
0
ARC
8
BLACK
10
103.6
20
-22.85
40
0.500001
50
-180
51
-90.0001
0
ARC
8
BLACK
10
84.7
20
-22.85
40
0.500001
50
-180
51
-90.0001
0
LINE
8
BLACK
6
CONTINUOUS
10
145.625
20
-28.75
11
145.625
21
-41.75
0
ARC
8
BLACK
10
146.125
20
-28.75
40
0.500001
50
90.0001
51
180
0
LINE
8
BLACK
6
CONTINUOUS
10
126.725
20
-28.75
11
126.725
21
-41.75
0
ARC
8
BLACK
10
17.375
20
-22.85
40
0.500001
50
-89.9999
51
-0.000114591
0
ARC
8
BLACK
10
41
20
-9.85
40
0.500001
50
0.000114591
51
89.9999
0
LINE
8
BLACK
6
CONTINUOUS
10
159.125
20
-28.25
11
146.125
21
-28.25
0
ARC
8
BLACK
10
127.225
20
-41.75
40
0.500001
50
-180
51
-90.0001
0
ARC
8
BLACK
10
65.8
20
-9.85
40
0.500001
50
90.0001
51
180
0
LINE
8
BLACK
6
CONTINUOUS
10
17.375
20
-9.35
11
4.375
21
-9.35
0
LINE
8
BLACK
6
CONTINUOUS
10
79.3
20
-22.85
11
79.3
21
-9.85
0
LINE
8
BLACK
6
CONTINUOUS
10
116.6
20
-9.35
11
103.6
21
-9.35
0
ARC
8
BLACK
10
135.5
20
-9.85
40
0.500001
50
0.000114591
51
89.9999
0
ARC
8
BLACK
10
84.7
20
-9.85
40
0.500001
50
90.0001
51
180
0
LINE
8
BLACK
6
CONTINUOUS
10
97.7
20
-9.35
11
84.7
21
-9.35
0
LINE
8
BLACK
6
CONTINUOUS
10
140.225
20
-28.25
11
127.225
21
-28.25
0
ARC
8
BLACK
10
4.375
20
-22.85
40
0.500001
50
-180
51
-90.0001
0
ARC
8
BLACK
10
116.6
20
-9.85
40
0.500001
50
0.000114591
51
89.9999
0
ARC
8
BLACK
10
122.5
20
-9.85
40
0.500001
50
90.0001
51
180
0
LINE
8
BLACK
6
CONTINUOUS
10
249.999
20
-26.25
11
243.999
21
-26.25
0
LINE
8
BLACK
6
CONTINUOUS
10
250.499
20
-28
11
250.499
21
-26.75
0
LINE
8
BLACK
6
CONTINUOUS
10
273.025
20
-10.112
11
273.025
21
-9.85
0
LINE
8
BLACK
6
CONTINUOUS
10
261.137
20
-28.25
11
250.749
21
-28.25
0
ARC
8
BLACK
10
159.125
20
-28.75
40
0.500001
50
0.000114591
51
89.9999
0
ARC
8
BLACK
10
183.925
20
-41.75
40
0.5
50
-180
51
-90
0
ARC
8
BLACK
10
196.925
20
-41.75
40
0.5
50
-90
51
-0
0
ARC
8
BLACK
10
274.637
20
-33.05
40
0.25
50
90
51
180
0
ARC
8
BLACK
10
183.925
20
-28.75
40
0.5
50
90
51
180
0
LINE
8
BLACK
6
CONTINUOUS
10
274.387
20
-40.738
11
274.387
21
-33.05
0
LINE
8
BLACK
6
CONTINUOUS
10
183.425
20
-28.75
11
183.425
21
-41.75
0
LINE
8
BLACK
6
CONTINUOUS
10
261.387
20
-23.6
11
261.387
21
-28
0
LINE
8
BLACK
6
CONTINUOUS
10
197.425
20
-41.75
11
197.425
21
-28.75
0
ARC
8
BLACK
10
243.999
20
-26.75
40
0.5
50
90
51
180
0
LINE
8
BLACK
6
CONTINUOUS
10
274.637
20
-32.8
11
274.887
21
-32.8
0
ARC
8
BLACK
10
243.249
20
-28
40
0.25
50
-90
51
-0
0
LINE
8
BLACK
6
CONTINUOUS
10
273.875
20
-41.25
11
266.188
21
-41.25
0
ARC
8
BLACK
10
240.625
20
-28.75
40
0.5
50
90
51
180
0
LINE
8
BLACK
6
CONTINUOUS
10
272.525
20
-9.35
11
259.525
21
-9.35
0
ARC
8
BLACK
10
273.887
20
-40.738
40
0.5
50
-45.9724
51
-0
0
ARC
8
BLACK
10
178.025
20
-28.75
40
0.5
50
-0
51
90
0
LINE
8
BLACK
6
CONTINUOUS
10
178.525
20
-41.75
11
178.525
21
-28.75
0
LINE
8
BLACK
6
CONTINUOUS
10
178.025
20
-28.25
11
165.025
21
-28.25
0
ARC
8
BLACK
10
273.875
20
-40.75
40
0.499999
50
-90
51
-44.0276
0
ARC
8
BLACK
10
272.525
20
-9.85
40
0.5
50
-0
51
90
0
LINE
8
BLACK
6
CONTINUOUS
10
146.125
20
-42.25
11
159.125
21
-42.25
0
LINE
8
BLACK
6
CONTINUOUS
10
243.249
20
-28.25
11
240.625
21
-28.25
0
ARC
8
BLACK
10
259.525
20
-22.85
40
0.5
50
-180
51
-90
0
ARC
8
BLACK
10
273.275
20
-10.112
40
0.25
50
-180
51
-90
0
LINE
8
BLACK
6
CONTINUOUS
10
274.387
20
-10.362
11
273.275
21
-10.362
0
LINE
8
BLACK
6
CONTINUOUS
10
165.025
20
-42.25
11
178.025
21
-42.25
0
ARC
8
BLACK
10
266.188
20
-41.5
40
0.25
50
90
51
180
0
LINE
8
BLACK
6
CONTINUOUS
10
183.925
20
-42.25
11
196.925
21
-42.25
0
ARC
8
BLACK
10
274.637
20
-18.55
40
0.25
50
-180
51
-90
0
LINE
8
BLACK
6
CONTINUOUS
10
159.625
20
-41.75
11
159.625
21
-28.75
0
ARC
8
BLACK
10
261.137
20
-23.6
40
0.25
50
-0
51
90
0
LINE
8
BLACK
6
CONTINUOUS
10
259.025
20
-9.85
11
259.025
21
-22.85
0
LINE
8
BLACK
6
CONTINUOUS
10
274.387
20
-18.55
11
274.387
21
-10.362
0
LINE
8
BLACK
6
CONTINUOUS
10
274.887
20
-18.8
11
274.637
21
-18.8
0
ARC
8
BLACK
10
265.438
20
-41.75
40
0.5
50
-90
51
-0
0
ARC
8
BLACK
10
274.887
20
-19.3
40
0.5
50
-0
51
90
0
ARC
8
BLACK
10
250.749
20
-28
40
0.25
50
-180
51
-90
0
LINE
8
BLACK
6
CONTINUOUS
10
240.625
20
-42.25
11
265.438
21
-42.25
0
ARC
8
BLACK
10
259.525
20
-9.85
40
0.5
50
90
51
180
0
ARC
8
BLACK
10
261.137
20
-28
40
0.25
50
-90
51
-0
0
LINE
8
BLACK
6
CONTINUOUS
10
259.525
20
-23.35
11
261.137
21
-23.35
0
LINE
8
BLACK
6
CONTINUOUS
10
240.125
20
-28.75
11
240.125
21
-41.75
0
LINE
8
BLACK
6
CONTINUOUS
10
275.387
20
-32.3
11
275.387
21
-19.3
0
ARC
8
BLACK
10
274.887
20
-32.3
40
0.5
50
-90
51
-0
0
ARC
8
BLACK
10
221.725
20
-41.75
40
0.5
50
-180
51
-90
0
LINE
8
BLACK
6
CONTINUOUS
10
196.925
20
-28.25
11
183.925
21
-28.25
0
LINE
8
BLACK
6
CONTINUOUS
10
243.499
20
-28
11
243.499
21
-26.75
0
LINE
8
BLACK
6
CONTINUOUS
10
221.225
20
-28.75
11
221.225
21
-41.75
0
LINE
8
BLACK
6
CONTINUOUS
10
265.938
20
-41.75
11
265.938
21
-41.5
0
ARC
8
BLACK
10
165.025
20
-41.75
40
0.500001
50
-180
51
-90.0001
0
ARC
8
BLACK
10
249.999
20
-26.75
40
0.5
50
-0
51
90
0
ARC
8
BLACK
10
159.125
20
-41.75
40
0.500001
50
-89.9999
51
-0.000114591
0
ARC
8
BLACK
10
221.725
20
-28.75
40
0.5
50
90
51
180
0
ARC
8
BLACK
10
196.925
20
-28.75
40
0.5
50
-0
51
90
0
ARC
8
BLACK
10
240.625
20
-41.75
40
0.5
50
-180
51
-90
0
LINE
8
BLACK
6
CONTINUOUS
10
234.725
20
-28.25
11
221.725
21
-28.25
0
ARC
8
BLACK
10
165.025
20
-28.75
40
0.500001
50
90.0001
51
180
0
LINE
8
BLACK
6
CONTINUOUS
10
164.525
20
-28.75
11
164.525
21
-41.75
0
ARC
8
BLACK
10
178.025
20
-41.75
40
0.5
50
-90
51
-0
0
ARC
8
BLACK
10
338.675
20
-22.85
40
0.5
50
-90
51
-0
0
LINE
8
BLACK
6
CONTINUOUS
10
70.025
20
-28.75
11
70.025
21
-41.75
0
LINE
8
BLACK
6
CONTINUOUS
10
83.525
20
-28.25
11
70.525
21
-28.25
0
LINE
8
BLACK
6
CONTINUOUS
10
84.025
20
-41.75
11
84.025
21
-28.75
0
ARC
8
BLACK
10
319.775
20
-9.85
40
0.5
50
-0
51
90
0
ARC
8
BLACK
10
2.0125
20
-28.75
40
0.500001
50
90.0001
51
180
0
ARC
8
BLACK
10
234.725
20
-41.75
40
0.5
50
-90
51
-0
0
ARC
8
BLACK
10
202.825
20
-28.75
40
0.5
50
90
51
180
0
ARC
8
BLACK
10
215.825
20
-41.75
40
0.5
50
-90
51
-0
0
ARC
8
BLACK
10
19.7375
20
-28.75
40
0.500001
50
0.000114591
51
89.9999
0
ARC
8
BLACK
10
202.825
20
-41.75
40
0.5
50
-180
51
-90
0
LINE
8
BLACK
6
CONTINUOUS
10
215.825
20
-28.25
11
202.825
21
-28.25
0
LINE
8
BLACK
6
CONTINUOUS
10
306.275
20
-9.85
11
306.275
21
-22.85
0
LINE
8
BLACK
6
CONTINUOUS
10
202.325
20
-28.75
11
202.325
21
-41.75
0
LINE
8
BLACK
6
CONTINUOUS
10
19.7375
20
-28.25
11
2.0125
21
-28.25
0
LINE
8
BLACK
6
CONTINUOUS
10
2.0125
20
-42.25
11
19.7375
21
-42.25
0
ARC
8
BLACK
10
2.0125
20
-41.75
40
0.500001
50
-180
51
-90.0001
0
ARC
8
BLACK
10
32.725
20
-41.75
40
0.500001
50
-180
51
-90.0001
0
LINE
8
BLACK
6
CONTINUOUS
10
32.225
20
-28.75
11
32.225
21
-41.75
0
ARC
8
BLACK
10
306.775
20
-22.85
40
0.5
50
-180
51
-90
0
ARC
8
BLACK
10
338.675
20
-9.85
40
0.5
50
-0
51
90
0
LINE
8
BLACK
6
CONTINUOUS
10
319.775
20
-9.35
11
306.775
21
-9.35
0
LINE
8
BLACK
6
CONTINUOUS
10
338.675
20
-9.35
11
325.675
21
-9.35
0
LINE
8
BLACK
6
CONTINUOUS
10
216.325
20
-41.75
11
216.325
21
-28.75
0
LINE
8
BLACK
6
CONTINUOUS
10
339.175
20
-22.85
11
339.175
21
-9.85
0
LINE
8
BLACK
6
CONTINUOUS
10
306.775
20
-23.35
11
319.775
21
-23.35
0
ARC
8
BLACK
10
32.725
20
-28.75
40
0.500001
50
90.0001
51
180
0
LINE
8
BLACK
6
CONTINUOUS
10
45.725
20
-28.25
11
32.725
21
-28.25
0
ARC
8
BLACK
10
45.725
20
-28.75
40
0.500001
50
0.000114591
51
89.9999
0
LINE
8
BLACK
6
CONTINUOUS
10
46.225
20
-41.75
11
46.225
21
-28.75
0
LINE
8
BLACK
6
CONTINUOUS
10
325.675
20
-23.35
11
338.675
21
-23.35
0
ARC
8
BLACK
10
306.775
20
-9.85
40
0.5
50
90
51
180
0
LINE
8
BLACK
6
CONTINUOUS
10
1.5125
20
-28.75
11
1.5125
21
-41.75
0
ARC
8
BLACK
10
234.725
20
-28.75
40
0.5
50
-0
51
90
0
LINE
8
BLACK
6
CONTINUOUS
10
320.275
20
-22.85
11
320.275
21
-9.85
0
ARC
8
BLACK
10
45.725
20
-41.75
40
0.500001
50
-89.9999
51
-0.000114591
0
ARC
8
BLACK
10
64.625
20
-28.75
40
0.500001
50
0.000114591
51
89.9999
0
LINE
8
BLACK
6
CONTINUOUS
10
65.125
20
-41.75
11
65.125
21
-28.75
0
ARC
8
BLACK
10
64.625
20
-41.75
40
0.500001
50
-89.9999
51
-0.000114591
0
ARC
8
BLACK
10
51.625
20
-41.75
40
0.500001
50
-180
51
-90.0001
0
ARC
8
BLACK
10
70.525
20
-41.75
40
0.500001
50
-180
51
-90.0001
0
ARC
8
BLACK
10
83.525
20
-28.75
40
0.500001
50
0.000114591
51
89.9999
0
LINE
8
BLACK
6
CONTINUOUS
10
51.125
20
-28.75
11
51.125
21
-41.75
0
LINE
8
BLACK
6
CONTINUOUS
10
70.525
20
-42.25
11
83.525
21
-42.25
0
ARC
8
BLACK
10
83.525
20
-41.75
40
0.500001
50
-89.9999
51
-0.000114591
0
ARC
8
BLACK
10
89.425
20
-41.75
40
0.500001
50
-180
51
-90.0001
0
LINE
8
BLACK
6
CONTINUOUS
10
64.625
20
-28.25
11
51.625
21
-28.25
0
LINE
8
BLACK
6
CONTINUOUS
10
88.925
20
-28.75
11
88.925
21
-41.75
0
ARC
8
BLACK
10
89.425
20
-28.75
40
0.500001
50
90.0001
51
180
0
LINE
8
BLACK
6
CONTINUOUS
10
102.425
20
-28.25
11
89.425
21
-28.25
0
LINE
8
BLACK
6
CONTINUOUS
10
221.725
20
-42.25
11
234.725
21
-42.25
0
LINE
8
BLACK
6
CONTINUOUS
10
20.2375
20
-41.75
11
20.2375
21
-28.75
0
LINE
8
BLACK
6
CONTINUOUS
10
51.625
20
-42.25
11
64.625
21
-42.25
0
LINE
8
BLACK
6
CONTINUOUS
10
32.725
20
-42.25
11
45.725
21
-42.25
0
ARC
8
BLACK
10
325.675
20
-22.85
40
0.5
50
-180
51
-90
0
ARC
8
BLACK
10
70.525
20
-28.75
40
0.500001
50
90.0001
51
180
0
ARC
8
BLACK
10
319.775
20
-22.85
40
0.5
50
-90
51
-0
0
LINE
8
BLACK
6
CONTINUOUS
10
202.825
20
-42.25
11
215.825
21
-42.25
0
ARC
8
BLACK
10
19.7375
20
-41.75
40
0.500001
50
-89.9999
51
-0.000114591
0
ARC
8
BLACK
10
51.625
20
-28.75
40
0.500001
50
90.0001
51
180
0
ARC
8
BLACK
10
215.825
20
-28.75
40
0.5
50
-0
51
90
0
ARC
8
BLACK
10
325.675
20
-9.85
40
0.5
50
90
51
180
0
LINE
8
BLACK
6
CONTINUOUS
10
325.175
20
-9.85
11
325.175
21
-22.85
0
LINE
8
BLACK
6
CONTINUOUS
10
235.225
20
-41.75
11
235.225
21
-28.75
0
LINE
8
BLACK
6
CONTINUOUS
10
107.825
20
-28.75
11
107.825
21
-41.75
0
ARC
8
BLACK
10
108.325
20
-41.75
40
0.500001
50
-180
51
-90.0001
0
LINE
8
BLACK
6
CONTINUOUS
10
102.925
20
-41.75
11
102.925
21
-28.75
0
LINE
8
BLACK
6
CONTINUOUS
10
320.275
20
-3.95
11
320.275
21
9.05
0
LINE
8
BLACK
6
CONTINUOUS
10
300.875
20
9.55
11
287.875
21
9.55
0
ARC
8
BLACK
10
300.875
20
9.05
40
0.5
50
-0
51
90
0
ARC
8
BLACK
10
319.775
20
-3.95
40
0.5
50
-90
51
-0
0
ARC
8
BLACK
10
287.875
20
9.05
40
0.5
50
90
51
180
0
ARC
8
BLACK
10
287.875
20
-3.95
40
0.5
50
-180
51
-90
0
ARC
8
BLACK
10
102.425
20
-41.75
40
0.500001
50
-89.9999
51
-0.000114591
0
ARC
8
BLACK
10
306.775
20
9.05
40
0.5
50
90
51
180
0
LINE
8
BLACK
6
CONTINUOUS
10
121.325
20
-28.25
11
108.325
21
-28.25
0
ARC
8
BLACK
10
121.325
20
-41.75
40
0.500001
50
-89.9999
51
-0.000114591
0
LINE
8
BLACK
6
CONTINUOUS
10
319.775
20
9.55
11
306.775
21
9.55
0
LINE
8
BLACK
6
CONTINUOUS
10
287.375
20
9.05
11
287.375
21
-3.95
0
LINE
8
BLACK
6
CONTINUOUS
10
121.825
20
-41.75
11
121.825
21
-28.75
0
ARC
8
BLACK
10
102.425
20
-28.75
40
0.500001
50
0.000114591
51
89.9999
0
ARC
8
BLACK
10
108.325
20
-28.75
40
0.500001
50
90.0001
51
180
0
ARC
8
BLACK
10
121.325
20
-28.75
40
0.500001
50
0.000114591
51
89.9999
0
LINE
8
BLACK
6
CONTINUOUS
10
108.325
20
-42.25
11
121.325
21
-42.25
0
ARC
8
BLACK
10
306.775
20
-3.95
40
0.5
50
-180
51
-90
0
LINE
8
BLACK
6
CONTINUOUS
10
306.275
20
9.05
11
306.275
21
-3.95
0
ARC
8
BLACK
10
319.775
20
9.05
40
0.5
50
-0
51
90
0
LINE
8
BLACK
6
CONTINUOUS
10
306.775
20
-4.45
11
319.775
21
-4.45
0
LINE
8
BLACK
6
CONTINUOUS
10
89.425
20
-42.25
11
102.425
21
-42.25
0
LINE
8
BLACK
6
CONTINUOUS
10
31.55
20
9.55
11
18.55
21
9.55
0
ARC
8
BLACK
10
12.65
20
-3.95
40
0.500001
50
-89.9999
51
-0.000114591
0
ARC
8
BLACK
10
287.875
20
19.675
40
0.5
50
-180
51
-90
0
LINE
8
BLACK
6
CONTINUOUS
10
319.775
20
33.175
11
306.775
21
33.175
0
ARC
8
BLACK
10
287.875
20
32.675
40
0.5
50
90
51
180
0
LINE
8
BLACK
6
CONTINUOUS
10
107.65
20
-3.95
11
107.65
21
9.05
0
LINE
8
BLACK
6
CONTINUOUS
10
88.25
20
9.55
11
75.25
21
9.55
0
ARC
8
BLACK
10
37.45
20
9.05
40
0.500001
50
90.0001
51
180
0
ARC
8
BLACK
10
306.775
20
19.675
40
0.5
50
-180
51
-90
0
ARC
8
BLACK
10
107.15
20
-3.95
40
0.500001
50
-89.9999
51
-0.000114591
0
LINE
8
BLACK
6
CONTINUOUS
10
88.75
20
-3.95
11
88.75
21
9.05
0
LINE
8
BLACK
6
CONTINUOUS
10
18.55
20
-4.45
11
31.55
21
-4.45
0
ARC
8
BLACK
10
50.45
20
9.05
40
0.500001
50
0.000114591
51
89.9999
0
ARC
8
BLACK
10
319.775
20
32.675
40
0.5
50
-0
51
90
0
LINE
8
BLACK
6
CONTINUOUS
10
94.15
20
-4.45
11
107.15
21
-4.45
0
LINE
8
BLACK
6
CONTINUOUS
10
69.85
20
-3.95
11
69.85
21
9.05
0
LINE
8
BLACK
6
CONTINUOUS
10
32.05
20
-3.95
11
32.05
21
9.05
0
ARC
8
BLACK
10
-0.349999
20
9.05
40
0.500001
50
90.0001
51
180
0
LINE
8
BLACK
6
CONTINUOUS
10
-0.35
20
-4.45
11
12.65
21
-4.45
0
LINE
8
BLACK
6
CONTINUOUS
10
12.65
20
9.55
11
-0.35
21
9.55
0
ARC
8
BLACK
10
338.675
20
32.675
40
0.5
50
-0
51
90
0
ARC
8
BLACK
10
338.675
20
19.675
40
0.5
50
-90
51
-0
0
LINE
8
BLACK
6
CONTINUOUS
10
36.95
20
9.05
11
36.95
21
-3.95
0
LINE
8
BLACK
6
CONTINUOUS
10
325.675
20
19.175
11
338.675
21
19.175
0
ARC
8
BLACK
10
-0.349999
20
-3.95
40
0.500001
50
-180
51
-90.0001
0
LINE
8
BLACK
6
CONTINUOUS
10
18.05
20
9.05
11
18.05
21
-3.95
0
ARC
8
BLACK
10
306.775
20
32.675
40
0.5
50
90
51
180
0
LINE
8
BLACK
6
CONTINUOUS
10
75.25
20
-4.45
11
88.25
21
-4.45
0
ARC
8
BLACK
10
75.25
20
9.05
40
0.500001
50
90.0001
51
180
0
ARC
8
BLACK
10
319.775
20
19.675
40
0.5
50
-90
51
-0
0
LINE
8
BLACK
6
CONTINUOUS
10
69.35
20
9.55
11
56.35
21
9.55
0
ARC
8
BLACK
10
56.35
20
-3.95
40
0.500001
50
-180
51
-90.0001
0
ARC
8
BLACK
10
31.55
20
9.05
40
0.500001
50
0.000114591
51
89.9999
0
LINE
8
BLACK
6
CONTINUOUS
10
338.675
20
33.175
11
325.675
21
33.175
0
ARC
8
BLACK
10
37.45
20
-3.95
40
0.500001
50
-180
51
-90.0001
0
ARC
8
BLACK
10
18.55
20
9.05
40
0.500001
50
90.0001
51
180
0
LINE
8
BLACK
6
CONTINUOUS
10
325.175
20
32.675
11
325.175
21
19.675
0
LINE
8
BLACK
6
CONTINUOUS
10
339.175
20
19.675
11
339.175
21
32.675
0
LINE
8
BLACK
6
CONTINUOUS
10
55.85
20
9.05
11
55.85
21
-3.95
0
ARC
8
BLACK
10
325.675
20
19.675
40
0.5
50
-180
51
-90
0
LINE
8
BLACK
6
CONTINUOUS
10
50.95
20
-3.95
11
50.95
21
9.05
0
LINE
8
BLACK
6
CONTINUOUS
10
320.275
20
19.675
11
320.275
21
32.675
0
ARC
8
BLACK
10
12.65
20
9.05
40
0.500001
50
0.000114591
51
89.9999
0
LINE
8
BLACK
6
CONTINUOUS
10
306.775
20
19.175
11
319.775
21
19.175
0
LINE
8
BLACK
6
CONTINUOUS
10
287.375
20
32.675
11
287.375
21
19.675
0
LINE
8
BLACK
6
CONTINUOUS
10
300.875
20
33.175
11
287.875
21
33.175
0
ARC
8
BLACK
10
300.875
20
32.675
40
0.5
50
-0
51
90
0
ARC
8
BLACK
10
325.675
20
32.675
40
0.5
50
90
51
180
0
ARC
8
BLACK
10
75.25
20
-3.95
40
0.500001
50
-180
51
-90.0001
0
ARC
8
BLACK
10
69.35
20
9.05
40
0.500001
50
0.000114591
51
89.9999
0
ARC
8
BLACK
10
56.35
20
9.05
40
0.500001
50
90.0001
51
180
0
LINE
8
BLACK
6
CONTINUOUS
10
56.35
20
-4.45
11
69.35
21
-4.45
0
LINE
8
BLACK
6
CONTINUOUS
10
50.45
20
9.55
11
37.45
21
9.55
0
ARC
8
BLACK
10
50.45
20
-3.95
40
0.500001
50
-89.9999
51
-0.000114591
0
LINE
8
BLACK
6
CONTINUOUS
10
74.75
20
9.05
11
74.75
21
-3.95
0
ARC
8
BLACK
10
88.25
20
9.05
40
0.500001
50
0.000114591
51
89.9999
0
LINE
8
BLACK
6
CONTINUOUS
10
37.45
20
-4.45
11
50.45
21
-4.45
0
ARC
8
BLACK
10
69.35
20
-3.95
40
0.500001
50
-89.9999
51
-0.000114591
0
ARC
8
BLACK
10
18.55
20
-3.95
40
0.500001
50
-180
51
-90.0001
0
ARC
8
BLACK
10
31.55
20
-3.95
40
0.500001
50
-89.9999
51
-0.000114591
0
LINE
8
BLACK
6
CONTINUOUS
10
-0.85
20
9.05
11
-0.85
21
-3.95
0
ARC
8
BLACK
10
88.25
20
-3.95
40
0.500001
50
-89.9999
51
-0.000114591
0
LINE
8
BLACK
6
CONTINUOUS
10
13.15
20
-3.95
11
13.15
21
9.05
0
LINE
8
BLACK
6
CONTINUOUS
10
306.275
20
32.675
11
306.275
21
19.675
0
ARC
8
BLACK
10
215.825
20
32.675
40
0.5
50
-0
51
90
0
ARC
8
BLACK
10
196.925
20
19.675
40
0.5
50
-90
51
-0
0
LINE
8
BLACK
6
CONTINUOUS
10
183.925
20
19.175
11
196.925
21
19.175
0
LINE
8
BLACK
6
CONTINUOUS
10
141.4
20
19.175
11
154.4
21
19.175
0
LINE
8
BLACK
6
CONTINUOUS
10
154.4
20
33.175
11
141.4
21
33.175
0
ARC
8
BLACK
10
122.5
20
19.675
40
0.500001
50
-180
51
-90.0001
0
ARC
8
BLACK
10
173.3
20
32.675
40
0.5
50
-0
51
90
0
LINE
8
BLACK
6
CONTINUOUS
10
240.625
20
19.175
11
253.625
21
19.175
0
LINE
8
BLACK
6
CONTINUOUS
10
183.425
20
32.675
11
183.425
21
19.675
0
LINE
8
BLACK
6
CONTINUOUS
10
122
20
32.675
11
122
21
19.675
0
ARC
8
BLACK
10
264.25
20
19.675
40
0.5
50
-180
51
-90
0
ARC
8
BLACK
10
277.25
20
32.675
40
0.5
50
-0
51
90
0
LINE
8
BLACK
6
CONTINUOUS
10
263.75
20
32.675
11
263.75
21
19.675
0
ARC
8
BLACK
10
221.725
20
19.675
40
0.5
50
-180
51
-90
0
ARC
8
BLACK
10
202.825
20
32.675
40
0.5
50
90
51
180
0
ARC
8
BLACK
10
183.925
20
32.675
40
0.5
50
90
51
180
0
LINE
8
BLACK
6
CONTINUOUS
10
173.3
20
33.175
11
160.3
21
33.175
0
ARC
8
BLACK
10
141.4
20
19.675
40
0.500001
50
-180
51
-90.0001
0
ARC
8
BLACK
10
160.3
20
32.675
40
0.500001
50
90.0001
51
180
0
ARC
8
BLACK
10
240.625
20
19.675
40
0.5
50
-180
51
-90
0
LINE
8
BLACK
6
CONTINUOUS
10
234.725
20
33.175
11
221.725
21
33.175
0
LINE
8
BLACK
6
CONTINUOUS
10
197.425
20
19.675
11
197.425
21
32.675
0
LINE
8
BLACK
6
CONTINUOUS
10
160.3
20
19.175
11
173.3
21
19.175
0
ARC
8
BLACK
10
141.4
20
32.675
40
0.500001
50
90.0001
51
180
0
ARC
8
BLACK
10
122.5
20
32.675
40
0.500001
50
90.0001
51
180
0
ARC
8
BLACK
10
154.4
20
19.675
40
0.500001
50
-89.9999
51
-0.000114591
0
LINE
8
BLACK
6
CONTINUOUS
10
135.5
20
33.175
11
122.5
21
33.175
0
ARC
8
BLACK
10
135.5
20
32.675
40
0.500001
50
0.000114591
51
89.9999
0
LINE
8
BLACK
6
CONTINUOUS
10
202.825
20
19.175
11
215.825
21
19.175
0
LINE
8
BLACK
6
CONTINUOUS
10
196.925
20
33.175
11
183.925
21
33.175
0
LINE
8
BLACK
6
CONTINUOUS
10
240.125
20
32.675
11
240.125
21
19.675
0
LINE
8
BLACK
6
CONTINUOUS
10
277.25
20
33.175
11
264.25
21
33.175
0
ARC
8
BLACK
10
221.725
20
32.675
40
0.5
50
90
51
180
0
ARC
8
BLACK
10
215.825
20
19.675
40
0.5
50
-90
51
-0
0
ARC
8
BLACK
10
160.3
20
19.675
40
0.500001
50
-180
51
-90.0001
0
LINE
8
BLACK
6
CONTINUOUS
10
215.825
20
33.175
11
202.825
21
33.175
0
LINE
8
BLACK
6
CONTINUOUS
10
159.8
20
32.675
11
159.8
21
19.675
0
ARC
8
BLACK
10
277.25
20
19.675
40
0.5
50
-90
51
-0
0
LINE
8
BLACK
6
CONTINUOUS
10
301.375
20
19.675
11
301.375
21
32.675
0
LINE
8
BLACK
6
CONTINUOUS
10
277.75
20
19.675
11
277.75
21
32.675
0
LINE
8
BLACK
6
CONTINUOUS
10
287.875
20
19.175
11
300.875
21
19.175
0
ARC
8
BLACK
10
240.625
20
32.675
40
0.5
50
90
51
180
0
ARC
8
BLACK
10
234.725
20
32.675
40
0.5
50
-0
51
90
0
LINE
8
BLACK
6
CONTINUOUS
10
235.225
20
19.675
11
235.225
21
32.675
0
ARC
8
BLACK
10
234.725
20
19.675
40
0.5
50
-90
51
-0
0
LINE
8
BLACK
6
CONTINUOUS
10
221.725
20
19.175
11
234.725
21
19.175
0
ARC
8
BLACK
10
253.625
20
32.675
40
0.5
50
-0
51
90
0
ARC
8
BLACK
10
196.925
20
32.675
40
0.5
50
-0
51
90
0
LINE
8
BLACK
6
CONTINUOUS
10
173.8
20
19.675
11
173.8
21
32.675
0
LINE
8
BLACK
6
CONTINUOUS
10
140.9
20
32.675
11
140.9
21
19.675
0
LINE
8
BLACK
6
CONTINUOUS
10
253.625
20
33.175
11
240.625
21
33.175
0
LINE
8
BLACK
6
CONTINUOUS
10
202.325
20
32.675
11
202.325
21
19.675
0
ARC
8
BLACK
10
253.625
20
19.675
40
0.5
50
-90
51
-0
0
ARC
8
BLACK
10
300.875
20
19.675
40
0.5
50
-90
51
-0
0
ARC
8
BLACK
10
183.925
20
19.675
40
0.5
50
-180
51
-90
0
ARC
8
BLACK
10
154.4
20
32.675
40
0.500001
50
0.000114591
51
89.9999
0
LINE
8
BLACK
6
CONTINUOUS
10
154.9
20
19.675
11
154.9
21
32.675
0
LINE
8
BLACK
6
CONTINUOUS
10
254.125
20
19.675
11
254.125
21
32.675
0
ARC
8
BLACK
10
173.3
20
19.675
40
0.5
50
-90
51
-0
0
ARC
8
BLACK
10
264.25
20
32.675
40
0.5
50
90
51
180
0
LINE
8
BLACK
6
CONTINUOUS
10
264.25
20
19.175
11
277.25
21
19.175
0
ARC
8
BLACK
10
202.825
20
19.675
40
0.5
50
-180
51
-90
0
LINE
8
BLACK
6
CONTINUOUS
10
216.325
20
19.675
11
216.325
21
32.675
0
LINE
8
BLACK
6
CONTINUOUS
10
221.225
20
32.675
11
221.225
21
19.675
0
ARC
8
BLACK
10
36.275
20
19.675
40
0.500001
50
-89.9999
51
-0.000114591
0
ARC
8
BLACK
10
130.775
20
-47.65
40
0.500001
50
0.000114591
51
89.9999
0
ARC
8
BLACK
10
193.375
20
-60.65
40
0.5
50
-180
51
-90
0
ARC
8
BLACK
10
55.175
20
32.675
40
0.500001
50
0.000114591
51
89.9999
0
ARC
8
BLACK
10
79.975
20
19.675
40
0.500001
50
-180
51
-90.0001
0
LINE
8
BLACK
6
CONTINUOUS
10
122.5
20
19.175
11
135.5
21
19.175
0
LINE
8
BLACK
6
CONTINUOUS
10
117.1
20
19.675
11
117.1
21
32.675
0
ARC
8
BLACK
10
36.275
20
32.675
40
0.500001
50
0.000114591
51
89.9999
0
LINE
8
BLACK
6
CONTINUOUS
10
103.1
20
32.675
11
103.1
21
19.675
0
LINE
8
BLACK
6
CONTINUOUS
10
79.475
20
32.675
11
79.475
21
19.675
0
ARC
8
BLACK
10
103.6
20
19.675
40
0.500001
50
-180
51
-90.0001
0
ARC
8
BLACK
10
55.175
20
19.675
40
0.500001
50
-89.9999
51
-0.000114591
0
ARC
8
BLACK
10
116.6
20
32.675
40
0.500001
50
0.000114591
51
89.9999
0
LINE
8
BLACK
6
CONTINUOUS
10
61.075
20
19.175
11
74.075
21
19.175
0
LINE
8
BLACK
6
CONTINUOUS
10
103.6
20
19.175
11
116.6
21
19.175
0
LINE
8
BLACK
6
CONTINUOUS
10
74.575
20
19.675
11
74.575
21
32.675
0
ARC
8
BLACK
10
92.975
20
32.675
40
0.500001
50
0.000114591
51
89.9999
0
LINE
8
BLACK
6
CONTINUOUS
10
74.075
20
33.175
11
61.075
21
33.175
0
LINE
8
BLACK
6
CONTINUOUS
10
23.275
20
19.175
11
36.275
21
19.175
0
ARC
8
BLACK
10
79.975
20
32.675
40
0.500001
50
90.0001
51
180
0
LINE
8
BLACK
6
CONTINUOUS
10
92.975
20
33.175
11
79.975
21
33.175
0
ARC
8
BLACK
10
193.375
20
-47.65
40
0.5
50
90
51
180
0
LINE
8
BLACK
6
CONTINUOUS
10
206.375
20
-47.15
11
193.375
21
-47.15
0
LINE
8
BLACK
6
CONTINUOUS
10
36.775
20
19.675
11
36.775
21
32.675
0
LINE
8
BLACK
6
CONTINUOUS
10
117.275
20
-47.65
11
117.275
21
-60.65
0
ARC
8
BLACK
10
117.775
20
-47.65
40
0.500001
50
90.0001
51
180
0
ARC
8
BLACK
10
74.075
20
32.675
40
0.500001
50
0.000114591
51
89.9999
0
LINE
8
BLACK
6
CONTINUOUS
10
22.775
20
32.675
11
22.775
21
19.675
0
LINE
8
BLACK
6
CONTINUOUS
10
131.275
20
-60.65
11
131.275
21
-47.65
0
LINE
8
BLACK
6
CONTINUOUS
10
117.775
20
-61.15
11
130.775
21
-61.15
0
ARC
8
BLACK
10
135.5
20
19.675
40
0.500001
50
-89.9999
51
-0.000114591
0
LINE
8
BLACK
6
CONTINUOUS
10
93.475
20
19.675
11
93.475
21
32.675
0
ARC
8
BLACK
10
116.6
20
19.675
40
0.500001
50
-89.9999
51
-0.000114591
0
ARC
8
BLACK
10
206.375
20
-47.65
40
0.5
50
-0
51
90
0
LINE
8
BLACK
6
CONTINUOUS
10
42.175
20
19.175
11
55.175
21
19.175
0
ARC
8
BLACK
10
23.275
20
32.675
40
0.500001
50
90.0001
51
180
0
LINE
8
BLACK
6
CONTINUOUS
10
192.875
20
-47.65
11
192.875
21
-60.65
0
ARC
8
BLACK
10
206.375
20
-60.65
40
0.5
50
-90
51
-0
0
LINE
8
BLACK
6
CONTINUOUS
10
193.375
20
-61.15
11
206.375
21
-61.15
0
LINE
8
BLACK
6
CONTINUOUS
10
79.975
20
19.175
11
92.975
21
19.175
0
ARC
8
BLACK
10
117.775
20
-60.65
40
0.500001
50
-180
51
-90.0001
0
LINE
8
BLACK
6
CONTINUOUS
10
55.175
20
33.175
11
42.175
21
33.175
0
ARC
8
BLACK
10
61.075
20
19.675
40
0.500001
50
-180
51
-90.0001
0
LINE
8
BLACK
6
CONTINUOUS
10
36.275
20
33.175
11
23.275
21
33.175
0
LINE
8
BLACK
6
CONTINUOUS
10
55.675
20
19.675
11
55.675
21
32.675
0
ARC
8
BLACK
10
23.275
20
19.675
40
0.500001
50
-180
51
-90.0001
0
ARC
8
BLACK
10
61.075
20
32.675
40
0.500001
50
90.0001
51
180
0
LINE
8
BLACK
6
CONTINUOUS
10
130.775
20
-47.15
11
117.775
21
-47.15
0
ARC
8
BLACK
10
174.475
20
-60.65
40
0.5
50
-180
51
-90
0
LINE
8
BLACK
6
CONTINUOUS
10
173.975
20
-47.65
11
173.975
21
-60.65
0
ARC
8
BLACK
10
103.6
20
32.675
40
0.500001
50
90.0001
51
180
0
ARC
8
BLACK
10
74.075
20
19.675
40
0.500001
50
-89.9999
51
-0.000114591
0
ARC
8
BLACK
10
130.775
20
-60.65
40
0.500001
50
-89.9999
51
-0.000114591
0
ARC
8
BLACK
10
92.975
20
19.675
40
0.500001
50
-89.9999
51
-0.000114591
0
LINE
8
BLACK
6
CONTINUOUS
10
41.675
20
32.675
11
41.675
21
19.675
0
LINE
8
BLACK
6
CONTINUOUS
10
206.875
20
-60.65
11
206.875
21
-47.65
0
ARC
8
BLACK
10
174.475
20
-47.65
40
0.5
50
90
51
180
0
ARC
8
BLACK
10
187.475
20
-47.65
40
0.5
50
-0
51
90
0
LINE
8
BLACK
6
CONTINUOUS
10
116.6
20
33.175
11
103.6
21
33.175
0
LINE
8
BLACK
6
CONTINUOUS
10
60.575
20
32.675
11
60.575
21
19.675
0
LINE
8
BLACK
6
CONTINUOUS
10
187.475
20
-47.15
11
174.475
21
-47.15
0
LINE
8
BLACK
6
CONTINUOUS
10
136
20
19.675
11
136
21
32.675
0
ARC
8
BLACK
10
42.175
20
19.675
40
0.500001
50
-180
51
-90.0001
0
ARC
8
BLACK
10
42.175
20
32.675
40
0.500001
50
90.0001
51
180
0
LINE
8
BLACK
6
CONTINUOUS
10
212.225
20
-66.55
11
212.225
21
-79.55
0
ARC
8
BLACK
10
225.725
20
-66.55
40
0.5
50
-0
51
90
0
LINE
8
BLACK
6
CONTINUOUS
10
174.475
20
-61.15
11
187.475
21
-61.15
0
LINE
8
BLACK
6
CONTINUOUS
10
320.275
20
-79.55
11
320.275
21
-66.55
0
LINE
8
BLACK
6
CONTINUOUS
10
301.375
20
-79.55
11
301.375
21
-66.55
0
LINE
8
BLACK
6
CONTINUOUS
10
306.775
20
-80.05
11
319.775
21
-80.05
0
ARC
8
BLACK
10
306.775
20
-79.55
40
0.5
50
-180
51
-90
0
ARC
8
BLACK
10
272.525
20
-79.55
40
0.5
50
-90
51
-0
0
ARC
8
BLACK
10
319.775
20
-79.55
40
0.5
50
-90
51
-0
0
ARC
8
BLACK
10
212.725
20
-79.55
40
0.5
50
-180
51
-90
0
LINE
8
BLACK
6
CONTINUOUS
10
273.025
20
-79.55
11
273.025
21
-66.55
0
ARC
8
BLACK
10
287.875
20
-66.55
40
0.5
50
90
51
180
0
ARC
8
BLACK
10
272.525
20
-66.55
40
0.5
50
-0
51
90
0
ARC
8
BLACK
10
225.725
20
-79.55
40
0.5
50
-90
51
-0
0
ARC
8
BLACK
10
306.775
20
-47.65
40
0.5
50
90
51
180
0
LINE
8
BLACK
6
CONTINUOUS
10
320.275
20
-60.65
11
320.275
21
-47.65
0
LINE
8
BLACK
6
CONTINUOUS
10
3.875
20
-66.55
11
3.875
21
-79.55
0
ARC
8
BLACK
10
306.775
20
-66.55
40
0.5
50
90
51
180
0
LINE
8
BLACK
6
CONTINUOUS
10
17.875
20
-79.55
11
17.875
21
-66.55
0
LINE
8
BLACK
6
CONTINUOUS
10
212.725
20
-80.05
11
225.725
21
-80.05
0
ARC
8
BLACK
10
17.375
20
-79.55
40
0.500001
50
-89.9999
51
-0.000114591
0
ARC
8
BLACK
10
51.175
20
-79.55
40
0.500001
50
-180
51
-90.0001
0
LINE
8
BLACK
6
CONTINUOUS
10
226.225
20
-79.55
11
226.225
21
-66.55
0
LINE
8
BLACK
6
CONTINUOUS
10
51.175
20
-80.05
11
64.175
21
-80.05
0
ARC
8
BLACK
10
319.775
20
-66.55
40
0.5
50
-0
51
90
0
LINE
8
BLACK
6
CONTINUOUS
10
272.525
20
-66.05
11
259.525
21
-66.05
0
LINE
8
BLACK
6
CONTINUOUS
10
300.875
20
-66.05
11
287.875
21
-66.05
0
LINE
8
BLACK
6
CONTINUOUS
10
17.375
20
-66.05
11
4.375
21
-66.05
0
ARC
8
BLACK
10
306.775
20
-60.65
40
0.5
50
-180
51
-90
0
LINE
8
BLACK
6
CONTINUOUS
10
64.675
20
-79.55
11
64.675
21
-66.55
0
ARC
8
BLACK
10
131.95
20
-79.55
40
0.500001
50
-180
51
-90.0001
0
ARC
8
BLACK
10
319.775
20
-60.65
40
0.5
50
-90
51
-0
0
LINE
8
BLACK
6
CONTINUOUS
10
131.45
20
-66.55
11
131.45
21
-79.55
0
ARC
8
BLACK
10
319.775
20
-47.65
40
0.5
50
-0
51
90
0
ARC
8
BLACK
10
64.175
20
-79.55
40
0.500001
50
-89.9999
51
-0.000114591
0
ARC
8
BLACK
10
287.875
20
-79.55
40
0.5
50
-180
51
-90
0
ARC
8
BLACK
10
300.875
20
-79.55
40
0.5
50
-90
51
-0
0
ARC
8
BLACK
10
131.95
20
-66.55
40
0.500001
50
90.0001
51
180
0
LINE
8
BLACK
6
CONTINUOUS
10
144.95
20
-66.05
11
131.95
21
-66.05
0
LINE
8
BLACK
6
CONTINUOUS
10
319.775
20
-66.05
11
306.775
21
-66.05
0
LINE
8
BLACK
6
CONTINUOUS
10
306.275
20
-66.55
11
306.275
21
-79.55
0
ARC
8
BLACK
10
187.475
20
-60.65
40
0.5
50
-90
51
-0
0
ARC
8
BLACK
10
17.375
20
-66.55
40
0.500001
50
0.000114591
51
89.9999
0
ARC
8
BLACK
10
259.525
20
-79.55
40
0.5
50
-180
51
-90
0
LINE
8
BLACK
6
CONTINUOUS
10
259.525
20
-80.05
11
272.525
21
-80.05
0
LINE
8
BLACK
6
CONTINUOUS
10
287.875
20
-80.05
11
300.875
21
-80.05
0
LINE
8
BLACK
6
CONTINUOUS
10
50.675
20
-66.55
11
50.675
21
-79.55
0
ARC
8
BLACK
10
144.95
20
-66.55
40
0.500001
50
0.000114591
51
89.9999
0
ARC
8
BLACK
10
4.375
20
-79.55
40
0.500001
50
-180
51
-90.0001
0
LINE
8
BLACK
6
CONTINUOUS
10
187.975
20
-60.65
11
187.975
21
-47.65
0
LINE
8
BLACK
6
CONTINUOUS
10
4.375
20
-80.05
11
17.375
21
-80.05
0
LINE
8
BLACK
6
CONTINUOUS
10
64.175
20
-66.05
11
51.175
21
-66.05
0
LINE
8
BLACK
6
CONTINUOUS
10
306.775
20
-61.15
11
319.775
21
-61.15
0
LINE
8
BLACK
6
CONTINUOUS
10
287.375
20
-66.55
11
287.375
21
-79.55
0
ARC
8
BLACK
10
4.375
20
-66.55
40
0.500001
50
90.0001
51
180
0
ARC
8
BLACK
10
300.875
20
-66.55
40
0.5
50
-0
51
90
0
ARC
8
BLACK
10
212.725
20
-66.55
40
0.5
50
90
51
180
0
LINE
8
BLACK
6
CONTINUOUS
10
319.775
20
-47.15
11
306.775
21
-47.15
0
LINE
8
BLACK
6
CONTINUOUS
10
259.025
20
-66.55
11
259.025
21
-79.55
0
ARC
8
BLACK
10
259.525
20
-66.55
40
0.5
50
90
51
180
0
ARC
8
BLACK
10
51.175
20
-66.55
40
0.500001
50
90.0001
51
180
0
ARC
8
BLACK
10
64.175
20
-66.55
40
0.500001
50
0.000114591
51
89.9999
0
LINE
8
BLACK
6
CONTINUOUS
10
225.725
20
-66.05
11
212.725
21
-66.05
0
LINE
8
BLACK
6
CONTINUOUS
10
306.275
20
-47.65
11
306.275
21
-60.65
0
ARC
8
BLACK
10
168.575
20
-47.65
40
0.500001
50
0.000114591
51
89.9999
0
ARC
8
BLACK
10
212.275
20
-47.65
40
0.5
50
90
51
180
0
LINE
8
BLACK
6
CONTINUOUS
10
169.075
20
-60.65
11
169.075
21
-47.65
0
LINE
8
BLACK
6
CONTINUOUS
10
61.075
20
-61.15
11
74.075
21
-61.15
0
LINE
8
BLACK
6
CONTINUOUS
10
155.575
20
-61.15
11
168.575
21
-61.15
0
ARC
8
BLACK
10
325.675
20
-79.55
40
0.5
50
-180
51
-90
0
LINE
8
BLACK
6
CONTINUOUS
10
325.175
20
-66.55
11
325.175
21
-79.55
0
LINE
8
BLACK
6
CONTINUOUS
10
149.675
20
-47.15
11
136.675
21
-47.15
0
ARC
8
BLACK
10
74.075
20
-47.65
40
0.500001
50
0.000114591
51
89.9999
0
ARC
8
BLACK
10
79.975
20
-47.65
40
0.500001
50
90.0001
51
180
0
ARC
8
BLACK
10
55.175
20
-47.65
40
0.500001
50
0.000114591
51
89.9999
0
ARC
8
BLACK
10
98.875
20
-60.65
40
0.500001
50
-180
51
-90.0001
0
ARC
8
BLACK
10
79.975
20
-60.65
40
0.500001
50
-180
51
-90.0001
0
LINE
8
BLACK
6
CONTINUOUS
10
55.675
20
-60.65
11
55.675
21
-47.65
0
ARC
8
BLACK
10
61.075
20
-47.65
40
0.500001
50
90.0001
51
180
0
ARC
8
BLACK
10
144.95
20
-79.55
40
0.500001
50
-89.9999
51
-0.000114591
0
ARC
8
BLACK
10
149.675
20
-47.65
40
0.500001
50
0.000114591
51
89.9999
0
LINE
8
BLACK
6
CONTINUOUS
10
225.275
20
-47.15
11
212.275
21
-47.15
0
LINE
8
BLACK
6
CONTINUOUS
10
74.075
20
-47.15
11
61.075
21
-47.15
0
LINE
8
BLACK
6
CONTINUOUS
10
131.95
20
-80.05
11
144.95
21
-80.05
0
ARC
8
BLACK
10
61.075
20
-60.65
40
0.500001
50
-180
51
-90.0001
0
ARC
8
BLACK
10
74.075
20
-60.65
40
0.500001
50
-89.9999
51
-0.000114591
0
LINE
8
BLACK
6
CONTINUOUS
10
79.975
20
-61.15
11
92.975
21
-61.15
0
ARC
8
BLACK
10
111.875
20
-47.65
40
0.500001
50
0.000114591
51
89.9999
0
LINE
8
BLACK
6
CONTINUOUS
10
136.675
20
-61.15
11
149.675
21
-61.15
0
ARC
8
BLACK
10
168.575
20
-60.65
40
0.500001
50
-89.9999
51
-0.000114591
0
LINE
8
BLACK
6
CONTINUOUS
10
92.975
20
-47.15
11
79.975
21
-47.15
0
ARC
8
BLACK
10
325.675
20
-66.55
40
0.5
50
90
51
180
0
LINE
8
BLACK
6
CONTINUOUS
10
338.675
20
-66.05
11
325.675
21
-66.05
0
ARC
8
BLACK
10
338.675
20
-66.55
40
0.5
50
-0
51
90
0
LINE
8
BLACK
6
CONTINUOUS
10
212.275
20
-61.15
11
225.275
21
-61.15
0
LINE
8
BLACK
6
CONTINUOUS
10
42.175
20
-61.15
11
55.175
21
-61.15
0
LINE
8
BLACK
6
CONTINUOUS
10
93.475
20
-60.65
11
93.475
21
-47.65
0
LINE
8
BLACK
6
CONTINUOUS
10
112.375
20
-60.65
11
112.375
21
-47.65
0
ARC
8
BLACK
10
149.675
20
-60.65
40
0.500001
50
-89.9999
51
-0.000114591
0
LINE
8
BLACK
6
CONTINUOUS
10
225.775
20
-60.65
11
225.775
21
-47.65
0
LINE
8
BLACK
6
CONTINUOUS
10
79.475
20
-47.65
11
79.475
21
-60.65
0
LINE
8
BLACK
6
CONTINUOUS
10
60.575
20
-47.65
11
60.575
21
-60.65
0
ARC
8
BLACK
10
225.275
20
-47.65
40
0.5
50
-0
51
90
0
LINE
8
BLACK
6
CONTINUOUS
10
41.675
20
-47.65
11
41.675
21
-60.65
0
LINE
8
BLACK
6
CONTINUOUS
10
55.175
20
-47.15
11
42.175
21
-47.15
0
LINE
8
BLACK
6
CONTINUOUS
10
98.375
20
-47.65
11
98.375
21
-60.65
0
ARC
8
BLACK
10
212.275
20
-60.65
40
0.5
50
-180
51
-90
0
ARC
8
BLACK
10
98.875
20
-47.65
40
0.500001
50
90.0001
51
180
0
ARC
8
BLACK
10
111.875
20
-60.65
40
0.500001
50
-89.9999
51
-0.000114591
0
ARC
8
BLACK
10
155.575
20
-60.65
40
0.500001
50
-180
51
-90.0001
0
ARC
8
BLACK
10
136.675
20
-60.65
40
0.500001
50
-180
51
-90.0001
0
ARC
8
BLACK
10
225.275
20
-60.65
40
0.5
50
-90
51
-0
0
LINE
8
BLACK
6
CONTINUOUS
10
211.775
20
-47.65
11
211.775
21
-60.65
0
LINE
8
BLACK
6
CONTINUOUS
10
145.45
20
-79.55
11
145.45
21
-66.55
0
LINE
8
BLACK
6
CONTINUOUS
10
74.575
20
-60.65
11
74.575
21
-47.65
0
ARC
8
BLACK
10
92.975
20
-60.65
40
0.500001
50
-89.9999
51
-0.000114591
0
LINE
8
BLACK
6
CONTINUOUS
10
98.875
20
-61.15
11
111.875
21
-61.15
0
ARC
8
BLACK
10
42.175
20
-47.65
40
0.500001
50
90.0001
51
180
0
ARC
8
BLACK
10
136.675
20
-47.65
40
0.500001
50
90.0001
51
180
0
ARC
8
BLACK
10
92.975
20
-47.65
40
0.500001
50
0.000114591
51
89.9999
0
LINE
8
BLACK
6
CONTINUOUS
10
155.075
20
-47.65
11
155.075
21
-60.65
0
LINE
8
BLACK
6
CONTINUOUS
10
136.175
20
-47.65
11
136.175
21
-60.65
0
ARC
8
BLACK
10
155.575
20
-47.65
40
0.500001
50
90.0001
51
180
0
ARC
8
BLACK
10
55.175
20
-60.65
40
0.500001
50
-89.9999
51
-0.000114591
0
LINE
8
BLACK
6
CONTINUOUS
10
111.875
20
-47.15
11
98.875
21
-47.15
0
LINE
8
BLACK
6
CONTINUOUS
10
168.575
20
-47.15
11
155.575
21
-47.15
0
ARC
8
BLACK
10
42.175
20
-60.65
40
0.500001
50
-180
51
-90.0001
0
LINE
8
BLACK
6
CONTINUOUS
10
150.175
20
-60.65
11
150.175
21
-47.65
0
ARC
8
BLACK
10
-0.349999
20
32.675
40
0.500001
50
90.0001
51
180
0
LINE
8
BLACK
6
CONTINUOUS
10
338.675
20
-48.65
11
338.675
21
-59.65
0
ARC
8
BLACK
10
326.675
20
-48.65
40
1
50
90
51
180
0
LINE
8
BLACK
6
CONTINUOUS
10
97.2875
20
33.175
11
99.2875
21
33.175
0
ARC
8
BLACK
10
173.3
20
15.3625
40
0.5
50
-0
51
90
0
ARC
8
BLACK
10
12.65
20
15.3625
40
0.500001
50
0.000114591
51
89.9999
0
LINE
8
BLACK
6
CONTINUOUS
10
281.062
20
32.675
11
281.062
21
19.675
0
LINE
8
BLACK
6
CONTINUOUS
10
339.175
20
-79.55
11
339.175
21
-66.55
0
ARC
8
BLACK
10
99.2875
20
13.3625
40
0.500001
50
-89.9999
51
-0.000114591
0
LINE
8
BLACK
6
CONTINUOUS
10
284.062
20
32.675
11
284.062
21
19.675
0
LINE
8
BLACK
6
CONTINUOUS
10
13.15
20
15.3625
11
13.15
21
13.3625
0
LINE
8
BLACK
6
CONTINUOUS
10
99.7875
20
32.675
11
99.7875
21
13.3625
0
LINE
8
BLACK
6
CONTINUOUS
10
-0.35
20
19.175
11
12.65
21
19.175
0
ARC
8
BLACK
10
-0.349999
20
15.3625
40
0.500001
50
90.0001
51
180
0
ARC
8
BLACK
10
338.675
20
-79.55
40
0.5
50
-90
51
-0
0
ARC
8
BLACK
10
12.65
20
13.3625
40
0.500001
50
-89.9999
51
-0.000114591
0
ARC
8
BLACK
10
338.675
20
-27.65
40
0.5
50
-0
51
90
0
ARC
8
BLACK
10
338.675
20
15.3625
40
0.5
50
-0
51
90
0
ARC
8
BLACK
10
12.65
20
19.675
40
0.500001
50
-89.9999
51
-0.000114591
0
LINE
8
BLACK
6
CONTINUOUS
10
-0.85
20
32.675
11
-0.85
21
19.675
0
LINE
8
BLACK
6
CONTINUOUS
10
287.375
20
15.3625
11
287.375
21
13.3625
0
LINE
8
BLACK
6
CONTINUOUS
10
173.8
20
15.3625
11
173.8
21
13.3625
0
ARC
8
BLACK
10
283.562
20
19.675
40
0.5
50
-90
51
-0
0
ARC
8
BLACK
10
97.2875
20
32.675
40
0.500001
50
90.0001
51
180
0
ARC
8
BLACK
10
287.875
20
13.3625
40
0.5
50
-180
51
-90
0
LINE
8
BLACK
6
CONTINUOUS
10
103.6
20
15.8625
11
173.3
21
15.8625
0
ARC
8
BLACK
10
173.3
20
13.3625
40
0.5
50
-90
51
-0
0
ARC
8
BLACK
10
338.675
20
-42.85
40
0.5
50
-90
51
-0
0
LINE
8
BLACK
6
CONTINUOUS
10
-0.85
20
15.3625
11
-0.85
21
13.3625
0
LINE
8
BLACK
6
CONTINUOUS
10
325.675
20
-80.05
11
338.675
21
-80.05
0
LINE
8
BLACK
6
CONTINUOUS
10
281.562
20
33.175
11
283.562
21
33.175
0
LINE
8
BLACK
6
CONTINUOUS
10
96.7875
20
32.675
11
96.7875
21
13.3625
0
ARC
8
BLACK
10
281.562
20
32.675
40
0.5
50
90
51
180
0
ARC
8
BLACK
10
12.65
20
32.675
40
0.500001
50
0.000114591
51
89.9999
0
LINE
8
BLACK
6
CONTINUOUS
10
13.15
20
19.675
11
13.15
21
32.675
0
ARC
8
BLACK
10
97.2875
20
13.3625
40
0.500001
50
-180
51
-90.0001
0
LINE
8
BLACK
6
CONTINUOUS
10
287.875
20
-43.35
11
338.675
21
-43.35
0
ARC
8
BLACK
10
287.875
20
-27.65
40
0.5
50
90
51
180
0
ARC
8
BLACK
10
287.875
20
-42.85
40
0.5
50
-180
51
-90
0
LINE
8
BLACK
6
CONTINUOUS
10
287.875
20
12.8625
11
338.675
21
12.8625
0
ARC
8
BLACK
10
287.875
20
15.3625
40
0.5
50
90
51
180
0
ARC
8
BLACK
10
99.2875
20
32.675
40
0.500001
50
0.000114591
51
89.9999
0
LINE
8
BLACK
6
CONTINUOUS
10
103.6
20
12.8625
11
173.3
21
12.8625
0
LINE
8
BLACK
6
CONTINUOUS
10
281.562
20
19.175
11
283.562
21
19.175
0
LINE
8
BLACK
6
CONTINUOUS
10
103.1
20
15.3625
11
103.1
21
13.3625
0
ARC
8
BLACK
10
103.6
20
15.3625
40
0.500001
50
90.0001
51
180
0
LINE
8
BLACK
6
CONTINUOUS
10
337.675
20
-47.65
11
326.675
21
-47.65
0
ARC
8
BLACK
10
-0.349999
20
19.675
40
0.500001
50
-180
51
-90.0001
0
LINE
8
BLACK
6
CONTINUOUS
10
-0.35
20
12.8625
11
12.65
21
12.8625
0
LINE
8
BLACK
6
CONTINUOUS
10
287.875
20
15.8625
11
338.675
21
15.8625
0
ARC
8
BLACK
10
283.562
20
32.675
40
0.5
50
-0
51
90
0
ARC
8
BLACK
10
281.562
20
19.675
40
0.5
50
-180
51
-90
0
LINE
8
BLACK
6
CONTINUOUS
10
97.2875
20
12.8625
11
99.2875
21
12.8625
0
LINE
8
BLACK
6
CONTINUOUS
10
287.375
20
-27.65
11
287.375
21
-42.85
0
LINE
8
BLACK
6
CONTINUOUS
10
-0.35
20
15.8625
11
12.65
21
15.8625
0
ARC
8
BLACK
10
-0.349999
20
13.3625
40
0.500001
50
-180
51
-90.0001
0
LINE
8
BLACK
6
CONTINUOUS
10
287.875
20
-27.15
11
338.675
21
-27.15
0
LINE
8
BLACK
6
CONTINUOUS
10
339.175
20
15.3625
11
339.175
21
13.3625
0
ARC
8
BLACK
10
338.675
20
13.3625
40
0.5
50
-90
51
-0
0
ARC
8
BLACK
10
103.6
20
13.3625
40
0.500001
50
-180
51
-90.0001
0
LINE
8
BLACK
6
CONTINUOUS
10
325.675
20
-48.65
11
325.675
21
-59.65
0
LINE
8
BLACK
6
CONTINUOUS
10
12.65
20
33.175
11
-0.35
21
33.175
0
LINE
8
BLACK
6
CONTINUOUS
10
339.175
20
-27.65
11
339.175
21
-42.85
0
ARC
8
BLACK
10
337.675
20
-48.65
40
1
50
-0
51
90
0
ARC
8
BLACK
10
299.875
20
-59.65
40
1
50
-90
51
-0
0
LINE
8
BLACK
6
CONTINUOUS
10
23.275
20
12.8625
11
92.975
21
12.8625
0
CIRCLE
8
BLACK
10
232.125
20
-85.65
40
1.35
0
LINE
8
BLACK
6
CONTINUOUS
10
300.875
20
-48.65
11
300.875
21
-59.65
0
LINE
8
BLACK
6
CONTINUOUS
10
299.875
20
-47.65
11
288.875
21
-47.65
0
LINE
8
BLACK
6
CONTINUOUS
10
93.475
20
15.3625
11
93.475
21
13.3625
0
ARC
8
BLACK
10
282.062
20
14.8625
40
1
50
90
51
180
0
LINE
8
BLACK
6
CONTINUOUS
10
2.0125
20
-61.15
11
2.2745
21
-61.15
0
LINE
8
BLACK
6
CONTINUOUS
10
22.775
20
15.3625
11
22.775
21
13.3625
0
ARC
8
BLACK
10
186.2
20
-68.55
40
1
50
-0
51
90
0
ARC
8
BLACK
10
288.875
20
-48.65
40
1
50
90
51
180
0
LINE
8
BLACK
6
CONTINUOUS
10
287.875
20
-48.65
11
287.875
21
-59.65
0
ARC
8
BLACK
10
151.35
20
-73.55
40
0.999999
50
-180
51
-89.9999
0
ARC
8
BLACK
10
283.062
20
14.8625
40
1
50
-0
51
90
0
LINE
8
BLACK
6
CONTINUOUS
10
282.062
20
12.8625
11
283.062
21
12.8625
0
LINE
8
BLACK
6
CONTINUOUS
10
1.5125
20
-47.65
11
1.5125
21
-60.65
0
ARC
8
BLACK
10
2.0125
20
-47.65
40
0.500001
50
90.0001
51
180
0
LINE
8
BLACK
6
CONTINUOUS
10
36.275
20
-47.15
11
2.0125
21
-47.15
0
LINE
8
BLACK
6
CONTINUOUS
10
36.775
20
-60.65
11
36.775
21
-47.65
0
ARC
8
BLACK
10
23.275
20
15.3625
40
0.500001
50
90.0001
51
180
0
ARC
8
BLACK
10
283.062
20
13.8625
40
1
50
-90
51
-0
0
LINE
8
BLACK
6
CONTINUOUS
10
281.062
20
14.8625
11
281.062
21
13.8625
0
ARC
8
BLACK
10
23.275
20
13.3625
40
0.500001
50
-180
51
-90.0001
0
CIRCLE
8
BLACK
10
44.775
20
-85.65
40
1.35
0
ARC
8
BLACK
10
326.675
20
-59.65
40
1
50
-180
51
-90
0
CIRCLE
8
BLACK
10
199.875
20
38.775
40
1.35
0
LINE
8
BLACK
6
CONTINUOUS
10
2.5245
20
-61.4
11
2.5245
21
-62.65
0
ARC
8
BLACK
10
151.35
20
-68.55
40
0.999999
50
-270
51
-180
0
LINE
8
BLACK
6
CONTINUOUS
10
23.275
20
15.8625
11
92.975
21
15.8625
0
ARC
8
BLACK
10
2.2745
20
-61.4
40
0.249999
50
-0.000229184
51
90.0002
0
ARC
8
BLACK
10
2.0125
20
-60.65
40
0.500001
50
-180
51
-90.0001
0
LINE
8
BLACK
6
CONTINUOUS
10
187.2
20
-68.55
11
187.2
21
-73.55
0
ARC
8
BLACK
10
282.062
20
13.8625
40
1
50
-180
51
-90
0
LINE
8
BLACK
6
CONTINUOUS
10
186.2
20
-67.55
11
151.35
21
-67.55
0
CIRCLE
8
BLACK
10
17.9625
20
38.775
40
1.35
0
ARC
8
BLACK
10
36.275
20
-60.65
40
0.500001
50
-89.9999
51
-0.000114591
0
LINE
8
BLACK
6
CONTINUOUS
10
33.6505
20
-61.15
11
36.275
21
-61.15
0
ARC
8
BLACK
10
33.6505
20
-61.4
40
0.249999
50
-270
51
-180
0
LINE
8
BLACK
6
CONTINUOUS
10
33.4005
20
-61.4
11
33.4005
21
-62.65
0
ARC
8
BLACK
10
32.9005
20
-62.65
40
0.500001
50
-89.9999
51
-0.000114591
0
LINE
8
BLACK
6
CONTINUOUS
10
26.9005
20
-63.15
11
32.9005
21
-63.15
0
LINE
8
BLACK
6
CONTINUOUS
10
282.062
20
15.8625
11
283.062
21
15.8625
0
ARC
8
BLACK
10
26.9005
20
-62.65
40
0.500001
50
-180
51
-90.0001
0
LINE
8
BLACK
6
CONTINUOUS
10
26.4005
20
-61.4
11
26.4005
21
-62.65
0
ARC
8
BLACK
10
299.875
20
-48.65
40
1
50
-0
51
90
0
ARC
8
BLACK
10
26.1505
20
-61.4
40
0.249999
50
-0.000229184
51
90.0002
0
LINE
8
BLACK
6
CONTINUOUS
10
9.7745
20
-61.15
11
26.1505
21
-61.15
0
ARC
8
BLACK
10
9.7745
20
-61.4
40
0.249999
50
-270
51
-180
0
LINE
8
BLACK
6
CONTINUOUS
10
186.2
20
-74.55
11
151.35
21
-74.55
0
LINE
8
BLACK
6
CONTINUOUS
10
9.5245
20
-61.4
11
9.5245
21
-62.65
0
ARC
8
BLACK
10
36.275
20
-47.65
40
0.500001
50
0.000114591
51
89.9999
0
ARC
8
BLACK
10
9.0245
20
-62.65
40
0.500001
50
-89.9999
51
-0.000114591
0
ARC
8
BLACK
10
186.2
20
-73.55
40
1
50
-90
51
-0
0
LINE
8
BLACK
6
CONTINUOUS
10
150.35
20
-68.55
11
150.35
21
-73.55
0
CIRCLE
8
BLACK
10
322.725
20
38.775
40
1.35
0
LINE
8
BLACK
6
CONTINUOUS
10
299.875
20
-60.65
11
288.875
21
-60.65
0
CIRCLE
8
BLACK
10
108.919
20
38.775
40
1.35
0
ARC
8
BLACK
10
92.975
20
13.3625
40
0.500001
50
-89.9999
51
-0.000114591
0
ARC
8
BLACK
10
337.675
20
-59.65
40
1
50
-90
51
-0
0
LINE
8
BLACK
6
CONTINUOUS
10
337.675
20
-60.65
11
326.675
21
-60.65
0
LINE
8
BLACK
6
CONTINUOUS
10
284.062
20
14.8625
11
284.062
21
13.8625
0
CIRCLE
8
BLACK
10
303.825
20
-85.65
40
1.35
0
ARC
8
BLACK
10
288.875
20
-59.65
40
1
50
-180
51
-90
0
ARC
8
BLACK
10
92.975
20
15.3625
40
0.500001
50
0.000114591
51
89.9999
0
ARC
8
BLACK
10
277.25
20
9.05
40
0.5
50
-0
51
90
0
ARC
8
BLACK
10
253.112
20
-4.7
40
0.25
50
90
51
180
0
LINE
8
BLACK
6
CONTINUOUS
10
277.25
20
9.55
11
245.35
21
9.55
0
ARC
8
BLACK
10
245.35
20
-3.95
40
0.5
50
-180
51
-90
0
ARC
8
BLACK
10
252.362
20
-5.95
40
0.5
50
-90
51
-0
0
LINE
8
BLACK
6
CONTINUOUS
10
270.238
20
-6.45
11
276.238
21
-6.45
0
ARC
8
BLACK
10
277.25
20
-3.95
40
0.5
50
-90
51
-0
0
LINE
8
BLACK
6
CONTINUOUS
10
276.738
20
-4.7
11
276.738
21
-5.95
0
LINE
8
BLACK
6
CONTINUOUS
10
276.988
20
-4.45
11
277.25
21
-4.45
0
LINE
8
BLACK
6
CONTINUOUS
10
244.85
20
9.05
11
244.85
21
-3.95
0
ARC
8
BLACK
10
276.988
20
-4.7
40
0.25
50
90
51
180
0
LINE
8
BLACK
6
CONTINUOUS
10
245.862
20
-4.7
11
245.862
21
-5.95
0
LINE
8
BLACK
6
CONTINUOUS
10
246.362
20
-6.45
11
252.362
21
-6.45
0
ARC
8
BLACK
10
245.612
20
-4.7
40
0.25
50
-0
51
90
0
LINE
8
BLACK
6
CONTINUOUS
10
277.75
20
9.05
11
277.75
21
-3.95
0
LINE
8
BLACK
6
CONTINUOUS
10
253.112
20
-4.45
11
269.488
21
-4.45
0
LINE
8
BLACK
6
CONTINUOUS
10
245.35
20
-4.45
11
245.612
21
-4.45
0
LINE
8
BLACK
6
CONTINUOUS
10
252.862
20
-4.7
11
252.862
21
-5.95
0
ARC
8
BLACK
10
246.362
20
-5.95
40
0.5
50
-180
51
-90
0
ARC
8
BLACK
10
3.0245
20
-62.65
40
0.500001
50
-180
51
-90.0001
0
ARC
8
BLACK
10
276.238
20
-5.95
40
0.5
50
-90
51
-0
0
LINE
8
BLACK
6
CONTINUOUS
10
269.738
20
-4.7
11
269.738
21
-5.95
0
LINE
8
BLACK
6
CONTINUOUS
10
3.0245
20
-63.15
11
9.0245
21
-63.15
0
ARC
8
BLACK
10
270.238
20
-5.95
40
0.5
50
-180
51
-90
0
ARC
8
BLACK
10
269.488
20
-4.7
40
0.25
50
-0
51
90
0
ARC
8
BLACK
10
245.35
20
9.05
40
0.5
50
90
51
180
  0
ENDSEC
  0
EOF
