  0
SECTION
  2
HEADER
  9
$ANGBASE
  50
0.0
  9
$ANGDIR
  70
1
  9
$MEASUREMENT
  70
1
  0
ENDSEC
  0
SECTION
  2
TABLES
  0
TABLE
  2
LTYPE
  70
4
  0
LTYPE
  5
40F
  2
CONTINUOUS
  70
0
  3
Solid line
  72
65
  73
0
  40
0.0
  0
LTYPE
  5
410
  2
DASHDOT
 70
0
  3
Dash Dot ____ _ ____ _
 72
65
 73
4
 40
2.0
 49
1.25
 49
-0.25
 49
0.25
 49
-0.25
  0
LTYPE
  5
411
  2
DASHED
 70
0
  3
Dashed __ __ __ __ __
 72
65
 73
2
 40
0.75
 49
0.5
 49
-0.25
  0
LTYPE
  5
43B
  2
DOTTED
 70
0
  3
Dotted .  .  .  .
 72
65
 73
2
 40
0.2
 49
0.0
 49
-0.2
  0
ENDTAB
  0
TABLE
  2
STYLE
  70
4
  0
STYLE
  2
KICAD
  70
0
  40
0
  41
1
  42
1
  50
0
  71
0
  3
isocp.shx
  0
STYLE
  2
KICADB
  70
0
  40
0
  41
1
  42
1
  50
0
  71
0
  3
isocp.shx
  0
STYLE
  2
KICADI
  70
0
  40
0
  41
1
  42
1
  50
15
  71
0
  3
isocp.shx
  0
STYLE
  2
KICADBI
  70
0
  40
0
  41
1
  42
1
  50
15
  71
0
  3
isocp.shx
  0
ENDTAB
  0
TABLE
  2
LAYER
  70
1
  0
LAYER
  2
BLACK
  70
0
  62
7
  6
CONTINUOUS
  0
ENDTAB
  0
ENDSEC
  0
SECTION
  2
ENTITIES
0
LINE
8
BLACK
6
CONTINUOUS
10
261.675
20
-52.65
11
274.675
21
-52.65
0
ARC
8
BLACK
10
274.675
20
-52.15
40
0.5
50
-90
51
-0
0
LINE
8
BLACK
6
CONTINUOUS
10
275.175
20
-52.15
11
275.175
21
-39.15
0
ARC
8
BLACK
10
274.675
20
-39.15
40
0.5
50
-0
51
90
0
LINE
8
BLACK
6
CONTINUOUS
10
274.675
20
-38.65
11
261.675
21
-38.65
0
ARC
8
BLACK
10
261.675
20
-39.15
40
0.5
50
90
51
180
0
LINE
8
BLACK
6
CONTINUOUS
10
261.175
20
-39.15
11
261.175
21
-52.15
0
ARC
8
BLACK
10
261.675
20
-52.15
40
0.5
50
-180
51
-90
0
LINE
8
BLACK
6
CONTINUOUS
10
299.475
20
-33.75
11
312.475
21
-33.75
0
ARC
8
BLACK
10
312.475
20
-33.25
40
0.5
50
-90
51
-0
0
LINE
8
BLACK
6
CONTINUOUS
10
312.975
20
-33.25
11
312.975
21
-20.25
0
ARC
8
BLACK
10
312.475
20
-20.25
40
0.5
50
-0
51
90
0
LINE
8
BLACK
6
CONTINUOUS
10
312.475
20
-19.75
11
299.475
21
-19.75
0
ARC
8
BLACK
10
299.475
20
-20.25
40
0.5
50
90
51
180
0
LINE
8
BLACK
6
CONTINUOUS
10
298.975
20
-20.25
11
298.975
21
-33.25
0
ARC
8
BLACK
10
299.475
20
-33.25
40
0.5
50
-180
51
-90
0
LINE
8
BLACK
6
CONTINUOUS
10
280.575
20
-52.65
11
293.575
21
-52.65
0
ARC
8
BLACK
10
293.575
20
-52.15
40
0.5
50
-90
51
-0
0
LINE
8
BLACK
6
CONTINUOUS
10
294.075
20
-52.15
11
294.075
21
-39.15
0
ARC
8
BLACK
10
293.575
20
-39.15
40
0.5
50
-0
51
90
0
LINE
8
BLACK
6
CONTINUOUS
10
293.575
20
-38.65
11
280.575
21
-38.65
0
ARC
8
BLACK
10
280.575
20
-39.15
40
0.5
50
90
51
180
0
LINE
8
BLACK
6
CONTINUOUS
10
280.075
20
-39.15
11
280.075
21
-52.15
0
ARC
8
BLACK
10
280.575
20
-52.15
40
0.5
50
-180
51
-90
0
LINE
8
BLACK
6
CONTINUOUS
10
299.475
20
-52.65
11
312.475
21
-52.65
0
ARC
8
BLACK
10
312.475
20
-52.15
40
0.5
50
-90
51
-0
0
LINE
8
BLACK
6
CONTINUOUS
10
312.975
20
-52.15
11
312.975
21
-39.15
0
ARC
8
BLACK
10
312.475
20
-39.15
40
0.5
50
-0
51
90
0
LINE
8
BLACK
6
CONTINUOUS
10
312.475
20
-38.65
11
299.475
21
-38.65
0
ARC
8
BLACK
10
299.475
20
-39.15
40
0.5
50
90
51
180
0
LINE
8
BLACK
6
CONTINUOUS
10
298.975
20
-39.15
11
298.975
21
-52.15
0
ARC
8
BLACK
10
299.475
20
-52.15
40
0.5
50
-180
51
-90
0
LINE
8
BLACK
6
CONTINUOUS
10
280.575
20
-33.75
11
293.575
21
-33.75
0
ARC
8
BLACK
10
293.575
20
-33.25
40
0.5
50
-90
51
-0
0
LINE
8
BLACK
6
CONTINUOUS
10
294.075
20
-33.25
11
294.075
21
-20.25
0
ARC
8
BLACK
10
293.575
20
-20.25
40
0.5
50
-0
51
90
0
LINE
8
BLACK
6
CONTINUOUS
10
293.575
20
-19.75
11
280.575
21
-19.75
0
ARC
8
BLACK
10
280.575
20
-20.25
40
0.5
50
90
51
180
0
LINE
8
BLACK
6
CONTINUOUS
10
280.075
20
-20.25
11
280.075
21
-33.25
0
ARC
8
BLACK
10
280.575
20
-33.25
40
0.5
50
-180
51
-90
0
LINE
8
BLACK
6
CONTINUOUS
10
261.675
20
-33.75
11
274.675
21
-33.75
0
ARC
8
BLACK
10
274.675
20
-33.25
40
0.5
50
-90
51
-0
0
LINE
8
BLACK
6
CONTINUOUS
10
275.175
20
-33.25
11
275.175
21
-20.25
0
ARC
8
BLACK
10
274.675
20
-20.25
40
0.5
50
-0
51
90
0
LINE
8
BLACK
6
CONTINUOUS
10
274.675
20
-19.75
11
261.675
21
-19.75
0
ARC
8
BLACK
10
261.675
20
-20.25
40
0.5
50
90
51
180
0
LINE
8
BLACK
6
CONTINUOUS
10
261.175
20
-20.25
11
261.175
21
-33.25
0
ARC
8
BLACK
10
261.675
20
-33.25
40
0.5
50
-180
51
-90
0
LINE
8
BLACK
6
CONTINUOUS
10
280.575
20
-109.35
11
293.575
21
-109.35
0
ARC
8
BLACK
10
293.575
20
-108.85
40
0.5
50
-90
51
-0
0
LINE
8
BLACK
6
CONTINUOUS
10
294.075
20
-108.85
11
294.075
21
-95.85
0
ARC
8
BLACK
10
293.575
20
-95.85
40
0.5
50
-0
51
90
0
LINE
8
BLACK
6
CONTINUOUS
10
293.575
20
-95.35
11
280.575
21
-95.35
0
ARC
8
BLACK
10
280.575
20
-95.85
40
0.5
50
90
51
180
0
LINE
8
BLACK
6
CONTINUOUS
10
280.075
20
-95.85
11
280.075
21
-108.85
0
ARC
8
BLACK
10
280.575
20
-108.85
40
0.5
50
-180
51
-90
0
LINE
8
BLACK
6
CONTINUOUS
10
261.675
20
-109.35
11
274.675
21
-109.35
0
ARC
8
BLACK
10
274.675
20
-108.85
40
0.5
50
-90
51
-0
0
LINE
8
BLACK
6
CONTINUOUS
10
275.175
20
-108.85
11
275.175
21
-95.85
0
ARC
8
BLACK
10
274.675
20
-95.85
40
0.5
50
-0
51
90
0
LINE
8
BLACK
6
CONTINUOUS
10
274.675
20
-95.35
11
261.675
21
-95.35
0
ARC
8
BLACK
10
261.675
20
-95.85
40
0.5
50
90
51
180
0
LINE
8
BLACK
6
CONTINUOUS
10
261.175
20
-95.85
11
261.175
21
-108.85
0
ARC
8
BLACK
10
261.675
20
-108.85
40
0.5
50
-180
51
-90
0
LINE
8
BLACK
6
CONTINUOUS
10
280.575
20
-90.45
11
293.575
21
-90.45
0
ARC
8
BLACK
10
293.575
20
-89.95
40
0.5
50
-90
51
-0
0
LINE
8
BLACK
6
CONTINUOUS
10
294.075
20
-89.95
11
294.075
21
-76.95
0
ARC
8
BLACK
10
293.575
20
-76.95
40
0.5
50
-0
51
90
0
LINE
8
BLACK
6
CONTINUOUS
10
293.575
20
-76.45
11
280.575
21
-76.45
0
ARC
8
BLACK
10
280.575
20
-76.95
40
0.5
50
90
51
180
0
LINE
8
BLACK
6
CONTINUOUS
10
280.075
20
-76.95
11
280.075
21
-89.95
0
ARC
8
BLACK
10
280.575
20
-89.95
40
0.5
50
-180
51
-90
0
LINE
8
BLACK
6
CONTINUOUS
10
299.475
20
-109.35
11
312.475
21
-109.35
0
ARC
8
BLACK
10
312.475
20
-108.85
40
0.5
50
-90
51
-0
0
LINE
8
BLACK
6
CONTINUOUS
10
312.975
20
-108.85
11
312.975
21
-95.85
0
ARC
8
BLACK
10
312.475
20
-95.85
40
0.5
50
-0
51
90
0
LINE
8
BLACK
6
CONTINUOUS
10
312.475
20
-95.35
11
299.475
21
-95.35
0
ARC
8
BLACK
10
299.475
20
-95.85
40
0.5
50
90
51
180
0
LINE
8
BLACK
6
CONTINUOUS
10
298.975
20
-95.85
11
298.975
21
-108.85
0
ARC
8
BLACK
10
299.475
20
-108.85
40
0.5
50
-180
51
-90
0
ARC
8
BLACK
10
261.675
20
-56.95
40
0.5
50
90
51
180
0
LINE
8
BLACK
6
CONTINUOUS
10
261.175
20
-56.95
11
261.175
21
-72.15
0
ARC
8
BLACK
10
261.675
20
-72.15
40
0.5
50
-180
51
-90
0
LINE
8
BLACK
6
CONTINUOUS
10
261.675
20
-72.65
11
312.475
21
-72.65
0
ARC
8
BLACK
10
312.475
20
-72.15
40
0.5
50
-90
51
-0
0
LINE
8
BLACK
6
CONTINUOUS
10
312.975
20
-56.95
11
312.975
21
-72.15
0
ARC
8
BLACK
10
312.475
20
-56.95
40
0.5
50
-0
51
90
0
LINE
8
BLACK
6
CONTINUOUS
10
261.675
20
-56.45
11
312.475
21
-56.45
0
ARC
8
BLACK
10
300.475
20
-88.95
40
1
50
-180
51
-90
0
LINE
8
BLACK
6
CONTINUOUS
10
311.475
20
-89.95
11
300.475
21
-89.95
0
ARC
8
BLACK
10
311.475
20
-88.95
40
1
50
-90
51
-0
0
LINE
8
BLACK
6
CONTINUOUS
10
312.475
20
-77.95
11
312.475
21
-88.95
0
ARC
8
BLACK
10
311.475
20
-77.95
40
1
50
-0
51
90
0
LINE
8
BLACK
6
CONTINUOUS
10
311.475
20
-76.95
11
300.475
21
-76.95
0
ARC
8
BLACK
10
300.475
20
-77.95
40
1
50
90
51
180
0
LINE
8
BLACK
6
CONTINUOUS
10
299.475
20
-77.95
11
299.475
21
-88.95
0
ARC
8
BLACK
10
262.675
20
-88.95
40
1
50
-180
51
-90
0
LINE
8
BLACK
6
CONTINUOUS
10
273.675
20
-89.95
11
262.675
21
-89.95
0
ARC
8
BLACK
10
273.675
20
-88.95
40
1
50
-90
51
-0
0
LINE
8
BLACK
6
CONTINUOUS
10
274.675
20
-77.95
11
274.675
21
-88.95
0
ARC
8
BLACK
10
273.675
20
-77.95
40
1
50
-0
51
90
0
LINE
8
BLACK
6
CONTINUOUS
10
273.675
20
-76.95
11
262.675
21
-76.95
0
ARC
8
BLACK
10
262.675
20
-77.95
40
1
50
90
51
180
0
LINE
8
BLACK
6
CONTINUOUS
10
261.675
20
-77.95
11
261.675
21
-88.95
0
CIRCLE
8
BLACK
10
277.625
20
-114.95
40
1.35
0
LINE
8
BLACK
6
CONTINUOUS
10
299.475
20
-10.125
11
312.475
21
-10.125
0
ARC
8
BLACK
10
312.475
20
-9.625
40
0.5
50
-90
51
-0
0
LINE
8
BLACK
6
CONTINUOUS
10
312.975
20
-9.625
11
312.975
21
3.375
0
ARC
8
BLACK
10
312.475
20
3.375
40
0.5
50
-0
51
90
0
LINE
8
BLACK
6
CONTINUOUS
10
312.475
20
3.875
11
299.475
21
3.875
0
ARC
8
BLACK
10
299.475
20
3.375
40
0.5
50
90
51
180
0
LINE
8
BLACK
6
CONTINUOUS
10
298.975
20
3.375
11
298.975
21
-9.625
0
ARC
8
BLACK
10
299.475
20
-9.625
40
0.5
50
-180
51
-90
0
LINE
8
BLACK
6
CONTINUOUS
10
280.575
20
-10.125
11
293.575
21
-10.125
0
ARC
8
BLACK
10
293.575
20
-9.625
40
0.5
50
-90
51
-0
0
LINE
8
BLACK
6
CONTINUOUS
10
294.075
20
-9.625
11
294.075
21
3.375
0
ARC
8
BLACK
10
293.575
20
3.375
40
0.5
50
-0
51
90
0
LINE
8
BLACK
6
CONTINUOUS
10
293.575
20
3.875
11
280.575
21
3.875
0
ARC
8
BLACK
10
280.575
20
3.375
40
0.5
50
90
51
180
0
LINE
8
BLACK
6
CONTINUOUS
10
280.075
20
3.375
11
280.075
21
-9.625
0
ARC
8
BLACK
10
280.575
20
-9.625
40
0.5
50
-180
51
-90
0
LINE
8
BLACK
6
CONTINUOUS
10
261.675
20
-10.125
11
274.675
21
-10.125
0
ARC
8
BLACK
10
274.675
20
-9.625
40
0.5
50
-90
51
-0
0
LINE
8
BLACK
6
CONTINUOUS
10
275.175
20
-9.625
11
275.175
21
3.375
0
ARC
8
BLACK
10
274.675
20
3.375
40
0.5
50
-0
51
90
0
LINE
8
BLACK
6
CONTINUOUS
10
274.675
20
3.875
11
261.675
21
3.875
0
ARC
8
BLACK
10
261.675
20
3.375
40
0.5
50
90
51
180
0
LINE
8
BLACK
6
CONTINUOUS
10
261.175
20
3.375
11
261.175
21
-9.625
0
ARC
8
BLACK
10
261.675
20
-9.625
40
0.5
50
-180
51
-90
0
LINE
8
BLACK
6
CONTINUOUS
10
238.05
20
-10.125
11
251.05
21
-10.125
0
ARC
8
BLACK
10
251.05
20
-9.625
40
0.5
50
-90
51
-0
0
LINE
8
BLACK
6
CONTINUOUS
10
251.55
20
-9.625
11
251.55
21
3.375
0
ARC
8
BLACK
10
251.05
20
3.375
40
0.5
50
-0
51
90
0
LINE
8
BLACK
6
CONTINUOUS
10
251.05
20
3.875
11
238.05
21
3.875
0
ARC
8
BLACK
10
238.05
20
3.375
40
0.5
50
90
51
180
0
LINE
8
BLACK
6
CONTINUOUS
10
237.55
20
3.375
11
237.55
21
-9.625
0
ARC
8
BLACK
10
238.05
20
-9.625
40
0.5
50
-180
51
-90
0
LINE
8
BLACK
6
CONTINUOUS
10
214.425
20
-10.125
11
227.425
21
-10.125
0
ARC
8
BLACK
10
227.425
20
-9.625
40
0.5
50
-90
51
-0
0
LINE
8
BLACK
6
CONTINUOUS
10
227.925
20
-9.625
11
227.925
21
3.375
0
ARC
8
BLACK
10
227.425
20
3.375
40
0.5
50
-0
51
90
0
LINE
8
BLACK
6
CONTINUOUS
10
227.425
20
3.875
11
214.425
21
3.875
0
ARC
8
BLACK
10
214.425
20
3.375
40
0.5
50
90
51
180
0
LINE
8
BLACK
6
CONTINUOUS
10
213.925
20
3.375
11
213.925
21
-9.625
0
ARC
8
BLACK
10
214.425
20
-9.625
40
0.5
50
-180
51
-90
0
LINE
8
BLACK
6
CONTINUOUS
10
195.525
20
-10.125
11
208.525
21
-10.125
0
ARC
8
BLACK
10
208.525
20
-9.625
40
0.5
50
-90
51
-0
0
LINE
8
BLACK
6
CONTINUOUS
10
209.025
20
-9.625
11
209.025
21
3.375
0
ARC
8
BLACK
10
208.525
20
3.375
40
0.5
50
-0
51
90
0
LINE
8
BLACK
6
CONTINUOUS
10
208.525
20
3.875
11
195.525
21
3.875
0
ARC
8
BLACK
10
195.525
20
3.375
40
0.5
50
90
51
180
0
LINE
8
BLACK
6
CONTINUOUS
10
195.025
20
3.375
11
195.025
21
-9.625
0
ARC
8
BLACK
10
195.525
20
-9.625
40
0.5
50
-180
51
-90
0
LINE
8
BLACK
6
CONTINUOUS
10
176.625
20
-10.125
11
189.625
21
-10.125
0
ARC
8
BLACK
10
189.625
20
-9.625
40
0.5
50
-90
51
-0
0
LINE
8
BLACK
6
CONTINUOUS
10
190.125
20
-9.625
11
190.125
21
3.375
0
ARC
8
BLACK
10
189.625
20
3.375
40
0.5
50
-0
51
90
0
LINE
8
BLACK
6
CONTINUOUS
10
189.625
20
3.875
11
176.625
21
3.875
0
ARC
8
BLACK
10
176.625
20
3.375
40
0.5
50
90
51
180
0
LINE
8
BLACK
6
CONTINUOUS
10
176.125
20
3.375
11
176.125
21
-9.625
0
ARC
8
BLACK
10
176.625
20
-9.625
40
0.5
50
-180
51
-90
0
LINE
8
BLACK
6
CONTINUOUS
10
157.725
20
-10.125
11
170.725
21
-10.125
0
ARC
8
BLACK
10
170.725
20
-9.625
40
0.5
50
-90
51
-0
0
LINE
8
BLACK
6
CONTINUOUS
10
171.225
20
-9.625
11
171.225
21
3.375
0
ARC
8
BLACK
10
170.725
20
3.375
40
0.5
50
-0
51
90
0
LINE
8
BLACK
6
CONTINUOUS
10
170.725
20
3.875
11
157.725
21
3.875
0
ARC
8
BLACK
10
157.725
20
3.375
40
0.5
50
90
51
180
0
LINE
8
BLACK
6
CONTINUOUS
10
157.225
20
3.375
11
157.225
21
-9.625
0
ARC
8
BLACK
10
157.725
20
-9.625
40
0.5
50
-180
51
-90
0
LINE
8
BLACK
6
CONTINUOUS
10
134.1
20
-10.125
11
147.1
21
-10.125
0
ARC
8
BLACK
10
147.1
20
-9.625
40
0.5
50
-90
51
-0
0
LINE
8
BLACK
6
CONTINUOUS
10
147.6
20
-9.625
11
147.6
21
3.375
0
ARC
8
BLACK
10
147.1
20
3.375
40
0.5
50
-0
51
90
0
LINE
8
BLACK
6
CONTINUOUS
10
147.1
20
3.875
11
134.1
21
3.875
0
ARC
8
BLACK
10
134.1
20
3.375
40
0.500001
50
90.0001
51
180
0
LINE
8
BLACK
6
CONTINUOUS
10
133.6
20
3.375
11
133.6
21
-9.625
0
ARC
8
BLACK
10
134.1
20
-9.625
40
0.500001
50
-180
51
-90.0001
0
LINE
8
BLACK
6
CONTINUOUS
10
115.2
20
-10.125
11
128.2
21
-10.125
0
ARC
8
BLACK
10
128.2
20
-9.625
40
0.500001
50
-89.9999
51
-0.000114591
0
LINE
8
BLACK
6
CONTINUOUS
10
128.7
20
-9.625
11
128.7
21
3.375
0
ARC
8
BLACK
10
128.2
20
3.375
40
0.500001
50
0.000114591
51
89.9999
0
LINE
8
BLACK
6
CONTINUOUS
10
128.2
20
3.875
11
115.2
21
3.875
0
ARC
8
BLACK
10
115.2
20
3.375
40
0.500001
50
90.0001
51
180
0
LINE
8
BLACK
6
CONTINUOUS
10
114.7
20
3.375
11
114.7
21
-9.625
0
ARC
8
BLACK
10
115.2
20
-9.625
40
0.500001
50
-180
51
-90.0001
0
LINE
8
BLACK
6
CONTINUOUS
10
96.3
20
-10.125
11
109.3
21
-10.125
0
ARC
8
BLACK
10
109.3
20
-9.625
40
0.500001
50
-89.9999
51
-0.000114591
0
LINE
8
BLACK
6
CONTINUOUS
10
109.8
20
-9.625
11
109.8
21
3.375
0
ARC
8
BLACK
10
109.3
20
3.375
40
0.500001
50
0.000114591
51
89.9999
0
LINE
8
BLACK
6
CONTINUOUS
10
109.3
20
3.875
11
96.3
21
3.875
0
ARC
8
BLACK
10
96.3
20
3.375
40
0.500001
50
90.0001
51
180
0
LINE
8
BLACK
6
CONTINUOUS
10
95.8
20
3.375
11
95.8
21
-9.625
0
ARC
8
BLACK
10
96.3
20
-9.625
40
0.500001
50
-180
51
-90.0001
0
LINE
8
BLACK
6
CONTINUOUS
10
77.4
20
-10.125
11
90.4
21
-10.125
0
ARC
8
BLACK
10
90.4
20
-9.625
40
0.500001
50
-89.9999
51
-0.000114591
0
LINE
8
BLACK
6
CONTINUOUS
10
90.9
20
-9.625
11
90.9
21
3.375
0
ARC
8
BLACK
10
90.4
20
3.375
40
0.500001
50
0.000114591
51
89.9999
0
LINE
8
BLACK
6
CONTINUOUS
10
90.4
20
3.875
11
77.4
21
3.875
0
ARC
8
BLACK
10
77.4
20
3.375
40
0.500001
50
90.0001
51
180
0
LINE
8
BLACK
6
CONTINUOUS
10
76.9
20
3.375
11
76.9
21
-9.625
0
ARC
8
BLACK
10
77.4
20
-9.625
40
0.500001
50
-180
51
-90.0001
0
LINE
8
BLACK
6
CONTINUOUS
10
53.775
20
-10.125
11
66.775
21
-10.125
0
ARC
8
BLACK
10
66.775
20
-9.625
40
0.500001
50
-89.9999
51
-0.000114591
0
LINE
8
BLACK
6
CONTINUOUS
10
67.275
20
-9.625
11
67.275
21
3.375
0
ARC
8
BLACK
10
66.775
20
3.375
40
0.500001
50
0.000114591
51
89.9999
0
LINE
8
BLACK
6
CONTINUOUS
10
66.775
20
3.875
11
53.775
21
3.875
0
ARC
8
BLACK
10
53.775
20
3.375
40
0.500001
50
90.0001
51
180
0
LINE
8
BLACK
6
CONTINUOUS
10
53.275
20
3.375
11
53.275
21
-9.625
0
ARC
8
BLACK
10
53.775
20
-9.625
40
0.500001
50
-180
51
-90.0001
0
LINE
8
BLACK
6
CONTINUOUS
10
34.875
20
-10.125
11
47.875
21
-10.125
0
ARC
8
BLACK
10
47.875
20
-9.625
40
0.500001
50
-89.9999
51
-0.000114591
0
LINE
8
BLACK
6
CONTINUOUS
10
48.375
20
-9.625
11
48.375
21
3.375
0
ARC
8
BLACK
10
47.875
20
3.375
40
0.500001
50
0.000114591
51
89.9999
0
LINE
8
BLACK
6
CONTINUOUS
10
47.875
20
3.875
11
34.875
21
3.875
0
ARC
8
BLACK
10
34.875
20
3.375
40
0.500001
50
90.0001
51
180
0
LINE
8
BLACK
6
CONTINUOUS
10
34.375
20
3.375
11
34.375
21
-9.625
0
ARC
8
BLACK
10
34.875
20
-9.625
40
0.500001
50
-180
51
-90.0001
0
LINE
8
BLACK
6
CONTINUOUS
10
15.975
20
-10.125
11
28.975
21
-10.125
0
ARC
8
BLACK
10
28.975
20
-9.625
40
0.500001
50
-89.9999
51
-0.000114591
0
LINE
8
BLACK
6
CONTINUOUS
10
29.475
20
-9.625
11
29.475
21
3.375
0
ARC
8
BLACK
10
28.975
20
3.375
40
0.500001
50
0.000114591
51
89.9999
0
LINE
8
BLACK
6
CONTINUOUS
10
28.975
20
3.875
11
15.975
21
3.875
0
ARC
8
BLACK
10
15.975
20
3.375
40
0.500001
50
90.0001
51
180
0
LINE
8
BLACK
6
CONTINUOUS
10
15.475
20
3.375
11
15.475
21
-9.625
0
ARC
8
BLACK
10
15.975
20
-9.625
40
0.500001
50
-180
51
-90.0001
0
LINE
8
BLACK
6
CONTINUOUS
10
-2.925
20
-10.125
11
10.075
21
-10.125
0
ARC
8
BLACK
10
10.075
20
-9.625
40
0.500001
50
-89.9999
51
-0.000114591
0
LINE
8
BLACK
6
CONTINUOUS
10
10.575
20
-9.625
11
10.575
21
3.375
0
ARC
8
BLACK
10
10.075
20
3.375
40
0.500001
50
0.000114591
51
89.9999
0
LINE
8
BLACK
6
CONTINUOUS
10
10.075
20
3.875
11
-2.925
21
3.875
0
ARC
8
BLACK
10
-2.925
20
3.375
40
0.500001
50
90.0001
51
180
0
LINE
8
BLACK
6
CONTINUOUS
10
-3.425
20
3.375
11
-3.425
21
-9.625
0
ARC
8
BLACK
10
-2.925
20
-9.625
40
0.500001
50
-180
51
-90.0001
0
LINE
8
BLACK
6
CONTINUOUS
10
-26.55
20
-10.125
11
-13.55
21
-10.125
0
ARC
8
BLACK
10
-13.55
20
-9.625
40
0.500001
50
-89.9999
51
-0.000114591
0
LINE
8
BLACK
6
CONTINUOUS
10
-13.05
20
-9.625
11
-13.05
21
3.375
0
ARC
8
BLACK
10
-13.55
20
3.375
40
0.500001
50
0.000114591
51
89.9999
0
LINE
8
BLACK
6
CONTINUOUS
10
-13.55
20
3.875
11
-26.55
21
3.875
0
ARC
8
BLACK
10
-26.55
20
3.375
40
0.500001
50
90.0001
51
180
0
LINE
8
BLACK
6
CONTINUOUS
10
-27.05
20
3.375
11
-27.05
21
-9.625
0
ARC
8
BLACK
10
-26.55
20
-9.625
40
0.500001
50
-180
51
-90.0001
0
CIRCLE
8
BLACK
10
-8.2375
20
9.475
40
1.35
0
CIRCLE
8
BLACK
10
82.7188
20
9.475
40
1.35
0
CIRCLE
8
BLACK
10
173.675
20
9.475
40
1.35
0
CIRCLE
8
BLACK
10
296.525
20
9.475
40
1.35
0
ARC
8
BLACK
10
251.05
20
-33.25
40
0.5
50
-90
51
-0
0
LINE
8
BLACK
6
CONTINUOUS
10
251.55
20
-20.25
11
251.55
21
-33.25
0
ARC
8
BLACK
10
251.05
20
-20.25
40
0.5
50
-0
51
90
0
LINE
8
BLACK
6
CONTINUOUS
10
251.05
20
-19.75
11
219.15
21
-19.75
0
ARC
8
BLACK
10
219.15
20
-20.25
40
0.5
50
90
51
180
0
LINE
8
BLACK
6
CONTINUOUS
10
218.65
20
-20.25
11
218.65
21
-33.25
0
ARC
8
BLACK
10
219.15
20
-33.25
40
0.5
50
-180
51
-90
0
LINE
8
BLACK
6
CONTINUOUS
10
219.15
20
-33.75
11
219.412
21
-33.75
0
ARC
8
BLACK
10
219.412
20
-34
40
0.25
50
-0
51
90
0
LINE
8
BLACK
6
CONTINUOUS
10
219.662
20
-34
11
219.662
21
-35.25
0
ARC
8
BLACK
10
220.162
20
-35.25
40
0.5
50
-180
51
-90
0
LINE
8
BLACK
6
CONTINUOUS
10
220.162
20
-35.75
11
226.162
21
-35.75
0
ARC
8
BLACK
10
226.162
20
-35.25
40
0.5
50
-90
51
-0
0
LINE
8
BLACK
6
CONTINUOUS
10
226.662
20
-34
11
226.662
21
-35.25
0
ARC
8
BLACK
10
226.912
20
-34
40
0.25
50
90
51
180
0
LINE
8
BLACK
6
CONTINUOUS
10
226.912
20
-33.75
11
243.288
21
-33.75
0
ARC
8
BLACK
10
243.288
20
-34
40
0.25
50
-0
51
90
0
LINE
8
BLACK
6
CONTINUOUS
10
243.538
20
-34
11
243.538
21
-35.25
0
ARC
8
BLACK
10
244.038
20
-35.25
40
0.5
50
-180
51
-90
0
LINE
8
BLACK
6
CONTINUOUS
10
244.038
20
-35.75
11
250.038
21
-35.75
0
ARC
8
BLACK
10
250.038
20
-35.25
40
0.5
50
-90
51
-0
0
LINE
8
BLACK
6
CONTINUOUS
10
250.538
20
-34
11
250.538
21
-35.25
0
ARC
8
BLACK
10
250.788
20
-34
40
0.25
50
90
51
180
0
LINE
8
BLACK
6
CONTINUOUS
10
250.788
20
-33.75
11
251.05
21
-33.75
0
ARC
8
BLACK
10
-23.1755
20
-91.95
40
0.500001
50
-180
51
-90.0001
0
LINE
8
BLACK
6
CONTINUOUS
10
-23.1755
20
-92.45
11
-17.1755
21
-92.45
0
ARC
8
BLACK
10
-17.1755
20
-91.95
40
0.500001
50
-89.9999
51
-0.000114591
0
LINE
8
BLACK
6
CONTINUOUS
10
-16.6755
20
-90.7
11
-16.6755
21
-91.95
0
ARC
8
BLACK
10
-16.4255
20
-90.7
40
0.249999
50
-270
51
-180
0
LINE
8
BLACK
6
CONTINUOUS
10
-16.4255
20
-90.45
11
-0.0495
21
-90.45
0
ARC
8
BLACK
10
-0.049499
20
-90.7
40
0.249999
50
-0.000229184
51
90.0002
0
LINE
8
BLACK
6
CONTINUOUS
10
0.2005
20
-90.7
11
0.2005
21
-91.95
0
ARC
8
BLACK
10
0.700501
20
-91.95
40
0.500001
50
-180
51
-90.0001
0
LINE
8
BLACK
6
CONTINUOUS
10
0.7005
20
-92.45
11
6.7005
21
-92.45
0
ARC
8
BLACK
10
6.7005
20
-91.95
40
0.500001
50
-89.9999
51
-0.000114591
0
LINE
8
BLACK
6
CONTINUOUS
10
7.2005
20
-90.7
11
7.2005
21
-91.95
0
ARC
8
BLACK
10
7.4505
20
-90.7
40
0.249999
50
-270
51
-180
0
LINE
8
BLACK
6
CONTINUOUS
10
7.4505
20
-90.45
11
10.075
21
-90.45
0
ARC
8
BLACK
10
10.075
20
-89.95
40
0.500001
50
-89.9999
51
-0.000114591
0
LINE
8
BLACK
6
CONTINUOUS
10
10.575
20
-89.95
11
10.575
21
-76.95
0
ARC
8
BLACK
10
10.075
20
-76.95
40
0.500001
50
0.000114591
51
89.9999
0
LINE
8
BLACK
6
CONTINUOUS
10
10.075
20
-76.45
11
-24.1875
21
-76.45
0
ARC
8
BLACK
10
-24.1875
20
-76.95
40
0.500001
50
90.0001
51
180
0
LINE
8
BLACK
6
CONTINUOUS
10
-24.6875
20
-76.95
11
-24.6875
21
-89.95
0
ARC
8
BLACK
10
-24.1875
20
-89.95
40
0.500001
50
-180
51
-90.0001
0
LINE
8
BLACK
6
CONTINUOUS
10
-24.1875
20
-90.45
11
-23.9255
21
-90.45
0
ARC
8
BLACK
10
-23.9255
20
-90.7
40
0.249999
50
-0.000229184
51
90.0002
0
LINE
8
BLACK
6
CONTINUOUS
10
-23.6755
20
-90.7
11
-23.6755
21
-91.95
0
CIRCLE
8
BLACK
10
18.575
20
-114.95
40
1.35
0
CIRCLE
8
BLACK
10
205.925
20
-114.95
40
1.35
0
ARC
8
BLACK
10
125.15
20
-97.85
40
0.999999
50
-270
51
-180
0
LINE
8
BLACK
6
CONTINUOUS
10
124.15
20
-97.85
11
124.15
21
-102.85
0
ARC
8
BLACK
10
125.15
20
-102.85
40
0.999999
50
-180
51
-89.9999
0
LINE
8
BLACK
6
CONTINUOUS
10
160
20
-103.85
11
125.15
21
-103.85
0
ARC
8
BLACK
10
160
20
-102.85
40
1
50
-90
51
-0
0
LINE
8
BLACK
6
CONTINUOUS
10
161
20
-97.85
11
161
21
-102.85
0
ARC
8
BLACK
10
160
20
-97.85
40
1
50
-0
51
90
0
LINE
8
BLACK
6
CONTINUOUS
10
160
20
-96.85
11
125.15
21
-96.85
0
LINE
8
BLACK
6
CONTINUOUS
10
129.375
20
-90.45
11
142.375
21
-90.45
0
ARC
8
BLACK
10
142.375
20
-89.95
40
0.500001
50
-89.9999
51
-0.000114591
0
LINE
8
BLACK
6
CONTINUOUS
10
142.875
20
-89.95
11
142.875
21
-76.95
0
ARC
8
BLACK
10
142.375
20
-76.95
40
0.500001
50
0.000114591
51
89.9999
0
LINE
8
BLACK
6
CONTINUOUS
10
142.375
20
-76.45
11
129.375
21
-76.45
0
ARC
8
BLACK
10
129.375
20
-76.95
40
0.500001
50
90.0001
51
180
0
LINE
8
BLACK
6
CONTINUOUS
10
128.875
20
-76.95
11
128.875
21
-89.95
0
ARC
8
BLACK
10
129.375
20
-89.95
40
0.500001
50
-180
51
-90.0001
0
LINE
8
BLACK
6
CONTINUOUS
10
110.475
20
-90.45
11
123.475
21
-90.45
0
ARC
8
BLACK
10
123.475
20
-89.95
40
0.500001
50
-89.9999
51
-0.000114591
0
LINE
8
BLACK
6
CONTINUOUS
10
123.975
20
-89.95
11
123.975
21
-76.95
0
ARC
8
BLACK
10
123.475
20
-76.95
40
0.500001
50
0.000114591
51
89.9999
0
LINE
8
BLACK
6
CONTINUOUS
10
123.475
20
-76.45
11
110.475
21
-76.45
0
ARC
8
BLACK
10
110.475
20
-76.95
40
0.500001
50
90.0001
51
180
0
LINE
8
BLACK
6
CONTINUOUS
10
109.975
20
-76.95
11
109.975
21
-89.95
0
ARC
8
BLACK
10
110.475
20
-89.95
40
0.500001
50
-180
51
-90.0001
0
LINE
8
BLACK
6
CONTINUOUS
10
72.675
20
-90.45
11
85.675
21
-90.45
0
ARC
8
BLACK
10
85.675
20
-89.95
40
0.500001
50
-89.9999
51
-0.000114591
0
LINE
8
BLACK
6
CONTINUOUS
10
86.175
20
-89.95
11
86.175
21
-76.95
0
ARC
8
BLACK
10
85.675
20
-76.95
40
0.500001
50
0.000114591
51
89.9999
0
LINE
8
BLACK
6
CONTINUOUS
10
85.675
20
-76.45
11
72.675
21
-76.45
0
ARC
8
BLACK
10
72.675
20
-76.95
40
0.500001
50
90.0001
51
180
0
LINE
8
BLACK
6
CONTINUOUS
10
72.175
20
-76.95
11
72.175
21
-89.95
0
ARC
8
BLACK
10
72.675
20
-89.95
40
0.500001
50
-180
51
-90.0001
0
LINE
8
BLACK
6
CONTINUOUS
10
15.975
20
-90.45
11
28.975
21
-90.45
0
ARC
8
BLACK
10
28.975
20
-89.95
40
0.500001
50
-89.9999
51
-0.000114591
0
LINE
8
BLACK
6
CONTINUOUS
10
29.475
20
-89.95
11
29.475
21
-76.95
0
ARC
8
BLACK
10
28.975
20
-76.95
40
0.500001
50
0.000114591
51
89.9999
0
LINE
8
BLACK
6
CONTINUOUS
10
28.975
20
-76.45
11
15.975
21
-76.45
0
ARC
8
BLACK
10
15.975
20
-76.95
40
0.500001
50
90.0001
51
180
0
LINE
8
BLACK
6
CONTINUOUS
10
15.475
20
-76.95
11
15.475
21
-89.95
0
ARC
8
BLACK
10
15.975
20
-89.95
40
0.500001
50
-180
51
-90.0001
0
LINE
8
BLACK
6
CONTINUOUS
10
53.775
20
-90.45
11
66.775
21
-90.45
0
ARC
8
BLACK
10
66.775
20
-89.95
40
0.500001
50
-89.9999
51
-0.000114591
0
LINE
8
BLACK
6
CONTINUOUS
10
67.275
20
-89.95
11
67.275
21
-76.95
0
ARC
8
BLACK
10
66.775
20
-76.95
40
0.500001
50
0.000114591
51
89.9999
0
LINE
8
BLACK
6
CONTINUOUS
10
66.775
20
-76.45
11
53.775
21
-76.45
0
ARC
8
BLACK
10
53.775
20
-76.95
40
0.500001
50
90.0001
51
180
0
LINE
8
BLACK
6
CONTINUOUS
10
53.275
20
-76.95
11
53.275
21
-89.95
0
ARC
8
BLACK
10
53.775
20
-89.95
40
0.500001
50
-180
51
-90.0001
0
LINE
8
BLACK
6
CONTINUOUS
10
34.875
20
-90.45
11
47.875
21
-90.45
0
ARC
8
BLACK
10
47.875
20
-89.95
40
0.500001
50
-89.9999
51
-0.000114591
0
LINE
8
BLACK
6
CONTINUOUS
10
48.375
20
-89.95
11
48.375
21
-76.95
0
ARC
8
BLACK
10
47.875
20
-76.95
40
0.500001
50
0.000114591
51
89.9999
0
LINE
8
BLACK
6
CONTINUOUS
10
47.875
20
-76.45
11
34.875
21
-76.45
0
ARC
8
BLACK
10
34.875
20
-76.95
40
0.500001
50
90.0001
51
180
0
LINE
8
BLACK
6
CONTINUOUS
10
34.375
20
-76.95
11
34.375
21
-89.95
0
ARC
8
BLACK
10
34.875
20
-89.95
40
0.500001
50
-180
51
-90.0001
0
LINE
8
BLACK
6
CONTINUOUS
10
186.075
20
-90.45
11
199.075
21
-90.45
0
ARC
8
BLACK
10
199.075
20
-89.95
40
0.5
50
-90
51
-0
0
LINE
8
BLACK
6
CONTINUOUS
10
199.575
20
-89.95
11
199.575
21
-76.95
0
ARC
8
BLACK
10
199.075
20
-76.95
40
0.5
50
-0
51
90
0
LINE
8
BLACK
6
CONTINUOUS
10
199.075
20
-76.45
11
186.075
21
-76.45
0
ARC
8
BLACK
10
186.075
20
-76.95
40
0.5
50
90
51
180
0
LINE
8
BLACK
6
CONTINUOUS
10
185.575
20
-76.95
11
185.575
21
-89.95
0
ARC
8
BLACK
10
186.075
20
-89.95
40
0.5
50
-180
51
-90
0
LINE
8
BLACK
6
CONTINUOUS
10
105.75
20
-109.35
11
118.75
21
-109.35
0
ARC
8
BLACK
10
118.75
20
-108.85
40
0.500001
50
-89.9999
51
-0.000114591
0
LINE
8
BLACK
6
CONTINUOUS
10
119.25
20
-108.85
11
119.25
21
-95.85
0
ARC
8
BLACK
10
118.75
20
-95.85
40
0.500001
50
0.000114591
51
89.9999
0
LINE
8
BLACK
6
CONTINUOUS
10
118.75
20
-95.35
11
105.75
21
-95.35
0
ARC
8
BLACK
10
105.75
20
-95.85
40
0.500001
50
90.0001
51
180
0
LINE
8
BLACK
6
CONTINUOUS
10
105.25
20
-95.85
11
105.25
21
-108.85
0
ARC
8
BLACK
10
105.75
20
-108.85
40
0.500001
50
-180
51
-90.0001
0
LINE
8
BLACK
6
CONTINUOUS
10
24.975
20
-109.35
11
37.975
21
-109.35
0
ARC
8
BLACK
10
37.975
20
-108.85
40
0.500001
50
-89.9999
51
-0.000114591
0
LINE
8
BLACK
6
CONTINUOUS
10
38.475
20
-108.85
11
38.475
21
-95.85
0
ARC
8
BLACK
10
37.975
20
-95.85
40
0.500001
50
0.000114591
51
89.9999
0
LINE
8
BLACK
6
CONTINUOUS
10
37.975
20
-95.35
11
24.975
21
-95.35
0
ARC
8
BLACK
10
24.975
20
-95.85
40
0.500001
50
90.0001
51
180
0
LINE
8
BLACK
6
CONTINUOUS
10
24.475
20
-95.85
11
24.475
21
-108.85
0
ARC
8
BLACK
10
24.975
20
-108.85
40
0.500001
50
-180
51
-90.0001
0
LINE
8
BLACK
6
CONTINUOUS
10
-21.825
20
-109.35
11
-8.825
21
-109.35
0
ARC
8
BLACK
10
-8.825
20
-108.85
40
0.500001
50
-89.9999
51
-0.000114591
0
LINE
8
BLACK
6
CONTINUOUS
10
-8.325
20
-108.85
11
-8.325
21
-95.85
0
ARC
8
BLACK
10
-8.825
20
-95.85
40
0.500001
50
0.000114591
51
89.9999
0
LINE
8
BLACK
6
CONTINUOUS
10
-8.825
20
-95.35
11
-21.825
21
-95.35
0
ARC
8
BLACK
10
-21.825
20
-95.85
40
0.500001
50
90.0001
51
180
0
LINE
8
BLACK
6
CONTINUOUS
10
-22.325
20
-95.85
11
-22.325
21
-108.85
0
ARC
8
BLACK
10
-21.825
20
-108.85
40
0.500001
50
-180
51
-90.0001
0
LINE
8
BLACK
6
CONTINUOUS
10
186.525
20
-109.35
11
199.525
21
-109.35
0
ARC
8
BLACK
10
199.525
20
-108.85
40
0.5
50
-90
51
-0
0
LINE
8
BLACK
6
CONTINUOUS
10
200.025
20
-108.85
11
200.025
21
-95.85
0
ARC
8
BLACK
10
199.525
20
-95.85
40
0.5
50
-0
51
90
0
LINE
8
BLACK
6
CONTINUOUS
10
199.525
20
-95.35
11
186.525
21
-95.35
0
ARC
8
BLACK
10
186.525
20
-95.85
40
0.5
50
90
51
180
0
LINE
8
BLACK
6
CONTINUOUS
10
186.025
20
-95.85
11
186.025
21
-108.85
0
ARC
8
BLACK
10
186.525
20
-108.85
40
0.5
50
-180
51
-90
0
LINE
8
BLACK
6
CONTINUOUS
10
233.325
20
-109.35
11
246.325
21
-109.35
0
ARC
8
BLACK
10
246.325
20
-108.85
40
0.5
50
-90
51
-0
0
LINE
8
BLACK
6
CONTINUOUS
10
246.825
20
-108.85
11
246.825
21
-95.85
0
ARC
8
BLACK
10
246.325
20
-95.85
40
0.5
50
-0
51
90
0
LINE
8
BLACK
6
CONTINUOUS
10
246.325
20
-95.35
11
233.325
21
-95.35
0
ARC
8
BLACK
10
233.325
20
-95.85
40
0.5
50
90
51
180
0
LINE
8
BLACK
6
CONTINUOUS
10
232.825
20
-95.85
11
232.825
21
-108.85
0
ARC
8
BLACK
10
233.325
20
-108.85
40
0.5
50
-180
51
-90
0
LINE
8
BLACK
6
CONTINUOUS
10
148.275
20
-90.45
11
161.275
21
-90.45
0
ARC
8
BLACK
10
161.275
20
-89.95
40
0.5
50
-90
51
-0
0
LINE
8
BLACK
6
CONTINUOUS
10
161.775
20
-89.95
11
161.775
21
-76.95
0
ARC
8
BLACK
10
161.275
20
-76.95
40
0.5
50
-0
51
90
0
LINE
8
BLACK
6
CONTINUOUS
10
161.275
20
-76.45
11
148.275
21
-76.45
0
ARC
8
BLACK
10
148.275
20
-76.95
40
0.5
50
90
51
180
0
LINE
8
BLACK
6
CONTINUOUS
10
147.775
20
-76.95
11
147.775
21
-89.95
0
ARC
8
BLACK
10
148.275
20
-89.95
40
0.5
50
-180
51
-90
0
LINE
8
BLACK
6
CONTINUOUS
10
91.575
20
-90.45
11
104.575
21
-90.45
0
ARC
8
BLACK
10
104.575
20
-89.95
40
0.500001
50
-89.9999
51
-0.000114591
0
LINE
8
BLACK
6
CONTINUOUS
10
105.075
20
-89.95
11
105.075
21
-76.95
0
ARC
8
BLACK
10
104.575
20
-76.95
40
0.500001
50
0.000114591
51
89.9999
0
LINE
8
BLACK
6
CONTINUOUS
10
104.575
20
-76.45
11
91.575
21
-76.45
0
ARC
8
BLACK
10
91.575
20
-76.95
40
0.500001
50
90.0001
51
180
0
LINE
8
BLACK
6
CONTINUOUS
10
91.075
20
-76.95
11
91.075
21
-89.95
0
ARC
8
BLACK
10
91.575
20
-89.95
40
0.500001
50
-180
51
-90.0001
0
LINE
8
BLACK
6
CONTINUOUS
10
167.175
20
-90.45
11
180.175
21
-90.45
0
ARC
8
BLACK
10
180.175
20
-89.95
40
0.5
50
-90
51
-0
0
LINE
8
BLACK
6
CONTINUOUS
10
180.675
20
-89.95
11
180.675
21
-76.95
0
ARC
8
BLACK
10
180.175
20
-76.95
40
0.5
50
-0
51
90
0
LINE
8
BLACK
6
CONTINUOUS
10
180.175
20
-76.45
11
167.175
21
-76.45
0
ARC
8
BLACK
10
167.175
20
-76.95
40
0.5
50
90
51
180
0
LINE
8
BLACK
6
CONTINUOUS
10
166.675
20
-76.95
11
166.675
21
-89.95
0
ARC
8
BLACK
10
167.175
20
-89.95
40
0.5
50
-180
51
-90
0
LINE
8
BLACK
6
CONTINUOUS
10
-26.55
20
-33.75
11
-13.55
21
-33.75
0
ARC
8
BLACK
10
-13.55
20
-33.25
40
0.500001
50
-89.9999
51
-0.000114591
0
LINE
8
BLACK
6
CONTINUOUS
10
-13.05
20
-33.25
11
-13.05
21
-20.25
0
ARC
8
BLACK
10
-13.55
20
-20.25
40
0.500001
50
0.000114591
51
89.9999
0
LINE
8
BLACK
6
CONTINUOUS
10
-13.55
20
-19.75
11
-26.55
21
-19.75
0
ARC
8
BLACK
10
-26.55
20
-20.25
40
0.500001
50
90.0001
51
180
0
LINE
8
BLACK
6
CONTINUOUS
10
-27.05
20
-20.25
11
-27.05
21
-33.25
0
ARC
8
BLACK
10
-26.55
20
-33.25
40
0.500001
50
-180
51
-90.0001
0
LINE
8
BLACK
6
CONTINUOUS
10
-7.65
20
-33.75
11
5.35
21
-33.75
0
ARC
8
BLACK
10
5.35
20
-33.25
40
0.500001
50
-89.9999
51
-0.000114591
0
LINE
8
BLACK
6
CONTINUOUS
10
5.85
20
-33.25
11
5.85
21
-20.25
0
ARC
8
BLACK
10
5.35
20
-20.25
40
0.500001
50
0.000114591
51
89.9999
0
LINE
8
BLACK
6
CONTINUOUS
10
5.35
20
-19.75
11
-7.65
21
-19.75
0
ARC
8
BLACK
10
-7.65
20
-20.25
40
0.500001
50
90.0001
51
180
0
LINE
8
BLACK
6
CONTINUOUS
10
-8.15
20
-20.25
11
-8.15
21
-33.25
0
ARC
8
BLACK
10
-7.65
20
-33.25
40
0.500001
50
-180
51
-90.0001
0
LINE
8
BLACK
6
CONTINUOUS
10
11.25
20
-33.75
11
24.25
21
-33.75
0
ARC
8
BLACK
10
24.25
20
-33.25
40
0.500001
50
-89.9999
51
-0.000114591
0
LINE
8
BLACK
6
CONTINUOUS
10
24.75
20
-33.25
11
24.75
21
-20.25
0
ARC
8
BLACK
10
24.25
20
-20.25
40
0.500001
50
0.000114591
51
89.9999
0
LINE
8
BLACK
6
CONTINUOUS
10
24.25
20
-19.75
11
11.25
21
-19.75
0
ARC
8
BLACK
10
11.25
20
-20.25
40
0.500001
50
90.0001
51
180
0
LINE
8
BLACK
6
CONTINUOUS
10
10.75
20
-20.25
11
10.75
21
-33.25
0
ARC
8
BLACK
10
11.25
20
-33.25
40
0.500001
50
-180
51
-90.0001
0
LINE
8
BLACK
6
CONTINUOUS
10
30.15
20
-33.75
11
43.15
21
-33.75
0
ARC
8
BLACK
10
43.15
20
-33.25
40
0.500001
50
-89.9999
51
-0.000114591
0
LINE
8
BLACK
6
CONTINUOUS
10
43.65
20
-33.25
11
43.65
21
-20.25
0
ARC
8
BLACK
10
43.15
20
-20.25
40
0.500001
50
0.000114591
51
89.9999
0
LINE
8
BLACK
6
CONTINUOUS
10
43.15
20
-19.75
11
30.15
21
-19.75
0
ARC
8
BLACK
10
30.15
20
-20.25
40
0.500001
50
90.0001
51
180
0
LINE
8
BLACK
6
CONTINUOUS
10
29.65
20
-20.25
11
29.65
21
-33.25
0
ARC
8
BLACK
10
30.15
20
-33.25
40
0.500001
50
-180
51
-90.0001
0
LINE
8
BLACK
6
CONTINUOUS
10
49.05
20
-33.75
11
62.05
21
-33.75
0
ARC
8
BLACK
10
62.05
20
-33.25
40
0.500001
50
-89.9999
51
-0.000114591
0
LINE
8
BLACK
6
CONTINUOUS
10
62.55
20
-33.25
11
62.55
21
-20.25
0
ARC
8
BLACK
10
62.05
20
-20.25
40
0.500001
50
0.000114591
51
89.9999
0
LINE
8
BLACK
6
CONTINUOUS
10
62.05
20
-19.75
11
49.05
21
-19.75
0
ARC
8
BLACK
10
49.05
20
-20.25
40
0.500001
50
90.0001
51
180
0
LINE
8
BLACK
6
CONTINUOUS
10
48.55
20
-20.25
11
48.55
21
-33.25
0
ARC
8
BLACK
10
49.05
20
-33.25
40
0.500001
50
-180
51
-90.0001
0
LINE
8
BLACK
6
CONTINUOUS
10
67.95
20
-33.75
11
80.95
21
-33.75
0
ARC
8
BLACK
10
80.95
20
-33.25
40
0.500001
50
-89.9999
51
-0.000114591
0
LINE
8
BLACK
6
CONTINUOUS
10
81.45
20
-33.25
11
81.45
21
-20.25
0
ARC
8
BLACK
10
80.95
20
-20.25
40
0.500001
50
0.000114591
51
89.9999
0
LINE
8
BLACK
6
CONTINUOUS
10
80.95
20
-19.75
11
67.95
21
-19.75
0
ARC
8
BLACK
10
67.95
20
-20.25
40
0.500001
50
90.0001
51
180
0
LINE
8
BLACK
6
CONTINUOUS
10
67.45
20
-20.25
11
67.45
21
-33.25
0
ARC
8
BLACK
10
67.95
20
-33.25
40
0.500001
50
-180
51
-90.0001
0
LINE
8
BLACK
6
CONTINUOUS
10
86.85
20
-33.75
11
99.85
21
-33.75
0
ARC
8
BLACK
10
99.85
20
-33.25
40
0.500001
50
-89.9999
51
-0.000114591
0
LINE
8
BLACK
6
CONTINUOUS
10
100.35
20
-33.25
11
100.35
21
-20.25
0
ARC
8
BLACK
10
99.85
20
-20.25
40
0.500001
50
0.000114591
51
89.9999
0
LINE
8
BLACK
6
CONTINUOUS
10
99.85
20
-19.75
11
86.85
21
-19.75
0
ARC
8
BLACK
10
86.85
20
-20.25
40
0.500001
50
90.0001
51
180
0
LINE
8
BLACK
6
CONTINUOUS
10
86.35
20
-20.25
11
86.35
21
-33.25
0
ARC
8
BLACK
10
86.85
20
-33.25
40
0.500001
50
-180
51
-90.0001
0
LINE
8
BLACK
6
CONTINUOUS
10
105.75
20
-33.75
11
118.75
21
-33.75
0
ARC
8
BLACK
10
118.75
20
-33.25
40
0.500001
50
-89.9999
51
-0.000114591
0
LINE
8
BLACK
6
CONTINUOUS
10
119.25
20
-33.25
11
119.25
21
-20.25
0
ARC
8
BLACK
10
118.75
20
-20.25
40
0.500001
50
0.000114591
51
89.9999
0
LINE
8
BLACK
6
CONTINUOUS
10
118.75
20
-19.75
11
105.75
21
-19.75
0
ARC
8
BLACK
10
105.75
20
-20.25
40
0.500001
50
90.0001
51
180
0
LINE
8
BLACK
6
CONTINUOUS
10
105.25
20
-20.25
11
105.25
21
-33.25
0
ARC
8
BLACK
10
105.75
20
-33.25
40
0.500001
50
-180
51
-90.0001
0
LINE
8
BLACK
6
CONTINUOUS
10
124.65
20
-33.75
11
137.65
21
-33.75
0
ARC
8
BLACK
10
137.65
20
-33.25
40
0.500001
50
-89.9999
51
-0.000114591
0
LINE
8
BLACK
6
CONTINUOUS
10
138.15
20
-33.25
11
138.15
21
-20.25
0
ARC
8
BLACK
10
137.65
20
-20.25
40
0.500001
50
0.000114591
51
89.9999
0
LINE
8
BLACK
6
CONTINUOUS
10
137.65
20
-19.75
11
124.65
21
-19.75
0
ARC
8
BLACK
10
124.65
20
-20.25
40
0.500001
50
90.0001
51
180
0
LINE
8
BLACK
6
CONTINUOUS
10
124.15
20
-20.25
11
124.15
21
-33.25
0
ARC
8
BLACK
10
124.65
20
-33.25
40
0.500001
50
-180
51
-90.0001
0
LINE
8
BLACK
6
CONTINUOUS
10
143.55
20
-33.75
11
156.55
21
-33.75
0
ARC
8
BLACK
10
156.55
20
-33.25
40
0.5
50
-90
51
-0
0
LINE
8
BLACK
6
CONTINUOUS
10
157.05
20
-33.25
11
157.05
21
-20.25
0
ARC
8
BLACK
10
156.55
20
-20.25
40
0.5
50
-0
51
90
0
LINE
8
BLACK
6
CONTINUOUS
10
156.55
20
-19.75
11
143.55
21
-19.75
0
ARC
8
BLACK
10
143.55
20
-20.25
40
0.5
50
90
51
180
0
LINE
8
BLACK
6
CONTINUOUS
10
143.05
20
-20.25
11
143.05
21
-33.25
0
ARC
8
BLACK
10
143.55
20
-33.25
40
0.5
50
-180
51
-90
0
LINE
8
BLACK
6
CONTINUOUS
10
162.45
20
-33.75
11
175.45
21
-33.75
0
ARC
8
BLACK
10
175.45
20
-33.25
40
0.5
50
-90
51
-0
0
LINE
8
BLACK
6
CONTINUOUS
10
175.95
20
-33.25
11
175.95
21
-20.25
0
ARC
8
BLACK
10
175.45
20
-20.25
40
0.5
50
-0
51
90
0
LINE
8
BLACK
6
CONTINUOUS
10
175.45
20
-19.75
11
162.45
21
-19.75
0
ARC
8
BLACK
10
162.45
20
-20.25
40
0.5
50
90
51
180
0
LINE
8
BLACK
6
CONTINUOUS
10
161.95
20
-20.25
11
161.95
21
-33.25
0
ARC
8
BLACK
10
162.45
20
-33.25
40
0.5
50
-180
51
-90
0
LINE
8
BLACK
6
CONTINUOUS
10
181.35
20
-33.75
11
194.35
21
-33.75
0
ARC
8
BLACK
10
194.35
20
-33.25
40
0.5
50
-90
51
-0
0
LINE
8
BLACK
6
CONTINUOUS
10
194.85
20
-33.25
11
194.85
21
-20.25
0
ARC
8
BLACK
10
194.35
20
-20.25
40
0.5
50
-0
51
90
0
LINE
8
BLACK
6
CONTINUOUS
10
194.35
20
-19.75
11
181.35
21
-19.75
0
ARC
8
BLACK
10
181.35
20
-20.25
40
0.5
50
90
51
180
0
LINE
8
BLACK
6
CONTINUOUS
10
180.85
20
-20.25
11
180.85
21
-33.25
0
ARC
8
BLACK
10
181.35
20
-33.25
40
0.5
50
-180
51
-90
0
LINE
8
BLACK
6
CONTINUOUS
10
200.25
20
-33.75
11
213.25
21
-33.75
0
ARC
8
BLACK
10
213.25
20
-33.25
40
0.5
50
-90
51
-0
0
LINE
8
BLACK
6
CONTINUOUS
10
213.75
20
-33.25
11
213.75
21
-20.25
0
ARC
8
BLACK
10
213.25
20
-20.25
40
0.5
50
-0
51
90
0
LINE
8
BLACK
6
CONTINUOUS
10
213.25
20
-19.75
11
200.25
21
-19.75
0
ARC
8
BLACK
10
200.25
20
-20.25
40
0.5
50
90
51
180
0
LINE
8
BLACK
6
CONTINUOUS
10
199.75
20
-20.25
11
199.75
21
-33.25
0
ARC
8
BLACK
10
200.25
20
-33.25
40
0.5
50
-180
51
-90
0
LINE
8
BLACK
6
CONTINUOUS
10
82.125
20
-71.55
11
95.125
21
-71.55
0
ARC
8
BLACK
10
95.125
20
-71.05
40
0.500001
50
-89.9999
51
-0.000114591
0
LINE
8
BLACK
6
CONTINUOUS
10
95.625
20
-71.05
11
95.625
21
-58.05
0
ARC
8
BLACK
10
95.125
20
-58.05
40
0.500001
50
0.000114591
51
89.9999
0
LINE
8
BLACK
6
CONTINUOUS
10
95.125
20
-57.55
11
82.125
21
-57.55
0
ARC
8
BLACK
10
82.125
20
-58.05
40
0.500001
50
90.0001
51
180
0
LINE
8
BLACK
6
CONTINUOUS
10
81.625
20
-58.05
11
81.625
21
-71.05
0
ARC
8
BLACK
10
82.125
20
-71.05
40
0.500001
50
-180
51
-90.0001
0
LINE
8
BLACK
6
CONTINUOUS
10
63.225
20
-71.55
11
76.225
21
-71.55
0
ARC
8
BLACK
10
76.225
20
-71.05
40
0.500001
50
-89.9999
51
-0.000114591
0
LINE
8
BLACK
6
CONTINUOUS
10
76.725
20
-71.05
11
76.725
21
-58.05
0
ARC
8
BLACK
10
76.225
20
-58.05
40
0.500001
50
0.000114591
51
89.9999
0
LINE
8
BLACK
6
CONTINUOUS
10
76.225
20
-57.55
11
63.225
21
-57.55
0
ARC
8
BLACK
10
63.225
20
-58.05
40
0.500001
50
90.0001
51
180
0
LINE
8
BLACK
6
CONTINUOUS
10
62.725
20
-58.05
11
62.725
21
-71.05
0
ARC
8
BLACK
10
63.225
20
-71.05
40
0.500001
50
-180
51
-90.0001
0
LINE
8
BLACK
6
CONTINUOUS
10
44.325
20
-71.55
11
57.325
21
-71.55
0
ARC
8
BLACK
10
57.325
20
-71.05
40
0.500001
50
-89.9999
51
-0.000114591
0
LINE
8
BLACK
6
CONTINUOUS
10
57.825
20
-71.05
11
57.825
21
-58.05
0
ARC
8
BLACK
10
57.325
20
-58.05
40
0.500001
50
0.000114591
51
89.9999
0
LINE
8
BLACK
6
CONTINUOUS
10
57.325
20
-57.55
11
44.325
21
-57.55
0
ARC
8
BLACK
10
44.325
20
-58.05
40
0.500001
50
90.0001
51
180
0
LINE
8
BLACK
6
CONTINUOUS
10
43.825
20
-58.05
11
43.825
21
-71.05
0
ARC
8
BLACK
10
44.325
20
-71.05
40
0.500001
50
-180
51
-90.0001
0
LINE
8
BLACK
6
CONTINUOUS
10
25.425
20
-71.55
11
38.425
21
-71.55
0
ARC
8
BLACK
10
38.425
20
-71.05
40
0.500001
50
-89.9999
51
-0.000114591
0
LINE
8
BLACK
6
CONTINUOUS
10
38.925
20
-71.05
11
38.925
21
-58.05
0
ARC
8
BLACK
10
38.425
20
-58.05
40
0.500001
50
0.000114591
51
89.9999
0
LINE
8
BLACK
6
CONTINUOUS
10
38.425
20
-57.55
11
25.425
21
-57.55
0
ARC
8
BLACK
10
25.425
20
-58.05
40
0.500001
50
90.0001
51
180
0
LINE
8
BLACK
6
CONTINUOUS
10
24.925
20
-58.05
11
24.925
21
-71.05
0
ARC
8
BLACK
10
25.425
20
-71.05
40
0.500001
50
-180
51
-90.0001
0
LINE
8
BLACK
6
CONTINUOUS
10
6.525
20
-71.55
11
19.525
21
-71.55
0
ARC
8
BLACK
10
19.525
20
-71.05
40
0.500001
50
-89.9999
51
-0.000114591
0
LINE
8
BLACK
6
CONTINUOUS
10
20.025
20
-71.05
11
20.025
21
-58.05
0
ARC
8
BLACK
10
19.525
20
-58.05
40
0.500001
50
0.000114591
51
89.9999
0
LINE
8
BLACK
6
CONTINUOUS
10
19.525
20
-57.55
11
6.525
21
-57.55
0
ARC
8
BLACK
10
6.525
20
-58.05
40
0.500001
50
90.0001
51
180
0
LINE
8
BLACK
6
CONTINUOUS
10
6.025
20
-58.05
11
6.025
21
-71.05
0
ARC
8
BLACK
10
6.525
20
-71.05
40
0.500001
50
-180
51
-90.0001
0
LINE
8
BLACK
6
CONTINUOUS
10
-24.6875
20
-58.05
11
-24.6875
21
-71.05
0
ARC
8
BLACK
10
-24.1875
20
-71.05
40
0.500001
50
-180
51
-90.0001
0
LINE
8
BLACK
6
CONTINUOUS
10
-24.1875
20
-71.55
11
-6.4625
21
-71.55
0
ARC
8
BLACK
10
-6.4625
20
-71.05
40
0.500001
50
-89.9999
51
-0.000114591
0
LINE
8
BLACK
6
CONTINUOUS
10
-5.9625
20
-71.05
11
-5.9625
21
-58.05
0
ARC
8
BLACK
10
-6.4625
20
-58.05
40
0.500001
50
0.000114591
51
89.9999
0
LINE
8
BLACK
6
CONTINUOUS
10
-6.4625
20
-57.55
11
-24.1875
21
-57.55
0
ARC
8
BLACK
10
-24.1875
20
-58.05
40
0.500001
50
90.0001
51
180
0
LINE
8
BLACK
6
CONTINUOUS
10
176.625
20
-71.55
11
189.625
21
-71.55
0
ARC
8
BLACK
10
189.625
20
-71.05
40
0.5
50
-90
51
-0
0
LINE
8
BLACK
6
CONTINUOUS
10
190.125
20
-71.05
11
190.125
21
-58.05
0
ARC
8
BLACK
10
189.625
20
-58.05
40
0.5
50
-0
51
90
0
LINE
8
BLACK
6
CONTINUOUS
10
189.625
20
-57.55
11
176.625
21
-57.55
0
ARC
8
BLACK
10
176.625
20
-58.05
40
0.5
50
90
51
180
0
LINE
8
BLACK
6
CONTINUOUS
10
176.125
20
-58.05
11
176.125
21
-71.05
0
ARC
8
BLACK
10
176.625
20
-71.05
40
0.5
50
-180
51
-90
0
LINE
8
BLACK
6
CONTINUOUS
10
195.525
20
-71.55
11
208.525
21
-71.55
0
ARC
8
BLACK
10
208.525
20
-71.05
40
0.5
50
-90
51
-0
0
LINE
8
BLACK
6
CONTINUOUS
10
209.025
20
-71.05
11
209.025
21
-58.05
0
ARC
8
BLACK
10
208.525
20
-58.05
40
0.5
50
-0
51
90
0
LINE
8
BLACK
6
CONTINUOUS
10
208.525
20
-57.55
11
195.525
21
-57.55
0
ARC
8
BLACK
10
195.525
20
-58.05
40
0.5
50
90
51
180
0
LINE
8
BLACK
6
CONTINUOUS
10
195.025
20
-58.05
11
195.025
21
-71.05
0
ARC
8
BLACK
10
195.525
20
-71.05
40
0.5
50
-180
51
-90
0
ARC
8
BLACK
10
248.688
20
-61.6
40
0.5
50
-90
51
-0
0
LINE
8
BLACK
6
CONTINUOUS
10
249.188
20
-61.6
11
249.188
21
-48.6
0
ARC
8
BLACK
10
248.688
20
-48.6
40
0.5
50
-0
51
90
0
LINE
8
BLACK
6
CONTINUOUS
10
248.688
20
-48.1
11
248.438
21
-48.1
0
ARC
8
BLACK
10
248.438
20
-47.85
40
0.25
50
-180
51
-90
0
LINE
8
BLACK
6
CONTINUOUS
10
248.188
20
-47.85
11
248.188
21
-39.662
0
LINE
8
BLACK
6
CONTINUOUS
10
248.188
20
-39.662
11
247.075
21
-39.662
0
ARC
8
BLACK
10
247.075
20
-39.412
40
0.25
50
-180
51
-90
0
LINE
8
BLACK
6
CONTINUOUS
10
246.825
20
-39.412
11
246.825
21
-39.15
0
ARC
8
BLACK
10
246.325
20
-39.15
40
0.5
50
-0
51
90
0
LINE
8
BLACK
6
CONTINUOUS
10
246.325
20
-38.65
11
233.325
21
-38.65
0
ARC
8
BLACK
10
233.325
20
-39.15
40
0.5
50
90
51
180
0
LINE
8
BLACK
6
CONTINUOUS
10
232.825
20
-39.15
11
232.825
21
-52.15
0
ARC
8
BLACK
10
233.325
20
-52.15
40
0.5
50
-180
51
-90
0
LINE
8
BLACK
6
CONTINUOUS
10
233.325
20
-52.65
11
234.938
21
-52.65
0
ARC
8
BLACK
10
234.938
20
-52.9
40
0.25
50
-0
51
90
0
LINE
8
BLACK
6
CONTINUOUS
10
235.188
20
-52.9
11
235.188
21
-57.3
0
ARC
8
BLACK
10
234.938
20
-57.3
40
0.25
50
-90
51
-0
0
LINE
8
BLACK
6
CONTINUOUS
10
234.938
20
-57.55
11
224.549
21
-57.55
0
ARC
8
BLACK
10
224.549
20
-57.3
40
0.25
50
-180
51
-90
0
LINE
8
BLACK
6
CONTINUOUS
10
224.299
20
-57.3
11
224.299
21
-56.05
0
ARC
8
BLACK
10
223.799
20
-56.05
40
0.5
50
-0
51
90
0
LINE
8
BLACK
6
CONTINUOUS
10
223.799
20
-55.55
11
217.799
21
-55.55
0
ARC
8
BLACK
10
217.799
20
-56.05
40
0.5
50
90
51
180
0
LINE
8
BLACK
6
CONTINUOUS
10
217.299
20
-57.3
11
217.299
21
-56.05
0
ARC
8
BLACK
10
217.049
20
-57.3
40
0.25
50
-90
51
-0
0
LINE
8
BLACK
6
CONTINUOUS
10
217.049
20
-57.55
11
214.425
21
-57.55
0
ARC
8
BLACK
10
214.425
20
-58.05
40
0.5
50
90
51
180
0
LINE
8
BLACK
6
CONTINUOUS
10
213.925
20
-58.05
11
213.925
21
-71.05
0
ARC
8
BLACK
10
214.425
20
-71.05
40
0.5
50
-180
51
-90
0
LINE
8
BLACK
6
CONTINUOUS
10
214.425
20
-71.55
11
239.237
21
-71.55
0
ARC
8
BLACK
10
239.237
20
-71.05
40
0.5
50
-90
51
-0
0
LINE
8
BLACK
6
CONTINUOUS
10
239.737
20
-71.05
11
239.737
21
-70.8
0
ARC
8
BLACK
10
239.987
20
-70.8
40
0.25
50
90
51
180
0
LINE
8
BLACK
6
CONTINUOUS
10
247.675
20
-70.55
11
239.987
21
-70.55
0
ARC
8
BLACK
10
247.675
20
-70.05
40
0.499999
50
-90
51
-44.0276
0
ARC
8
BLACK
10
247.688
20
-70.038
40
0.5
50
-45.9724
51
-0
0
LINE
8
BLACK
6
CONTINUOUS
10
248.188
20
-70.038
11
248.188
21
-62.35
0
ARC
8
BLACK
10
248.438
20
-62.35
40
0.25
50
90
51
180
0
LINE
8
BLACK
6
CONTINUOUS
10
248.438
20
-62.1
11
248.688
21
-62.1
0
LINE
8
BLACK
6
CONTINUOUS
10
157.725
20
-71.55
11
170.725
21
-71.55
0
ARC
8
BLACK
10
170.725
20
-71.05
40
0.5
50
-90
51
-0
0
LINE
8
BLACK
6
CONTINUOUS
10
171.225
20
-71.05
11
171.225
21
-58.05
0
ARC
8
BLACK
10
170.725
20
-58.05
40
0.5
50
-0
51
90
0
LINE
8
BLACK
6
CONTINUOUS
10
170.725
20
-57.55
11
157.725
21
-57.55
0
ARC
8
BLACK
10
157.725
20
-58.05
40
0.5
50
90
51
180
0
LINE
8
BLACK
6
CONTINUOUS
10
157.225
20
-58.05
11
157.225
21
-71.05
0
ARC
8
BLACK
10
157.725
20
-71.05
40
0.5
50
-180
51
-90
0
LINE
8
BLACK
6
CONTINUOUS
10
138.825
20
-71.55
11
151.825
21
-71.55
0
ARC
8
BLACK
10
151.825
20
-71.05
40
0.5
50
-90
51
-0
0
LINE
8
BLACK
6
CONTINUOUS
10
152.325
20
-71.05
11
152.325
21
-58.05
0
ARC
8
BLACK
10
151.825
20
-58.05
40
0.5
50
-0
51
90
0
LINE
8
BLACK
6
CONTINUOUS
10
151.825
20
-57.55
11
138.825
21
-57.55
0
ARC
8
BLACK
10
138.825
20
-58.05
40
0.500001
50
90.0001
51
180
0
LINE
8
BLACK
6
CONTINUOUS
10
138.325
20
-58.05
11
138.325
21
-71.05
0
ARC
8
BLACK
10
138.825
20
-71.05
40
0.500001
50
-180
51
-90.0001
0
LINE
8
BLACK
6
CONTINUOUS
10
119.925
20
-71.55
11
132.925
21
-71.55
0
ARC
8
BLACK
10
132.925
20
-71.05
40
0.500001
50
-89.9999
51
-0.000114591
0
LINE
8
BLACK
6
CONTINUOUS
10
133.425
20
-71.05
11
133.425
21
-58.05
0
ARC
8
BLACK
10
132.925
20
-58.05
40
0.500001
50
0.000114591
51
89.9999
0
LINE
8
BLACK
6
CONTINUOUS
10
132.925
20
-57.55
11
119.925
21
-57.55
0
ARC
8
BLACK
10
119.925
20
-58.05
40
0.500001
50
90.0001
51
180
0
LINE
8
BLACK
6
CONTINUOUS
10
119.425
20
-58.05
11
119.425
21
-71.05
0
ARC
8
BLACK
10
119.925
20
-71.05
40
0.500001
50
-180
51
-90.0001
0
LINE
8
BLACK
6
CONTINUOUS
10
101.025
20
-71.55
11
114.025
21
-71.55
0
ARC
8
BLACK
10
114.025
20
-71.05
40
0.500001
50
-89.9999
51
-0.000114591
0
LINE
8
BLACK
6
CONTINUOUS
10
114.525
20
-71.05
11
114.525
21
-58.05
0
ARC
8
BLACK
10
114.025
20
-58.05
40
0.500001
50
0.000114591
51
89.9999
0
LINE
8
BLACK
6
CONTINUOUS
10
114.025
20
-57.55
11
101.025
21
-57.55
0
ARC
8
BLACK
10
101.025
20
-58.05
40
0.500001
50
90.0001
51
180
0
LINE
8
BLACK
6
CONTINUOUS
10
100.525
20
-58.05
11
100.525
21
-71.05
0
ARC
8
BLACK
10
101.025
20
-71.05
40
0.500001
50
-180
51
-90.0001
0
LINE
8
BLACK
6
CONTINUOUS
10
96.3
20
-52.65
11
109.3
21
-52.65
0
ARC
8
BLACK
10
109.3
20
-52.15
40
0.500001
50
-89.9999
51
-0.000114591
0
LINE
8
BLACK
6
CONTINUOUS
10
109.8
20
-52.15
11
109.8
21
-39.15
0
ARC
8
BLACK
10
109.3
20
-39.15
40
0.500001
50
0.000114591
51
89.9999
0
LINE
8
BLACK
6
CONTINUOUS
10
109.3
20
-38.65
11
96.3
21
-38.65
0
ARC
8
BLACK
10
96.3
20
-39.15
40
0.500001
50
90.0001
51
180
0
LINE
8
BLACK
6
CONTINUOUS
10
95.8
20
-39.15
11
95.8
21
-52.15
0
ARC
8
BLACK
10
96.3
20
-52.15
40
0.500001
50
-180
51
-90.0001
0
LINE
8
BLACK
6
CONTINUOUS
10
77.4
20
-52.65
11
90.4
21
-52.65
0
ARC
8
BLACK
10
90.4
20
-52.15
40
0.500001
50
-89.9999
51
-0.000114591
0
LINE
8
BLACK
6
CONTINUOUS
10
90.9
20
-52.15
11
90.9
21
-39.15
0
ARC
8
BLACK
10
90.4
20
-39.15
40
0.500001
50
0.000114591
51
89.9999
0
LINE
8
BLACK
6
CONTINUOUS
10
90.4
20
-38.65
11
77.4
21
-38.65
0
ARC
8
BLACK
10
77.4
20
-39.15
40
0.500001
50
90.0001
51
180
0
LINE
8
BLACK
6
CONTINUOUS
10
76.9
20
-39.15
11
76.9
21
-52.15
0
ARC
8
BLACK
10
77.4
20
-52.15
40
0.500001
50
-180
51
-90.0001
0
LINE
8
BLACK
6
CONTINUOUS
10
58.5
20
-52.65
11
71.5
21
-52.65
0
ARC
8
BLACK
10
71.5
20
-52.15
40
0.500001
50
-89.9999
51
-0.000114591
0
LINE
8
BLACK
6
CONTINUOUS
10
72
20
-52.15
11
72
21
-39.15
0
ARC
8
BLACK
10
71.5
20
-39.15
40
0.500001
50
0.000114591
51
89.9999
0
LINE
8
BLACK
6
CONTINUOUS
10
71.5
20
-38.65
11
58.5
21
-38.65
0
ARC
8
BLACK
10
58.5
20
-39.15
40
0.500001
50
90.0001
51
180
0
LINE
8
BLACK
6
CONTINUOUS
10
58
20
-39.15
11
58
21
-52.15
0
ARC
8
BLACK
10
58.5
20
-52.15
40
0.500001
50
-180
51
-90.0001
0
LINE
8
BLACK
6
CONTINUOUS
10
39.6
20
-52.65
11
52.6
21
-52.65
0
ARC
8
BLACK
10
52.6
20
-52.15
40
0.500001
50
-89.9999
51
-0.000114591
0
LINE
8
BLACK
6
CONTINUOUS
10
53.1
20
-52.15
11
53.1
21
-39.15
0
ARC
8
BLACK
10
52.6
20
-39.15
40
0.500001
50
0.000114591
51
89.9999
0
LINE
8
BLACK
6
CONTINUOUS
10
52.6
20
-38.65
11
39.6
21
-38.65
0
ARC
8
BLACK
10
39.6
20
-39.15
40
0.500001
50
90.0001
51
180
0
LINE
8
BLACK
6
CONTINUOUS
10
39.1
20
-39.15
11
39.1
21
-52.15
0
ARC
8
BLACK
10
39.6
20
-52.15
40
0.500001
50
-180
51
-90.0001
0
LINE
8
BLACK
6
CONTINUOUS
10
-21.825
20
-52.65
11
-8.825
21
-52.65
0
ARC
8
BLACK
10
-8.825
20
-52.15
40
0.500001
50
-89.9999
51
-0.000114591
0
LINE
8
BLACK
6
CONTINUOUS
10
-8.325
20
-52.15
11
-8.325
21
-39.15
0
ARC
8
BLACK
10
-8.825
20
-39.15
40
0.500001
50
0.000114591
51
89.9999
0
LINE
8
BLACK
6
CONTINUOUS
10
-8.825
20
-38.65
11
-21.825
21
-38.65
0
ARC
8
BLACK
10
-21.825
20
-39.15
40
0.500001
50
90.0001
51
180
0
LINE
8
BLACK
6
CONTINUOUS
10
-22.325
20
-39.15
11
-22.325
21
-52.15
0
ARC
8
BLACK
10
-21.825
20
-52.15
40
0.500001
50
-180
51
-90.0001
0
LINE
8
BLACK
6
CONTINUOUS
10
1.8
20
-52.65
11
14.8
21
-52.65
0
ARC
8
BLACK
10
14.8
20
-52.15
40
0.500001
50
-89.9999
51
-0.000114591
0
LINE
8
BLACK
6
CONTINUOUS
10
15.3
20
-52.15
11
15.3
21
-39.15
0
ARC
8
BLACK
10
14.8
20
-39.15
40
0.500001
50
0.000114591
51
89.9999
0
LINE
8
BLACK
6
CONTINUOUS
10
14.8
20
-38.65
11
1.8
21
-38.65
0
ARC
8
BLACK
10
1.8
20
-39.15
40
0.500001
50
90.0001
51
180
0
LINE
8
BLACK
6
CONTINUOUS
10
1.3
20
-39.15
11
1.3
21
-52.15
0
ARC
8
BLACK
10
1.8
20
-52.15
40
0.500001
50
-180
51
-90.0001
0
LINE
8
BLACK
6
CONTINUOUS
10
20.7
20
-52.65
11
33.7
21
-52.65
0
ARC
8
BLACK
10
33.7
20
-52.15
40
0.500001
50
-89.9999
51
-0.000114591
0
LINE
8
BLACK
6
CONTINUOUS
10
34.2
20
-52.15
11
34.2
21
-39.15
0
ARC
8
BLACK
10
33.7
20
-39.15
40
0.500001
50
0.000114591
51
89.9999
0
LINE
8
BLACK
6
CONTINUOUS
10
33.7
20
-38.65
11
20.7
21
-38.65
0
ARC
8
BLACK
10
20.7
20
-39.15
40
0.500001
50
90.0001
51
180
0
LINE
8
BLACK
6
CONTINUOUS
10
20.2
20
-39.15
11
20.2
21
-52.15
0
ARC
8
BLACK
10
20.7
20
-52.15
40
0.500001
50
-180
51
-90.0001
0
LINE
8
BLACK
6
CONTINUOUS
10
115.2
20
-52.65
11
128.2
21
-52.65
0
ARC
8
BLACK
10
128.2
20
-52.15
40
0.500001
50
-89.9999
51
-0.000114591
0
LINE
8
BLACK
6
CONTINUOUS
10
128.7
20
-52.15
11
128.7
21
-39.15
0
ARC
8
BLACK
10
128.2
20
-39.15
40
0.500001
50
0.000114591
51
89.9999
0
LINE
8
BLACK
6
CONTINUOUS
10
128.2
20
-38.65
11
115.2
21
-38.65
0
ARC
8
BLACK
10
115.2
20
-39.15
40
0.500001
50
90.0001
51
180
0
LINE
8
BLACK
6
CONTINUOUS
10
114.7
20
-39.15
11
114.7
21
-52.15
0
ARC
8
BLACK
10
115.2
20
-52.15
40
0.500001
50
-180
51
-90.0001
0
LINE
8
BLACK
6
CONTINUOUS
10
134.1
20
-52.65
11
147.1
21
-52.65
0
ARC
8
BLACK
10
147.1
20
-52.15
40
0.5
50
-90
51
-0
0
LINE
8
BLACK
6
CONTINUOUS
10
147.6
20
-52.15
11
147.6
21
-39.15
0
ARC
8
BLACK
10
147.1
20
-39.15
40
0.5
50
-0
51
90
0
LINE
8
BLACK
6
CONTINUOUS
10
147.1
20
-38.65
11
134.1
21
-38.65
0
ARC
8
BLACK
10
134.1
20
-39.15
40
0.500001
50
90.0001
51
180
0
LINE
8
BLACK
6
CONTINUOUS
10
133.6
20
-39.15
11
133.6
21
-52.15
0
ARC
8
BLACK
10
134.1
20
-52.15
40
0.500001
50
-180
51
-90.0001
0
LINE
8
BLACK
6
CONTINUOUS
10
153
20
-52.65
11
166
21
-52.65
0
ARC
8
BLACK
10
166
20
-52.15
40
0.5
50
-90
51
-0
0
LINE
8
BLACK
6
CONTINUOUS
10
166.5
20
-52.15
11
166.5
21
-39.15
0
ARC
8
BLACK
10
166
20
-39.15
40
0.5
50
-0
51
90
0
LINE
8
BLACK
6
CONTINUOUS
10
166
20
-38.65
11
153
21
-38.65
0
ARC
8
BLACK
10
153
20
-39.15
40
0.5
50
90
51
180
0
LINE
8
BLACK
6
CONTINUOUS
10
152.5
20
-39.15
11
152.5
21
-52.15
0
ARC
8
BLACK
10
153
20
-52.15
40
0.5
50
-180
51
-90
0
LINE
8
BLACK
6
CONTINUOUS
10
171.9
20
-52.65
11
184.9
21
-52.65
0
ARC
8
BLACK
10
184.9
20
-52.15
40
0.5
50
-90
51
-0
0
LINE
8
BLACK
6
CONTINUOUS
10
185.4
20
-52.15
11
185.4
21
-39.15
0
ARC
8
BLACK
10
184.9
20
-39.15
40
0.5
50
-0
51
90
0
LINE
8
BLACK
6
CONTINUOUS
10
184.9
20
-38.65
11
171.9
21
-38.65
0
ARC
8
BLACK
10
171.9
20
-39.15
40
0.5
50
90
51
180
0
LINE
8
BLACK
6
CONTINUOUS
10
171.4
20
-39.15
11
171.4
21
-52.15
0
ARC
8
BLACK
10
171.9
20
-52.15
40
0.5
50
-180
51
-90
0
LINE
8
BLACK
6
CONTINUOUS
10
190.8
20
-52.65
11
203.8
21
-52.65
0
ARC
8
BLACK
10
203.8
20
-52.15
40
0.5
50
-90
51
-0
0
LINE
8
BLACK
6
CONTINUOUS
10
204.3
20
-52.15
11
204.3
21
-39.15
0
ARC
8
BLACK
10
203.8
20
-39.15
40
0.5
50
-0
51
90
0
LINE
8
BLACK
6
CONTINUOUS
10
203.8
20
-38.65
11
190.8
21
-38.65
0
ARC
8
BLACK
10
190.8
20
-39.15
40
0.5
50
90
51
180
0
LINE
8
BLACK
6
CONTINUOUS
10
190.3
20
-39.15
11
190.3
21
-52.15
0
ARC
8
BLACK
10
190.8
20
-52.15
40
0.5
50
-180
51
-90
0
LINE
8
BLACK
6
CONTINUOUS
10
209.7
20
-52.65
11
222.7
21
-52.65
0
ARC
8
BLACK
10
222.7
20
-52.15
40
0.5
50
-90
51
-0
0
LINE
8
BLACK
6
CONTINUOUS
10
223.2
20
-52.15
11
223.2
21
-39.15
0
ARC
8
BLACK
10
222.7
20
-39.15
40
0.5
50
-0
51
90
0
LINE
8
BLACK
6
CONTINUOUS
10
222.7
20
-38.65
11
209.7
21
-38.65
0
ARC
8
BLACK
10
209.7
20
-39.15
40
0.5
50
90
51
180
0
LINE
8
BLACK
6
CONTINUOUS
10
209.2
20
-39.15
11
209.2
21
-52.15
0
ARC
8
BLACK
10
209.7
20
-52.15
40
0.5
50
-180
51
-90
0
ARC
8
BLACK
10
205.975
20
-114.5
40
2.9
50
-90
51
-0
0
LINE
8
BLACK
6
CONTINUOUS
10
205.975
20
-117.4
11
205.875
21
-117.4
0
ARC
8
BLACK
10
205.875
20
-114.5
40
2.9
50
-180
51
-90
0
LINE
8
BLACK
6
CONTINUOUS
10
202.975
20
-114.5
11
202.975
21
-113.8
0
ARC
8
BLACK
10
201.575
20
-113.8
40
1.4
50
-0
51
90
0
LINE
8
BLACK
6
CONTINUOUS
10
201.575
20
-112.4
11
178.65
21
-112.4
0
LINE
8
BLACK
6
CONTINUOUS
10
178.65
20
-112.4
11
178.353
21
-112.386
0
LINE
8
BLACK
6
CONTINUOUS
10
178.353
20
-112.386
11
178.084
21
-112.347
0
LINE
8
BLACK
6
CONTINUOUS
10
178.084
20
-112.347
11
177.842
21
-112.283
0
LINE
8
BLACK
6
CONTINUOUS
10
177.842
20
-112.283
11
177.432
21
-112.088
0
LINE
8
BLACK
6
CONTINUOUS
10
177.432
20
-112.088
11
177.106
21
-111.818
0
LINE
8
BLACK
6
CONTINUOUS
10
177.106
20
-111.818
11
176.85
21
-111.484
0
LINE
8
BLACK
6
CONTINUOUS
10
176.85
20
-111.484
11
176.647
21
-111.102
0
LINE
8
BLACK
6
CONTINUOUS
10
176.647
20
-111.102
11
176.483
21
-110.685
0
LINE
8
BLACK
6
CONTINUOUS
10
176.483
20
-110.685
11
176.342
21
-110.247
0
LINE
8
BLACK
6
CONTINUOUS
10
176.342
20
-110.247
11
176.208
21
-109.803
0
LINE
8
BLACK
6
CONTINUOUS
10
176.208
20
-109.803
11
176.067
21
-109.365
0
LINE
8
BLACK
6
CONTINUOUS
10
176.067
20
-109.365
11
175.903
21
-108.948
0
LINE
8
BLACK
6
CONTINUOUS
10
175.903
20
-108.948
11
175.7
21
-108.566
0
LINE
8
BLACK
6
CONTINUOUS
10
175.7
20
-108.566
11
175.444
21
-108.232
0
LINE
8
BLACK
6
CONTINUOUS
10
175.444
20
-108.232
11
175.118
21
-107.962
0
LINE
8
BLACK
6
CONTINUOUS
10
175.118
20
-107.962
11
174.708
21
-107.767
0
LINE
8
BLACK
6
CONTINUOUS
10
174.708
20
-107.767
11
174.466
21
-107.703
0
LINE
8
BLACK
6
CONTINUOUS
10
174.466
20
-107.703
11
174.197
21
-107.664
0
LINE
8
BLACK
6
CONTINUOUS
10
174.197
20
-107.664
11
173.9
21
-107.65
0
LINE
8
BLACK
6
CONTINUOUS
10
173.9
20
-107.65
11
173.4
21
-107.65
0
ARC
8
BLACK
10
173.4
20
-107.15
40
0.5
50
-180
51
-90
0
LINE
8
BLACK
6
CONTINUOUS
10
172.9
20
-107.15
11
172.9
21
-93.85
0
ARC
8
BLACK
10
172.4
20
-93.85
40
0.5
50
-0
51
90
0
LINE
8
BLACK
6
CONTINUOUS
10
172.4
20
-93.35
11
166.4
21
-93.35
0
ARC
8
BLACK
10
166.4
20
-93.85
40
0.5
50
90
51
180
0
LINE
8
BLACK
6
CONTINUOUS
10
165.9
20
-107.15
11
165.9
21
-93.85
0
ARC
8
BLACK
10
165.4
20
-107.15
40
0.5
50
-90
51
-0
0
LINE
8
BLACK
6
CONTINUOUS
10
165.4
20
-107.65
11
164.9
21
-107.65
0
LINE
8
BLACK
6
CONTINUOUS
10
160.15
20
-112.4
11
160.447
21
-112.386
0
LINE
8
BLACK
6
CONTINUOUS
10
160.447
20
-112.386
11
160.716
21
-112.347
0
LINE
8
BLACK
6
CONTINUOUS
10
160.716
20
-112.347
11
160.958
21
-112.283
0
LINE
8
BLACK
6
CONTINUOUS
10
160.958
20
-112.283
11
161.368
21
-112.088
0
LINE
8
BLACK
6
CONTINUOUS
10
161.368
20
-112.088
11
161.694
21
-111.818
0
LINE
8
BLACK
6
CONTINUOUS
10
161.694
20
-111.818
11
161.95
21
-111.484
0
LINE
8
BLACK
6
CONTINUOUS
10
161.95
20
-111.484
11
162.153
21
-111.102
0
LINE
8
BLACK
6
CONTINUOUS
10
162.153
20
-111.102
11
162.317
21
-110.685
0
LINE
8
BLACK
6
CONTINUOUS
10
162.317
20
-110.685
11
162.458
21
-110.247
0
LINE
8
BLACK
6
CONTINUOUS
10
162.458
20
-110.247
11
162.592
21
-109.803
0
LINE
8
BLACK
6
CONTINUOUS
10
162.592
20
-109.803
11
162.733
21
-109.365
0
LINE
8
BLACK
6
CONTINUOUS
10
162.733
20
-109.365
11
162.897
21
-108.948
0
LINE
8
BLACK
6
CONTINUOUS
10
162.897
20
-108.948
11
163.1
21
-108.566
0
LINE
8
BLACK
6
CONTINUOUS
10
163.1
20
-108.566
11
163.356
21
-108.232
0
LINE
8
BLACK
6
CONTINUOUS
10
163.356
20
-108.232
11
163.682
21
-107.962
0
LINE
8
BLACK
6
CONTINUOUS
10
163.682
20
-107.962
11
164.092
21
-107.767
0
LINE
8
BLACK
6
CONTINUOUS
10
164.092
20
-107.767
11
164.334
21
-107.703
0
LINE
8
BLACK
6
CONTINUOUS
10
164.334
20
-107.703
11
164.603
21
-107.664
0
LINE
8
BLACK
6
CONTINUOUS
10
164.603
20
-107.664
11
164.9
21
-107.65
0
LINE
8
BLACK
6
CONTINUOUS
10
160.15
20
-112.4
11
64.35
21
-112.4
0
LINE
8
BLACK
6
CONTINUOUS
10
64.35
20
-112.4
11
64.0526
21
-112.386
0
LINE
8
BLACK
6
CONTINUOUS
10
64.0526
20
-112.386
11
63.784
21
-112.347
0
LINE
8
BLACK
6
CONTINUOUS
10
63.784
20
-112.347
11
63.5423
21
-112.283
0
LINE
8
BLACK
6
CONTINUOUS
10
63.5423
20
-112.283
11
63.132
21
-112.088
0
LINE
8
BLACK
6
CONTINUOUS
10
63.132
20
-112.088
11
62.8063
21
-111.818
0
LINE
8
BLACK
6
CONTINUOUS
10
62.8063
20
-111.818
11
62.5498
21
-111.484
0
LINE
8
BLACK
6
CONTINUOUS
10
62.5498
20
-111.484
11
62.3471
21
-111.102
0
LINE
8
BLACK
6
CONTINUOUS
10
62.3471
20
-111.102
11
62.1829
21
-110.685
0
LINE
8
BLACK
6
CONTINUOUS
10
62.1829
20
-110.685
11
62.0417
21
-110.247
0
LINE
8
BLACK
6
CONTINUOUS
10
62.0417
20
-110.247
11
61.9083
21
-109.803
0
LINE
8
BLACK
6
CONTINUOUS
10
61.9083
20
-109.803
11
61.7671
21
-109.365
0
LINE
8
BLACK
6
CONTINUOUS
10
61.7671
20
-109.365
11
61.6029
21
-108.948
0
LINE
8
BLACK
6
CONTINUOUS
10
61.6029
20
-108.948
11
61.4002
21
-108.566
0
LINE
8
BLACK
6
CONTINUOUS
10
61.4002
20
-108.566
11
61.1437
21
-108.232
0
LINE
8
BLACK
6
CONTINUOUS
10
61.1437
20
-108.232
11
60.818
21
-107.962
0
LINE
8
BLACK
6
CONTINUOUS
10
60.818
20
-107.962
11
60.4077
21
-107.767
0
LINE
8
BLACK
6
CONTINUOUS
10
60.4077
20
-107.767
11
60.166
21
-107.703
0
LINE
8
BLACK
6
CONTINUOUS
10
60.166
20
-107.703
11
59.8974
21
-107.664
0
LINE
8
BLACK
6
CONTINUOUS
10
59.8974
20
-107.664
11
59.6
21
-107.65
0
LINE
8
BLACK
6
CONTINUOUS
10
59.1
20
-107.65
11
59.6
21
-107.65
0
ARC
8
BLACK
10
59.1
20
-107.15
40
0.500001
50
-180
51
-90.0001
0
LINE
8
BLACK
6
CONTINUOUS
10
58.6
20
-107.15
11
58.6
21
-93.85
0
ARC
8
BLACK
10
58.1
20
-93.85
40
0.500001
50
0.000114591
51
89.9999
0
LINE
8
BLACK
6
CONTINUOUS
10
58.1
20
-93.35
11
52.1
21
-93.35
0
ARC
8
BLACK
10
52.1
20
-93.85
40
0.500001
50
90.0001
51
180
0
LINE
8
BLACK
6
CONTINUOUS
10
51.6
20
-107.15
11
51.6
21
-93.85
0
ARC
8
BLACK
10
51.1
20
-107.15
40
0.500001
50
-89.9999
51
-0.000114591
0
LINE
8
BLACK
6
CONTINUOUS
10
50.6
20
-107.65
11
51.1
21
-107.65
0
LINE
8
BLACK
6
CONTINUOUS
10
45.85
20
-112.4
11
46.1474
21
-112.386
0
LINE
8
BLACK
6
CONTINUOUS
10
46.1474
20
-112.386
11
46.416
21
-112.347
0
LINE
8
BLACK
6
CONTINUOUS
10
46.416
20
-112.347
11
46.6577
21
-112.283
0
LINE
8
BLACK
6
CONTINUOUS
10
46.6577
20
-112.283
11
47.068
21
-112.088
0
LINE
8
BLACK
6
CONTINUOUS
10
47.068
20
-112.088
11
47.3937
21
-111.818
0
LINE
8
BLACK
6
CONTINUOUS
10
47.3937
20
-111.818
11
47.6502
21
-111.484
0
LINE
8
BLACK
6
CONTINUOUS
10
47.6502
20
-111.484
11
47.8529
21
-111.102
0
LINE
8
BLACK
6
CONTINUOUS
10
47.8529
20
-111.102
11
48.0171
21
-110.685
0
LINE
8
BLACK
6
CONTINUOUS
10
48.0171
20
-110.685
11
48.1583
21
-110.247
0
LINE
8
BLACK
6
CONTINUOUS
10
48.1583
20
-110.247
11
48.2917
21
-109.803
0
LINE
8
BLACK
6
CONTINUOUS
10
48.2917
20
-109.803
11
48.4329
21
-109.365
0
LINE
8
BLACK
6
CONTINUOUS
10
48.4329
20
-109.365
11
48.5971
21
-108.948
0
LINE
8
BLACK
6
CONTINUOUS
10
48.5971
20
-108.948
11
48.7998
21
-108.566
0
LINE
8
BLACK
6
CONTINUOUS
10
48.7998
20
-108.566
11
49.0563
21
-108.232
0
LINE
8
BLACK
6
CONTINUOUS
10
49.0563
20
-108.232
11
49.382
21
-107.962
0
LINE
8
BLACK
6
CONTINUOUS
10
49.382
20
-107.962
11
49.7923
21
-107.767
0
LINE
8
BLACK
6
CONTINUOUS
10
49.7923
20
-107.767
11
50.034
21
-107.703
0
LINE
8
BLACK
6
CONTINUOUS
10
50.034
20
-107.703
11
50.3026
21
-107.664
0
LINE
8
BLACK
6
CONTINUOUS
10
50.3026
20
-107.664
11
50.6
21
-107.65
0
LINE
8
BLACK
6
CONTINUOUS
10
45.85
20
-112.4
11
22.925
21
-112.4
0
ARC
8
BLACK
10
22.925
20
-113.8
40
1.4
50
90.0001
51
180
0
LINE
8
BLACK
6
CONTINUOUS
10
21.525
20
-113.8
11
21.525
21
-114.5
0
ARC
8
BLACK
10
18.625
20
-114.5
40
2.9
50
-90
51
1.97572e-05
0
LINE
8
BLACK
6
CONTINUOUS
10
18.625
20
-117.4
11
18.525
21
-117.4
0
ARC
8
BLACK
10
18.525
20
-114.5
40
2.9
50
-180
51
-90
0
LINE
8
BLACK
6
CONTINUOUS
10
15.625
20
-114.5
11
15.625
21
-113.8
0
ARC
8
BLACK
10
14.225
20
-113.8
40
1.4
50
8.1851e-05
51
89.9999
0
LINE
8
BLACK
6
CONTINUOUS
10
14.225
20
-112.4
11
-11.1074
21
-112.4
0
ARC
8
BLACK
10
-11.1074
20
-109.5
40
2.90002
50
-112.798
51
-90.0001
0
ARC
8
BLACK
10
-13.5874
20
-115.4
40
3.5
50
67.2018
51
90
0
LINE
8
BLACK
6
CONTINUOUS
10
-17.0626
20
-111.9
11
-13.5874
21
-111.9
0
ARC
8
BLACK
10
-17.0626
20
-115.4
40
3.5
50
90
51
112.798
0
ARC
8
BLACK
10
-19.5426
20
-109.5
40
2.90002
50
-89.9999
51
-67.2019
0
LINE
8
BLACK
6
CONTINUOUS
10
-19.5426
20
-112.4
11
-28.5
21
-112.4
0
ARC
8
BLACK
10
-28.5
20
-110.8
40
1.6
50
-180
51
-90
0
LINE
8
BLACK
6
CONTINUOUS
10
-30.1
20
-110.8
11
-30.1
21
5.325
0
ARC
8
BLACK
10
-28.5
20
5.325
40
1.6
50
-270
51
-180
0
LINE
8
BLACK
6
CONTINUOUS
10
-28.5
20
6.925
11
-24.2676
21
6.925
0
ARC
8
BLACK
10
-24.2676
20
4.02498
40
2.90002
50
67.2019
51
89.9999
0
ARC
8
BLACK
10
-21.7876
20
9.925
40
3.5
50
-112.798
51
-90
0
LINE
8
BLACK
6
CONTINUOUS
10
-18.3124
20
6.425
11
-21.7876
21
6.425
0
ARC
8
BLACK
10
-18.3124
20
9.925
40
3.5
50
-90
51
-67.2018
0
ARC
8
BLACK
10
-15.8324
20
4.02498
40
2.90002
50
90.0001
51
112.798
0
LINE
8
BLACK
6
CONTINUOUS
10
-15.8324
20
6.925
11
-12.5875
21
6.925
0
ARC
8
BLACK
10
-12.5875
20
8.325
40
1.4
50
-89.9999
51
-8.1851e-05
0
LINE
8
BLACK
6
CONTINUOUS
10
-11.1875
20
8.325
11
-11.1875
21
9.025
0
ARC
8
BLACK
10
-8.2875
20
9.025
40
2.9
50
-270
51
-180
0
LINE
8
BLACK
6
CONTINUOUS
10
-8.2875
20
11.925
11
-8.1875
21
11.925
0
ARC
8
BLACK
10
-8.1875
20
9.025
40
2.9
50
-1.97572e-05
51
90
0
LINE
8
BLACK
6
CONTINUOUS
10
-5.2875
20
9.025
11
-5.2875
21
8.325
0
ARC
8
BLACK
10
-3.8875
20
8.325
40
1.4
50
-180
51
-90.0001
0
LINE
8
BLACK
6
CONTINUOUS
10
-3.8875
20
6.925
11
78.3687
21
6.925
0
ARC
8
BLACK
10
78.3687
20
8.325
40
1.4
50
-89.9999
51
-8.1851e-05
0
LINE
8
BLACK
6
CONTINUOUS
10
79.7687
20
8.325
11
79.7687
21
9.025
0
ARC
8
BLACK
10
82.6687
20
9.025
40
2.9
50
-270
51
-180
0
LINE
8
BLACK
6
CONTINUOUS
10
82.6688
20
11.925
11
82.7687
21
11.925
0
ARC
8
BLACK
10
82.7688
20
9.025
40
2.9
50
-1.97572e-05
51
90
0
LINE
8
BLACK
6
CONTINUOUS
10
85.6688
20
9.025
11
85.6688
21
8.325
0
ARC
8
BLACK
10
87.0688
20
8.325
40
1.4
50
-180
51
-90.0001
0
LINE
8
BLACK
6
CONTINUOUS
10
87.0687
20
6.925
11
169.325
21
6.925
0
ARC
8
BLACK
10
169.325
20
8.325
40
1.4
50
-90
51
-0
0
LINE
8
BLACK
6
CONTINUOUS
10
170.725
20
8.325
11
170.725
21
9.025
0
ARC
8
BLACK
10
173.625
20
9.025
40
2.9
50
90
51
180
0
LINE
8
BLACK
6
CONTINUOUS
10
173.625
20
11.925
11
173.725
21
11.925
0
ARC
8
BLACK
10
173.725
20
9.025
40
2.9
50
-0
51
90
0
LINE
8
BLACK
6
CONTINUOUS
10
176.625
20
9.025
11
176.625
21
8.325
0
ARC
8
BLACK
10
178.025
20
8.325
40
1.4
50
-180
51
-90
0
LINE
8
BLACK
6
CONTINUOUS
10
178.025
20
6.925
11
292.175
21
6.925
0
ARC
8
BLACK
10
292.175
20
8.325
40
1.4
50
-90
51
-0
0
LINE
8
BLACK
6
CONTINUOUS
10
293.575
20
8.325
11
293.575
21
9.025
0
ARC
8
BLACK
10
296.475
20
9.025
40
2.9
50
90
51
180
0
LINE
8
BLACK
6
CONTINUOUS
10
296.475
20
11.925
11
296.575
21
11.925
0
ARC
8
BLACK
10
296.575
20
9.025
40
2.9
50
-0
51
90
0
LINE
8
BLACK
6
CONTINUOUS
10
299.475
20
9.025
11
299.475
21
8.325
0
ARC
8
BLACK
10
300.875
20
8.325
40
1.4
50
-180
51
-90
0
LINE
8
BLACK
6
CONTINUOUS
10
300.875
20
6.925
11
301.757
21
6.925
0
ARC
8
BLACK
10
301.757
20
4.025
40
2.9
50
67.201
51
89.9991
0
ARC
8
BLACK
10
304.237
20
9.925
40
3.5
50
-112.799
51
-90.0006
0
LINE
8
BLACK
6
CONTINUOUS
10
307.713
20
6.425
11
304.237
21
6.425
0
ARC
8
BLACK
10
307.713
20
9.925
40
3.50001
50
-89.9994
51
-67.2012
0
ARC
8
BLACK
10
310.193
20
4.025
40
2.90002
50
90.0009
51
112.799
0
LINE
8
BLACK
6
CONTINUOUS
10
310.193
20
6.925
11
314.425
21
6.925
0
ARC
8
BLACK
10
314.425
20
5.325
40
1.6
50
-0
51
90
0
LINE
8
BLACK
6
CONTINUOUS
10
316.025
20
5.325
11
316.025
21
-110.8
0
ARC
8
BLACK
10
314.425
20
-110.8
40
1.6
50
-90
51
-0
0
LINE
8
BLACK
6
CONTINUOUS
10
314.425
20
-112.4
11
310.193
21
-112.4
0
ARC
8
BLACK
10
310.193
20
-109.5
40
2.9
50
-112.799
51
-90.0009
0
ARC
8
BLACK
10
307.713
20
-115.4
40
3.5
50
67.2012
51
89.9994
0
LINE
8
BLACK
6
CONTINUOUS
10
304.237
20
-111.9
11
307.713
21
-111.9
0
ARC
8
BLACK
10
304.237
20
-115.4
40
3.50001
50
90.0006
51
112.799
0
ARC
8
BLACK
10
301.757
20
-109.5
40
2.90002
50
-89.9991
51
-67.201
0
LINE
8
BLACK
6
CONTINUOUS
10
301.757
20
-112.4
11
281.975
21
-112.4
0
ARC
8
BLACK
10
281.975
20
-113.8
40
1.4
50
90
51
180
0
LINE
8
BLACK
6
CONTINUOUS
10
280.575
20
-113.8
11
280.575
21
-114.5
0
ARC
8
BLACK
10
277.675
20
-114.5
40
2.9
50
-90
51
-0
0
LINE
8
BLACK
6
CONTINUOUS
10
277.675
20
-117.4
11
277.575
21
-117.4
0
ARC
8
BLACK
10
277.575
20
-114.5
40
2.9
50
-180
51
-90
0
LINE
8
BLACK
6
CONTINUOUS
10
274.675
20
-114.5
11
274.675
21
-113.8
0
ARC
8
BLACK
10
273.275
20
-113.8
40
1.4
50
-0
51
90
0
LINE
8
BLACK
6
CONTINUOUS
10
273.275
20
-112.4
11
210.275
21
-112.4
0
ARC
8
BLACK
10
210.275
20
-113.8
40
1.4
50
90
51
180
0
LINE
8
BLACK
6
CONTINUOUS
10
208.875
20
-113.8
11
208.875
21
-114.5
0
ARC
8
BLACK
10
2.575
20
-96.85
40
0.999999
50
-270
51
-180
0
LINE
8
BLACK
6
CONTINUOUS
10
1.575
20
-96.85
11
1.575
21
-107.85
0
ARC
8
BLACK
10
2.575
20
-107.85
40
0.999999
50
-180
51
-89.9999
0
LINE
8
BLACK
6
CONTINUOUS
10
2.575
20
-108.85
11
13.575
21
-108.85
0
ARC
8
BLACK
10
13.575
20
-107.85
40
0.999999
50
-90.0001
51
5.72958e-05
0
LINE
8
BLACK
6
CONTINUOUS
10
14.575
20
-96.85
11
14.575
21
-107.85
0
ARC
8
BLACK
10
13.575
20
-96.85
40
0.999999
50
-5.72958e-05
51
90.0001
0
LINE
8
BLACK
6
CONTINUOUS
10
2.575
20
-95.85
11
13.575
21
-95.85
0
ARC
8
BLACK
10
64.5
20
-97.85
40
0.999999
50
-270
51
-180
0
LINE
8
BLACK
6
CONTINUOUS
10
63.5
20
-97.85
11
63.5
21
-102.85
0
ARC
8
BLACK
10
64.5
20
-102.85
40
0.999999
50
-180
51
-89.9999
0
LINE
8
BLACK
6
CONTINUOUS
10
64.5
20
-103.85
11
99.35
21
-103.85
0
ARC
8
BLACK
10
99.35
20
-102.85
40
0.999999
50
-90.0001
51
5.72958e-05
0
LINE
8
BLACK
6
CONTINUOUS
10
100.35
20
-97.85
11
100.35
21
-102.85
0
ARC
8
BLACK
10
99.35
20
-97.85
40
0.999999
50
-5.72958e-05
51
90.0001
0
LINE
8
BLACK
6
CONTINUOUS
10
64.5
20
-96.85
11
99.35
21
-96.85
0
ARC
8
BLACK
10
210.925
20
-96.85
40
1
50
90
51
180
0
LINE
8
BLACK
6
CONTINUOUS
10
209.925
20
-96.85
11
209.925
21
-107.85
0
ARC
8
BLACK
10
210.925
20
-107.85
40
1
50
-180
51
-90
0
LINE
8
BLACK
6
CONTINUOUS
10
210.925
20
-108.85
11
221.925
21
-108.85
0
ARC
8
BLACK
10
221.925
20
-107.85
40
1
50
-90
51
-0
0
LINE
8
BLACK
6
CONTINUOUS
10
222.925
20
-96.85
11
222.925
21
-107.85
0
ARC
8
BLACK
10
221.925
20
-96.85
40
1
50
-0
51
90
0
LINE
8
BLACK
6
CONTINUOUS
10
210.925
20
-95.85
11
221.925
21
-95.85
0
ARC
8
BLACK
10
236.95
20
-91.95
40
0.5
50
-180
51
-90
0
LINE
8
BLACK
6
CONTINUOUS
10
236.95
20
-92.45
11
242.95
21
-92.45
0
ARC
8
BLACK
10
242.95
20
-91.95
40
0.5
50
-90
51
-0
0
LINE
8
BLACK
6
CONTINUOUS
10
243.45
20
-90.7
11
243.45
21
-91.95
0
ARC
8
BLACK
10
243.7
20
-90.7
40
0.25
50
90
51
180
0
LINE
8
BLACK
6
CONTINUOUS
10
243.7
20
-90.45
11
251.05
21
-90.45
0
ARC
8
BLACK
10
251.05
20
-89.95
40
0.5
50
-90
51
-0
0
LINE
8
BLACK
6
CONTINUOUS
10
251.55
20
-76.95
11
251.55
21
-89.95
0
ARC
8
BLACK
10
251.05
20
-76.95
40
0.5
50
-0
51
90
0
LINE
8
BLACK
6
CONTINUOUS
10
204.975
20
-76.45
11
251.05
21
-76.45
0
ARC
8
BLACK
10
204.975
20
-76.95
40
0.5
50
90
51
180
0
LINE
8
BLACK
6
CONTINUOUS
10
204.475
20
-76.95
11
204.475
21
-89.95
0
ARC
8
BLACK
10
204.975
20
-89.95
40
0.5
50
-180
51
-90
0
LINE
8
BLACK
6
CONTINUOUS
10
204.975
20
-90.45
11
212.325
21
-90.45
0
ARC
8
BLACK
10
212.325
20
-90.7
40
0.25
50
-0
51
90
0
LINE
8
BLACK
6
CONTINUOUS
10
212.575
20
-90.7
11
212.575
21
-91.95
0
ARC
8
BLACK
10
213.075
20
-91.95
40
0.5
50
-180
51
-90
0
LINE
8
BLACK
6
CONTINUOUS
10
213.075
20
-92.45
11
219.075
21
-92.45
0
ARC
8
BLACK
10
219.075
20
-91.95
40
0.5
50
-90
51
-0
0
LINE
8
BLACK
6
CONTINUOUS
10
219.575
20
-90.7
11
219.575
21
-91.95
0
ARC
8
BLACK
10
219.825
20
-90.7
40
0.25
50
90
51
180
0
LINE
8
BLACK
6
CONTINUOUS
10
219.825
20
-90.45
11
236.2
21
-90.45
0
ARC
8
BLACK
10
236.2
20
-90.7
40
0.25
50
-0
51
90
0
LINE
8
BLACK
6
CONTINUOUS
10
236.45
20
-90.7
11
236.45
21
-91.95
  0
ENDSEC
  0
EOF
