  0
SECTION
  2
HEADER
  9
$ANGBASE
  50
0.0
  9
$ANGDIR
  70
1
  9
$MEASUREMENT
  70
1
  0
ENDSEC
  0
SECTION
  2
TABLES
  0
TABLE
  2
LTYPE
  70
4
  0
LTYPE
  5
40F
  2
CONTINUOUS
  70
0
  3
Solid line
  72
65
  73
0
  40
0.0
  0
LTYPE
  5
410
  2
DASHDOT
 70
0
  3
Dash Dot ____ _ ____ _
 72
65
 73
4
 40
2.0
 49
1.25
 49
-0.25
 49
0.25
 49
-0.25
  0
LTYPE
  5
411
  2
DASHED
 70
0
  3
Dashed __ __ __ __ __
 72
65
 73
2
 40
0.75
 49
0.5
 49
-0.25
  0
LTYPE
  5
43B
  2
DOTTED
 70
0
  3
Dotted .  .  .  .
 72
65
 73
2
 40
0.2
 49
0.0
 49
-0.2
  0
ENDTAB
  0
TABLE
  2
STYLE
  70
4
  0
STYLE
  2
KICAD
  70
0
  40
0
  41
1
  42
1
  50
0
  71
0
  3
isocp.shx
  0
STYLE
  2
KICADB
  70
0
  40
0
  41
1
  42
1
  50
0
  71
0
  3
isocp.shx
  0
STYLE
  2
KICADI
  70
0
  40
0
  41
1
  42
1
  50
15
  71
0
  3
isocp.shx
  0
STYLE
  2
KICADBI
  70
0
  40
0
  41
1
  42
1
  50
15
  71
0
  3
isocp.shx
  0
ENDTAB
  0
TABLE
  2
LAYER
  70
1
  0
LAYER
  2
BLACK
  70
0
  62
7
  6
CONTINUOUS
  0
ENDTAB
  0
ENDSEC
  0
SECTION
  2
ENTITIES
0
ARC
8
BLACK
10
120.175
20
-148.95
40
0.500001
50
-89.9999
51
-0.000114591
0
LINE
8
BLACK
6
CONTINUOUS
10
155.76
20
-146.926
11
154.09
21
-146.926
0
LINE
8
BLACK
6
CONTINUOUS
10
154.09
20
-152.136
11
155.76
21
-152.136
0
LINE
8
BLACK
6
CONTINUOUS
10
70.09
20
-152.136
11
71.76
21
-152.136
0
ARC
8
BLACK
10
71.76
20
-151.636
40
0.500001
50
-89.9999
51
-0.000114591
0
ARC
8
BLACK
10
154.09
20
-147.426
40
0.5
50
90
51
179.997
0
ARC
8
BLACK
10
154.09
20
-151.636
40
0.499976
50
-180.003
51
-90
0
ARC
8
BLACK
10
70.09
20
-151.636
40
0.500001
50
-180
51
-90.0001
0
ARC
8
BLACK
10
71.76
20
-147.426
40
0.500001
50
0.000114591
51
89.9999
0
LINE
8
BLACK
6
CONTINUOUS
10
69.59
20
-147.426
11
69.59
21
-151.636
0
ARC
8
BLACK
10
155.76
20
-147.426
40
0.500024
50
0.0027502
51
90
0
ARC
8
BLACK
10
155.76
20
-151.636
40
0.5
50
-90
51
0.0027502
0
LINE
8
BLACK
6
CONTINUOUS
10
72.26
20
-151.636
11
72.26
21
-147.426
0
LINE
8
BLACK
6
CONTINUOUS
10
71.76
20
-146.926
11
70.09
21
-146.926
0
ARC
8
BLACK
10
70.09
20
-147.426
40
0.500001
50
90.0001
51
180
0
LINE
8
BLACK
6
CONTINUOUS
10
156.26
20
-151.636
11
156.26
21
-147.426
0
LINE
8
BLACK
6
CONTINUOUS
10
153.59
20
-147.426
11
153.59
21
-151.636
0
LINE
8
BLACK
6
CONTINUOUS
10
70.55
20
-142.15
11
70.55
21
-143.95
0
LINE
8
BLACK
6
CONTINUOUS
10
143.35
20
-142.15
11
143.35
21
-143.95
0
LINE
8
BLACK
6
CONTINUOUS
10
141.15
20
-142.15
11
141.15
21
-143.95
0
CIRCLE
8
BLACK
10
148.225
20
-143.05
40
3.125
0
LINE
8
BLACK
6
CONTINUOUS
10
82.7
20
-141.95
11
84.5
21
-141.95
0
LINE
8
BLACK
6
CONTINUOUS
10
153.3
20
-141.95
11
155.1
21
-141.95
0
LINE
8
BLACK
6
CONTINUOUS
10
153.1
20
-142.15
11
153.1
21
-143.95
0
LINE
8
BLACK
6
CONTINUOUS
10
84.7
20
-142.15
11
84.7
21
-143.95
0
LINE
8
BLACK
6
CONTINUOUS
10
155.1
20
-144.15
11
153.3
21
-144.15
0
LINE
8
BLACK
6
CONTINUOUS
10
70.75
20
-144.15
11
72.55
21
-144.15
0
LINE
8
BLACK
6
CONTINUOUS
10
82.5
20
-143.95
11
82.5
21
-142.15
0
LINE
8
BLACK
6
CONTINUOUS
10
143.15
20
-141.95
11
141.35
21
-141.95
0
LINE
8
BLACK
6
CONTINUOUS
10
155.3
20
-142.15
11
155.3
21
-143.95
0
CIRCLE
8
BLACK
10
77.625
20
-143.05
40
3.125
0
LINE
8
BLACK
6
CONTINUOUS
10
72.55
20
-141.95
11
70.75
21
-141.95
0
LINE
8
BLACK
6
CONTINUOUS
10
84.5
20
-144.15
11
82.7
21
-144.15
0
LINE
8
BLACK
6
CONTINUOUS
10
141.35
20
-144.15
11
143.15
21
-144.15
0
LINE
8
BLACK
6
CONTINUOUS
10
72.75
20
-142.15
11
72.75
21
-143.95
0
ARC
8
BLACK
10
84.5
20
-142.15
40
0.199989
50
-0.00315144
51
90.0032
0
ARC
8
BLACK
10
153.3
20
-143.95
40
0.199992
50
-180.002
51
-90
0
ARC
8
BLACK
10
153.3
20
-142.15
40
0.2
50
90
51
179.998
0
ARC
8
BLACK
10
143.15
20
-142.15
40
0.200008
50
0.00229183
51
90
0
ARC
8
BLACK
10
70.75
20
-143.95
40
0.200011
50
-179.997
51
-90.0032
0
ARC
8
BLACK
10
82.7
20
-142.15
40
0.200025
50
90.0072
51
179.993
0
ARC
8
BLACK
10
143.15
20
-143.95
40
0.2
50
-90
51
0.00229183
0
ARC
8
BLACK
10
141.35
20
-142.15
40
0.2
50
90
51
179.998
0
ARC
8
BLACK
10
155.1
20
-143.95
40
0.2
50
-90
51
0.00229183
0
ARC
8
BLACK
10
155.1
20
-142.15
40
0.200008
50
0.00229183
51
90
0
ARC
8
BLACK
10
84.5
20
-143.95
40
0.199974
50
-90.0074
51
0.00744942
0
ARC
8
BLACK
10
70.75
20
-142.15
40
0.200025
50
90.0072
51
179.993
0
ARC
8
BLACK
10
72.55
20
-142.15
40
0.199989
50
-0.00315144
51
90.0032
0
ARC
8
BLACK
10
82.7
20
-143.95
40
0.200011
50
-179.997
51
-90.0032
0
ARC
8
BLACK
10
72.55
20
-143.95
40
0.199974
50
-90.0074
51
0.00744942
0
ARC
8
BLACK
10
141.35
20
-143.95
40
0.199992
50
-180.002
51
-90
0
ARC
8
BLACK
10
211.987
20
-118.25
40
0.5
50
90
51
180
0
ARC
8
BLACK
10
226.487
20
-130.05
40
0.5
50
-90
51
-0
0
LINE
8
BLACK
6
CONTINUOUS
10
211.487
20
-118.25
11
211.487
21
-130.05
0
LINE
8
BLACK
6
CONTINUOUS
10
226.987
20
-130.05
11
226.987
21
-118.25
0
ARC
8
BLACK
10
226.487
20
-118.25
40
0.5
50
-0
51
90
0
LINE
8
BLACK
6
CONTINUOUS
10
211.987
20
-130.55
11
226.487
21
-130.55
0
ARC
8
BLACK
10
211.987
20
-130.05
40
0.5
50
-180
51
-90
0
LINE
8
BLACK
6
CONTINUOUS
10
226.487
20
-117.75
11
211.987
21
-117.75
0
ARC
8
BLACK
10
237.975
20
-118.25
40
0.500001
50
90.0001
51
180
0
ARC
8
BLACK
10
252.475
20
-118.25
40
0.500001
50
0.000114591
51
89.9999
0
ARC
8
BLACK
10
237.975
20
-130.05
40
0.500001
50
-180
51
-90.0001
0
LINE
8
BLACK
6
CONTINUOUS
10
252.975
20
-130.05
11
252.975
21
-118.25
0
ARC
8
BLACK
10
252.475
20
-130.05
40
0.500001
50
-89.9999
51
-0.000114591
0
LINE
8
BLACK
6
CONTINUOUS
10
252.475
20
-117.75
11
237.975
21
-117.75
0
LINE
8
BLACK
6
CONTINUOUS
10
237.475
20
-118.25
11
237.475
21
-130.05
0
LINE
8
BLACK
6
CONTINUOUS
10
237.975
20
-130.55
11
252.475
21
-130.55
0
LINE
8
BLACK
6
CONTINUOUS
10
237.975
20
-130.55
11
252.475
21
-130.55
0
ARC
8
BLACK
10
237.975
20
-130.05
40
0.500001
50
-180
51
-90.0001
0
ARC
8
BLACK
10
252.475
20
-130.05
40
0.500001
50
-89.9999
51
-0.000114591
0
LINE
8
BLACK
6
CONTINUOUS
10
252.975
20
-130.05
11
252.975
21
-118.25
0
ARC
8
BLACK
10
237.975
20
-118.25
40
0.500001
50
90.0001
51
180
0
LINE
8
BLACK
6
CONTINUOUS
10
237.475
20
-118.25
11
237.475
21
-130.05
0
ARC
8
BLACK
10
252.475
20
-118.25
40
0.500001
50
0.000114591
51
89.9999
0
LINE
8
BLACK
6
CONTINUOUS
10
252.475
20
-117.75
11
237.975
21
-117.75
0
LINE
8
BLACK
6
CONTINUOUS
10
248.44
20
-71.825
11
248.44
21
-76.035
0
ARC
8
BLACK
10
248.94
20
-71.825
40
0.5
50
90
51
180
0
LINE
8
BLACK
6
CONTINUOUS
10
250.61
20
-71.325
11
248.94
21
-71.325
0
ARC
8
BLACK
10
250.61
20
-71.825
40
0.5
50
-0
51
90
0
ARC
8
BLACK
10
250.61
20
-76.035
40
0.5
50
-90
51
-0
0
LINE
8
BLACK
6
CONTINUOUS
10
251.11
20
-76.035
11
251.11
21
-71.825
0
LINE
8
BLACK
6
CONTINUOUS
10
220.44
20
-71.825
11
220.44
21
-76.035
0
ARC
8
BLACK
10
220.94
20
-71.825
40
0.5
50
90
51
180
0
LINE
8
BLACK
6
CONTINUOUS
10
222.61
20
-71.325
11
220.94
21
-71.325
0
LINE
8
BLACK
6
CONTINUOUS
10
248.94
20
-76.535
11
250.61
21
-76.535
0
ARC
8
BLACK
10
222.61
20
-71.825
40
0.5
50
-0
51
90
0
LINE
8
BLACK
6
CONTINUOUS
10
223.11
20
-76.035
11
223.11
21
-71.825
0
ARC
8
BLACK
10
222.61
20
-76.035
40
0.5
50
-90
51
-0
0
LINE
8
BLACK
6
CONTINUOUS
10
220.94
20
-76.535
11
222.61
21
-76.535
0
ARC
8
BLACK
10
220.94
20
-76.035
40
0.5
50
-180
51
-90
0
ARC
8
BLACK
10
248.94
20
-76.035
40
0.5
50
-180
51
-90
0
LINE
8
BLACK
6
CONTINUOUS
10
243.525
20
-73.35
11
243.525
21
-61.55
0
LINE
8
BLACK
6
CONTINUOUS
10
243.025
20
-61.05
11
228.525
21
-61.05
0
ARC
8
BLACK
10
243.025
20
-61.55
40
0.5
50
-0
51
90
0
ARC
8
BLACK
10
228.525
20
-61.55
40
0.5
50
90
51
180
0
ARC
8
BLACK
10
243.025
20
-73.35
40
0.5
50
-90
51
-0
0
LINE
8
BLACK
6
CONTINUOUS
10
228.525
20
-73.85
11
243.025
21
-73.85
0
LINE
8
BLACK
6
CONTINUOUS
10
228.025
20
-61.55
11
228.025
21
-73.35
0
ARC
8
BLACK
10
228.525
20
-73.35
40
0.5
50
-180
51
-90
0
LINE
8
BLACK
6
CONTINUOUS
10
280
20
-61.55
11
280
21
-73.35
0
LINE
8
BLACK
6
CONTINUOUS
10
276.6
20
-73.35
11
276.6
21
-61.55
0
LINE
8
BLACK
6
CONTINUOUS
10
280.5
20
-73.85
11
295
21
-73.85
0
ARC
8
BLACK
10
276.1
20
-61.55
40
0.5
50
-0
51
90
0
LINE
8
BLACK
6
CONTINUOUS
10
261.6
20
-73.85
11
276.1
21
-73.85
0
ARC
8
BLACK
10
280.5
20
-73.35
40
0.5
50
-180
51
-90
0
ARC
8
BLACK
10
280.5
20
-61.55
40
0.5
50
90
51
180
0
ARC
8
BLACK
10
276.1
20
-73.35
40
0.5
50
-90
51
-0
0
ARC
8
BLACK
10
276.1
20
-92.25
40
0.5
50
-90
51
-0
0
LINE
8
BLACK
6
CONTINUOUS
10
295
20
-79.95
11
280.5
21
-79.95
0
ARC
8
BLACK
10
280.5
20
-92.25
40
0.5
50
-180
51
-90
0
ARC
8
BLACK
10
276.1
20
-80.45
40
0.5
50
-0
51
90
0
LINE
8
BLACK
6
CONTINUOUS
10
276.6
20
-92.25
11
276.6
21
-80.45
0
LINE
8
BLACK
6
CONTINUOUS
10
276.1
20
-79.95
11
261.6
21
-79.95
0
LINE
8
BLACK
6
CONTINUOUS
10
261.6
20
-92.75
11
276.1
21
-92.75
0
ARC
8
BLACK
10
280.5
20
-80.45
40
0.5
50
90
51
180
0
LINE
8
BLACK
6
CONTINUOUS
10
280
20
-80.45
11
280
21
-92.25
0
LINE
8
BLACK
6
CONTINUOUS
10
280.5
20
-92.75
11
295
21
-92.75
0
LINE
8
BLACK
6
CONTINUOUS
10
262.35
20
-97.15
11
313.15
21
-97.15
0
CIRCLE
8
BLACK
10
278.3
20
-155.65
40
1.35
0
CIRCLE
8
BLACK
10
-7.5625
20
-31.225
40
1.35
0
CIRCLE
8
BLACK
10
83.3937
20
-31.225
40
1.35
0
CIRCLE
8
BLACK
10
174.35
20
-31.225
40
1.35
0
CIRCLE
8
BLACK
10
297.2
20
-31.225
40
1.35
0
CIRCLE
8
BLACK
10
19.25
20
-155.65
40
1.35
0
CIRCLE
8
BLACK
10
206.6
20
-155.65
40
1.35
0
ARC
8
BLACK
10
19.3
20
-155.2
40
2.9
50
-90
51
1.97572e-05
0
LINE
8
BLACK
6
CONTINUOUS
10
19.3
20
-158.1
11
19.2
21
-158.1
0
ARC
8
BLACK
10
19.2
20
-155.2
40
2.9
50
-180
51
-90
0
LINE
8
BLACK
6
CONTINUOUS
10
16.3
20
-155.2
11
16.3
21
-153.1
0
LINE
8
BLACK
6
CONTINUOUS
10
16.3
20
-153.1
11
-10.4324
21
-153.1
0
ARC
8
BLACK
10
-10.4324
20
-150.2
40
2.90002
50
-112.798
51
-90.0001
0
ARC
8
BLACK
10
-12.9124
20
-156.1
40
3.5
50
67.2018
51
90
0
LINE
8
BLACK
6
CONTINUOUS
10
-16.3876
20
-152.6
11
-12.9124
21
-152.6
0
ARC
8
BLACK
10
-16.3876
20
-156.1
40
3.5
50
90
51
112.798
0
ARC
8
BLACK
10
-18.8676
20
-150.2
40
2.90002
50
-89.9999
51
-67.2019
0
LINE
8
BLACK
6
CONTINUOUS
10
-18.8676
20
-153.1
11
-27.825
21
-153.1
0
ARC
8
BLACK
10
-27.825
20
-151.5
40
1.6
50
-180
51
-90
0
LINE
8
BLACK
6
CONTINUOUS
10
-29.425
20
-151.5
11
-29.425
21
-35.375
0
ARC
8
BLACK
10
-27.825
20
-35.375
40
1.6
50
-270
51
-180
0
LINE
8
BLACK
6
CONTINUOUS
10
-27.825
20
-33.775
11
-23.5926
21
-33.775
0
ARC
8
BLACK
10
-23.5926
20
-36.675
40
2.90002
50
67.2019
51
89.9999
0
ARC
8
BLACK
10
-21.1126
20
-30.775
40
3.5
50
-112.798
51
-90
0
LINE
8
BLACK
6
CONTINUOUS
10
-17.6374
20
-34.275
11
-21.1126
21
-34.275
0
ARC
8
BLACK
10
-17.6374
20
-30.775
40
3.5
50
-90
51
-67.2018
0
ARC
8
BLACK
10
-15.1574
20
-36.675
40
2.90002
50
90.0001
51
112.798
0
LINE
8
BLACK
6
CONTINUOUS
10
-15.1574
20
-33.775
11
-10.5125
21
-33.775
0
LINE
8
BLACK
6
CONTINUOUS
10
-10.5125
20
-33.775
11
-10.5125
21
-31.675
0
ARC
8
BLACK
10
-7.6125
20
-31.675
40
2.9
50
-270
51
-180
0
LINE
8
BLACK
6
CONTINUOUS
10
-7.6125
20
-28.775
11
-7.5125
21
-28.775
0
ARC
8
BLACK
10
-7.5125
20
-31.675
40
2.9
50
-1.97572e-05
51
90
0
LINE
8
BLACK
6
CONTINUOUS
10
-4.6125
20
-31.675
11
-4.6125
21
-33.775
0
LINE
8
BLACK
6
CONTINUOUS
10
-4.6125
20
-33.775
11
80.4437
21
-33.775
0
LINE
8
BLACK
6
CONTINUOUS
10
80.4437
20
-33.775
11
80.4437
21
-31.675
0
ARC
8
BLACK
10
83.3437
20
-31.675
40
2.9
50
-270
51
-180
0
LINE
8
BLACK
6
CONTINUOUS
10
83.3438
20
-28.775
11
83.4437
21
-28.775
0
ARC
8
BLACK
10
83.4438
20
-31.675
40
2.9
50
-1.97572e-05
51
90
0
LINE
8
BLACK
6
CONTINUOUS
10
86.3438
20
-31.675
11
86.3438
21
-33.775
0
LINE
8
BLACK
6
CONTINUOUS
10
86.3438
20
-33.775
11
171.4
21
-33.775
0
LINE
8
BLACK
6
CONTINUOUS
10
171.4
20
-33.775
11
171.4
21
-31.675
0
ARC
8
BLACK
10
174.3
20
-31.675
40
2.9
50
90
51
180
0
LINE
8
BLACK
6
CONTINUOUS
10
174.3
20
-28.775
11
174.4
21
-28.775
0
ARC
8
BLACK
10
174.4
20
-31.675
40
2.9
50
-0
51
90
0
LINE
8
BLACK
6
CONTINUOUS
10
177.3
20
-31.675
11
177.3
21
-33.775
0
LINE
8
BLACK
6
CONTINUOUS
10
177.3
20
-33.775
11
294.25
21
-33.775
0
LINE
8
BLACK
6
CONTINUOUS
10
294.25
20
-33.775
11
294.25
21
-31.675
0
ARC
8
BLACK
10
297.15
20
-31.675
40
2.9
50
90
51
180
0
LINE
8
BLACK
6
CONTINUOUS
10
297.15
20
-28.775
11
297.25
21
-28.775
0
ARC
8
BLACK
10
297.25
20
-31.675
40
2.9
50
-0
51
90
0
LINE
8
BLACK
6
CONTINUOUS
10
300.15
20
-31.675
11
300.15
21
-33.775
0
LINE
8
BLACK
6
CONTINUOUS
10
300.15
20
-33.775
11
302.432
21
-33.775
0
ARC
8
BLACK
10
302.432
20
-36.675
40
2.9
50
67.201
51
89.9991
0
ARC
8
BLACK
10
304.912
20
-30.775
40
3.5
50
-112.799
51
-90.0006
0
LINE
8
BLACK
6
CONTINUOUS
10
308.388
20
-34.275
11
304.912
21
-34.275
0
ARC
8
BLACK
10
308.388
20
-30.775
40
3.50001
50
-89.9994
51
-67.2012
0
ARC
8
BLACK
10
310.868
20
-36.675
40
2.90002
50
90.0009
51
112.799
0
LINE
8
BLACK
6
CONTINUOUS
10
310.868
20
-33.775
11
315.1
21
-33.775
0
ARC
8
BLACK
10
315.1
20
-35.375
40
1.6
50
-0
51
90
0
LINE
8
BLACK
6
CONTINUOUS
10
316.7
20
-35.375
11
316.7
21
-151.5
0
ARC
8
BLACK
10
315.1
20
-151.5
40
1.6
50
-90
51
-0
0
LINE
8
BLACK
6
CONTINUOUS
10
315.1
20
-153.1
11
310.868
21
-153.1
0
ARC
8
BLACK
10
310.868
20
-150.2
40
2.9
50
-112.799
51
-90.0009
0
ARC
8
BLACK
10
308.388
20
-156.1
40
3.5
50
67.2012
51
89.9994
0
LINE
8
BLACK
6
CONTINUOUS
10
304.912
20
-152.6
11
308.388
21
-152.6
0
ARC
8
BLACK
10
304.912
20
-156.1
40
3.50001
50
90.0006
51
112.799
0
ARC
8
BLACK
10
302.432
20
-150.2
40
2.90002
50
-89.9991
51
-67.201
0
LINE
8
BLACK
6
CONTINUOUS
10
302.432
20
-153.1
11
281.25
21
-153.1
0
LINE
8
BLACK
6
CONTINUOUS
10
281.25
20
-153.1
11
281.25
21
-155.2
0
ARC
8
BLACK
10
278.35
20
-155.2
40
2.9
50
-90
51
-0
0
LINE
8
BLACK
6
CONTINUOUS
10
278.35
20
-158.1
11
278.25
21
-158.1
0
ARC
8
BLACK
10
278.25
20
-155.2
40
2.9
50
-180
51
-90
0
LINE
8
BLACK
6
CONTINUOUS
10
275.35
20
-155.2
11
275.35
21
-153.1
0
LINE
8
BLACK
6
CONTINUOUS
10
275.35
20
-153.1
11
209.55
21
-153.1
0
LINE
8
BLACK
6
CONTINUOUS
10
209.55
20
-153.1
11
209.55
21
-155.2
0
ARC
8
BLACK
10
206.65
20
-155.2
40
2.9
50
-90
51
-0
0
LINE
8
BLACK
6
CONTINUOUS
10
206.65
20
-158.1
11
206.55
21
-158.1
0
ARC
8
BLACK
10
206.55
20
-155.2
40
2.9
50
-180
51
-90
0
LINE
8
BLACK
6
CONTINUOUS
10
203.65
20
-155.2
11
203.65
21
-153.1
0
LINE
8
BLACK
6
CONTINUOUS
10
203.65
20
-153.1
11
22.2
21
-153.1
0
LINE
8
BLACK
6
CONTINUOUS
10
22.2
20
-153.1
11
22.2
21
-155.2
0
ARC
8
BLACK
10
262.35
20
-97.65
40
0.5
50
90
51
180
0
LINE
8
BLACK
6
CONTINUOUS
10
261.85
20
-97.65
11
261.85
21
-112.85
0
ARC
8
BLACK
10
262.35
20
-112.85
40
0.5
50
-180
51
-90
0
LINE
8
BLACK
6
CONTINUOUS
10
262.35
20
-113.35
11
313.15
21
-113.35
0
ARC
8
BLACK
10
313.15
20
-112.85
40
0.5
50
-90
51
-0
0
LINE
8
BLACK
6
CONTINUOUS
10
313.65
20
-97.65
11
313.65
21
-112.85
0
ARC
8
BLACK
10
313.15
20
-97.65
40
0.5
50
-0
51
90
0
ARC
8
BLACK
10
14.75
20
-147.825
40
0.999999
50
-90.0001
51
5.72958e-05
0
LINE
8
BLACK
6
CONTINUOUS
10
15.75
20
-147.825
11
15.75
21
-138.275
0
ARC
8
BLACK
10
14.75
20
-138.275
40
0.999999
50
-5.72958e-05
51
90.0001
0
LINE
8
BLACK
6
CONTINUOUS
10
14.75
20
-137.275
11
2.75
21
-137.275
0
ARC
8
BLACK
10
2.75
20
-138.275
40
0.999999
50
-270
51
-180
0
LINE
8
BLACK
6
CONTINUOUS
10
1.75
20
-138.275
11
1.75
21
-147.825
0
ARC
8
BLACK
10
2.75
20
-147.825
40
0.999999
50
-180
51
-89.9999
0
LINE
8
BLACK
6
CONTINUOUS
10
2.75
20
-148.825
11
14.75
21
-148.825
0
ARC
8
BLACK
10
91.5
20
-130.05
40
0.500001
50
-180
51
-90.0001
0
LINE
8
BLACK
6
CONTINUOUS
10
91.5
20
-130.55
11
106
21
-130.55
0
ARC
8
BLACK
10
106
20
-130.05
40
0.500001
50
-89.9999
51
-0.000114591
0
LINE
8
BLACK
6
CONTINUOUS
10
106.5
20
-130.05
11
106.5
21
-118.25
0
ARC
8
BLACK
10
106
20
-118.25
40
0.500001
50
0.000114591
51
89.9999
0
LINE
8
BLACK
6
CONTINUOUS
10
106
20
-117.75
11
91.5
21
-117.75
0
ARC
8
BLACK
10
91.5
20
-118.25
40
0.500001
50
90.0001
51
180
0
LINE
8
BLACK
6
CONTINUOUS
10
91
20
-118.25
11
91
21
-130.05
0
ARC
8
BLACK
10
110.4
20
-130.05
40
0.500001
50
-180
51
-90.0001
0
LINE
8
BLACK
6
CONTINUOUS
10
110.4
20
-130.55
11
124.9
21
-130.55
0
ARC
8
BLACK
10
124.9
20
-130.05
40
0.500001
50
-89.9999
51
-0.000114591
0
LINE
8
BLACK
6
CONTINUOUS
10
125.4
20
-130.05
11
125.4
21
-118.25
0
ARC
8
BLACK
10
124.9
20
-118.25
40
0.500001
50
0.000114591
51
89.9999
0
LINE
8
BLACK
6
CONTINUOUS
10
124.9
20
-117.75
11
110.4
21
-117.75
0
ARC
8
BLACK
10
110.4
20
-118.25
40
0.500001
50
90.0001
51
180
0
LINE
8
BLACK
6
CONTINUOUS
10
109.9
20
-118.25
11
109.9
21
-130.05
0
ARC
8
BLACK
10
129.3
20
-130.05
40
0.500001
50
-180
51
-90.0001
0
LINE
8
BLACK
6
CONTINUOUS
10
129.3
20
-130.55
11
143.8
21
-130.55
0
ARC
8
BLACK
10
143.8
20
-130.05
40
0.5
50
-90
51
-0
0
LINE
8
BLACK
6
CONTINUOUS
10
144.3
20
-130.05
11
144.3
21
-118.25
0
ARC
8
BLACK
10
143.8
20
-118.25
40
0.500001
50
0.000114591
51
89.9999
0
LINE
8
BLACK
6
CONTINUOUS
10
143.8
20
-117.75
11
129.3
21
-117.75
0
ARC
8
BLACK
10
129.3
20
-118.25
40
0.500001
50
90.0001
51
180
0
LINE
8
BLACK
6
CONTINUOUS
10
128.8
20
-118.25
11
128.8
21
-130.05
0
ARC
8
BLACK
10
148.2
20
-130.05
40
0.5
50
-180
51
-90
0
LINE
8
BLACK
6
CONTINUOUS
10
148.2
20
-130.55
11
162.7
21
-130.55
0
ARC
8
BLACK
10
162.7
20
-130.05
40
0.5
50
-90
51
-0
0
LINE
8
BLACK
6
CONTINUOUS
10
163.2
20
-130.05
11
163.2
21
-118.25
0
ARC
8
BLACK
10
162.7
20
-118.25
40
0.5
50
-0
51
90
0
LINE
8
BLACK
6
CONTINUOUS
10
162.7
20
-117.75
11
148.2
21
-117.75
0
ARC
8
BLACK
10
148.2
20
-118.25
40
0.5
50
90
51
180
0
LINE
8
BLACK
6
CONTINUOUS
10
147.7
20
-118.25
11
147.7
21
-130.05
0
ARC
8
BLACK
10
167.1
20
-130.05
40
0.5
50
-180
51
-90
0
LINE
8
BLACK
6
CONTINUOUS
10
167.1
20
-130.55
11
181.6
21
-130.55
0
ARC
8
BLACK
10
181.6
20
-130.05
40
0.5
50
-90
51
-0
0
LINE
8
BLACK
6
CONTINUOUS
10
182.1
20
-130.05
11
182.1
21
-118.25
0
ARC
8
BLACK
10
181.6
20
-118.25
40
0.5
50
-0
51
90
0
LINE
8
BLACK
6
CONTINUOUS
10
181.6
20
-117.75
11
167.1
21
-117.75
0
ARC
8
BLACK
10
167.1
20
-118.25
40
0.5
50
90
51
180
0
LINE
8
BLACK
6
CONTINUOUS
10
166.6
20
-118.25
11
166.6
21
-130.05
0
ARC
8
BLACK
10
186
20
-130.05
40
0.5
50
-180
51
-90
0
LINE
8
BLACK
6
CONTINUOUS
10
186
20
-130.55
11
200.5
21
-130.55
0
ARC
8
BLACK
10
200.5
20
-130.05
40
0.5
50
-90
51
-0
0
LINE
8
BLACK
6
CONTINUOUS
10
201
20
-130.05
11
201
21
-118.25
0
ARC
8
BLACK
10
200.5
20
-118.25
40
0.5
50
-0
51
90
0
LINE
8
BLACK
6
CONTINUOUS
10
200.5
20
-117.75
11
186
21
-117.75
0
ARC
8
BLACK
10
186
20
-118.25
40
0.5
50
90
51
180
0
LINE
8
BLACK
6
CONTINUOUS
10
185.5
20
-118.25
11
185.5
21
-130.05
0
ARC
8
BLACK
10
280.5
20
-148.95
40
0.5
50
-180
51
-90
0
LINE
8
BLACK
6
CONTINUOUS
10
280.5
20
-149.45
11
295
21
-149.45
0
ARC
8
BLACK
10
295
20
-148.95
40
0.5
50
-90
51
-0
0
LINE
8
BLACK
6
CONTINUOUS
10
295.5
20
-148.95
11
295.5
21
-137.15
0
ARC
8
BLACK
10
295
20
-137.15
40
0.5
50
-0
51
90
0
LINE
8
BLACK
6
CONTINUOUS
10
295
20
-136.65
11
280.5
21
-136.65
0
ARC
8
BLACK
10
280.5
20
-137.15
40
0.5
50
90
51
180
0
LINE
8
BLACK
6
CONTINUOUS
10
280
20
-137.15
11
280
21
-148.95
0
ARC
8
BLACK
10
261.6
20
-148.95
40
0.5
50
-180
51
-90
0
LINE
8
BLACK
6
CONTINUOUS
10
261.6
20
-149.45
11
276.1
21
-149.45
0
ARC
8
BLACK
10
276.1
20
-148.95
40
0.5
50
-90
51
-0
0
LINE
8
BLACK
6
CONTINUOUS
10
276.6
20
-148.95
11
276.6
21
-137.15
0
ARC
8
BLACK
10
276.1
20
-137.15
40
0.5
50
-0
51
90
0
LINE
8
BLACK
6
CONTINUOUS
10
276.1
20
-136.65
11
261.6
21
-136.65
0
ARC
8
BLACK
10
261.6
20
-137.15
40
0.5
50
90
51
180
0
LINE
8
BLACK
6
CONTINUOUS
10
261.1
20
-137.15
11
261.1
21
-148.95
0
ARC
8
BLACK
10
233.25
20
-148.95
40
0.5
50
-180
51
-90
0
LINE
8
BLACK
6
CONTINUOUS
10
233.25
20
-149.45
11
247.75
21
-149.45
0
ARC
8
BLACK
10
247.75
20
-148.95
40
0.5
50
-90
51
-0
0
LINE
8
BLACK
6
CONTINUOUS
10
248.25
20
-148.95
11
248.25
21
-137.15
0
ARC
8
BLACK
10
247.75
20
-137.15
40
0.5
50
-0
51
90
0
LINE
8
BLACK
6
CONTINUOUS
10
247.75
20
-136.65
11
233.25
21
-136.65
0
ARC
8
BLACK
10
233.25
20
-137.15
40
0.5
50
90
51
180
0
LINE
8
BLACK
6
CONTINUOUS
10
232.75
20
-137.15
11
232.75
21
-148.95
0
ARC
8
BLACK
10
-21.9
20
-148.95
40
0.500001
50
-180
51
-90.0001
0
LINE
8
BLACK
6
CONTINUOUS
10
-21.9
20
-149.45
11
-7.4
21
-149.45
0
ARC
8
BLACK
10
-7.4
20
-148.95
40
0.500001
50
-89.9999
51
-0.000114591
0
LINE
8
BLACK
6
CONTINUOUS
10
-6.9
20
-148.95
11
-6.9
21
-137.15
0
ARC
8
BLACK
10
-7.4
20
-137.15
40
0.500001
50
0.000114591
51
89.9999
0
LINE
8
BLACK
6
CONTINUOUS
10
-7.4
20
-136.65
11
-21.9
21
-136.65
0
ARC
8
BLACK
10
-21.9
20
-137.15
40
0.500001
50
90.0001
51
180
0
LINE
8
BLACK
6
CONTINUOUS
10
-22.4
20
-137.15
11
-22.4
21
-148.95
0
ARC
8
BLACK
10
280.5
20
-130.05
40
0.5
50
-180
51
-90
0
LINE
8
BLACK
6
CONTINUOUS
10
280.5
20
-130.55
11
295
21
-130.55
0
ARC
8
BLACK
10
295
20
-130.05
40
0.5
50
-90
51
-0
0
LINE
8
BLACK
6
CONTINUOUS
10
295.5
20
-130.05
11
295.5
21
-118.25
0
ARC
8
BLACK
10
295
20
-118.25
40
0.5
50
-0
51
90
0
LINE
8
BLACK
6
CONTINUOUS
10
295
20
-117.75
11
280.5
21
-117.75
0
ARC
8
BLACK
10
280.5
20
-118.25
40
0.5
50
90
51
180
0
LINE
8
BLACK
6
CONTINUOUS
10
280
20
-118.25
11
280
21
-130.05
0
ARC
8
BLACK
10
100.95
20
-111.15
40
0.500001
50
-180
51
-90.0001
0
LINE
8
BLACK
6
CONTINUOUS
10
100.95
20
-111.65
11
115.45
21
-111.65
0
ARC
8
BLACK
10
115.45
20
-111.15
40
0.500001
50
-89.9999
51
-0.000114591
0
LINE
8
BLACK
6
CONTINUOUS
10
115.95
20
-111.15
11
115.95
21
-99.35
0
ARC
8
BLACK
10
115.45
20
-99.35
40
0.500001
50
0.000114591
51
89.9999
0
LINE
8
BLACK
6
CONTINUOUS
10
115.45
20
-98.85
11
100.95
21
-98.85
0
ARC
8
BLACK
10
100.95
20
-99.35
40
0.500001
50
90.0001
51
180
0
LINE
8
BLACK
6
CONTINUOUS
10
100.45
20
-99.35
11
100.45
21
-111.15
0
ARC
8
BLACK
10
119.85
20
-111.15
40
0.500001
50
-180
51
-90.0001
0
LINE
8
BLACK
6
CONTINUOUS
10
119.85
20
-111.65
11
134.35
21
-111.65
0
ARC
8
BLACK
10
134.35
20
-111.15
40
0.500001
50
-89.9999
51
-0.000114591
0
LINE
8
BLACK
6
CONTINUOUS
10
134.85
20
-111.15
11
134.85
21
-99.35
0
ARC
8
BLACK
10
134.35
20
-99.35
40
0.500001
50
0.000114591
51
89.9999
0
LINE
8
BLACK
6
CONTINUOUS
10
134.35
20
-98.85
11
119.85
21
-98.85
0
ARC
8
BLACK
10
119.85
20
-99.35
40
0.500001
50
90.0001
51
180
0
LINE
8
BLACK
6
CONTINUOUS
10
119.35
20
-99.35
11
119.35
21
-111.15
0
ARC
8
BLACK
10
138.75
20
-111.15
40
0.500001
50
-180
51
-90.0001
0
LINE
8
BLACK
6
CONTINUOUS
10
138.75
20
-111.65
11
153.25
21
-111.65
0
ARC
8
BLACK
10
153.25
20
-111.15
40
0.5
50
-90
51
-0
0
LINE
8
BLACK
6
CONTINUOUS
10
153.75
20
-111.15
11
153.75
21
-99.35
0
ARC
8
BLACK
10
153.25
20
-99.35
40
0.5
50
-0
51
90
0
LINE
8
BLACK
6
CONTINUOUS
10
153.25
20
-98.85
11
138.75
21
-98.85
0
ARC
8
BLACK
10
138.75
20
-99.35
40
0.500001
50
90.0001
51
180
0
LINE
8
BLACK
6
CONTINUOUS
10
138.25
20
-99.35
11
138.25
21
-111.15
0
ARC
8
BLACK
10
157.65
20
-111.15
40
0.5
50
-180
51
-90
0
LINE
8
BLACK
6
CONTINUOUS
10
157.65
20
-111.65
11
172.15
21
-111.65
0
ARC
8
BLACK
10
172.15
20
-111.15
40
0.5
50
-90
51
-0
0
LINE
8
BLACK
6
CONTINUOUS
10
172.65
20
-111.15
11
172.65
21
-99.35
0
ARC
8
BLACK
10
172.15
20
-99.35
40
0.5
50
-0
51
90
0
LINE
8
BLACK
6
CONTINUOUS
10
172.15
20
-98.85
11
157.65
21
-98.85
0
ARC
8
BLACK
10
157.65
20
-99.35
40
0.5
50
90
51
180
0
LINE
8
BLACK
6
CONTINUOUS
10
157.15
20
-99.35
11
157.15
21
-111.15
0
ARC
8
BLACK
10
176.55
20
-111.15
40
0.5
50
-180
51
-90
0
LINE
8
BLACK
6
CONTINUOUS
10
176.55
20
-111.65
11
191.05
21
-111.65
0
ARC
8
BLACK
10
191.05
20
-111.15
40
0.5
50
-90
51
-0
0
LINE
8
BLACK
6
CONTINUOUS
10
191.55
20
-111.15
11
191.55
21
-99.35
0
ARC
8
BLACK
10
191.05
20
-99.35
40
0.5
50
-0
51
90
0
LINE
8
BLACK
6
CONTINUOUS
10
191.05
20
-98.85
11
176.55
21
-98.85
0
ARC
8
BLACK
10
176.55
20
-99.35
40
0.5
50
90
51
180
0
LINE
8
BLACK
6
CONTINUOUS
10
176.05
20
-99.35
11
176.05
21
-111.15
0
ARC
8
BLACK
10
195.45
20
-111.15
40
0.5
50
-180
51
-90
0
LINE
8
BLACK
6
CONTINUOUS
10
195.45
20
-111.65
11
209.95
21
-111.65
0
ARC
8
BLACK
10
209.95
20
-111.15
40
0.5
50
-90
51
-0
0
LINE
8
BLACK
6
CONTINUOUS
10
210.45
20
-111.15
11
210.45
21
-99.35
0
ARC
8
BLACK
10
209.95
20
-99.35
40
0.5
50
-0
51
90
0
LINE
8
BLACK
6
CONTINUOUS
10
209.95
20
-98.85
11
195.45
21
-98.85
0
ARC
8
BLACK
10
195.45
20
-99.35
40
0.5
50
90
51
180
0
LINE
8
BLACK
6
CONTINUOUS
10
194.95
20
-99.35
11
194.95
21
-111.15
0
ARC
8
BLACK
10
226.162
20
-111.15
40
0.5
50
-180
51
-90
0
LINE
8
BLACK
6
CONTINUOUS
10
226.162
20
-111.65
11
240.662
21
-111.65
0
ARC
8
BLACK
10
240.662
20
-111.15
40
0.5
50
-90
51
-0
0
LINE
8
BLACK
6
CONTINUOUS
10
241.162
20
-111.15
11
241.162
21
-99.35
0
ARC
8
BLACK
10
240.662
20
-99.35
40
0.5
50
-0
51
90
0
LINE
8
BLACK
6
CONTINUOUS
10
240.662
20
-98.85
11
226.162
21
-98.85
0
ARC
8
BLACK
10
226.162
20
-99.35
40
0.5
50
90
51
180
0
LINE
8
BLACK
6
CONTINUOUS
10
225.662
20
-99.35
11
225.662
21
-111.15
0
ARC
8
BLACK
10
248.248
20
-109.625
40
0.5
50
-0
51
90
0
LINE
8
BLACK
6
CONTINUOUS
10
248.248
20
-109.125
11
246.577
21
-109.125
0
ARC
8
BLACK
10
246.577
20
-109.625
40
0.5
50
90
51
180
0
LINE
8
BLACK
6
CONTINUOUS
10
246.077
20
-109.625
11
246.077
21
-113.835
0
ARC
8
BLACK
10
246.577
20
-113.835
40
0.5
50
-180
51
-90
0
LINE
8
BLACK
6
CONTINUOUS
10
246.577
20
-114.335
11
248.248
21
-114.335
0
ARC
8
BLACK
10
248.248
20
-113.835
40
0.5
50
-90
51
-0
0
LINE
8
BLACK
6
CONTINUOUS
10
248.748
20
-113.835
11
248.748
21
-109.625
0
ARC
8
BLACK
10
72.6
20
-130.05
40
0.500001
50
-180
51
-90.0001
0
LINE
8
BLACK
6
CONTINUOUS
10
72.6
20
-130.55
11
87.1
21
-130.55
0
ARC
8
BLACK
10
87.1
20
-130.05
40
0.500001
50
-89.9999
51
-0.000114591
0
LINE
8
BLACK
6
CONTINUOUS
10
87.6
20
-130.05
11
87.6
21
-118.25
0
ARC
8
BLACK
10
87.1
20
-118.25
40
0.500001
50
0.000114591
51
89.9999
0
LINE
8
BLACK
6
CONTINUOUS
10
87.1
20
-117.75
11
72.6
21
-117.75
0
ARC
8
BLACK
10
72.6
20
-118.25
40
0.500001
50
90.0001
51
180
0
LINE
8
BLACK
6
CONTINUOUS
10
72.1
20
-118.25
11
72.1
21
-130.05
0
ARC
8
BLACK
10
53.7
20
-130.05
40
0.500001
50
-180
51
-90.0001
0
LINE
8
BLACK
6
CONTINUOUS
10
53.7
20
-130.55
11
68.2
21
-130.55
0
ARC
8
BLACK
10
68.2
20
-130.05
40
0.500001
50
-89.9999
51
-0.000114591
0
LINE
8
BLACK
6
CONTINUOUS
10
68.7
20
-130.05
11
68.7
21
-118.25
0
ARC
8
BLACK
10
68.2
20
-118.25
40
0.500001
50
0.000114591
51
89.9999
0
LINE
8
BLACK
6
CONTINUOUS
10
68.2
20
-117.75
11
53.7
21
-117.75
0
ARC
8
BLACK
10
53.7
20
-118.25
40
0.500001
50
90.0001
51
180
0
LINE
8
BLACK
6
CONTINUOUS
10
53.2
20
-118.25
11
53.2
21
-130.05
0
ARC
8
BLACK
10
34.8
20
-130.05
40
0.500001
50
-180
51
-90.0001
0
LINE
8
BLACK
6
CONTINUOUS
10
34.8
20
-130.55
11
49.3
21
-130.55
0
ARC
8
BLACK
10
49.3
20
-130.05
40
0.500001
50
-89.9999
51
-0.000114591
0
LINE
8
BLACK
6
CONTINUOUS
10
49.8
20
-130.05
11
49.8
21
-118.25
0
ARC
8
BLACK
10
49.3
20
-118.25
40
0.500001
50
0.000114591
51
89.9999
0
LINE
8
BLACK
6
CONTINUOUS
10
49.3
20
-117.75
11
34.8
21
-117.75
0
ARC
8
BLACK
10
34.8
20
-118.25
40
0.500001
50
90.0001
51
180
0
LINE
8
BLACK
6
CONTINUOUS
10
34.3
20
-118.25
11
34.3
21
-130.05
0
ARC
8
BLACK
10
15.9
20
-130.05
40
0.500001
50
-180
51
-90.0001
0
LINE
8
BLACK
6
CONTINUOUS
10
15.9
20
-130.55
11
30.4
21
-130.55
0
ARC
8
BLACK
10
30.4
20
-130.05
40
0.500001
50
-89.9999
51
-0.000114591
0
LINE
8
BLACK
6
CONTINUOUS
10
30.9
20
-130.05
11
30.9
21
-118.25
0
ARC
8
BLACK
10
30.4
20
-118.25
40
0.500001
50
0.000114591
51
89.9999
0
LINE
8
BLACK
6
CONTINUOUS
10
30.4
20
-117.75
11
15.9
21
-117.75
0
ARC
8
BLACK
10
15.9
20
-118.25
40
0.500001
50
90.0001
51
180
0
LINE
8
BLACK
6
CONTINUOUS
10
15.4
20
-118.25
11
15.4
21
-130.05
0
ARC
8
BLACK
10
220.248
20
-109.625
40
0.5
50
-0
51
90
0
LINE
8
BLACK
6
CONTINUOUS
10
220.248
20
-109.125
11
218.577
21
-109.125
0
ARC
8
BLACK
10
218.577
20
-109.625
40
0.5
50
90
51
180
0
LINE
8
BLACK
6
CONTINUOUS
10
218.077
20
-109.625
11
218.077
21
-113.835
0
ARC
8
BLACK
10
218.577
20
-113.835
40
0.5
50
-180
51
-90
0
LINE
8
BLACK
6
CONTINUOUS
10
218.577
20
-114.335
11
220.248
21
-114.335
0
ARC
8
BLACK
10
220.248
20
-113.835
40
0.5
50
-90
51
-0
0
LINE
8
BLACK
6
CONTINUOUS
10
220.748
20
-113.835
11
220.748
21
-109.625
0
ARC
8
BLACK
10
-14.8125
20
-130.05
40
0.500001
50
-180
51
-90.0001
0
LINE
8
BLACK
6
CONTINUOUS
10
-14.8125
20
-130.55
11
-0.3125
21
-130.55
0
ARC
8
BLACK
10
-0.312501
20
-130.05
40
0.500001
50
-89.9999
51
-0.000114591
0
LINE
8
BLACK
6
CONTINUOUS
10
0.1875
20
-130.05
11
0.1875
21
-118.25
0
ARC
8
BLACK
10
-0.312501
20
-118.25
40
0.500001
50
0.000114591
51
89.9999
0
LINE
8
BLACK
6
CONTINUOUS
10
-0.3125
20
-117.75
11
-14.8125
21
-117.75
0
ARC
8
BLACK
10
-14.8125
20
-118.25
40
0.500001
50
90.0001
51
180
0
LINE
8
BLACK
6
CONTINUOUS
10
-15.3125
20
-118.25
11
-15.3125
21
-130.05
0
ARC
8
BLACK
10
-22.3975
20
-132.735
40
0.500001
50
-180
51
-90.0001
0
LINE
8
BLACK
6
CONTINUOUS
10
-22.3975
20
-133.235
11
-20.7275
21
-133.235
0
ARC
8
BLACK
10
-20.7275
20
-132.735
40
0.500001
50
-89.9999
51
-0.000114591
0
LINE
8
BLACK
6
CONTINUOUS
10
-20.2275
20
-132.735
11
-20.2275
21
-128.525
0
ARC
8
BLACK
10
-20.7275
20
-128.525
40
0.500001
50
0.000114591
51
89.9999
0
LINE
8
BLACK
6
CONTINUOUS
10
-20.7275
20
-128.025
11
-22.3975
21
-128.025
0
ARC
8
BLACK
10
-22.3975
20
-128.525
40
0.500001
50
90.0001
51
180
0
LINE
8
BLACK
6
CONTINUOUS
10
-22.8975
20
-128.525
11
-22.8975
21
-132.735
0
ARC
8
BLACK
10
5.6025
20
-132.735
40
0.500001
50
-180
51
-90.0001
0
LINE
8
BLACK
6
CONTINUOUS
10
5.6025
20
-133.235
11
7.2725
21
-133.235
0
ARC
8
BLACK
10
7.2725
20
-132.735
40
0.500001
50
-89.9999
51
-0.000114591
0
LINE
8
BLACK
6
CONTINUOUS
10
7.7725
20
-132.735
11
7.7725
21
-128.525
0
ARC
8
BLACK
10
7.2725
20
-128.525
40
0.500001
50
0.000114591
51
89.9999
0
LINE
8
BLACK
6
CONTINUOUS
10
7.2725
20
-128.025
11
5.6025
21
-128.025
0
ARC
8
BLACK
10
5.6025
20
-128.525
40
0.500001
50
90.0001
51
180
0
LINE
8
BLACK
6
CONTINUOUS
10
5.1025
20
-128.525
11
5.1025
21
-132.735
0
ARC
8
BLACK
10
105.675
20
-148.95
40
0.500001
50
-180
51
-90.0001
0
LINE
8
BLACK
6
CONTINUOUS
10
105.675
20
-149.45
11
120.175
21
-149.45
0
LINE
8
BLACK
6
CONTINUOUS
10
120.675
20
-148.95
11
120.675
21
-137.15
0
ARC
8
BLACK
10
120.175
20
-137.15
40
0.500001
50
0.000114591
51
89.9999
0
LINE
8
BLACK
6
CONTINUOUS
10
120.175
20
-136.65
11
105.675
21
-136.65
0
ARC
8
BLACK
10
105.675
20
-137.15
40
0.500001
50
90.0001
51
180
0
LINE
8
BLACK
6
CONTINUOUS
10
105.175
20
-137.15
11
105.175
21
-148.95
0
ARC
8
BLACK
10
186.45
20
-148.95
40
0.5
50
-180
51
-90
0
LINE
8
BLACK
6
CONTINUOUS
10
186.45
20
-149.45
11
200.95
21
-149.45
0
ARC
8
BLACK
10
200.95
20
-148.95
40
0.5
50
-90
51
-0
0
LINE
8
BLACK
6
CONTINUOUS
10
201.45
20
-148.95
11
201.45
21
-137.15
0
ARC
8
BLACK
10
200.95
20
-137.15
40
0.5
50
-0
51
90
0
LINE
8
BLACK
6
CONTINUOUS
10
200.95
20
-136.65
11
186.45
21
-136.65
0
ARC
8
BLACK
10
186.45
20
-137.15
40
0.5
50
90
51
180
0
LINE
8
BLACK
6
CONTINUOUS
10
185.95
20
-137.15
11
185.95
21
-148.95
0
ARC
8
BLACK
10
24.9
20
-148.95
40
0.500001
50
-180
51
-90.0001
0
LINE
8
BLACK
6
CONTINUOUS
10
24.9
20
-149.45
11
39.4
21
-149.45
0
ARC
8
BLACK
10
39.4
20
-148.95
40
0.500001
50
-89.9999
51
-0.000114591
0
LINE
8
BLACK
6
CONTINUOUS
10
39.9
20
-148.95
11
39.9
21
-137.15
0
ARC
8
BLACK
10
39.4
20
-137.15
40
0.500001
50
0.000114591
51
89.9999
0
LINE
8
BLACK
6
CONTINUOUS
10
39.4
20
-136.65
11
24.9
21
-136.65
0
ARC
8
BLACK
10
24.9
20
-137.15
40
0.500001
50
90.0001
51
180
0
LINE
8
BLACK
6
CONTINUOUS
10
24.4
20
-137.15
11
24.4
21
-148.95
0
ARC
8
BLACK
10
299.4
20
-148.95
40
0.5
50
-180
51
-90
0
LINE
8
BLACK
6
CONTINUOUS
10
299.4
20
-149.45
11
313.9
21
-149.45
0
ARC
8
BLACK
10
313.9
20
-148.95
40
0.5
50
-90
51
-0
0
LINE
8
BLACK
6
CONTINUOUS
10
314.4
20
-148.95
11
314.4
21
-137.15
0
ARC
8
BLACK
10
313.9
20
-137.15
40
0.5
50
-0
51
90
0
LINE
8
BLACK
6
CONTINUOUS
10
313.9
20
-136.65
11
299.4
21
-136.65
0
ARC
8
BLACK
10
299.4
20
-137.15
40
0.5
50
90
51
180
0
LINE
8
BLACK
6
CONTINUOUS
10
298.9
20
-137.15
11
298.9
21
-148.95
0
ARC
8
BLACK
10
237.975
20
-49.725
40
0.5
50
-180
51
-90
0
LINE
8
BLACK
6
CONTINUOUS
10
237.975
20
-50.225
11
252.475
21
-50.225
0
ARC
8
BLACK
10
252.475
20
-49.725
40
0.5
50
-90
51
-0
0
LINE
8
BLACK
6
CONTINUOUS
10
252.975
20
-49.725
11
252.975
21
-37.925
0
ARC
8
BLACK
10
252.475
20
-37.925
40
0.5
50
-0
51
90
0
LINE
8
BLACK
6
CONTINUOUS
10
252.475
20
-37.425
11
237.975
21
-37.425
0
ARC
8
BLACK
10
237.975
20
-37.925
40
0.5
50
90
51
180
0
LINE
8
BLACK
6
CONTINUOUS
10
237.475
20
-37.925
11
237.475
21
-49.725
0
ARC
8
BLACK
10
261.6
20
-49.725
40
0.5
50
-180
51
-90
0
LINE
8
BLACK
6
CONTINUOUS
10
261.6
20
-50.225
11
276.1
21
-50.225
0
ARC
8
BLACK
10
276.1
20
-49.725
40
0.5
50
-90
51
-0
0
LINE
8
BLACK
6
CONTINUOUS
10
276.6
20
-49.725
11
276.6
21
-37.925
0
ARC
8
BLACK
10
276.1
20
-37.925
40
0.5
50
-0
51
90
0
LINE
8
BLACK
6
CONTINUOUS
10
276.1
20
-37.425
11
261.6
21
-37.425
0
ARC
8
BLACK
10
261.6
20
-37.925
40
0.5
50
90
51
180
0
LINE
8
BLACK
6
CONTINUOUS
10
261.1
20
-37.925
11
261.1
21
-49.725
0
ARC
8
BLACK
10
280.5
20
-49.725
40
0.5
50
-180
51
-90
0
LINE
8
BLACK
6
CONTINUOUS
10
280.5
20
-50.225
11
295
21
-50.225
0
ARC
8
BLACK
10
295
20
-49.725
40
0.5
50
-90
51
-0
0
LINE
8
BLACK
6
CONTINUOUS
10
295.5
20
-49.725
11
295.5
21
-37.925
0
ARC
8
BLACK
10
295
20
-37.925
40
0.5
50
-0
51
90
0
LINE
8
BLACK
6
CONTINUOUS
10
295
20
-37.425
11
280.5
21
-37.425
0
ARC
8
BLACK
10
280.5
20
-37.925
40
0.5
50
90
51
180
0
LINE
8
BLACK
6
CONTINUOUS
10
280
20
-37.925
11
280
21
-49.725
0
ARC
8
BLACK
10
299.4
20
-49.725
40
0.5
50
-180
51
-90
0
LINE
8
BLACK
6
CONTINUOUS
10
299.4
20
-50.225
11
313.9
21
-50.225
0
ARC
8
BLACK
10
313.9
20
-49.725
40
0.5
50
-90
51
-0
0
LINE
8
BLACK
6
CONTINUOUS
10
314.4
20
-49.725
11
314.4
21
-37.925
0
ARC
8
BLACK
10
313.9
20
-37.925
40
0.5
50
-0
51
90
0
LINE
8
BLACK
6
CONTINUOUS
10
313.9
20
-37.425
11
299.4
21
-37.425
0
ARC
8
BLACK
10
299.4
20
-37.925
40
0.5
50
90
51
180
0
LINE
8
BLACK
6
CONTINUOUS
10
298.9
20
-37.925
11
298.9
21
-49.725
0
ARC
8
BLACK
10
-26.625
20
-73.35
40
0.500001
50
-180
51
-90.0001
0
LINE
8
BLACK
6
CONTINUOUS
10
-26.625
20
-73.85
11
-12.125
21
-73.85
0
ARC
8
BLACK
10
-12.125
20
-73.35
40
0.500001
50
-89.9999
51
-0.000114591
0
LINE
8
BLACK
6
CONTINUOUS
10
-11.625
20
-73.35
11
-11.625
21
-61.55
0
ARC
8
BLACK
10
-12.125
20
-61.55
40
0.500001
50
0.000114591
51
89.9999
0
LINE
8
BLACK
6
CONTINUOUS
10
-12.125
20
-61.05
11
-26.625
21
-61.05
0
ARC
8
BLACK
10
-26.625
20
-61.55
40
0.500001
50
90.0001
51
180
0
LINE
8
BLACK
6
CONTINUOUS
10
-27.125
20
-61.55
11
-27.125
21
-73.35
0
ARC
8
BLACK
10
-7.725
20
-73.35
40
0.500001
50
-180
51
-90.0001
0
LINE
8
BLACK
6
CONTINUOUS
10
-7.725
20
-73.85
11
6.775
21
-73.85
0
ARC
8
BLACK
10
6.775
20
-73.35
40
0.500001
50
-89.9999
51
-0.000114591
0
LINE
8
BLACK
6
CONTINUOUS
10
7.275
20
-73.35
11
7.275
21
-61.55
0
ARC
8
BLACK
10
6.775
20
-61.55
40
0.500001
50
0.000114591
51
89.9999
0
LINE
8
BLACK
6
CONTINUOUS
10
6.775
20
-61.05
11
-7.725
21
-61.05
0
ARC
8
BLACK
10
-7.725
20
-61.55
40
0.500001
50
90.0001
51
180
0
LINE
8
BLACK
6
CONTINUOUS
10
-8.225
20
-61.55
11
-8.225
21
-73.35
0
ARC
8
BLACK
10
11.175
20
-73.35
40
0.500001
50
-180
51
-90.0001
0
LINE
8
BLACK
6
CONTINUOUS
10
11.175
20
-73.85
11
25.675
21
-73.85
0
ARC
8
BLACK
10
25.675
20
-73.35
40
0.500001
50
-89.9999
51
-0.000114591
0
LINE
8
BLACK
6
CONTINUOUS
10
26.175
20
-73.35
11
26.175
21
-61.55
0
ARC
8
BLACK
10
25.675
20
-61.55
40
0.500001
50
0.000114591
51
89.9999
0
LINE
8
BLACK
6
CONTINUOUS
10
25.675
20
-61.05
11
11.175
21
-61.05
0
ARC
8
BLACK
10
11.175
20
-61.55
40
0.500001
50
90.0001
51
180
0
LINE
8
BLACK
6
CONTINUOUS
10
10.675
20
-61.55
11
10.675
21
-73.35
0
ARC
8
BLACK
10
30.075
20
-73.35
40
0.500001
50
-180
51
-90.0001
0
LINE
8
BLACK
6
CONTINUOUS
10
30.075
20
-73.85
11
44.575
21
-73.85
0
ARC
8
BLACK
10
44.575
20
-73.35
40
0.500001
50
-89.9999
51
-0.000114591
0
LINE
8
BLACK
6
CONTINUOUS
10
45.075
20
-73.35
11
45.075
21
-61.55
0
ARC
8
BLACK
10
44.575
20
-61.55
40
0.500001
50
0.000114591
51
89.9999
0
LINE
8
BLACK
6
CONTINUOUS
10
44.575
20
-61.05
11
30.075
21
-61.05
0
ARC
8
BLACK
10
30.075
20
-61.55
40
0.500001
50
90.0001
51
180
0
LINE
8
BLACK
6
CONTINUOUS
10
29.575
20
-61.55
11
29.575
21
-73.35
0
ARC
8
BLACK
10
48.975
20
-73.35
40
0.500001
50
-180
51
-90.0001
0
LINE
8
BLACK
6
CONTINUOUS
10
48.975
20
-73.85
11
63.475
21
-73.85
0
ARC
8
BLACK
10
63.475
20
-73.35
40
0.500001
50
-89.9999
51
-0.000114591
0
LINE
8
BLACK
6
CONTINUOUS
10
63.975
20
-73.35
11
63.975
21
-61.55
0
ARC
8
BLACK
10
63.475
20
-61.55
40
0.500001
50
0.000114591
51
89.9999
0
LINE
8
BLACK
6
CONTINUOUS
10
63.475
20
-61.05
11
48.975
21
-61.05
0
ARC
8
BLACK
10
48.975
20
-61.55
40
0.500001
50
90.0001
51
180
0
LINE
8
BLACK
6
CONTINUOUS
10
48.475
20
-61.55
11
48.475
21
-73.35
0
ARC
8
BLACK
10
67.875
20
-73.35
40
0.500001
50
-180
51
-90.0001
0
LINE
8
BLACK
6
CONTINUOUS
10
67.875
20
-73.85
11
82.375
21
-73.85
0
ARC
8
BLACK
10
82.375
20
-73.35
40
0.500001
50
-89.9999
51
-0.000114591
0
LINE
8
BLACK
6
CONTINUOUS
10
82.875
20
-73.35
11
82.875
21
-61.55
0
ARC
8
BLACK
10
82.375
20
-61.55
40
0.500001
50
0.000114591
51
89.9999
0
LINE
8
BLACK
6
CONTINUOUS
10
82.375
20
-61.05
11
67.875
21
-61.05
0
ARC
8
BLACK
10
67.875
20
-61.55
40
0.500001
50
90.0001
51
180
0
LINE
8
BLACK
6
CONTINUOUS
10
67.375
20
-61.55
11
67.375
21
-73.35
0
ARC
8
BLACK
10
86.775
20
-73.35
40
0.500001
50
-180
51
-90.0001
0
LINE
8
BLACK
6
CONTINUOUS
10
86.775
20
-73.85
11
101.275
21
-73.85
0
ARC
8
BLACK
10
101.275
20
-73.35
40
0.500001
50
-89.9999
51
-0.000114591
0
LINE
8
BLACK
6
CONTINUOUS
10
101.775
20
-73.35
11
101.775
21
-61.55
0
ARC
8
BLACK
10
101.275
20
-61.55
40
0.500001
50
0.000114591
51
89.9999
0
LINE
8
BLACK
6
CONTINUOUS
10
101.275
20
-61.05
11
86.775
21
-61.05
0
ARC
8
BLACK
10
86.775
20
-61.55
40
0.500001
50
90.0001
51
180
0
LINE
8
BLACK
6
CONTINUOUS
10
86.275
20
-61.55
11
86.275
21
-73.35
0
ARC
8
BLACK
10
105.675
20
-73.35
40
0.500001
50
-180
51
-90.0001
0
LINE
8
BLACK
6
CONTINUOUS
10
105.675
20
-73.85
11
120.175
21
-73.85
0
ARC
8
BLACK
10
120.175
20
-73.35
40
0.500001
50
-89.9999
51
-0.000114591
0
LINE
8
BLACK
6
CONTINUOUS
10
120.675
20
-73.35
11
120.675
21
-61.55
0
ARC
8
BLACK
10
120.175
20
-61.55
40
0.500001
50
0.000114591
51
89.9999
0
LINE
8
BLACK
6
CONTINUOUS
10
120.175
20
-61.05
11
105.675
21
-61.05
0
ARC
8
BLACK
10
105.675
20
-61.55
40
0.500001
50
90.0001
51
180
0
LINE
8
BLACK
6
CONTINUOUS
10
105.175
20
-61.55
11
105.175
21
-73.35
0
ARC
8
BLACK
10
124.575
20
-73.35
40
0.500001
50
-180
51
-90.0001
0
LINE
8
BLACK
6
CONTINUOUS
10
124.575
20
-73.85
11
139.075
21
-73.85
0
ARC
8
BLACK
10
139.075
20
-73.35
40
0.500001
50
-89.9999
51
-0.000114591
0
LINE
8
BLACK
6
CONTINUOUS
10
139.575
20
-73.35
11
139.575
21
-61.55
0
ARC
8
BLACK
10
139.075
20
-61.55
40
0.500001
50
0.000114591
51
89.9999
0
LINE
8
BLACK
6
CONTINUOUS
10
139.075
20
-61.05
11
124.575
21
-61.05
0
ARC
8
BLACK
10
124.575
20
-61.55
40
0.500001
50
90.0001
51
180
0
LINE
8
BLACK
6
CONTINUOUS
10
124.075
20
-61.55
11
124.075
21
-73.35
0
ARC
8
BLACK
10
143.475
20
-73.35
40
0.500001
50
-180
51
-90.0001
0
LINE
8
BLACK
6
CONTINUOUS
10
143.475
20
-73.85
11
157.975
21
-73.85
0
ARC
8
BLACK
10
157.975
20
-73.35
40
0.5
50
-90
51
-0
0
LINE
8
BLACK
6
CONTINUOUS
10
158.475
20
-73.35
11
158.475
21
-61.55
0
ARC
8
BLACK
10
157.975
20
-61.55
40
0.5
50
-0
51
90
0
LINE
8
BLACK
6
CONTINUOUS
10
157.975
20
-61.05
11
143.475
21
-61.05
0
ARC
8
BLACK
10
143.475
20
-61.55
40
0.500001
50
90.0001
51
180
0
LINE
8
BLACK
6
CONTINUOUS
10
142.975
20
-61.55
11
142.975
21
-73.35
0
ARC
8
BLACK
10
162.375
20
-73.35
40
0.5
50
-180
51
-90
0
LINE
8
BLACK
6
CONTINUOUS
10
162.375
20
-73.85
11
176.875
21
-73.85
0
ARC
8
BLACK
10
176.875
20
-73.35
40
0.5
50
-90
51
-0
0
LINE
8
BLACK
6
CONTINUOUS
10
177.375
20
-73.35
11
177.375
21
-61.55
0
ARC
8
BLACK
10
176.875
20
-61.55
40
0.5
50
-0
51
90
0
LINE
8
BLACK
6
CONTINUOUS
10
176.875
20
-61.05
11
162.375
21
-61.05
0
ARC
8
BLACK
10
162.375
20
-61.55
40
0.5
50
90
51
180
0
LINE
8
BLACK
6
CONTINUOUS
10
161.875
20
-61.55
11
161.875
21
-73.35
0
ARC
8
BLACK
10
181.275
20
-73.35
40
0.5
50
-180
51
-90
0
LINE
8
BLACK
6
CONTINUOUS
10
181.275
20
-73.85
11
195.775
21
-73.85
0
ARC
8
BLACK
10
195.775
20
-73.35
40
0.5
50
-90
51
-0
0
LINE
8
BLACK
6
CONTINUOUS
10
196.275
20
-73.35
11
196.275
21
-61.55
0
ARC
8
BLACK
10
195.775
20
-61.55
40
0.5
50
-0
51
90
0
LINE
8
BLACK
6
CONTINUOUS
10
195.775
20
-61.05
11
181.275
21
-61.05
0
ARC
8
BLACK
10
181.275
20
-61.55
40
0.5
50
90
51
180
0
LINE
8
BLACK
6
CONTINUOUS
10
180.775
20
-61.55
11
180.775
21
-73.35
0
ARC
8
BLACK
10
53.7
20
-49.725
40
0.500001
50
-180
51
-90.0001
0
LINE
8
BLACK
6
CONTINUOUS
10
53.7
20
-50.225
11
68.2
21
-50.225
0
ARC
8
BLACK
10
68.2
20
-49.725
40
0.500001
50
-89.9999
51
-0.000114591
0
LINE
8
BLACK
6
CONTINUOUS
10
68.7
20
-49.725
11
68.7
21
-37.925
0
ARC
8
BLACK
10
68.2
20
-37.925
40
0.500001
50
0.000114591
51
89.9999
0
LINE
8
BLACK
6
CONTINUOUS
10
68.2
20
-37.425
11
53.7
21
-37.425
0
ARC
8
BLACK
10
53.7
20
-37.925
40
0.500001
50
90.0001
51
180
0
LINE
8
BLACK
6
CONTINUOUS
10
53.2
20
-37.925
11
53.2
21
-49.725
0
ARC
8
BLACK
10
34.8
20
-49.725
40
0.500001
50
-180
51
-90.0001
0
LINE
8
BLACK
6
CONTINUOUS
10
34.8
20
-50.225
11
49.3
21
-50.225
0
ARC
8
BLACK
10
49.3
20
-49.725
40
0.500001
50
-89.9999
51
-0.000114591
0
LINE
8
BLACK
6
CONTINUOUS
10
49.8
20
-49.725
11
49.8
21
-37.925
0
ARC
8
BLACK
10
49.3
20
-37.925
40
0.500001
50
0.000114591
51
89.9999
0
LINE
8
BLACK
6
CONTINUOUS
10
49.3
20
-37.425
11
34.8
21
-37.425
0
ARC
8
BLACK
10
34.8
20
-37.925
40
0.500001
50
90.0001
51
180
0
LINE
8
BLACK
6
CONTINUOUS
10
34.3
20
-37.925
11
34.3
21
-49.725
0
ARC
8
BLACK
10
15.9
20
-49.725
40
0.500001
50
-180
51
-90.0001
0
LINE
8
BLACK
6
CONTINUOUS
10
15.9
20
-50.225
11
30.4
21
-50.225
0
ARC
8
BLACK
10
30.4
20
-49.725
40
0.500001
50
-89.9999
51
-0.000114591
0
LINE
8
BLACK
6
CONTINUOUS
10
30.9
20
-49.725
11
30.9
21
-37.925
0
ARC
8
BLACK
10
30.4
20
-37.925
40
0.500001
50
0.000114591
51
89.9999
0
LINE
8
BLACK
6
CONTINUOUS
10
30.4
20
-37.425
11
15.9
21
-37.425
0
ARC
8
BLACK
10
15.9
20
-37.925
40
0.500001
50
90.0001
51
180
0
LINE
8
BLACK
6
CONTINUOUS
10
15.4
20
-37.925
11
15.4
21
-49.725
0
ARC
8
BLACK
10
-3
20
-49.725
40
0.500001
50
-180
51
-90.0001
0
LINE
8
BLACK
6
CONTINUOUS
10
-3
20
-50.225
11
11.5
21
-50.225
0
ARC
8
BLACK
10
11.5
20
-49.725
40
0.500001
50
-89.9999
51
-0.000114591
0
LINE
8
BLACK
6
CONTINUOUS
10
12
20
-49.725
11
12
21
-37.925
0
ARC
8
BLACK
10
11.5
20
-37.925
40
0.500001
50
0.000114591
51
89.9999
0
LINE
8
BLACK
6
CONTINUOUS
10
11.5
20
-37.425
11
-3
21
-37.425
0
ARC
8
BLACK
10
-3
20
-37.925
40
0.500001
50
90.0001
51
180
0
LINE
8
BLACK
6
CONTINUOUS
10
-3.5
20
-37.925
11
-3.5
21
-49.725
0
ARC
8
BLACK
10
211.1
20
-147.825
40
1
50
-180
51
-90
0
LINE
8
BLACK
6
CONTINUOUS
10
211.1
20
-148.825
11
223.1
21
-148.825
0
ARC
8
BLACK
10
223.1
20
-147.825
40
1
50
-90
51
-0
0
LINE
8
BLACK
6
CONTINUOUS
10
224.1
20
-147.825
11
224.1
21
-138.275
0
ARC
8
BLACK
10
223.1
20
-138.275
40
1
50
-0
51
90
0
LINE
8
BLACK
6
CONTINUOUS
10
223.1
20
-137.275
11
211.1
21
-137.275
0
ARC
8
BLACK
10
211.1
20
-138.275
40
1
50
90
51
180
0
LINE
8
BLACK
6
CONTINUOUS
10
210.1
20
-138.275
11
210.1
21
-147.825
0
ARC
8
BLACK
10
262.85
20
-128.925
40
1
50
-180
51
-90
0
LINE
8
BLACK
6
CONTINUOUS
10
262.85
20
-129.925
11
274.85
21
-129.925
0
ARC
8
BLACK
10
274.85
20
-128.925
40
1
50
-90
51
-0
0
LINE
8
BLACK
6
CONTINUOUS
10
275.85
20
-128.925
11
275.85
21
-119.375
0
ARC
8
BLACK
10
274.85
20
-119.375
40
1
50
-0
51
90
0
LINE
8
BLACK
6
CONTINUOUS
10
274.85
20
-118.375
11
262.85
21
-118.375
0
ARC
8
BLACK
10
262.85
20
-119.375
40
1
50
90
51
180
0
LINE
8
BLACK
6
CONTINUOUS
10
261.85
20
-119.375
11
261.85
21
-128.925
0
ARC
8
BLACK
10
300.65
20
-128.925
40
1
50
-180
51
-90
0
LINE
8
BLACK
6
CONTINUOUS
10
300.65
20
-129.925
11
312.65
21
-129.925
0
ARC
8
BLACK
10
312.65
20
-128.925
40
1
50
-90
51
-0
0
LINE
8
BLACK
6
CONTINUOUS
10
313.65
20
-128.925
11
313.65
21
-119.375
0
ARC
8
BLACK
10
312.65
20
-119.375
40
1
50
-0
51
90
0
LINE
8
BLACK
6
CONTINUOUS
10
312.65
20
-118.375
11
300.65
21
-118.375
0
ARC
8
BLACK
10
300.65
20
-119.375
40
1
50
90
51
180
0
LINE
8
BLACK
6
CONTINUOUS
10
299.65
20
-119.375
11
299.65
21
-128.925
0
ARC
8
BLACK
10
-26.625
20
-49.725
40
0.500001
50
-180
51
-90.0001
0
LINE
8
BLACK
6
CONTINUOUS
10
-26.625
20
-50.225
11
-12.125
21
-50.225
0
ARC
8
BLACK
10
-12.125
20
-49.725
40
0.500001
50
-89.9999
51
-0.000114591
0
LINE
8
BLACK
6
CONTINUOUS
10
-11.625
20
-49.725
11
-11.625
21
-37.925
0
ARC
8
BLACK
10
-12.125
20
-37.925
40
0.500001
50
0.000114591
51
89.9999
0
LINE
8
BLACK
6
CONTINUOUS
10
-12.125
20
-37.425
11
-26.625
21
-37.425
0
ARC
8
BLACK
10
-26.625
20
-37.925
40
0.500001
50
90.0001
51
180
0
LINE
8
BLACK
6
CONTINUOUS
10
-27.125
20
-37.925
11
-27.125
21
-49.725
0
ARC
8
BLACK
10
77.325
20
-49.725
40
0.500001
50
-180
51
-90.0001
0
LINE
8
BLACK
6
CONTINUOUS
10
77.325
20
-50.225
11
91.825
21
-50.225
0
ARC
8
BLACK
10
91.825
20
-49.725
40
0.500001
50
-89.9999
51
-0.000114591
0
LINE
8
BLACK
6
CONTINUOUS
10
92.325
20
-49.725
11
92.325
21
-37.925
0
ARC
8
BLACK
10
91.825
20
-37.925
40
0.500001
50
0.000114591
51
89.9999
0
LINE
8
BLACK
6
CONTINUOUS
10
91.825
20
-37.425
11
77.325
21
-37.425
0
ARC
8
BLACK
10
77.325
20
-37.925
40
0.500001
50
90.0001
51
180
0
LINE
8
BLACK
6
CONTINUOUS
10
76.825
20
-37.925
11
76.825
21
-49.725
0
ARC
8
BLACK
10
96.225
20
-49.725
40
0.500001
50
-180
51
-90.0001
0
LINE
8
BLACK
6
CONTINUOUS
10
96.225
20
-50.225
11
110.725
21
-50.225
0
ARC
8
BLACK
10
110.725
20
-49.725
40
0.500001
50
-89.9999
51
-0.000114591
0
LINE
8
BLACK
6
CONTINUOUS
10
111.225
20
-49.725
11
111.225
21
-37.925
0
ARC
8
BLACK
10
110.725
20
-37.925
40
0.500001
50
0.000114591
51
89.9999
0
LINE
8
BLACK
6
CONTINUOUS
10
110.725
20
-37.425
11
96.225
21
-37.425
0
ARC
8
BLACK
10
96.225
20
-37.925
40
0.500001
50
90.0001
51
180
0
LINE
8
BLACK
6
CONTINUOUS
10
95.725
20
-37.925
11
95.725
21
-49.725
0
ARC
8
BLACK
10
115.125
20
-49.725
40
0.500001
50
-180
51
-90.0001
0
LINE
8
BLACK
6
CONTINUOUS
10
115.125
20
-50.225
11
129.625
21
-50.225
0
ARC
8
BLACK
10
129.625
20
-49.725
40
0.500001
50
-89.9999
51
-0.000114591
0
LINE
8
BLACK
6
CONTINUOUS
10
130.125
20
-49.725
11
130.125
21
-37.925
0
ARC
8
BLACK
10
129.625
20
-37.925
40
0.500001
50
0.000114591
51
89.9999
0
LINE
8
BLACK
6
CONTINUOUS
10
129.625
20
-37.425
11
115.125
21
-37.425
0
ARC
8
BLACK
10
115.125
20
-37.925
40
0.500001
50
90.0001
51
180
0
LINE
8
BLACK
6
CONTINUOUS
10
114.625
20
-37.925
11
114.625
21
-49.725
0
ARC
8
BLACK
10
134.025
20
-49.725
40
0.500001
50
-180
51
-90.0001
0
LINE
8
BLACK
6
CONTINUOUS
10
134.025
20
-50.225
11
148.525
21
-50.225
0
ARC
8
BLACK
10
148.525
20
-49.725
40
0.5
50
-90
51
-0
0
LINE
8
BLACK
6
CONTINUOUS
10
149.025
20
-49.725
11
149.025
21
-37.925
0
ARC
8
BLACK
10
148.525
20
-37.925
40
0.5
50
-0
51
90
0
LINE
8
BLACK
6
CONTINUOUS
10
148.525
20
-37.425
11
134.025
21
-37.425
0
ARC
8
BLACK
10
134.025
20
-37.925
40
0.500001
50
90.0001
51
180
0
LINE
8
BLACK
6
CONTINUOUS
10
133.525
20
-37.925
11
133.525
21
-49.725
0
ARC
8
BLACK
10
157.65
20
-49.725
40
0.5
50
-180
51
-90
0
LINE
8
BLACK
6
CONTINUOUS
10
157.65
20
-50.225
11
172.15
21
-50.225
0
ARC
8
BLACK
10
172.15
20
-49.725
40
0.5
50
-90
51
-0
0
LINE
8
BLACK
6
CONTINUOUS
10
172.65
20
-49.725
11
172.65
21
-37.925
0
ARC
8
BLACK
10
172.15
20
-37.925
40
0.5
50
-0
51
90
0
LINE
8
BLACK
6
CONTINUOUS
10
172.15
20
-37.425
11
157.65
21
-37.425
0
ARC
8
BLACK
10
157.65
20
-37.925
40
0.5
50
90
51
180
0
LINE
8
BLACK
6
CONTINUOUS
10
157.15
20
-37.925
11
157.15
21
-49.725
0
ARC
8
BLACK
10
176.55
20
-49.725
40
0.5
50
-180
51
-90
0
LINE
8
BLACK
6
CONTINUOUS
10
176.55
20
-50.225
11
191.05
21
-50.225
0
ARC
8
BLACK
10
191.05
20
-49.725
40
0.5
50
-90
51
-0
0
LINE
8
BLACK
6
CONTINUOUS
10
191.55
20
-49.725
11
191.55
21
-37.925
0
ARC
8
BLACK
10
191.05
20
-37.925
40
0.5
50
-0
51
90
0
LINE
8
BLACK
6
CONTINUOUS
10
191.05
20
-37.425
11
176.55
21
-37.425
0
ARC
8
BLACK
10
176.55
20
-37.925
40
0.5
50
90
51
180
0
LINE
8
BLACK
6
CONTINUOUS
10
176.05
20
-37.925
11
176.05
21
-49.725
0
ARC
8
BLACK
10
195.45
20
-49.725
40
0.5
50
-180
51
-90
0
LINE
8
BLACK
6
CONTINUOUS
10
195.45
20
-50.225
11
209.95
21
-50.225
0
ARC
8
BLACK
10
209.95
20
-49.725
40
0.5
50
-90
51
-0
0
LINE
8
BLACK
6
CONTINUOUS
10
210.45
20
-49.725
11
210.45
21
-37.925
0
ARC
8
BLACK
10
209.95
20
-37.925
40
0.5
50
-0
51
90
0
LINE
8
BLACK
6
CONTINUOUS
10
209.95
20
-37.425
11
195.45
21
-37.425
0
ARC
8
BLACK
10
195.45
20
-37.925
40
0.5
50
90
51
180
0
LINE
8
BLACK
6
CONTINUOUS
10
194.95
20
-37.925
11
194.95
21
-49.725
0
ARC
8
BLACK
10
214.35
20
-49.725
40
0.5
50
-180
51
-90
0
LINE
8
BLACK
6
CONTINUOUS
10
214.35
20
-50.225
11
228.85
21
-50.225
0
ARC
8
BLACK
10
228.85
20
-49.725
40
0.5
50
-90
51
-0
0
LINE
8
BLACK
6
CONTINUOUS
10
229.35
20
-49.725
11
229.35
21
-37.925
0
ARC
8
BLACK
10
228.85
20
-37.925
40
0.5
50
-0
51
90
0
LINE
8
BLACK
6
CONTINUOUS
10
228.85
20
-37.425
11
214.35
21
-37.425
0
ARC
8
BLACK
10
214.35
20
-37.925
40
0.5
50
90
51
180
0
LINE
8
BLACK
6
CONTINUOUS
10
213.85
20
-37.925
11
213.85
21
-49.725
0
ARC
8
BLACK
10
82.05
20
-111.15
40
0.500001
50
-180
51
-90.0001
0
LINE
8
BLACK
6
CONTINUOUS
10
82.05
20
-111.65
11
96.55
21
-111.65
0
ARC
8
BLACK
10
96.55
20
-111.15
40
0.500001
50
-89.9999
51
-0.000114591
0
LINE
8
BLACK
6
CONTINUOUS
10
97.05
20
-111.15
11
97.05
21
-99.35
0
ARC
8
BLACK
10
96.55
20
-99.35
40
0.500001
50
0.000114591
51
89.9999
0
LINE
8
BLACK
6
CONTINUOUS
10
96.55
20
-98.85
11
82.05
21
-98.85
0
ARC
8
BLACK
10
82.05
20
-99.35
40
0.500001
50
90.0001
51
180
0
LINE
8
BLACK
6
CONTINUOUS
10
81.55
20
-99.35
11
81.55
21
-111.15
0
ARC
8
BLACK
10
63.15
20
-111.15
40
0.500001
50
-180
51
-90.0001
0
LINE
8
BLACK
6
CONTINUOUS
10
63.15
20
-111.65
11
77.65
21
-111.65
0
ARC
8
BLACK
10
77.65
20
-111.15
40
0.500001
50
-89.9999
51
-0.000114591
0
LINE
8
BLACK
6
CONTINUOUS
10
78.15
20
-111.15
11
78.15
21
-99.35
0
ARC
8
BLACK
10
77.65
20
-99.35
40
0.500001
50
0.000114591
51
89.9999
0
LINE
8
BLACK
6
CONTINUOUS
10
77.65
20
-98.85
11
63.15
21
-98.85
0
ARC
8
BLACK
10
63.15
20
-99.35
40
0.500001
50
90.0001
51
180
0
LINE
8
BLACK
6
CONTINUOUS
10
62.65
20
-99.35
11
62.65
21
-111.15
0
ARC
8
BLACK
10
44.25
20
-111.15
40
0.500001
50
-180
51
-90.0001
0
LINE
8
BLACK
6
CONTINUOUS
10
44.25
20
-111.65
11
58.75
21
-111.65
0
ARC
8
BLACK
10
58.75
20
-111.15
40
0.500001
50
-89.9999
51
-0.000114591
0
LINE
8
BLACK
6
CONTINUOUS
10
59.25
20
-111.15
11
59.25
21
-99.35
0
ARC
8
BLACK
10
58.75
20
-99.35
40
0.500001
50
0.000114591
51
89.9999
0
LINE
8
BLACK
6
CONTINUOUS
10
58.75
20
-98.85
11
44.25
21
-98.85
0
ARC
8
BLACK
10
44.25
20
-99.35
40
0.500001
50
90.0001
51
180
0
LINE
8
BLACK
6
CONTINUOUS
10
43.75
20
-99.35
11
43.75
21
-111.15
0
ARC
8
BLACK
10
25.35
20
-111.15
40
0.500001
50
-180
51
-90.0001
0
LINE
8
BLACK
6
CONTINUOUS
10
25.35
20
-111.65
11
39.85
21
-111.65
0
ARC
8
BLACK
10
39.85
20
-111.15
40
0.500001
50
-89.9999
51
-0.000114591
0
LINE
8
BLACK
6
CONTINUOUS
10
40.35
20
-111.15
11
40.35
21
-99.35
0
ARC
8
BLACK
10
39.85
20
-99.35
40
0.500001
50
0.000114591
51
89.9999
0
LINE
8
BLACK
6
CONTINUOUS
10
39.85
20
-98.85
11
25.35
21
-98.85
0
ARC
8
BLACK
10
25.35
20
-99.35
40
0.500001
50
90.0001
51
180
0
LINE
8
BLACK
6
CONTINUOUS
10
24.85
20
-99.35
11
24.85
21
-111.15
0
ARC
8
BLACK
10
-19.5375
20
-111.15
40
0.500001
50
-180
51
-90.0001
0
LINE
8
BLACK
6
CONTINUOUS
10
-19.5375
20
-111.65
11
-5.0375
21
-111.65
0
ARC
8
BLACK
10
-5.0375
20
-111.15
40
0.500001
50
-89.9999
51
-0.000114591
0
LINE
8
BLACK
6
CONTINUOUS
10
-4.5375
20
-111.15
11
-4.5375
21
-99.35
0
ARC
8
BLACK
10
-5.0375
20
-99.35
40
0.500001
50
0.000114591
51
89.9999
0
LINE
8
BLACK
6
CONTINUOUS
10
-5.0375
20
-98.85
11
-19.5375
21
-98.85
0
ARC
8
BLACK
10
-19.5375
20
-99.35
40
0.500001
50
90.0001
51
180
0
LINE
8
BLACK
6
CONTINUOUS
10
-20.0375
20
-99.35
11
-20.0375
21
-111.15
0
ARC
8
BLACK
10
0.547499
20
-109.625
40
0.500001
50
0.000114591
51
89.9999
0
LINE
8
BLACK
6
CONTINUOUS
10
0.5475
20
-109.125
11
-1.1225
21
-109.125
0
ARC
8
BLACK
10
-1.1225
20
-109.625
40
0.500001
50
90.0001
51
180
0
LINE
8
BLACK
6
CONTINUOUS
10
-1.6225
20
-109.625
11
-1.6225
21
-113.835
0
ARC
8
BLACK
10
-1.1225
20
-113.835
40
0.500001
50
-180
51
-90.0001
0
LINE
8
BLACK
6
CONTINUOUS
10
-1.1225
20
-114.335
11
0.5475
21
-114.335
0
ARC
8
BLACK
10
0.547499
20
-113.835
40
0.500001
50
-89.9999
51
-0.000114591
0
LINE
8
BLACK
6
CONTINUOUS
10
1.0475
20
-113.835
11
1.0475
21
-109.625
0
ARC
8
BLACK
10
-23.4525
20
-109.625
40
0.500001
50
0.000114591
51
89.9999
0
LINE
8
BLACK
6
CONTINUOUS
10
-23.4525
20
-109.125
11
-25.1225
21
-109.125
0
ARC
8
BLACK
10
-25.1225
20
-109.625
40
0.500001
50
90.0001
51
180
0
LINE
8
BLACK
6
CONTINUOUS
10
-25.6225
20
-109.625
11
-25.6225
21
-113.835
0
ARC
8
BLACK
10
-25.1225
20
-113.835
40
0.500001
50
-180
51
-90.0001
0
LINE
8
BLACK
6
CONTINUOUS
10
-25.1225
20
-114.335
11
-23.4525
21
-114.335
0
ARC
8
BLACK
10
-23.4525
20
-113.835
40
0.500001
50
-89.9999
51
-0.000114591
0
LINE
8
BLACK
6
CONTINUOUS
10
-22.9525
20
-113.835
11
-22.9525
21
-109.625
0
ARC
8
BLACK
10
6.45
20
-111.15
40
0.500001
50
-180
51
-90.0001
0
LINE
8
BLACK
6
CONTINUOUS
10
6.45
20
-111.65
11
20.95
21
-111.65
0
ARC
8
BLACK
10
20.95
20
-111.15
40
0.500001
50
-89.9999
51
-0.000114591
0
LINE
8
BLACK
6
CONTINUOUS
10
21.45
20
-111.15
11
21.45
21
-99.35
0
ARC
8
BLACK
10
20.95
20
-99.35
40
0.500001
50
0.000114591
51
89.9999
0
LINE
8
BLACK
6
CONTINUOUS
10
20.95
20
-98.85
11
6.45
21
-98.85
0
ARC
8
BLACK
10
6.45
20
-99.35
40
0.500001
50
90.0001
51
180
0
LINE
8
BLACK
6
CONTINUOUS
10
5.95
20
-99.35
11
5.95
21
-111.15
0
ARC
8
BLACK
10
299.4
20
-92.25
40
0.5
50
-180
51
-90
0
LINE
8
BLACK
6
CONTINUOUS
10
299.4
20
-92.75
11
313.9
21
-92.75
0
ARC
8
BLACK
10
313.9
20
-92.25
40
0.5
50
-90
51
-0
0
LINE
8
BLACK
6
CONTINUOUS
10
314.4
20
-92.25
11
314.4
21
-80.45
0
ARC
8
BLACK
10
313.9
20
-80.45
40
0.5
50
-0
51
90
0
LINE
8
BLACK
6
CONTINUOUS
10
313.9
20
-79.95
11
299.4
21
-79.95
0
ARC
8
BLACK
10
299.4
20
-80.45
40
0.5
50
90
51
180
0
LINE
8
BLACK
6
CONTINUOUS
10
298.9
20
-80.45
11
298.9
21
-92.25
0
ARC
8
BLACK
10
295
20
-92.25
40
0.5
50
-90
51
-0
0
LINE
8
BLACK
6
CONTINUOUS
10
295.5
20
-92.25
11
295.5
21
-80.45
0
ARC
8
BLACK
10
295
20
-80.45
40
0.5
50
-0
51
90
0
ARC
8
BLACK
10
261.6
20
-92.25
40
0.5
50
-180
51
-90
0
ARC
8
BLACK
10
261.6
20
-80.45
40
0.5
50
90
51
180
0
LINE
8
BLACK
6
CONTINUOUS
10
261.1
20
-80.45
11
261.1
21
-92.25
0
ARC
8
BLACK
10
233.25
20
-92.25
40
0.5
50
-180
51
-90
0
LINE
8
BLACK
6
CONTINUOUS
10
233.25
20
-92.75
11
247.75
21
-92.75
0
ARC
8
BLACK
10
247.75
20
-92.25
40
0.5
50
-90
51
-0
0
LINE
8
BLACK
6
CONTINUOUS
10
248.25
20
-92.25
11
248.25
21
-80.45
0
ARC
8
BLACK
10
247.75
20
-80.45
40
0.5
50
-0
51
90
0
LINE
8
BLACK
6
CONTINUOUS
10
247.75
20
-79.95
11
233.25
21
-79.95
0
ARC
8
BLACK
10
233.25
20
-80.45
40
0.5
50
90
51
180
0
LINE
8
BLACK
6
CONTINUOUS
10
232.75
20
-80.45
11
232.75
21
-92.25
0
ARC
8
BLACK
10
209.625
20
-92.25
40
0.5
50
-180
51
-90
0
LINE
8
BLACK
6
CONTINUOUS
10
209.625
20
-92.75
11
224.125
21
-92.75
0
ARC
8
BLACK
10
224.125
20
-92.25
40
0.5
50
-90
51
-0
0
LINE
8
BLACK
6
CONTINUOUS
10
224.625
20
-92.25
11
224.625
21
-80.45
0
ARC
8
BLACK
10
224.125
20
-80.45
40
0.5
50
-0
51
90
0
LINE
8
BLACK
6
CONTINUOUS
10
224.125
20
-79.95
11
209.625
21
-79.95
0
ARC
8
BLACK
10
209.625
20
-80.45
40
0.5
50
90
51
180
0
LINE
8
BLACK
6
CONTINUOUS
10
209.125
20
-80.45
11
209.125
21
-92.25
0
ARC
8
BLACK
10
190.725
20
-92.25
40
0.5
50
-180
51
-90
0
LINE
8
BLACK
6
CONTINUOUS
10
190.725
20
-92.75
11
205.225
21
-92.75
0
ARC
8
BLACK
10
205.225
20
-92.25
40
0.5
50
-90
51
-0
0
LINE
8
BLACK
6
CONTINUOUS
10
205.725
20
-92.25
11
205.725
21
-80.45
0
ARC
8
BLACK
10
205.225
20
-80.45
40
0.5
50
-0
51
90
0
LINE
8
BLACK
6
CONTINUOUS
10
205.225
20
-79.95
11
190.725
21
-79.95
0
ARC
8
BLACK
10
190.725
20
-80.45
40
0.5
50
90
51
180
0
LINE
8
BLACK
6
CONTINUOUS
10
190.225
20
-80.45
11
190.225
21
-92.25
0
ARC
8
BLACK
10
171.825
20
-92.25
40
0.5
50
-180
51
-90
0
LINE
8
BLACK
6
CONTINUOUS
10
171.825
20
-92.75
11
186.325
21
-92.75
0
ARC
8
BLACK
10
186.325
20
-92.25
40
0.5
50
-90
51
-0
0
LINE
8
BLACK
6
CONTINUOUS
10
186.825
20
-92.25
11
186.825
21
-80.45
0
ARC
8
BLACK
10
186.325
20
-80.45
40
0.5
50
-0
51
90
0
LINE
8
BLACK
6
CONTINUOUS
10
186.325
20
-79.95
11
171.825
21
-79.95
0
ARC
8
BLACK
10
171.825
20
-80.45
40
0.5
50
90
51
180
0
LINE
8
BLACK
6
CONTINUOUS
10
171.325
20
-80.45
11
171.325
21
-92.25
0
ARC
8
BLACK
10
152.925
20
-92.25
40
0.5
50
-180
51
-90
0
LINE
8
BLACK
6
CONTINUOUS
10
152.925
20
-92.75
11
167.425
21
-92.75
0
ARC
8
BLACK
10
167.425
20
-92.25
40
0.5
50
-90
51
-0
0
LINE
8
BLACK
6
CONTINUOUS
10
167.925
20
-92.25
11
167.925
21
-80.45
0
ARC
8
BLACK
10
167.425
20
-80.45
40
0.5
50
-0
51
90
0
LINE
8
BLACK
6
CONTINUOUS
10
167.425
20
-79.95
11
152.925
21
-79.95
0
ARC
8
BLACK
10
152.925
20
-80.45
40
0.5
50
90
51
180
0
LINE
8
BLACK
6
CONTINUOUS
10
152.425
20
-80.45
11
152.425
21
-92.25
0
ARC
8
BLACK
10
261.6
20
-73.35
40
0.5
50
-180
51
-90
0
LINE
8
BLACK
6
CONTINUOUS
10
276.1
20
-61.05
11
261.6
21
-61.05
0
ARC
8
BLACK
10
261.6
20
-61.55
40
0.5
50
90
51
180
0
LINE
8
BLACK
6
CONTINUOUS
10
261.1
20
-61.55
11
261.1
21
-73.35
0
ARC
8
BLACK
10
295
20
-73.35
40
0.5
50
-90
51
-0
0
LINE
8
BLACK
6
CONTINUOUS
10
295.5
20
-73.35
11
295.5
21
-61.55
0
ARC
8
BLACK
10
295
20
-61.55
40
0.5
50
-0
51
90
0
LINE
8
BLACK
6
CONTINUOUS
10
295
20
-61.05
11
280.5
21
-61.05
0
ARC
8
BLACK
10
299.4
20
-73.35
40
0.5
50
-180
51
-90
0
LINE
8
BLACK
6
CONTINUOUS
10
299.4
20
-73.85
11
313.9
21
-73.85
0
ARC
8
BLACK
10
313.9
20
-73.35
40
0.5
50
-90
51
-0
0
LINE
8
BLACK
6
CONTINUOUS
10
314.4
20
-73.35
11
314.4
21
-61.55
0
ARC
8
BLACK
10
313.9
20
-61.55
40
0.5
50
-0
51
90
0
LINE
8
BLACK
6
CONTINUOUS
10
313.9
20
-61.05
11
299.4
21
-61.05
0
ARC
8
BLACK
10
299.4
20
-61.55
40
0.5
50
90
51
180
0
LINE
8
BLACK
6
CONTINUOUS
10
298.9
20
-61.55
11
298.9
21
-73.35
0
ARC
8
BLACK
10
-21.9
20
-92.25
40
0.500001
50
-180
51
-90.0001
0
LINE
8
BLACK
6
CONTINUOUS
10
-21.9
20
-92.75
11
-7.4
21
-92.75
0
ARC
8
BLACK
10
-7.4
20
-92.25
40
0.500001
50
-89.9999
51
-0.000114591
0
LINE
8
BLACK
6
CONTINUOUS
10
-6.9
20
-92.25
11
-6.9
21
-80.45
0
ARC
8
BLACK
10
-7.4
20
-80.45
40
0.500001
50
0.000114591
51
89.9999
0
LINE
8
BLACK
6
CONTINUOUS
10
-7.4
20
-79.95
11
-21.9
21
-79.95
0
ARC
8
BLACK
10
-21.9
20
-80.45
40
0.500001
50
90.0001
51
180
0
LINE
8
BLACK
6
CONTINUOUS
10
-22.4
20
-80.45
11
-22.4
21
-92.25
0
ARC
8
BLACK
10
200.175
20
-73.35
40
0.5
50
-180
51
-90
0
LINE
8
BLACK
6
CONTINUOUS
10
200.175
20
-73.85
11
214.675
21
-73.85
0
ARC
8
BLACK
10
214.675
20
-73.35
40
0.5
50
-90
51
-0
0
LINE
8
BLACK
6
CONTINUOUS
10
215.175
20
-73.35
11
215.175
21
-61.55
0
ARC
8
BLACK
10
214.675
20
-61.55
40
0.5
50
-0
51
90
0
LINE
8
BLACK
6
CONTINUOUS
10
214.675
20
-61.05
11
200.175
21
-61.05
0
ARC
8
BLACK
10
200.175
20
-61.55
40
0.5
50
90
51
180
0
LINE
8
BLACK
6
CONTINUOUS
10
199.675
20
-61.55
11
199.675
21
-73.35
0
ARC
8
BLACK
10
1.725
20
-92.25
40
0.500001
50
-180
51
-90.0001
0
LINE
8
BLACK
6
CONTINUOUS
10
1.725
20
-92.75
11
16.225
21
-92.75
0
ARC
8
BLACK
10
16.225
20
-92.25
40
0.500001
50
-89.9999
51
-0.000114591
0
LINE
8
BLACK
6
CONTINUOUS
10
16.725
20
-92.25
11
16.725
21
-80.45
0
ARC
8
BLACK
10
16.225
20
-80.45
40
0.500001
50
0.000114591
51
89.9999
0
LINE
8
BLACK
6
CONTINUOUS
10
16.225
20
-79.95
11
1.725
21
-79.95
0
ARC
8
BLACK
10
1.725
20
-80.45
40
0.500001
50
90.0001
51
180
0
LINE
8
BLACK
6
CONTINUOUS
10
1.225
20
-80.45
11
1.225
21
-92.25
0
ARC
8
BLACK
10
20.625
20
-92.25
40
0.500001
50
-180
51
-90.0001
0
LINE
8
BLACK
6
CONTINUOUS
10
20.625
20
-92.75
11
35.125
21
-92.75
0
ARC
8
BLACK
10
35.125
20
-92.25
40
0.500001
50
-89.9999
51
-0.000114591
0
LINE
8
BLACK
6
CONTINUOUS
10
35.625
20
-92.25
11
35.625
21
-80.45
0
ARC
8
BLACK
10
35.125
20
-80.45
40
0.500001
50
0.000114591
51
89.9999
0
LINE
8
BLACK
6
CONTINUOUS
10
35.125
20
-79.95
11
20.625
21
-79.95
0
ARC
8
BLACK
10
20.625
20
-80.45
40
0.500001
50
90.0001
51
180
0
LINE
8
BLACK
6
CONTINUOUS
10
20.125
20
-80.45
11
20.125
21
-92.25
0
ARC
8
BLACK
10
39.525
20
-92.25
40
0.500001
50
-180
51
-90.0001
0
LINE
8
BLACK
6
CONTINUOUS
10
39.525
20
-92.75
11
54.025
21
-92.75
0
ARC
8
BLACK
10
54.025
20
-92.25
40
0.500001
50
-89.9999
51
-0.000114591
0
LINE
8
BLACK
6
CONTINUOUS
10
54.525
20
-92.25
11
54.525
21
-80.45
0
ARC
8
BLACK
10
54.025
20
-80.45
40
0.500001
50
0.000114591
51
89.9999
0
LINE
8
BLACK
6
CONTINUOUS
10
54.025
20
-79.95
11
39.525
21
-79.95
0
ARC
8
BLACK
10
39.525
20
-80.45
40
0.500001
50
90.0001
51
180
0
LINE
8
BLACK
6
CONTINUOUS
10
39.025
20
-80.45
11
39.025
21
-92.25
0
ARC
8
BLACK
10
58.425
20
-92.25
40
0.500001
50
-180
51
-90.0001
0
LINE
8
BLACK
6
CONTINUOUS
10
58.425
20
-92.75
11
72.925
21
-92.75
0
ARC
8
BLACK
10
72.925
20
-92.25
40
0.500001
50
-89.9999
51
-0.000114591
0
LINE
8
BLACK
6
CONTINUOUS
10
73.425
20
-92.25
11
73.425
21
-80.45
0
ARC
8
BLACK
10
72.925
20
-80.45
40
0.500001
50
0.000114591
51
89.9999
0
LINE
8
BLACK
6
CONTINUOUS
10
72.925
20
-79.95
11
58.425
21
-79.95
0
ARC
8
BLACK
10
58.425
20
-80.45
40
0.500001
50
90.0001
51
180
0
LINE
8
BLACK
6
CONTINUOUS
10
57.925
20
-80.45
11
57.925
21
-92.25
0
ARC
8
BLACK
10
77.325
20
-92.25
40
0.500001
50
-180
51
-90.0001
0
LINE
8
BLACK
6
CONTINUOUS
10
77.325
20
-92.75
11
91.825
21
-92.75
0
ARC
8
BLACK
10
91.825
20
-92.25
40
0.500001
50
-89.9999
51
-0.000114591
0
LINE
8
BLACK
6
CONTINUOUS
10
92.325
20
-92.25
11
92.325
21
-80.45
0
ARC
8
BLACK
10
91.825
20
-80.45
40
0.500001
50
0.000114591
51
89.9999
0
LINE
8
BLACK
6
CONTINUOUS
10
91.825
20
-79.95
11
77.325
21
-79.95
0
ARC
8
BLACK
10
77.325
20
-80.45
40
0.500001
50
90.0001
51
180
0
LINE
8
BLACK
6
CONTINUOUS
10
76.825
20
-80.45
11
76.825
21
-92.25
0
ARC
8
BLACK
10
96.225
20
-92.25
40
0.500001
50
-180
51
-90.0001
0
LINE
8
BLACK
6
CONTINUOUS
10
96.225
20
-92.75
11
110.725
21
-92.75
0
ARC
8
BLACK
10
110.725
20
-92.25
40
0.500001
50
-89.9999
51
-0.000114591
0
LINE
8
BLACK
6
CONTINUOUS
10
111.225
20
-92.25
11
111.225
21
-80.45
0
ARC
8
BLACK
10
110.725
20
-80.45
40
0.500001
50
0.000114591
51
89.9999
0
LINE
8
BLACK
6
CONTINUOUS
10
110.725
20
-79.95
11
96.225
21
-79.95
0
ARC
8
BLACK
10
96.225
20
-80.45
40
0.500001
50
90.0001
51
180
0
LINE
8
BLACK
6
CONTINUOUS
10
95.725
20
-80.45
11
95.725
21
-92.25
0
ARC
8
BLACK
10
115.125
20
-92.25
40
0.500001
50
-180
51
-90.0001
0
LINE
8
BLACK
6
CONTINUOUS
10
115.125
20
-92.75
11
129.625
21
-92.75
0
ARC
8
BLACK
10
129.625
20
-92.25
40
0.500001
50
-89.9999
51
-0.000114591
0
LINE
8
BLACK
6
CONTINUOUS
10
130.125
20
-92.25
11
130.125
21
-80.45
0
ARC
8
BLACK
10
129.625
20
-80.45
40
0.500001
50
0.000114591
51
89.9999
0
LINE
8
BLACK
6
CONTINUOUS
10
129.625
20
-79.95
11
115.125
21
-79.95
0
ARC
8
BLACK
10
115.125
20
-80.45
40
0.500001
50
90.0001
51
180
0
LINE
8
BLACK
6
CONTINUOUS
10
114.625
20
-80.45
11
114.625
21
-92.25
0
ARC
8
BLACK
10
134.025
20
-92.25
40
0.500001
50
-180
51
-90.0001
0
LINE
8
BLACK
6
CONTINUOUS
10
134.025
20
-92.75
11
148.525
21
-92.75
0
ARC
8
BLACK
10
148.525
20
-92.25
40
0.5
50
-90
51
-0
0
LINE
8
BLACK
6
CONTINUOUS
10
149.025
20
-92.25
11
149.025
21
-80.45
0
ARC
8
BLACK
10
148.525
20
-80.45
40
0.5
50
-0
51
90
0
LINE
8
BLACK
6
CONTINUOUS
10
148.525
20
-79.95
11
134.025
21
-79.95
0
ARC
8
BLACK
10
134.025
20
-80.45
40
0.500001
50
90.0001
51
180
0
LINE
8
BLACK
6
CONTINUOUS
10
133.525
20
-80.45
11
133.525
21
-92.25
  0
ENDSEC
  0
EOF
