  0
SECTION
  2
HEADER
  9
$ANGBASE
  50
0.0
  9
$ANGDIR
  70
1
  9
$MEASUREMENT
  70
1
  0
ENDSEC
  0
SECTION
  2
TABLES
  0
TABLE
  2
LTYPE
  70
4
  0
LTYPE
  5
40F
  2
CONTINUOUS
  70
0
  3
Solid line
  72
65
  73
0
  40
0.0
  0
LTYPE
  5
410
  2
DASHDOT
 70
0
  3
Dash Dot ____ _ ____ _
 72
65
 73
4
 40
2.0
 49
1.25
 49
-0.25
 49
0.25
 49
-0.25
  0
LTYPE
  5
411
  2
DASHED
 70
0
  3
Dashed __ __ __ __ __
 72
65
 73
2
 40
0.75
 49
0.5
 49
-0.25
  0
LTYPE
  5
43B
  2
DOTTED
 70
0
  3
Dotted .  .  .  .
 72
65
 73
2
 40
0.2
 49
0.0
 49
-0.2
  0
ENDTAB
  0
TABLE
  2
STYLE
  70
4
  0
STYLE
  2
KICAD
  70
0
  40
0
  41
1
  42
1
  50
0
  71
0
  3
isocp.shx
  0
STYLE
  2
KICADB
  70
0
  40
0
  41
1
  42
1
  50
0
  71
0
  3
isocp.shx
  0
STYLE
  2
KICADI
  70
0
  40
0
  41
1
  42
1
  50
15
  71
0
  3
isocp.shx
  0
STYLE
  2
KICADBI
  70
0
  40
0
  41
1
  42
1
  50
15
  71
0
  3
isocp.shx
  0
ENDTAB
  0
TABLE
  2
LAYER
  70
1
  0
LAYER
  2
BLACK
  70
0
  62
7
  6
CONTINUOUS
  0
ENDTAB
  0
ENDSEC
  0
SECTION
  2
ENTITIES
0
LINE
8
BLACK
6
CONTINUOUS
10
293.45
20
-33.55
11
294.45
21
-34.55
0
LINE
8
BLACK
6
CONTINUOUS
10
294.45
20
-46.55
11
294.45
21
-34.55
0
LINE
8
BLACK
6
CONTINUOUS
10
294.45
20
-46.55
11
293.45
21
-47.55
0
LINE
8
BLACK
6
CONTINUOUS
10
279.85
20
-34.55
11
280.85
21
-33.55
0
LINE
8
BLACK
6
CONTINUOUS
10
279.85
20
-34.55
11
279.85
21
-46.55
0
LINE
8
BLACK
6
CONTINUOUS
10
280.85
20
-47.55
11
279.85
21
-46.55
0
LINE
8
BLACK
6
CONTINUOUS
10
293.45
20
-33.55
11
280.85
21
-33.55
0
LINE
8
BLACK
6
CONTINUOUS
10
280.85
20
-47.55
11
293.45
21
-47.55
0
LINE
8
BLACK
6
CONTINUOUS
10
274.55
20
-33.55
11
275.55
21
-34.55
0
LINE
8
BLACK
6
CONTINUOUS
10
275.55
20
-46.55
11
275.55
21
-34.55
0
LINE
8
BLACK
6
CONTINUOUS
10
275.55
20
-46.55
11
274.55
21
-47.55
0
LINE
8
BLACK
6
CONTINUOUS
10
260.95
20
-34.55
11
261.95
21
-33.55
0
LINE
8
BLACK
6
CONTINUOUS
10
260.95
20
-34.55
11
260.95
21
-46.55
0
LINE
8
BLACK
6
CONTINUOUS
10
261.95
20
-47.55
11
260.95
21
-46.55
0
LINE
8
BLACK
6
CONTINUOUS
10
274.55
20
-33.55
11
261.95
21
-33.55
0
LINE
8
BLACK
6
CONTINUOUS
10
261.95
20
-47.55
11
274.55
21
-47.55
0
LINE
8
BLACK
6
CONTINUOUS
10
293.45
20
-9.925
11
280.85
21
-9.925
0
LINE
8
BLACK
6
CONTINUOUS
10
129.075
20
-103.25
11
129.075
21
-91.25
0
CIRCLE
8
BLACK
10
320.225
20
-40.55
40
0.8
0
LINE
8
BLACK
6
CONTINUOUS
10
101.3
20
-66.45
11
113.9
21
-66.45
0
LINE
8
BLACK
6
CONTINUOUS
10
354.875
20
-33.55
11
342.275
21
-33.55
0
CIRCLE
8
BLACK
10
117.05
20
-59.45
40
0.8
0
LINE
8
BLACK
6
CONTINUOUS
10
303.475
20
-34.55
11
303.475
21
-46.55
0
ARC
8
BLACK
10
350.313
20
-129.2
40
3.5
50
67.2012
51
89.9994
0
CIRCLE
8
BLACK
10
248.525
20
-116.15
40
0.8
0
LINE
8
BLACK
6
CONTINUOUS
10
28.85
20
-33.55
11
29.85
21
-34.55
0
CIRCLE
8
BLACK
10
296.6
20
-116.15
40
0.8
0
LINE
8
BLACK
6
CONTINUOUS
10
335.975
20
-52.45
11
323.375
21
-52.45
0
ARC
8
BLACK
10
304.275
20
-85.95
40
0.5
50
-180
51
-90
0
CIRCLE
8
BLACK
10
345.267
20
-97.25
40
0.8
0
ARC
8
BLACK
10
125.369
20
-4.775
40
2.9
50
-1.97572e-05
51
90
0
CIRCLE
8
BLACK
10
339.125
20
-59.45
40
0.8
0
LINE
8
BLACK
6
CONTINUOUS
10
342.275
20
-66.45
11
354.875
21
-66.45
0
CIRCLE
8
BLACK
10
320.225
20
-116.15
40
0.8
0
LINE
8
BLACK
6
CONTINUOUS
10
232.025
20
-71.35
11
219.425
21
-71.35
0
CIRCLE
8
BLACK
10
211.55
20
-59.45
40
0.8
0
CIRCLE
8
BLACK
10
339.125
20
-16.925
40
0.8
0
CIRCLE
8
BLACK
10
339.125
20
-116.15
40
0.8
0
LINE
8
BLACK
6
CONTINUOUS
10
318.075
20
-22.925
11
318.075
21
-10.925
0
LINE
8
BLACK
6
CONTINUOUS
10
318.075
20
-122.15
11
318.075
21
-110.15
0
ARC
8
BLACK
10
346.837
20
-129.2
40
3.50001
50
90.0006
51
112.799
0
LINE
8
BLACK
6
CONTINUOUS
10
199.525
20
-10.925
11
200.525
21
-9.925
0
LINE
8
BLACK
6
CONTINUOUS
10
248.575
20
-131.2
11
248.475
21
-131.2
0
LINE
8
BLACK
6
CONTINUOUS
10
64.125
20
-126.2
11
64.125
21
-128.3
0
LINE
8
BLACK
6
CONTINUOUS
10
34.575
20
-65.45
11
34.575
21
-53.45
0
LINE
8
BLACK
6
CONTINUOUS
10
242.925
20
-122.15
11
242.925
21
-110.15
0
CIRCLE
8
BLACK
10
34.3625
20
-4.325
40
1.35
0
CIRCLE
8
BLACK
10
320.225
20
-16.925
40
0.8
0
LINE
8
BLACK
6
CONTINUOUS
10
85.55
20
-33.55
11
72.95
21
-33.55
0
LINE
8
BLACK
6
CONTINUOUS
10
323.175
20
-126.2
11
323.175
21
-128.3
0
LINE
8
BLACK
6
CONTINUOUS
10
222.575
20
-90.25
11
223.575
21
-91.25
0
LINE
8
BLACK
6
CONTINUOUS
10
342.275
20
-47.55
11
341.275
21
-46.55
0
CIRCLE
8
BLACK
10
270.613
20
-59.45
40
0.8
0
LINE
8
BLACK
6
CONTINUOUS
10
57.775
20
-91.25
11
57.775
21
-103.25
0
CIRCLE
8
BLACK
10
39.0875
20
-78.35
40
0.8
0
CIRCLE
8
BLACK
10
164.3
20
-40.55
40
0.8
0
CIRCLE
8
BLACK
10
34.3625
20
-16.925
40
0.8
0
CIRCLE
8
BLACK
10
254.075
20
-78.35
40
0.8
0
LINE
8
BLACK
6
CONTINUOUS
10
233.025
20
-22.925
11
233.025
21
-10.925
0
LINE
8
BLACK
6
CONTINUOUS
10
58.2
20
-65.45
11
58.2
21
-53.45
0
LINE
8
BLACK
6
CONTINUOUS
10
254.612
20
-91.25
11
254.612
21
-102.518
0
CIRCLE
8
BLACK
10
216.275
20
-16.925
40
0.8
0
CIRCLE
8
BLACK
10
317.425
20
-97.25
40
0.8
0
LINE
8
BLACK
6
CONTINUOUS
10
123.35
20
-33.55
11
110.75
21
-33.55
0
CIRCLE
8
BLACK
10
195.012
20
-16.925
40
0.8
0
LINE
8
BLACK
6
CONTINUOUS
10
227.875
20
-91.25
11
228.875
21
-90.25
0
LINE
8
BLACK
6
CONTINUOUS
10
346.837
20
-125.7
11
350.313
21
-125.7
0
LINE
8
BLACK
6
CONTINUOUS
10
138.525
20
-84.35
11
137.525
21
-85.35
0
LINE
8
BLACK
6
CONTINUOUS
10
259.337
20
-72.35
11
259.337
21
-83.6179
0
CIRCLE
8
BLACK
10
159.575
20
-78.35
40
0.8
0
LINE
8
BLACK
6
CONTINUOUS
10
320.275
20
-131.2
11
320.175
21
-131.2
0
LINE
8
BLACK
6
CONTINUOUS
10
138.1
20
-53.45
11
138.1
21
-65.45
0
CIRCLE
8
BLACK
10
248.525
20
-128.75
40
1.35
0
CIRCLE
8
BLACK
10
178.475
20
-116.15
40
0.8
0
LINE
8
BLACK
6
CONTINUOUS
10
218.85
20
-46.55
11
218.85
21
-34.55
0
CIRCLE
8
BLACK
10
131.225
20
-116.15
40
0.8
0
LINE
8
BLACK
6
CONTINUOUS
10
251.5
20
-53.45
11
251.5
21
-65.45
0
LINE
8
BLACK
6
CONTINUOUS
10
303.475
20
-53.45
11
304.475
21
-52.45
0
ARC
8
BLACK
10
14.1
20
-8.475
40
1.6
50
-270
51
-180
0
LINE
8
BLACK
6
CONTINUOUS
10
96.575
20
-23.925
11
109.175
21
-23.925
0
CIRCLE
8
BLACK
10
93.425
20
-97.25
40
0.8
0
LINE
8
BLACK
6
CONTINUOUS
10
291.337
20
-83.6179
11
291.337
21
-72.35
0
CIRCLE
8
BLACK
10
61.175
20
-116.15
40
0.8
0
LINE
8
BLACK
6
CONTINUOUS
10
209.975
20
-104.25
11
208.975
21
-103.25
0
CIRCLE
8
BLACK
10
36.725
20
-116.15
40
0.8
0
CIRCLE
8
BLACK
10
216.275
20
-78.35
40
0.8
0
CIRCLE
8
BLACK
10
65.075
20
-78.35
40
0.8
0
CIRCLE
8
BLACK
10
216.275
20
-4.325
40
1.35
0
LINE
8
BLACK
6
CONTINUOUS
10
171.6
20
-65.45
11
171.6
21
-53.45
0
CIRCLE
8
BLACK
10
39.0875
20
-59.45
40
0.8
0
LINE
8
BLACK
6
CONTINUOUS
10
354.875
20
-109.15
11
355.875
21
-110.15
0
LINE
8
BLACK
6
CONTINUOUS
10
303.475
20
-110.15
11
304.475
21
-109.15
0
LINE
8
BLACK
6
CONTINUOUS
10
251.475
20
-126.2
11
251.475
21
-128.3
0
LINE
8
BLACK
6
CONTINUOUS
10
336.975
20
-46.55
11
336.975
21
-34.55
0
CIRCLE
8
BLACK
10
17.825
20
-59.45
40
0.8
0
LINE
8
BLACK
6
CONTINUOUS
10
256.225
20
-10.925
11
257.225
21
-9.925
0
LINE
8
BLACK
6
CONTINUOUS
10
146.975
20
-90.25
11
134.375
21
-90.25
0
LINE
8
BLACK
6
CONTINUOUS
10
152.7
20
-22.925
11
151.7
21
-23.925
0
LINE
8
BLACK
6
CONTINUOUS
10
304.475
20
-66.45
11
317.075
21
-66.45
0
ARC
8
BLACK
10
25.5374
20
-129.2
40
3.5
50
90
51
112.798
0
CIRCLE
8
BLACK
10
32
20
-40.55
40
0.8
0
ARC
8
BLACK
10
31.4926
20
-123.3
40
2.90002
50
-112.798
51
-90.0001
0
ARC
8
BLACK
10
344.357
20
-123.3
40
2.90002
50
-89.9991
51
-67.201
0
CIRCLE
8
BLACK
10
17.825
20
-116.15
40
0.8
0
LINE
8
BLACK
6
CONTINUOUS
10
90.275
20
-90.25
11
77.675
21
-90.25
0
CIRCLE
8
BLACK
10
206.825
20
-97.25
40
0.8
0
LINE
8
BLACK
6
CONTINUOUS
10
265.595
20
-121.45
11
265.595
21
-110.85
0
CIRCLE
8
BLACK
10
74.525
20
-16.925
40
0.8
0
LINE
8
BLACK
6
CONTINUOUS
10
66.65
20
-33.55
11
54.05
21
-33.55
0
ARC
8
BLACK
10
248.575
20
-128.3
40
2.9
50
-90
51
-0
0
LINE
8
BLACK
6
CONTINUOUS
10
123.925
20
-72.35
11
123.925
21
-84.35
0
ARC
8
BLACK
10
26.7676
20
-9.77502
40
2.90002
50
90.0001
51
112.798
0
ARC
8
BLACK
10
248.475
20
-128.3
40
2.9
50
-180
51
-90
0
LINE
8
BLACK
6
CONTINUOUS
10
355.875
20
-22.925
11
354.875
21
-23.925
0
LINE
8
BLACK
6
CONTINUOUS
10
322.375
20
-110.15
11
322.375
21
-122.15
0
CIRCLE
8
BLACK
10
348.575
20
-28.7375
40
0.8
0
LINE
8
BLACK
6
CONTINUOUS
10
251.925
20
-84.35
11
251.925
21
-72.35
0
LINE
8
BLACK
6
CONTINUOUS
10
213.325
20
-6.875
11
213.325
21
-4.775
0
LINE
8
BLACK
6
CONTINUOUS
10
208.975
20
-91.25
11
208.975
21
-103.25
0
CIRCLE
8
BLACK
10
88.7
20
-40.55
40
0.8
0
LINE
8
BLACK
6
CONTINUOUS
10
276.125
20
-123.15
11
275.125
21
-122.15
0
ARC
8
BLACK
10
304.275
20
-70.75
40
0.5
50
90
51
180
0
CIRCLE
8
BLACK
10
239.9
20
-40.55
40
0.8
0
LINE
8
BLACK
6
CONTINUOUS
10
335.975
20
-9.925
11
323.375
21
-9.925
0
LINE
8
BLACK
6
CONTINUOUS
10
317.275
20
-126.2
11
251.475
21
-126.2
0
LINE
8
BLACK
6
CONTINUOUS
10
109.175
20
-9.925
11
96.575
21
-9.925
0
LINE
8
BLACK
6
CONTINUOUS
10
47.363
20
-104.25
11
50.363
21
-102.518
0
LINE
8
BLACK
6
CONTINUOUS
10
317.075
20
-33.55
11
318.075
21
-34.55
0
LINE
8
BLACK
6
CONTINUOUS
10
132.8
20
-9.925
11
120.2
21
-9.925
0
LINE
8
BLACK
6
CONTINUOUS
10
213.7
20
-53.45
11
213.7
21
-65.45
0
CIRCLE
8
BLACK
10
202.1
20
-40.55
40
0.8
0
LINE
8
BLACK
6
CONTINUOUS
10
58.775
20
-23.925
11
71.375
21
-23.925
0
LINE
8
BLACK
6
CONTINUOUS
10
181.05
20
-46.55
11
180.05
21
-47.55
0
LINE
8
BLACK
6
CONTINUOUS
10
355.875
20
-22.925
11
355.875
21
-10.925
0
LINE
8
BLACK
6
CONTINUOUS
10
317.275
20
-128.3
11
317.275
21
-126.2
0
ARC
8
BLACK
10
320.275
20
-128.3
40
2.9
50
-90
51
-0
0
LINE
8
BLACK
6
CONTINUOUS
10
275.125
20
-53.45
11
275.125
21
-65.45
0
LINE
8
BLACK
6
CONTINUOUS
10
256.225
20
-10.925
11
256.225
21
-22.925
0
LINE
8
BLACK
6
CONTINUOUS
10
270.825
20
-22.925
11
270.825
21
-10.925
0
CIRCLE
8
BLACK
10
244.625
20
-97.25
40
0.8
0
LINE
8
BLACK
6
CONTINUOUS
10
255.65
20
-33.55
11
256.65
21
-34.55
0
LINE
8
BLACK
6
CONTINUOUS
10
34.575
20
-122.15
11
33.575
21
-123.15
0
LINE
8
BLACK
6
CONTINUOUS
10
336.975
20
-103.25
11
336.975
21
-91.25
0
CIRCLE
8
BLACK
10
61.175
20
-128.75
40
1.35
0
LINE
8
BLACK
6
CONTINUOUS
10
45.105
20
-122.45
11
56.245
21
-122.45
0
CIRCLE
8
BLACK
10
131.225
20
-97.25
40
0.8
0
LINE
8
BLACK
6
CONTINUOUS
10
34.575
20
-122.15
11
34.575
21
-110.15
0
CIRCLE
8
BLACK
10
55.625
20
-97.25
40
0.8
0
LINE
8
BLACK
6
CONTINUOUS
10
82.4
20
-66.45
11
95
21
-66.45
0
LINE
8
BLACK
6
CONTINUOUS
10
47.75
20
-33.55
11
35.15
21
-33.55
0
CIRCLE
8
BLACK
10
187.925
20
-97.25
40
0.8
0
LINE
8
BLACK
6
CONTINUOUS
10
245.575
20
-126.2
11
64.125
21
-126.2
0
LINE
8
BLACK
6
CONTINUOUS
10
91.275
20
-22.925
11
91.275
21
-10.925
0
CIRCLE
8
BLACK
10
125.319
20
-4.325
40
1.35
0
LINE
8
BLACK
6
CONTINUOUS
10
323.375
20
-23.925
11
335.975
21
-23.925
0
LINE
8
BLACK
6
CONTINUOUS
10
242.475
20
-103.25
11
241.475
21
-104.25
0
LINE
8
BLACK
6
CONTINUOUS
10
35.15
20
-47.55
11
47.75
21
-47.55
0
CIRCLE
8
BLACK
10
320.225
20
-128.75
40
1.35
0
CIRCLE
8
BLACK
10
339.125
20
-4.325
40
1.35
0
LINE
8
BLACK
6
CONTINUOUS
10
344.357
20
-126.2
11
323.175
21
-126.2
0
LINE
8
BLACK
6
CONTINUOUS
10
133.8
20
-22.925
11
132.8
21
-23.925
0
LINE
8
BLACK
6
CONTINUOUS
10
96
20
-65.45
11
96
21
-53.45
0
ARC
8
BLACK
10
320.175
20
-128.3
40
2.9
50
-180
51
-90
0
LINE
8
BLACK
6
CONTINUOUS
10
245.575
20
-128.3
11
245.575
21
-126.2
0
LINE
8
BLACK
6
CONTINUOUS
10
205.25
20
-47.55
11
204.25
21
-46.55
0
ARC
8
BLACK
10
352.793
20
-123.3
40
2.9
50
-112.799
51
-90.0009
0
LINE
8
BLACK
6
CONTINUOUS
10
105.025
20
-72.35
11
106.025
21
-71.35
0
LINE
8
BLACK
6
CONTINUOUS
10
357.025
20
-126.2
11
352.793
21
-126.2
0
LINE
8
BLACK
6
CONTINUOUS
10
269.825
20
-9.925
11
270.825
21
-10.925
0
ARC
8
BLACK
10
357.025
20
-124.6
40
1.6
50
-90
51
-0
0
LINE
8
BLACK
6
CONTINUOUS
10
57.775
20
-10.925
11
58.775
21
-9.925
0
LINE
8
BLACK
6
CONTINUOUS
10
29.85
20
-46.55
11
29.85
21
-34.55
0
LINE
8
BLACK
6
CONTINUOUS
10
259.337
20
-83.6179
11
262.337
21
-85.35
0
LINE
8
BLACK
6
CONTINUOUS
10
20.975
20
-123.15
11
33.575
21
-123.15
0
LINE
8
BLACK
6
CONTINUOUS
10
358.625
20
-8.475
11
358.625
21
-124.6
0
ARC
8
BLACK
10
357.025
20
-8.475
40
1.6
50
-0
51
90
0
LINE
8
BLACK
6
CONTINUOUS
10
352.793
20
-6.875
11
357.025
21
-6.875
0
LINE
8
BLACK
6
CONTINUOUS
10
217.85
20
-33.55
11
205.25
21
-33.55
0
LINE
8
BLACK
6
CONTINUOUS
10
275.125
20
-110.15
11
276.125
21
-109.15
0
ARC
8
BLACK
10
352.793
20
-9.775
40
2.90002
50
90.0009
51
112.799
0
ARC
8
BLACK
10
350.313
20
-3.875
40
3.50001
50
-89.9994
51
-67.2012
0
LINE
8
BLACK
6
CONTINUOUS
10
138.1
20
-53.45
11
139.1
21
-52.45
0
LINE
8
BLACK
6
CONTINUOUS
10
279.85
20
-10.925
11
279.85
21
-22.925
0
LINE
8
BLACK
6
CONTINUOUS
10
350.313
20
-7.375
11
346.837
21
-7.375
0
LINE
8
BLACK
6
CONTINUOUS
10
335.975
20
-109.15
11
336.975
21
-110.15
0
LINE
8
BLACK
6
CONTINUOUS
10
109.75
20
-34.55
11
110.75
21
-33.55
0
ARC
8
BLACK
10
346.837
20
-3.875
40
3.5
50
-112.799
51
-90.0006
0
LINE
8
BLACK
6
CONTINUOUS
10
20.975
20
-123.15
11
19.975
21
-122.15
0
LINE
8
BLACK
6
CONTINUOUS
10
336.975
20
-46.55
11
335.975
21
-47.55
0
ARC
8
BLACK
10
344.357
20
-9.775
40
2.9
50
67.201
51
89.9991
0
LINE
8
BLACK
6
CONTINUOUS
10
205.25
20
-47.55
11
217.85
21
-47.55
0
LINE
8
BLACK
6
CONTINUOUS
10
342.075
20
-6.875
11
344.357
21
-6.875
0
LINE
8
BLACK
6
CONTINUOUS
10
323.375
20
-66.45
11
335.975
21
-66.45
0
LINE
8
BLACK
6
CONTINUOUS
10
341.275
20
-110.15
11
342.275
21
-109.15
0
LINE
8
BLACK
6
CONTINUOUS
10
52.475
20
-9.925
11
53.475
21
-10.925
0
LINE
8
BLACK
6
CONTINUOUS
10
114.475
20
-91.25
11
115.475
21
-90.25
0
LINE
8
BLACK
6
CONTINUOUS
10
342.075
20
-4.775
11
342.075
21
-6.875
0
LINE
8
BLACK
6
CONTINUOUS
10
81.825
20
-84.35
11
81.825
21
-72.35
0
LINE
8
BLACK
6
CONTINUOUS
10
186.35
20
-47.55
11
198.95
21
-47.55
0
LINE
8
BLACK
6
CONTINUOUS
10
304.475
20
-123.15
11
317.075
21
-123.15
0
ARC
8
BLACK
10
339.175
20
-4.775
40
2.9
50
-0
51
90
0
LINE
8
BLACK
6
CONTINUOUS
10
339.075
20
-1.875
11
339.175
21
-1.875
0
ARC
8
BLACK
10
339.075
20
-4.775
40
2.9
50
90
51
180
0
LINE
8
BLACK
6
CONTINUOUS
10
138.1
20
-10.925
11
138.1
21
-22.925
0
LINE
8
BLACK
6
CONTINUOUS
10
148.55
20
-47.55
11
147.55
21
-46.55
0
LINE
8
BLACK
6
CONTINUOUS
10
336.175
20
-6.875
11
336.175
21
-4.775
0
LINE
8
BLACK
6
CONTINUOUS
10
80.825
20
-71.35
11
81.825
21
-72.35
0
LINE
8
BLACK
6
CONTINUOUS
10
219.225
20
-6.875
11
336.175
21
-6.875
0
LINE
8
BLACK
6
CONTINUOUS
10
342.275
20
-23.925
11
354.875
21
-23.925
0
LINE
8
BLACK
6
CONTINUOUS
10
219.225
20
-4.775
11
219.225
21
-6.875
0
ARC
8
BLACK
10
216.325
20
-4.775
40
2.9
50
-0
51
90
0
LINE
8
BLACK
6
CONTINUOUS
10
147.55
20
-110.15
11
148.55
21
-109.15
0
LINE
8
BLACK
6
CONTINUOUS
10
216.225
20
-1.875
11
216.325
21
-1.875
0
LINE
8
BLACK
6
CONTINUOUS
10
157
20
-53.45
11
157
21
-65.45
0
ARC
8
BLACK
10
216.225
20
-4.775
40
2.9
50
90
51
180
0
LINE
8
BLACK
6
CONTINUOUS
10
119.2
20
-10.925
11
120.2
21
-9.925
0
LINE
8
BLACK
6
CONTINUOUS
10
199.525
20
-10.925
11
199.525
21
-22.925
0
LINE
8
BLACK
6
CONTINUOUS
10
128.269
20
-6.875
11
213.325
21
-6.875
0
LINE
8
BLACK
6
CONTINUOUS
10
165.875
20
-90.25
11
166.875
21
-91.25
0
LINE
8
BLACK
6
CONTINUOUS
10
128.269
20
-4.775
11
128.269
21
-6.875
0
LINE
8
BLACK
6
CONTINUOUS
10
113.9
20
-52.45
11
114.9
21
-53.45
0
LINE
8
BLACK
6
CONTINUOUS
10
342.275
20
-47.55
11
354.875
21
-47.55
0
LINE
8
BLACK
6
CONTINUOUS
10
125.269
20
-1.875
11
125.369
21
-1.875
0
ARC
8
BLACK
10
125.269
20
-4.775
40
2.9
50
-270
51
-180
0
LINE
8
BLACK
6
CONTINUOUS
10
122.369
20
-6.875
11
122.369
21
-4.775
0
LINE
8
BLACK
6
CONTINUOUS
10
109.75
20
-34.55
11
109.75
21
-46.55
0
LINE
8
BLACK
6
CONTINUOUS
10
37.3125
20
-6.875
11
122.369
21
-6.875
0
LINE
8
BLACK
6
CONTINUOUS
10
254.612
20
-91.25
11
255.612
21
-90.25
0
LINE
8
BLACK
6
CONTINUOUS
10
37.3125
20
-4.775
11
37.3125
21
-6.875
0
LINE
8
BLACK
6
CONTINUOUS
10
317.075
20
-9.925
11
304.475
21
-9.925
0
ARC
8
BLACK
10
34.4125
20
-4.775
40
2.9
50
-1.97572e-05
51
90
0
LINE
8
BLACK
6
CONTINUOUS
10
29.85
20
-22.925
11
28.85
21
-23.925
0
LINE
8
BLACK
6
CONTINUOUS
10
34.3125
20
-1.875
11
34.4125
21
-1.875
0
ARC
8
BLACK
10
34.3125
20
-4.775
40
2.9
50
-270
51
-180
0
LINE
8
BLACK
6
CONTINUOUS
10
91.85
20
-47.55
11
104.45
21
-47.55
0
LINE
8
BLACK
6
CONTINUOUS
10
233.025
20
-84.35
11
232.025
21
-85.35
0
LINE
8
BLACK
6
CONTINUOUS
10
31.4125
20
-6.875
11
31.4125
21
-4.775
0
LINE
8
BLACK
6
CONTINUOUS
10
26.7676
20
-6.875
11
31.4125
21
-6.875
0
LINE
8
BLACK
6
CONTINUOUS
10
257.225
20
-23.925
11
269.825
21
-23.925
0
ARC
8
BLACK
10
24.2876
20
-3.875
40
3.5
50
-90
51
-67.2018
0
LINE
8
BLACK
6
CONTINUOUS
10
189.5
20
-9.925
11
176.9
21
-9.925
0
LINE
8
BLACK
6
CONTINUOUS
10
335.975
20
-90.25
11
323.375
21
-90.25
0
LINE
8
BLACK
6
CONTINUOUS
10
24.2876
20
-7.375
11
20.8124
21
-7.375
0
LINE
8
BLACK
6
CONTINUOUS
10
166.875
20
-103.25
11
166.875
21
-91.25
0
LINE
8
BLACK
6
CONTINUOUS
10
95.575
20
-10.925
11
95.575
21
-22.925
0
ARC
8
BLACK
10
20.8124
20
-3.875
40
3.5
50
-112.798
51
-90
0
LINE
8
BLACK
6
CONTINUOUS
10
104.5
20
-109.7
11
104.5
21
-122.6
0
LINE
8
BLACK
6
CONTINUOUS
10
29.85
20
-46.55
11
28.85
21
-47.55
0
LINE
8
BLACK
6
CONTINUOUS
10
161.15
20
-33.55
11
148.55
21
-33.55
0
LINE
8
BLACK
6
CONTINUOUS
10
238.325
20
-85.35
11
237.325
21
-84.35
0
ARC
8
BLACK
10
18.3324
20
-9.77502
40
2.90002
50
67.2019
51
89.9999
0
LINE
8
BLACK
6
CONTINUOUS
10
35.15
20
-47.55
11
34.15
21
-46.55
0
LINE
8
BLACK
6
CONTINUOUS
10
77.675
20
-23.925
11
76.675
21
-22.925
0
LINE
8
BLACK
6
CONTINUOUS
10
86.125
20
-72.35
11
87.125
21
-71.35
0
LINE
8
BLACK
6
CONTINUOUS
10
262.337
20
-85.35
11
288.337
21
-85.35
0
LINE
8
BLACK
6
CONTINUOUS
10
14.1
20
-6.875
11
18.3324
21
-6.875
0
LINE
8
BLACK
6
CONTINUOUS
10
33.575
20
-109.15
11
20.975
21
-109.15
0
LINE
8
BLACK
6
CONTINUOUS
10
12.5
20
-124.6
11
12.5
21
-8.475
0
ARC
8
BLACK
10
14.1
20
-124.6
40
1.6
50
-180
51
-90
0
LINE
8
BLACK
6
CONTINUOUS
10
20.975
20
-66.45
11
33.575
21
-66.45
0
LINE
8
BLACK
6
CONTINUOUS
10
120.2
20
-23.925
11
119.2
21
-22.925
0
LINE
8
BLACK
6
CONTINUOUS
10
23.0574
20
-126.2
11
14.1
21
-126.2
0
LINE
8
BLACK
6
CONTINUOUS
10
180.625
20
-72.35
11
181.625
21
-71.35
0
ARC
8
BLACK
10
23.0574
20
-123.3
40
2.90002
50
-89.9999
51
-67.2019
0
LINE
8
BLACK
6
CONTINUOUS
10
170.6
20
-52.45
11
158
21
-52.45
0
LINE
8
BLACK
6
CONTINUOUS
10
190.5
20
-65.45
11
189.5
21
-66.45
0
LINE
8
BLACK
6
CONTINUOUS
10
33.575
20
-52.45
11
34.575
21
-53.45
0
LINE
8
BLACK
6
CONTINUOUS
10
25.5374
20
-125.7
11
29.0126
21
-125.7
0
ARC
8
BLACK
10
29.0126
20
-129.2
40
3.5
50
67.2018
51
90
0
LINE
8
BLACK
6
CONTINUOUS
10
151.7
20
-52.45
11
152.7
21
-53.45
0
LINE
8
BLACK
6
CONTINUOUS
10
242.925
20
-122.15
11
241.925
21
-123.15
0
LINE
8
BLACK
6
CONTINUOUS
10
58.225
20
-126.2
11
31.4926
21
-126.2
0
LINE
8
BLACK
6
CONTINUOUS
10
58.225
20
-128.3
11
58.225
21
-126.2
0
LINE
8
BLACK
6
CONTINUOUS
10
16.25
20
-47.55
11
15.25
21
-46.55
0
LINE
8
BLACK
6
CONTINUOUS
10
323.375
20
-66.45
11
322.375
21
-65.45
0
ARC
8
BLACK
10
61.125
20
-128.3
40
2.9
50
-180
51
-90
0
LINE
8
BLACK
6
CONTINUOUS
10
252.5
20
-66.45
11
265.1
21
-66.45
0
LINE
8
BLACK
6
CONTINUOUS
10
61.225
20
-131.2
11
61.125
21
-131.2
0
LINE
8
BLACK
6
CONTINUOUS
10
241.925
20
-109.15
11
242.925
21
-110.15
0
ARC
8
BLACK
10
61.225
20
-128.3
40
2.9
50
-90
51
1.97572e-05
0
LINE
8
BLACK
6
CONTINUOUS
10
276.125
20
-66.45
11
288.725
21
-66.45
0
LINE
8
BLACK
6
CONTINUOUS
10
355.875
20
-65.45
11
354.875
21
-66.45
0
ARC
8
BLACK
10
355.075
20
-70.75
40
0.5
50
-0
51
90
0
LINE
8
BLACK
6
CONTINUOUS
10
355.575
20
-70.75
11
355.575
21
-85.95
0
LINE
8
BLACK
6
CONTINUOUS
10
322.375
20
-91.25
11
322.375
21
-103.25
0
LINE
8
BLACK
6
CONTINUOUS
10
342.275
20
-123.15
11
341.275
21
-122.15
0
ARC
8
BLACK
10
355.075
20
-85.95
40
0.5
50
-90
51
-0
0
LINE
8
BLACK
6
CONTINUOUS
10
323.375
20
-23.925
11
322.375
21
-22.925
0
LINE
8
BLACK
6
CONTINUOUS
10
171.6
20
-22.925
11
170.6
21
-23.925
0
LINE
8
BLACK
6
CONTINUOUS
10
304.275
20
-86.45
11
355.075
21
-86.45
0
LINE
8
BLACK
6
CONTINUOUS
10
151.7
20
-9.925
11
139.1
21
-9.925
0
LINE
8
BLACK
6
CONTINUOUS
10
290.337
20
-71.35
11
291.337
21
-72.35
0
LINE
8
BLACK
6
CONTINUOUS
10
303.775
20
-70.75
11
303.775
21
-85.95
0
LINE
8
BLACK
6
CONTINUOUS
10
323.375
20
-123.15
11
322.375
21
-122.15
0
LINE
8
BLACK
6
CONTINUOUS
10
304.275
20
-70.25
11
355.075
21
-70.25
0
LINE
8
BLACK
6
CONTINUOUS
10
176.9
20
-23.925
11
175.9
21
-22.925
0
LINE
8
BLACK
6
CONTINUOUS
10
28.85
20
-9.925
11
29.85
21
-10.925
0
LINE
8
BLACK
6
CONTINUOUS
10
16.25
20
-23.925
11
28.85
21
-23.925
0
LINE
8
BLACK
6
CONTINUOUS
10
214.7
20
-66.45
11
227.3
21
-66.45
0
LINE
8
BLACK
6
CONTINUOUS
10
16.25
20
-23.925
11
15.25
21
-22.925
0
LINE
8
BLACK
6
CONTINUOUS
10
35.9375
20
-71.35
11
36.9375
21
-72.35
0
LINE
8
BLACK
6
CONTINUOUS
10
289.725
20
-122.15
11
288.725
21
-123.15
0
LINE
8
BLACK
6
CONTINUOUS
10
15.25
20
-10.925
11
15.25
21
-22.925
0
LINE
8
BLACK
6
CONTINUOUS
10
15.25
20
-10.925
11
16.25
21
-9.925
0
LINE
8
BLACK
6
CONTINUOUS
10
28.85
20
-33.55
11
16.25
21
-33.55
0
LINE
8
BLACK
6
CONTINUOUS
10
28.85
20
-9.925
11
16.25
21
-9.925
0
LINE
8
BLACK
6
CONTINUOUS
10
29.85
20
-22.925
11
29.85
21
-10.925
0
LINE
8
BLACK
6
CONTINUOUS
10
90.275
20
-9.925
11
77.675
21
-9.925
0
LINE
8
BLACK
6
CONTINUOUS
10
162.15
20
-46.55
11
162.15
21
-34.55
0
LINE
8
BLACK
6
CONTINUOUS
10
15.25
20
-34.55
11
15.25
21
-46.55
0
LINE
8
BLACK
6
CONTINUOUS
10
318.075
20
-65.45
11
317.075
21
-66.45
0
LINE
8
BLACK
6
CONTINUOUS
10
303.475
20
-34.55
11
304.475
21
-33.55
0
LINE
8
BLACK
6
CONTINUOUS
10
175.9
20
-10.925
11
175.9
21
-22.925
0
LINE
8
BLACK
6
CONTINUOUS
10
81.4
20
-53.45
11
82.4
21
-52.45
0
LINE
8
BLACK
6
CONTINUOUS
10
317.075
20
-33.55
11
304.475
21
-33.55
0
LINE
8
BLACK
6
CONTINUOUS
10
76.675
20
-10.925
11
77.675
21
-9.925
0
LINE
8
BLACK
6
CONTINUOUS
10
336.975
20
-103.25
11
335.975
21
-104.25
0
LINE
8
BLACK
6
CONTINUOUS
10
335.975
20
-109.15
11
323.375
21
-109.15
0
LINE
8
BLACK
6
CONTINUOUS
10
318.075
20
-46.55
11
318.075
21
-34.55
0
LINE
8
BLACK
6
CONTINUOUS
10
161.725
20
-72.35
11
161.725
21
-84.35
0
LINE
8
BLACK
6
CONTINUOUS
10
335.975
20
-52.45
11
336.975
21
-53.45
0
LINE
8
BLACK
6
CONTINUOUS
10
318.075
20
-46.55
11
317.075
21
-47.55
0
LINE
8
BLACK
6
CONTINUOUS
10
151.7
20
-9.925
11
152.7
21
-10.925
0
LINE
8
BLACK
6
CONTINUOUS
10
304.475
20
-47.55
11
317.075
21
-47.55
0
LINE
8
BLACK
6
CONTINUOUS
10
304.475
20
-47.55
11
303.475
21
-46.55
0
LINE
8
BLACK
6
CONTINUOUS
10
189.5
20
-52.45
11
190.5
21
-53.45
0
LINE
8
BLACK
6
CONTINUOUS
10
341.275
20
-34.55
11
341.275
21
-46.55
0
LINE
8
BLACK
6
CONTINUOUS
10
341.275
20
-34.55
11
342.275
21
-33.55
0
LINE
8
BLACK
6
CONTINUOUS
10
180.625
20
-72.35
11
180.625
21
-84.35
0
LINE
8
BLACK
6
CONTINUOUS
10
354.875
20
-33.55
11
355.875
21
-34.55
0
LINE
8
BLACK
6
CONTINUOUS
10
257.613
20
-104.25
11
283.613
21
-104.25
0
LINE
8
BLACK
6
CONTINUOUS
10
355.875
20
-46.55
11
355.875
21
-34.55
0
LINE
8
BLACK
6
CONTINUOUS
10
355.875
20
-46.55
11
354.875
21
-47.55
0
LINE
8
BLACK
6
CONTINUOUS
10
341.275
20
-10.925
11
342.275
21
-9.925
0
LINE
8
BLACK
6
CONTINUOUS
10
322.375
20
-53.45
11
322.375
21
-65.45
0
LINE
8
BLACK
6
CONTINUOUS
10
180.05
20
-33.55
11
181.05
21
-34.55
0
LINE
8
BLACK
6
CONTINUOUS
10
322.375
20
-53.45
11
323.375
21
-52.45
0
LINE
8
BLACK
6
CONTINUOUS
10
354.875
20
-9.925
11
342.275
21
-9.925
0
LINE
8
BLACK
6
CONTINUOUS
10
217.85
20
-33.55
11
218.85
21
-34.55
0
LINE
8
BLACK
6
CONTINUOUS
10
336.975
20
-65.45
11
336.975
21
-53.45
0
LINE
8
BLACK
6
CONTINUOUS
10
304.475
20
-23.925
11
317.075
21
-23.925
0
LINE
8
BLACK
6
CONTINUOUS
10
336.975
20
-65.45
11
335.975
21
-66.45
0
LINE
8
BLACK
6
CONTINUOUS
10
303.475
20
-53.45
11
303.475
21
-65.45
0
LINE
8
BLACK
6
CONTINUOUS
10
129.65
20
-47.55
11
142.25
21
-47.55
0
LINE
8
BLACK
6
CONTINUOUS
10
259.337
20
-72.35
11
260.337
21
-71.35
0
LINE
8
BLACK
6
CONTINUOUS
10
49.363
20
-90.25
11
19.363
21
-90.25
0
LINE
8
BLACK
6
CONTINUOUS
10
317.075
20
-52.45
11
304.475
21
-52.45
0
LINE
8
BLACK
6
CONTINUOUS
10
142.25
20
-33.55
11
129.65
21
-33.55
0
LINE
8
BLACK
6
CONTINUOUS
10
317.075
20
-52.45
11
318.075
21
-53.45
0
LINE
8
BLACK
6
CONTINUOUS
10
115.475
20
-104.25
11
114.475
21
-103.25
0
LINE
8
BLACK
6
CONTINUOUS
10
294.45
20
-22.925
11
293.45
21
-23.925
0
LINE
8
BLACK
6
CONTINUOUS
10
214.125
20
-84.35
11
214.125
21
-72.35
0
LINE
8
BLACK
6
CONTINUOUS
10
318.075
20
-65.45
11
318.075
21
-53.45
0
LINE
8
BLACK
6
CONTINUOUS
10
191.075
20
-104.25
11
203.675
21
-104.25
0
LINE
8
BLACK
6
CONTINUOUS
10
288.725
20
-52.45
11
276.125
21
-52.45
0
LINE
8
BLACK
6
CONTINUOUS
10
304.475
20
-66.45
11
303.475
21
-65.45
0
LINE
8
BLACK
6
CONTINUOUS
10
322.375
20
-34.55
11
323.375
21
-33.55
0
LINE
8
BLACK
6
CONTINUOUS
10
303.475
20
-110.15
11
303.475
21
-122.15
0
LINE
8
BLACK
6
CONTINUOUS
10
317.075
20
-109.15
11
304.475
21
-109.15
0
LINE
8
BLACK
6
CONTINUOUS
10
355.875
20
-122.15
11
354.875
21
-123.15
0
LINE
8
BLACK
6
CONTINUOUS
10
317.075
20
-109.15
11
318.075
21
-110.15
0
ARC
8
BLACK
10
91.4
20
-109.7
40
0.500001
50
90.0001
51
180
0
LINE
8
BLACK
6
CONTINUOUS
10
143.25
20
-46.55
11
143.25
21
-34.55
0
LINE
8
BLACK
6
CONTINUOUS
10
318.075
20
-122.15
11
317.075
21
-123.15
0
LINE
8
BLACK
6
CONTINUOUS
10
129.65
20
-47.55
11
128.65
21
-46.55
0
LINE
8
BLACK
6
CONTINUOUS
10
238.325
20
-85.35
11
250.925
21
-85.35
0
LINE
8
BLACK
6
CONTINUOUS
10
241.475
20
-90.25
11
228.875
21
-90.25
0
LINE
8
BLACK
6
CONTINUOUS
10
304.475
20
-123.15
11
303.475
21
-122.15
0
LINE
8
BLACK
6
CONTINUOUS
10
285.613
20
-90.25
11
255.612
21
-90.25
0
LINE
8
BLACK
6
CONTINUOUS
10
322.375
20
-110.15
11
323.375
21
-109.15
0
LINE
8
BLACK
6
CONTINUOUS
10
15.25
20
-34.55
11
16.25
21
-33.55
0
LINE
8
BLACK
6
CONTINUOUS
10
336.975
20
-122.15
11
336.975
21
-110.15
0
LINE
8
BLACK
6
CONTINUOUS
10
237.325
20
-10.925
11
237.325
21
-22.925
0
LINE
8
BLACK
6
CONTINUOUS
10
209.4
20
-65.45
11
209.4
21
-53.45
0
LINE
8
BLACK
6
CONTINUOUS
10
336.975
20
-122.15
11
335.975
21
-123.15
0
LINE
8
BLACK
6
CONTINUOUS
10
323.375
20
-123.15
11
335.975
21
-123.15
0
LINE
8
BLACK
6
CONTINUOUS
10
157.425
20
-84.35
11
156.425
21
-85.35
0
LINE
8
BLACK
6
CONTINUOUS
10
152.7
20
-22.925
11
152.7
21
-10.925
0
LINE
8
BLACK
6
CONTINUOUS
10
342.275
20
-66.45
11
341.275
21
-65.45
0
LINE
8
BLACK
6
CONTINUOUS
10
241.925
20
-109.15
11
229.325
21
-109.15
0
LINE
8
BLACK
6
CONTINUOUS
10
50.363
20
-102.518
11
50.363
21
-91.25
0
LINE
8
BLACK
6
CONTINUOUS
10
158
20
-66.45
11
170.6
21
-66.45
0
LINE
8
BLACK
6
CONTINUOUS
10
229.325
20
-123.15
11
241.925
21
-123.15
0
LINE
8
BLACK
6
CONTINUOUS
10
185.35
20
-34.55
11
186.35
21
-33.55
0
LINE
8
BLACK
6
CONTINUOUS
10
229.325
20
-123.15
11
228.325
21
-122.15
0
LINE
8
BLACK
6
CONTINUOUS
10
250.925
20
-9.925
11
251.925
21
-10.925
0
LINE
8
BLACK
6
CONTINUOUS
10
67.775
20
-123.15
11
66.775
21
-122.15
0
LINE
8
BLACK
6
CONTINUOUS
10
228.325
20
-110.15
11
228.325
21
-122.15
0
LINE
8
BLACK
6
CONTINUOUS
10
204.25
20
-34.55
11
204.25
21
-46.55
0
LINE
8
BLACK
6
CONTINUOUS
10
100.3
20
-53.45
11
101.3
21
-52.45
0
LINE
8
BLACK
6
CONTINUOUS
10
228.325
20
-110.15
11
229.325
21
-109.15
0
LINE
8
BLACK
6
CONTINUOUS
10
219.425
20
-85.35
11
232.025
21
-85.35
0
LINE
8
BLACK
6
CONTINUOUS
10
47.75
20
-33.55
11
48.75
21
-34.55
0
LINE
8
BLACK
6
CONTINUOUS
10
341.275
20
-53.45
11
341.275
21
-65.45
0
LINE
8
BLACK
6
CONTINUOUS
10
323.375
20
-47.55
11
322.375
21
-46.55
0
LINE
8
BLACK
6
CONTINUOUS
10
341.275
20
-53.45
11
342.275
21
-52.45
0
LINE
8
BLACK
6
CONTINUOUS
10
354.875
20
-52.45
11
342.275
21
-52.45
0
LINE
8
BLACK
6
CONTINUOUS
10
204.675
20
-103.25
11
203.675
21
-104.25
0
LINE
8
BLACK
6
CONTINUOUS
10
288.725
20
-109.15
11
276.125
21
-109.15
0
LINE
8
BLACK
6
CONTINUOUS
10
354.875
20
-52.45
11
355.875
21
-53.45
0
LINE
8
BLACK
6
CONTINUOUS
10
355.875
20
-65.45
11
355.875
21
-53.45
0
LINE
8
BLACK
6
CONTINUOUS
10
190.075
20
-91.25
11
191.075
21
-90.25
0
LINE
8
BLACK
6
CONTINUOUS
10
238.325
20
-23.925
11
250.925
21
-23.925
0
LINE
8
BLACK
6
CONTINUOUS
10
254.612
20
-102.518
11
257.613
21
-104.25
0
LINE
8
BLACK
6
CONTINUOUS
10
91.85
20
-47.55
11
90.85
21
-46.55
0
LINE
8
BLACK
6
CONTINUOUS
10
194.8
20
-53.45
11
194.8
21
-65.45
0
LINE
8
BLACK
6
CONTINUOUS
10
285.613
20
-90.25
11
286.613
21
-91.25
0
LINE
8
BLACK
6
CONTINUOUS
10
157.425
20
-84.35
11
157.425
21
-72.35
0
LINE
8
BLACK
6
CONTINUOUS
10
335.975
20
-9.925
11
336.975
21
-10.925
0
LINE
8
BLACK
6
CONTINUOUS
10
286.613
20
-102.518
11
286.613
21
-91.25
0
LINE
8
BLACK
6
CONTINUOUS
10
38.875
20
-10.925
11
39.875
21
-9.925
0
LINE
8
BLACK
6
CONTINUOUS
10
85.55
20
-33.55
11
86.55
21
-34.55
0
LINE
8
BLACK
6
CONTINUOUS
10
283.613
20
-104.25
11
286.613
21
-102.518
0
LINE
8
BLACK
6
CONTINUOUS
10
341.275
20
-110.15
11
341.275
21
-122.15
0
LINE
8
BLACK
6
CONTINUOUS
10
252.5
20
-66.45
11
251.5
21
-65.45
0
LINE
8
BLACK
6
CONTINUOUS
10
198.95
20
-33.55
11
186.35
21
-33.55
0
LINE
8
BLACK
6
CONTINUOUS
10
166.45
20
-34.55
11
167.45
21
-33.55
0
LINE
8
BLACK
6
CONTINUOUS
10
251.5
20
-53.45
11
252.5
21
-52.45
0
LINE
8
BLACK
6
CONTINUOUS
10
265.1
20
-52.45
11
252.5
21
-52.45
0
LINE
8
BLACK
6
CONTINUOUS
10
80.825
20
-71.35
11
68.225
21
-71.35
0
LINE
8
BLACK
6
CONTINUOUS
10
265.1
20
-52.45
11
266.1
21
-53.45
0
LINE
8
BLACK
6
CONTINUOUS
10
128.65
20
-34.55
11
129.65
21
-33.55
0
LINE
8
BLACK
6
CONTINUOUS
10
266.1
20
-65.45
11
266.1
21
-53.45
0
LINE
8
BLACK
6
CONTINUOUS
10
266.1
20
-65.45
11
265.1
21
-66.45
0
LINE
8
BLACK
6
CONTINUOUS
10
58.775
20
-104.25
11
71.375
21
-104.25
0
LINE
8
BLACK
6
CONTINUOUS
10
123.35
20
-33.55
11
124.35
21
-34.55
0
LINE
8
BLACK
6
CONTINUOUS
10
237.325
20
-72.35
11
237.325
21
-84.35
0
LINE
8
BLACK
6
CONTINUOUS
10
200.525
20
-85.35
11
213.125
21
-85.35
0
LINE
8
BLACK
6
CONTINUOUS
10
63.5
20
-66.45
11
62.5
21
-65.45
0
LINE
8
BLACK
6
CONTINUOUS
10
237.325
20
-72.35
11
238.325
21
-71.35
0
LINE
8
BLACK
6
CONTINUOUS
10
114.9
20
-65.45
11
113.9
21
-66.45
0
LINE
8
BLACK
6
CONTINUOUS
10
322.375
20
-34.55
11
322.375
21
-46.55
0
LINE
8
BLACK
6
CONTINUOUS
10
250.925
20
-71.35
11
238.325
21
-71.35
0
LINE
8
BLACK
6
CONTINUOUS
10
280.85
20
-23.925
11
293.45
21
-23.925
0
LINE
8
BLACK
6
CONTINUOUS
10
250.925
20
-71.35
11
251.925
21
-72.35
0
LINE
8
BLACK
6
CONTINUOUS
10
198.95
20
-33.55
11
199.95
21
-34.55
0
LINE
8
BLACK
6
CONTINUOUS
10
251.925
20
-84.35
11
250.925
21
-85.35
0
LINE
8
BLACK
6
CONTINUOUS
10
157
20
-53.45
11
158
21
-52.45
0
LINE
8
BLACK
6
CONTINUOUS
10
22.3375
20
-72.35
11
22.3375
21
-84.35
0
LINE
8
BLACK
6
CONTINUOUS
10
241.475
20
-90.25
11
242.475
21
-91.25
0
LINE
8
BLACK
6
CONTINUOUS
10
153.275
20
-104.25
11
152.275
21
-103.25
0
LINE
8
BLACK
6
CONTINUOUS
10
242.475
20
-103.25
11
242.475
21
-91.25
0
LINE
8
BLACK
6
CONTINUOUS
10
22.3375
20
-72.35
11
23.3375
21
-71.35
0
LINE
8
BLACK
6
CONTINUOUS
10
228.875
20
-104.25
11
241.475
21
-104.25
0
LINE
8
BLACK
6
CONTINUOUS
10
354.875
20
-9.925
11
355.875
21
-10.925
0
LINE
8
BLACK
6
CONTINUOUS
10
228.875
20
-104.25
11
227.875
21
-103.25
0
LINE
8
BLACK
6
CONTINUOUS
10
34.15
20
-34.55
11
34.15
21
-46.55
0
LINE
8
BLACK
6
CONTINUOUS
10
227.875
20
-91.25
11
227.875
21
-103.25
0
LINE
8
BLACK
6
CONTINUOUS
10
87.125
20
-85.35
11
86.125
21
-84.35
0
LINE
8
BLACK
6
CONTINUOUS
10
18.363
20
-91.25
11
19.363
21
-90.25
0
LINE
8
BLACK
6
CONTINUOUS
10
335.975
20
-33.55
11
323.375
21
-33.55
0
LINE
8
BLACK
6
CONTINUOUS
10
99.725
20
-71.35
11
87.125
21
-71.35
0
LINE
8
BLACK
6
CONTINUOUS
10
161.15
20
-109.15
11
148.55
21
-109.15
0
LINE
8
BLACK
6
CONTINUOUS
10
19.975
20
-110.15
11
19.975
21
-122.15
0
LINE
8
BLACK
6
CONTINUOUS
10
165.875
20
-90.25
11
153.275
21
-90.25
0
LINE
8
BLACK
6
CONTINUOUS
10
335.975
20
-33.55
11
336.975
21
-34.55
0
LINE
8
BLACK
6
CONTINUOUS
10
142.25
20
-33.55
11
143.25
21
-34.55
0
LINE
8
BLACK
6
CONTINUOUS
10
35.9375
20
-71.35
11
23.3375
21
-71.35
0
LINE
8
BLACK
6
CONTINUOUS
10
323.375
20
-47.55
11
335.975
21
-47.55
0
LINE
8
BLACK
6
CONTINUOUS
10
199.95
20
-46.55
11
198.95
21
-47.55
0
LINE
8
BLACK
6
CONTINUOUS
10
276.125
20
-66.45
11
275.125
21
-65.45
0
LINE
8
BLACK
6
CONTINUOUS
10
124.925
20
-85.35
11
123.925
21
-84.35
0
LINE
8
BLACK
6
CONTINUOUS
10
48.325
20
-72.35
11
48.325
21
-84.35
0
LINE
8
BLACK
6
CONTINUOUS
10
275.125
20
-53.45
11
276.125
21
-52.45
0
LINE
8
BLACK
6
CONTINUOUS
10
77.675
20
-104.25
11
90.275
21
-104.25
0
LINE
8
BLACK
6
CONTINUOUS
10
67.65
20
-46.55
11
66.65
21
-47.55
0
LINE
8
BLACK
6
CONTINUOUS
10
288.725
20
-52.45
11
289.725
21
-53.45
0
LINE
8
BLACK
6
CONTINUOUS
10
269.825
20
-9.925
11
257.225
21
-9.925
0
LINE
8
BLACK
6
CONTINUOUS
10
200.525
20
-23.925
11
213.125
21
-23.925
0
LINE
8
BLACK
6
CONTINUOUS
10
66.775
20
-110.15
11
67.775
21
-109.15
0
LINE
8
BLACK
6
CONTINUOUS
10
289.725
20
-65.45
11
289.725
21
-53.45
0
LINE
8
BLACK
6
CONTINUOUS
10
162.15
20
-46.55
11
161.15
21
-47.55
0
LINE
8
BLACK
6
CONTINUOUS
10
289.725
20
-65.45
11
288.725
21
-66.45
0
LINE
8
BLACK
6
CONTINUOUS
10
161.15
20
-33.55
11
162.15
21
-34.55
0
LINE
8
BLACK
6
CONTINUOUS
10
44.6
20
-66.45
11
57.2
21
-66.45
0
LINE
8
BLACK
6
CONTINUOUS
10
109.175
20
-90.25
11
96.575
21
-90.25
0
LINE
8
BLACK
6
CONTINUOUS
10
247.2
20
-65.45
11
247.2
21
-53.45
0
LINE
8
BLACK
6
CONTINUOUS
10
18.363
20
-91.25
11
18.363
21
-102.518
0
LINE
8
BLACK
6
CONTINUOUS
10
147.975
20
-103.25
11
147.975
21
-91.25
0
LINE
8
BLACK
6
CONTINUOUS
10
290.337
20
-71.35
11
260.337
21
-71.35
0
LINE
8
BLACK
6
CONTINUOUS
10
288.337
20
-85.35
11
291.337
21
-83.6179
0
LINE
8
BLACK
6
CONTINUOUS
10
21.363
20
-104.25
11
47.363
21
-104.25
0
LINE
8
BLACK
6
CONTINUOUS
10
354.875
20
-109.15
11
342.275
21
-109.15
0
ARC
8
BLACK
10
218.3
20
-122.6
40
0.5
50
-90
51
-0
0
LINE
8
BLACK
6
CONTINUOUS
10
157
20
-10.925
11
158
21
-9.925
0
LINE
8
BLACK
6
CONTINUOUS
10
355.875
20
-122.15
11
355.875
21
-110.15
0
LINE
8
BLACK
6
CONTINUOUS
10
114.475
20
-91.25
11
114.475
21
-103.25
0
LINE
8
BLACK
6
CONTINUOUS
10
20.975
20
-66.45
11
19.975
21
-65.45
0
LINE
8
BLACK
6
CONTINUOUS
10
341.275
20
-10.925
11
341.275
21
-22.925
0
LINE
8
BLACK
6
CONTINUOUS
10
214.125
20
-22.925
11
214.125
21
-10.925
0
LINE
8
BLACK
6
CONTINUOUS
10
342.275
20
-123.15
11
354.875
21
-123.15
0
LINE
8
BLACK
6
CONTINUOUS
10
237.75
20
-46.55
11
237.75
21
-34.55
0
LINE
8
BLACK
6
CONTINUOUS
10
304.475
20
-23.925
11
303.475
21
-22.925
0
LINE
8
BLACK
6
CONTINUOUS
10
322.375
20
-91.25
11
323.375
21
-90.25
0
LINE
8
BLACK
6
CONTINUOUS
10
53.475
20
-22.925
11
52.475
21
-23.925
0
LINE
8
BLACK
6
CONTINUOUS
10
57.2
20
-52.45
11
44.6
21
-52.45
0
LINE
8
BLACK
6
CONTINUOUS
10
104
20
-123.1
11
91.4
21
-123.1
0
LINE
8
BLACK
6
CONTINUOUS
10
19.975
20
-53.45
11
20.975
21
-52.45
0
LINE
8
BLACK
6
CONTINUOUS
10
44.6
20
-66.45
11
43.6
21
-65.45
0
LINE
8
BLACK
6
CONTINUOUS
10
322.375
20
-10.925
11
323.375
21
-9.925
0
LINE
8
BLACK
6
CONTINUOUS
10
213.125
20
-9.925
11
200.525
21
-9.925
0
LINE
8
BLACK
6
CONTINUOUS
10
335.975
20
-90.25
11
336.975
21
-91.25
0
LINE
8
BLACK
6
CONTINUOUS
10
190.5
20
-22.925
11
189.5
21
-23.925
0
LINE
8
BLACK
6
CONTINUOUS
10
323.375
20
-104.25
11
335.975
21
-104.25
0
LINE
8
BLACK
6
CONTINUOUS
10
323.375
20
-104.25
11
322.375
21
-103.25
0
LINE
8
BLACK
6
CONTINUOUS
10
156.425
20
-71.35
11
157.425
21
-72.35
0
LINE
8
BLACK
6
CONTINUOUS
10
36.9375
20
-84.35
11
35.9375
21
-85.35
0
LINE
8
BLACK
6
CONTINUOUS
10
288.725
20
-109.15
11
289.725
21
-110.15
0
LINE
8
BLACK
6
CONTINUOUS
10
139.1
20
-23.925
11
151.7
21
-23.925
0
LINE
8
BLACK
6
CONTINUOUS
10
36.9375
20
-84.35
11
36.9375
21
-72.35
0
LINE
8
BLACK
6
CONTINUOUS
10
39.875
20
-23.925
11
38.875
21
-22.925
0
LINE
8
BLACK
6
CONTINUOUS
10
289.725
20
-122.15
11
289.725
21
-110.15
0
LINE
8
BLACK
6
CONTINUOUS
10
171.6
20
-22.925
11
171.6
21
-10.925
0
LINE
8
BLACK
6
CONTINUOUS
10
276.125
20
-123.15
11
288.725
21
-123.15
0
LINE
8
BLACK
6
CONTINUOUS
10
275.125
20
-110.15
11
275.125
21
-122.15
0
LINE
8
BLACK
6
CONTINUOUS
10
53.05
20
-34.55
11
53.05
21
-46.55
0
LINE
8
BLACK
6
CONTINUOUS
10
53.05
20
-34.55
11
54.05
21
-33.55
0
LINE
8
BLACK
6
CONTINUOUS
10
66.65
20
-33.55
11
67.65
21
-34.55
0
LINE
8
BLACK
6
CONTINUOUS
10
114.9
20
-65.45
11
114.9
21
-53.45
0
LINE
8
BLACK
6
CONTINUOUS
10
67.65
20
-46.55
11
67.65
21
-34.55
0
LINE
8
BLACK
6
CONTINUOUS
10
54.05
20
-47.55
11
66.65
21
-47.55
0
LINE
8
BLACK
6
CONTINUOUS
10
54.05
20
-47.55
11
53.05
21
-46.55
0
LINE
8
BLACK
6
CONTINUOUS
10
218.425
20
-10.925
11
218.425
21
-22.925
0
LINE
8
BLACK
6
CONTINUOUS
10
34.15
20
-34.55
11
35.15
21
-33.55
0
LINE
8
BLACK
6
CONTINUOUS
10
48.75
20
-46.55
11
48.75
21
-34.55
0
LINE
8
BLACK
6
CONTINUOUS
10
110.175
20
-22.925
11
110.175
21
-10.925
0
LINE
8
BLACK
6
CONTINUOUS
10
48.75
20
-46.55
11
47.75
21
-47.55
0
LINE
8
BLACK
6
CONTINUOUS
10
43.6
20
-53.45
11
43.6
21
-65.45
0
LINE
8
BLACK
6
CONTINUOUS
10
43.6
20
-53.45
11
44.6
21
-52.45
0
LINE
8
BLACK
6
CONTINUOUS
10
57.2
20
-52.45
11
58.2
21
-53.45
0
LINE
8
BLACK
6
CONTINUOUS
10
58.2
20
-65.45
11
57.2
21
-66.45
0
LINE
8
BLACK
6
CONTINUOUS
10
33.575
20
-109.15
11
34.575
21
-110.15
0
LINE
8
BLACK
6
CONTINUOUS
10
19.975
20
-110.15
11
20.975
21
-109.15
0
LINE
8
BLACK
6
CONTINUOUS
10
49.363
20
-90.25
11
50.363
21
-91.25
0
LINE
8
BLACK
6
CONTINUOUS
10
166.875
20
-103.25
11
165.875
21
-104.25
0
LINE
8
BLACK
6
CONTINUOUS
10
18.363
20
-102.518
11
21.363
21
-104.25
0
LINE
8
BLACK
6
CONTINUOUS
10
23.3375
20
-85.35
11
35.9375
21
-85.35
0
LINE
8
BLACK
6
CONTINUOUS
10
23.3375
20
-85.35
11
22.3375
21
-84.35
0
LINE
8
BLACK
6
CONTINUOUS
10
166.45
20
-34.55
11
166.45
21
-46.55
0
LINE
8
BLACK
6
CONTINUOUS
10
16.25
20
-47.55
11
28.85
21
-47.55
0
LINE
8
BLACK
6
CONTINUOUS
10
342.275
20
-23.925
11
341.275
21
-22.925
0
LINE
8
BLACK
6
CONTINUOUS
10
134.375
20
-104.25
11
133.375
21
-103.25
0
LINE
8
BLACK
6
CONTINUOUS
10
71.95
20
-34.55
11
71.95
21
-46.55
0
LINE
8
BLACK
6
CONTINUOUS
10
71.95
20
-34.55
11
72.95
21
-33.55
0
LINE
8
BLACK
6
CONTINUOUS
10
86.55
20
-46.55
11
86.55
21
-34.55
0
LINE
8
BLACK
6
CONTINUOUS
10
86.55
20
-46.55
11
85.55
21
-47.55
0
LINE
8
BLACK
6
CONTINUOUS
10
72.95
20
-47.55
11
85.55
21
-47.55
0
LINE
8
BLACK
6
CONTINUOUS
10
336.975
20
-22.925
11
335.975
21
-23.925
0
LINE
8
BLACK
6
CONTINUOUS
10
72.95
20
-47.55
11
71.95
21
-46.55
0
LINE
8
BLACK
6
CONTINUOUS
10
195.8
20
-66.45
11
194.8
21
-65.45
0
LINE
8
BLACK
6
CONTINUOUS
10
90.85
20
-34.55
11
90.85
21
-46.55
0
LINE
8
BLACK
6
CONTINUOUS
10
152.7
20
-65.45
11
151.7
21
-66.45
0
LINE
8
BLACK
6
CONTINUOUS
10
90.85
20
-34.55
11
91.85
21
-33.55
0
LINE
8
BLACK
6
CONTINUOUS
10
104.45
20
-33.55
11
91.85
21
-33.55
0
LINE
8
BLACK
6
CONTINUOUS
10
80.375
20
-109.15
11
67.775
21
-109.15
0
LINE
8
BLACK
6
CONTINUOUS
10
104.45
20
-33.55
11
105.45
21
-34.55
0
LINE
8
BLACK
6
CONTINUOUS
10
218.425
20
-72.35
11
219.425
21
-71.35
0
LINE
8
BLACK
6
CONTINUOUS
10
105.45
20
-46.55
11
105.45
21
-34.55
0
LINE
8
BLACK
6
CONTINUOUS
10
105.45
20
-46.55
11
104.45
21
-47.55
0
LINE
8
BLACK
6
CONTINUOUS
10
124.35
20
-46.55
11
124.35
21
-34.55
0
LINE
8
BLACK
6
CONTINUOUS
10
48.325
20
-72.35
11
49.325
21
-71.35
0
LINE
8
BLACK
6
CONTINUOUS
10
124.35
20
-46.55
11
123.35
21
-47.55
0
LINE
8
BLACK
6
CONTINUOUS
10
189.5
20
-9.925
11
190.5
21
-10.925
0
LINE
8
BLACK
6
CONTINUOUS
10
232.6
20
-53.45
11
233.6
21
-52.45
0
LINE
8
BLACK
6
CONTINUOUS
10
167.45
20
-47.55
11
166.45
21
-46.55
0
LINE
8
BLACK
6
CONTINUOUS
10
110.75
20
-47.55
11
123.35
21
-47.55
0
LINE
8
BLACK
6
CONTINUOUS
10
110.75
20
-47.55
11
109.75
21
-46.55
0
LINE
8
BLACK
6
CONTINUOUS
10
128.65
20
-34.55
11
128.65
21
-46.55
0
LINE
8
BLACK
6
CONTINUOUS
10
143.25
20
-46.55
11
142.25
21
-47.55
0
LINE
8
BLACK
6
CONTINUOUS
10
147.55
20
-34.55
11
147.55
21
-46.55
0
LINE
8
BLACK
6
CONTINUOUS
10
147.55
20
-34.55
11
148.55
21
-33.55
0
LINE
8
BLACK
6
CONTINUOUS
10
236.75
20
-33.55
11
237.75
21
-34.55
0
LINE
8
BLACK
6
CONTINUOUS
10
148.55
20
-47.55
11
161.15
21
-47.55
0
CIRCLE
8
BLACK
10
114.688
20
-16.925
40
0.8
0
LINE
8
BLACK
6
CONTINUOUS
10
180.05
20
-33.55
11
167.45
21
-33.55
0
LINE
8
BLACK
6
CONTINUOUS
10
119.625
20
-84.35
11
118.625
21
-85.35
0
LINE
8
BLACK
6
CONTINUOUS
10
181.05
20
-46.55
11
181.05
21
-34.55
0
LINE
8
BLACK
6
CONTINUOUS
10
219.425
20
-85.35
11
218.425
21
-84.35
0
LINE
8
BLACK
6
CONTINUOUS
10
194.8
20
-53.45
11
195.8
21
-52.45
0
LINE
8
BLACK
6
CONTINUOUS
10
322.375
20
-10.925
11
322.375
21
-22.925
0
LINE
8
BLACK
6
CONTINUOUS
10
186.35
20
-47.55
11
185.35
21
-46.55
0
LINE
8
BLACK
6
CONTINUOUS
10
208.4
20
-52.45
11
195.8
21
-52.45
0
LINE
8
BLACK
6
CONTINUOUS
10
58.775
20
-104.25
11
57.775
21
-103.25
0
LINE
8
BLACK
6
CONTINUOUS
10
167.45
20
-47.55
11
180.05
21
-47.55
0
LINE
8
BLACK
6
CONTINUOUS
10
237.75
20
-46.55
11
236.75
21
-47.55
0
LINE
8
BLACK
6
CONTINUOUS
10
185.35
20
-34.55
11
185.35
21
-46.55
0
LINE
8
BLACK
6
CONTINUOUS
10
199.95
20
-46.55
11
199.95
21
-34.55
0
LINE
8
BLACK
6
CONTINUOUS
10
133.8
20
-65.45
11
133.8
21
-53.45
0
LINE
8
BLACK
6
CONTINUOUS
10
204.25
20
-34.55
11
205.25
21
-33.55
0
LINE
8
BLACK
6
CONTINUOUS
10
56.245
20
-109.85
11
45.105
21
-109.85
0
LINE
8
BLACK
6
CONTINUOUS
10
218.85
20
-46.55
11
217.85
21
-47.55
0
LINE
8
BLACK
6
CONTINUOUS
10
237.325
20
-10.925
11
238.325
21
-9.925
0
LINE
8
BLACK
6
CONTINUOUS
10
250.925
20
-9.925
11
238.325
21
-9.925
0
LINE
8
BLACK
6
CONTINUOUS
10
129.075
20
-103.25
11
128.075
21
-104.25
0
LINE
8
BLACK
6
CONTINUOUS
10
251.925
20
-22.925
11
251.925
21
-10.925
0
LINE
8
BLACK
6
CONTINUOUS
10
203.675
20
-90.25
11
204.675
21
-91.25
0
LINE
8
BLACK
6
CONTINUOUS
10
251.925
20
-22.925
11
250.925
21
-23.925
0
LINE
8
BLACK
6
CONTINUOUS
10
238.325
20
-23.925
11
237.325
21
-22.925
0
LINE
8
BLACK
6
CONTINUOUS
10
279.85
20
-10.925
11
280.85
21
-9.925
0
LINE
8
BLACK
6
CONTINUOUS
10
293.45
20
-9.925
11
294.45
21
-10.925
0
LINE
8
BLACK
6
CONTINUOUS
10
219.425
20
-23.925
11
232.025
21
-23.925
0
LINE
8
BLACK
6
CONTINUOUS
10
294.45
20
-22.925
11
294.45
21
-10.925
0
LINE
8
BLACK
6
CONTINUOUS
10
280.85
20
-23.925
11
279.85
21
-22.925
0
LINE
8
BLACK
6
CONTINUOUS
10
218.425
20
-10.925
11
219.425
21
-9.925
0
LINE
8
BLACK
6
CONTINUOUS
10
232.025
20
-9.925
11
219.425
21
-9.925
0
LINE
8
BLACK
6
CONTINUOUS
10
214.125
20
-84.35
11
213.125
21
-85.35
0
LINE
8
BLACK
6
CONTINUOUS
10
232.025
20
-9.925
11
233.025
21
-10.925
0
LINE
8
BLACK
6
CONTINUOUS
10
233.025
20
-22.925
11
232.025
21
-23.925
0
LINE
8
BLACK
6
CONTINUOUS
10
223.575
20
-103.25
11
222.575
21
-104.25
0
LINE
8
BLACK
6
CONTINUOUS
10
219.425
20
-23.925
11
218.425
21
-22.925
0
LINE
8
BLACK
6
CONTINUOUS
10
175.9
20
-10.925
11
176.9
21
-9.925
0
LINE
8
BLACK
6
CONTINUOUS
10
190.5
20
-22.925
11
190.5
21
-10.925
0
LINE
8
BLACK
6
CONTINUOUS
10
176.9
20
-23.925
11
189.5
21
-23.925
0
LINE
8
BLACK
6
CONTINUOUS
10
157
20
-10.925
11
157
21
-22.925
0
LINE
8
BLACK
6
CONTINUOUS
10
170.6
20
-9.925
11
158
21
-9.925
0
LINE
8
BLACK
6
CONTINUOUS
10
170.6
20
-9.925
11
171.6
21
-10.925
0
LINE
8
BLACK
6
CONTINUOUS
10
200.525
20
-85.35
11
199.525
21
-84.35
0
LINE
8
BLACK
6
CONTINUOUS
10
158
20
-23.925
11
170.6
21
-23.925
0
LINE
8
BLACK
6
CONTINUOUS
10
158
20
-23.925
11
157
21
-22.925
0
LINE
8
BLACK
6
CONTINUOUS
10
33.575
20
-52.45
11
20.975
21
-52.45
0
LINE
8
BLACK
6
CONTINUOUS
10
213.125
20
-9.925
11
214.125
21
-10.925
0
LINE
8
BLACK
6
CONTINUOUS
10
214.125
20
-22.925
11
213.125
21
-23.925
0
LINE
8
BLACK
6
CONTINUOUS
10
205.7
20
-123.1
11
218.3
21
-123.1
0
LINE
8
BLACK
6
CONTINUOUS
10
200.525
20
-23.925
11
199.525
21
-22.925
0
LINE
8
BLACK
6
CONTINUOUS
10
119.2
20
-10.925
11
119.2
21
-22.925
0
LINE
8
BLACK
6
CONTINUOUS
10
151.7
20
-52.45
11
139.1
21
-52.45
0
LINE
8
BLACK
6
CONTINUOUS
10
132.8
20
-9.925
11
133.8
21
-10.925
0
LINE
8
BLACK
6
CONTINUOUS
10
133.8
20
-22.925
11
133.8
21
-10.925
0
LINE
8
BLACK
6
CONTINUOUS
10
120.2
20
-23.925
11
132.8
21
-23.925
0
LINE
8
BLACK
6
CONTINUOUS
10
228.3
20
-65.45
11
227.3
21
-66.45
0
LINE
8
BLACK
6
CONTINUOUS
10
138.1
20
-10.925
11
139.1
21
-9.925
0
LINE
8
BLACK
6
CONTINUOUS
10
195.225
20
-84.35
11
195.225
21
-72.35
0
LINE
8
BLACK
6
CONTINUOUS
10
139.1
20
-23.925
11
138.1
21
-22.925
0
LINE
8
BLACK
6
CONTINUOUS
10
223.575
20
-103.25
11
223.575
21
-91.25
0
LINE
8
BLACK
6
CONTINUOUS
10
95.575
20
-10.925
11
96.575
21
-9.925
0
LINE
8
BLACK
6
CONTINUOUS
10
109.175
20
-9.925
11
110.175
21
-10.925
0
LINE
8
BLACK
6
CONTINUOUS
10
110.175
20
-22.925
11
109.175
21
-23.925
0
LINE
8
BLACK
6
CONTINUOUS
10
96.575
20
-23.925
11
95.575
21
-22.925
0
LINE
8
BLACK
6
CONTINUOUS
10
336.975
20
-22.925
11
336.975
21
-10.925
0
LINE
8
BLACK
6
CONTINUOUS
10
303.475
20
-10.925
11
303.475
21
-22.925
0
LINE
8
BLACK
6
CONTINUOUS
10
303.475
20
-10.925
11
304.475
21
-9.925
0
LINE
8
BLACK
6
CONTINUOUS
10
317.075
20
-9.925
11
318.075
21
-10.925
0
LINE
8
BLACK
6
CONTINUOUS
10
208.975
20
-91.25
11
209.975
21
-90.25
0
LINE
8
BLACK
6
CONTINUOUS
10
318.075
20
-22.925
11
317.075
21
-23.925
0
LINE
8
BLACK
6
CONTINUOUS
10
137.525
20
-71.35
11
124.925
21
-71.35
0
LINE
8
BLACK
6
CONTINUOUS
10
19.975
20
-53.45
11
19.975
21
-65.45
0
LINE
8
BLACK
6
CONTINUOUS
10
58.775
20
-23.925
11
57.775
21
-22.925
0
LINE
8
BLACK
6
CONTINUOUS
10
34.575
20
-65.45
11
33.575
21
-66.45
0
LINE
8
BLACK
6
CONTINUOUS
10
158
20
-66.45
11
157
21
-65.45
0
LINE
8
BLACK
6
CONTINUOUS
10
57.775
20
-10.925
11
57.775
21
-22.925
0
LINE
8
BLACK
6
CONTINUOUS
10
71.375
20
-9.925
11
58.775
21
-9.925
0
LINE
8
BLACK
6
CONTINUOUS
10
71.375
20
-9.925
11
72.375
21
-10.925
0
LINE
8
BLACK
6
CONTINUOUS
10
96.575
20
-104.25
11
109.175
21
-104.25
0
LINE
8
BLACK
6
CONTINUOUS
10
72.375
20
-22.925
11
72.375
21
-10.925
0
LINE
8
BLACK
6
CONTINUOUS
10
72.375
20
-22.925
11
71.375
21
-23.925
0
LINE
8
BLACK
6
CONTINUOUS
10
270.825
20
-22.925
11
269.825
21
-23.925
0
LINE
8
BLACK
6
CONTINUOUS
10
257.225
20
-23.925
11
256.225
21
-22.925
0
LINE
8
BLACK
6
CONTINUOUS
10
57.245
20
-121.45
11
57.245
21
-110.85
0
LINE
8
BLACK
6
CONTINUOUS
10
38.875
20
-10.925
11
38.875
21
-22.925
0
LINE
8
BLACK
6
CONTINUOUS
10
95
20
-52.45
11
96
21
-53.45
0
LINE
8
BLACK
6
CONTINUOUS
10
52.475
20
-9.925
11
39.875
21
-9.925
0
LINE
8
BLACK
6
CONTINUOUS
10
53.475
20
-22.925
11
53.475
21
-10.925
0
LINE
8
BLACK
6
CONTINUOUS
10
39.875
20
-23.925
11
52.475
21
-23.925
0
LINE
8
BLACK
6
CONTINUOUS
10
76.675
20
-10.925
11
76.675
21
-22.925
0
LINE
8
BLACK
6
CONTINUOUS
10
90.275
20
-9.925
11
91.275
21
-10.925
0
LINE
8
BLACK
6
CONTINUOUS
10
91.275
20
-22.925
11
90.275
21
-23.925
0
LINE
8
BLACK
6
CONTINUOUS
10
77.675
20
-23.925
11
90.275
21
-23.925
0
LINE
8
BLACK
6
CONTINUOUS
10
153.275
20
-104.25
11
165.875
21
-104.25
0
LINE
8
BLACK
6
CONTINUOUS
10
152.275
20
-91.25
11
152.275
21
-103.25
0
LINE
8
BLACK
6
CONTINUOUS
10
152.275
20
-91.25
11
153.275
21
-90.25
0
LINE
8
BLACK
6
CONTINUOUS
10
170.6
20
-52.45
11
171.6
21
-53.45
0
LINE
8
BLACK
6
CONTINUOUS
10
171.6
20
-65.45
11
170.6
21
-66.45
0
LINE
8
BLACK
6
CONTINUOUS
10
162.725
20
-85.35
11
175.325
21
-85.35
0
LINE
8
BLACK
6
CONTINUOUS
10
162.725
20
-85.35
11
161.725
21
-84.35
0
LINE
8
BLACK
6
CONTINUOUS
10
161.725
20
-72.35
11
162.725
21
-71.35
0
LINE
8
BLACK
6
CONTINUOUS
10
175.325
20
-71.35
11
162.725
21
-71.35
0
LINE
8
BLACK
6
CONTINUOUS
10
175.325
20
-71.35
11
176.325
21
-72.35
0
LINE
8
BLACK
6
CONTINUOUS
10
176.325
20
-84.35
11
176.325
21
-72.35
0
LINE
8
BLACK
6
CONTINUOUS
10
224.15
20
-47.55
11
223.15
21
-46.55
0
LINE
8
BLACK
6
CONTINUOUS
10
176.325
20
-84.35
11
175.325
21
-85.35
0
LINE
8
BLACK
6
CONTINUOUS
10
184.775
20
-90.25
11
172.175
21
-90.25
0
LINE
8
BLACK
6
CONTINUOUS
10
184.775
20
-90.25
11
185.775
21
-91.25
0
LINE
8
BLACK
6
CONTINUOUS
10
132.8
20
-52.45
11
133.8
21
-53.45
0
LINE
8
BLACK
6
CONTINUOUS
10
185.775
20
-103.25
11
185.775
21
-91.25
0
LINE
8
BLACK
6
CONTINUOUS
10
185.775
20
-103.25
11
184.775
21
-104.25
0
LINE
8
BLACK
6
CONTINUOUS
10
172.175
20
-104.25
11
184.775
21
-104.25
0
LINE
8
BLACK
6
CONTINUOUS
10
172.175
20
-104.25
11
171.175
21
-103.25
0
LINE
8
BLACK
6
CONTINUOUS
10
171.175
20
-91.25
11
171.175
21
-103.25
0
LINE
8
BLACK
6
CONTINUOUS
10
171.175
20
-91.25
11
172.175
21
-90.25
0
LINE
8
BLACK
6
CONTINUOUS
10
124.925
20
-85.35
11
137.525
21
-85.35
0
LINE
8
BLACK
6
CONTINUOUS
10
123.925
20
-72.35
11
124.925
21
-71.35
0
LINE
8
BLACK
6
CONTINUOUS
10
137.525
20
-71.35
11
138.525
21
-72.35
0
LINE
8
BLACK
6
CONTINUOUS
10
138.525
20
-84.35
11
138.525
21
-72.35
0
LINE
8
BLACK
6
CONTINUOUS
10
146.975
20
-90.25
11
147.975
21
-91.25
0
LINE
8
BLACK
6
CONTINUOUS
10
147.975
20
-103.25
11
146.975
21
-104.25
0
LINE
8
BLACK
6
CONTINUOUS
10
134.375
20
-104.25
11
146.975
21
-104.25
0
LINE
8
BLACK
6
CONTINUOUS
10
133.375
20
-91.25
11
133.375
21
-103.25
0
LINE
8
BLACK
6
CONTINUOUS
10
133.375
20
-91.25
11
134.375
21
-90.25
0
LINE
8
BLACK
6
CONTINUOUS
10
139.1
20
-66.45
11
151.7
21
-66.45
0
LINE
8
BLACK
6
CONTINUOUS
10
139.1
20
-66.45
11
138.1
21
-65.45
0
LINE
8
BLACK
6
CONTINUOUS
10
152.7
20
-65.45
11
152.7
21
-53.45
0
LINE
8
BLACK
6
CONTINUOUS
10
143.825
20
-85.35
11
156.425
21
-85.35
0
LINE
8
BLACK
6
CONTINUOUS
10
143.825
20
-85.35
11
142.825
21
-84.35
0
LINE
8
BLACK
6
CONTINUOUS
10
142.825
20
-72.35
11
142.825
21
-84.35
0
LINE
8
BLACK
6
CONTINUOUS
10
142.825
20
-72.35
11
143.825
21
-71.35
0
LINE
8
BLACK
6
CONTINUOUS
10
156.425
20
-71.35
11
143.825
21
-71.35
0
LINE
8
BLACK
6
CONTINUOUS
10
199.525
20
-72.35
11
199.525
21
-84.35
0
LINE
8
BLACK
6
CONTINUOUS
10
199.525
20
-72.35
11
200.525
21
-71.35
0
LINE
8
BLACK
6
CONTINUOUS
10
77.675
20
-104.25
11
76.675
21
-103.25
0
LINE
8
BLACK
6
CONTINUOUS
10
213.125
20
-71.35
11
200.525
21
-71.35
0
LINE
8
BLACK
6
CONTINUOUS
10
213.125
20
-71.35
11
214.125
21
-72.35
0
LINE
8
BLACK
6
CONTINUOUS
10
115.475
20
-104.25
11
128.075
21
-104.25
0
LINE
8
BLACK
6
CONTINUOUS
10
222.575
20
-90.25
11
209.975
21
-90.25
0
LINE
8
BLACK
6
CONTINUOUS
10
209.975
20
-104.25
11
222.575
21
-104.25
0
LINE
8
BLACK
6
CONTINUOUS
10
214.7
20
-66.45
11
213.7
21
-65.45
0
LINE
8
BLACK
6
CONTINUOUS
10
76.1
20
-52.45
11
77.1
21
-53.45
0
LINE
8
BLACK
6
CONTINUOUS
10
213.7
20
-53.45
11
214.7
21
-52.45
0
LINE
8
BLACK
6
CONTINUOUS
10
227.3
20
-52.45
11
214.7
21
-52.45
0
LINE
8
BLACK
6
CONTINUOUS
10
227.3
20
-52.45
11
228.3
21
-53.45
0
LINE
8
BLACK
6
CONTINUOUS
10
228.3
20
-65.45
11
228.3
21
-53.45
0
LINE
8
BLACK
6
CONTINUOUS
10
218.425
20
-72.35
11
218.425
21
-84.35
0
LINE
8
BLACK
6
CONTINUOUS
10
232.025
20
-71.35
11
233.025
21
-72.35
0
LINE
8
BLACK
6
CONTINUOUS
10
233.025
20
-84.35
11
233.025
21
-72.35
0
LINE
8
BLACK
6
CONTINUOUS
10
176.9
20
-66.45
11
189.5
21
-66.45
0
LINE
8
BLACK
6
CONTINUOUS
10
176.9
20
-66.45
11
175.9
21
-65.45
0
LINE
8
BLACK
6
CONTINUOUS
10
175.9
20
-53.45
11
175.9
21
-65.45
0
LINE
8
BLACK
6
CONTINUOUS
10
175.9
20
-53.45
11
176.9
21
-52.45
0
LINE
8
BLACK
6
CONTINUOUS
10
189.5
20
-52.45
11
176.9
21
-52.45
0
LINE
8
BLACK
6
CONTINUOUS
10
190.5
20
-65.45
11
190.5
21
-53.45
0
LINE
8
BLACK
6
CONTINUOUS
10
203.675
20
-90.25
11
191.075
21
-90.25
0
LINE
8
BLACK
6
CONTINUOUS
10
181.625
20
-85.35
11
194.225
21
-85.35
0
LINE
8
BLACK
6
CONTINUOUS
10
252.455
20
-110.85
11
253.455
21
-109.85
0
LINE
8
BLACK
6
CONTINUOUS
10
181.625
20
-85.35
11
180.625
21
-84.35
0
LINE
8
BLACK
6
CONTINUOUS
10
194.225
20
-71.35
11
181.625
21
-71.35
0
LINE
8
BLACK
6
CONTINUOUS
10
194.225
20
-71.35
11
195.225
21
-72.35
0
LINE
8
BLACK
6
CONTINUOUS
10
195.225
20
-84.35
11
194.225
21
-85.35
0
LINE
8
BLACK
6
CONTINUOUS
10
204.675
20
-103.25
11
204.675
21
-91.25
0
LINE
8
BLACK
6
CONTINUOUS
10
62.5
20
-53.45
11
63.5
21
-52.45
0
LINE
8
BLACK
6
CONTINUOUS
10
191.075
20
-104.25
11
190.075
21
-103.25
0
LINE
8
BLACK
6
CONTINUOUS
10
190.075
20
-91.25
11
190.075
21
-103.25
0
LINE
8
BLACK
6
CONTINUOUS
10
195.8
20
-66.45
11
208.4
21
-66.45
0
LINE
8
BLACK
6
CONTINUOUS
10
208.4
20
-52.45
11
209.4
21
-53.45
0
LINE
8
BLACK
6
CONTINUOUS
10
209.4
20
-65.45
11
208.4
21
-66.45
0
LINE
8
BLACK
6
CONTINUOUS
10
71.375
20
-90.25
11
58.775
21
-90.25
0
LINE
8
BLACK
6
CONTINUOUS
10
91.275
20
-103.25
11
91.275
21
-91.25
0
LINE
8
BLACK
6
CONTINUOUS
10
76.675
20
-91.25
11
76.675
21
-103.25
0
LINE
8
BLACK
6
CONTINUOUS
10
71.375
20
-90.25
11
72.375
21
-91.25
0
LINE
8
BLACK
6
CONTINUOUS
10
72.375
20
-103.25
11
72.375
21
-91.25
0
LINE
8
BLACK
6
CONTINUOUS
10
72.375
20
-103.25
11
71.375
21
-104.25
0
LINE
8
BLACK
6
CONTINUOUS
10
57.775
20
-91.25
11
58.775
21
-90.25
0
LINE
8
BLACK
6
CONTINUOUS
10
63.5
20
-66.45
11
76.1
21
-66.45
0
LINE
8
BLACK
6
CONTINUOUS
10
62.5
20
-53.45
11
62.5
21
-65.45
0
LINE
8
BLACK
6
CONTINUOUS
10
76.1
20
-52.45
11
63.5
21
-52.45
0
LINE
8
BLACK
6
CONTINUOUS
10
104
20
-109.2
11
91.4
21
-109.2
0
LINE
8
BLACK
6
CONTINUOUS
10
77.1
20
-65.45
11
77.1
21
-53.45
0
LINE
8
BLACK
6
CONTINUOUS
10
96
20
-65.45
11
95
21
-66.45
0
LINE
8
BLACK
6
CONTINUOUS
10
77.1
20
-65.45
11
76.1
21
-66.45
0
LINE
8
BLACK
6
CONTINUOUS
10
233.6
20
-66.45
11
246.2
21
-66.45
0
LINE
8
BLACK
6
CONTINUOUS
10
233.6
20
-66.45
11
232.6
21
-65.45
0
LINE
8
BLACK
6
CONTINUOUS
10
232.6
20
-53.45
11
232.6
21
-65.45
0
LINE
8
BLACK
6
CONTINUOUS
10
246.2
20
-52.45
11
233.6
21
-52.45
0
LINE
8
BLACK
6
CONTINUOUS
10
246.2
20
-52.45
11
247.2
21
-53.45
0
LINE
8
BLACK
6
CONTINUOUS
10
247.2
20
-65.45
11
246.2
21
-66.45
0
LINE
8
BLACK
6
CONTINUOUS
10
68.225
20
-85.35
11
80.825
21
-85.35
0
LINE
8
BLACK
6
CONTINUOUS
10
68.225
20
-85.35
11
67.225
21
-84.35
0
LINE
8
BLACK
6
CONTINUOUS
10
66.775
20
-110.15
11
66.775
21
-122.15
0
LINE
8
BLACK
6
CONTINUOUS
10
67.225
20
-72.35
11
67.225
21
-84.35
0
LINE
8
BLACK
6
CONTINUOUS
10
67.225
20
-72.35
11
68.225
21
-71.35
0
LINE
8
BLACK
6
CONTINUOUS
10
236.75
20
-33.55
11
224.15
21
-33.55
0
LINE
8
BLACK
6
CONTINUOUS
10
81.825
20
-84.35
11
80.825
21
-85.35
0
LINE
8
BLACK
6
CONTINUOUS
10
80.375
20
-109.15
11
81.375
21
-110.15
0
LINE
8
BLACK
6
CONTINUOUS
10
81.375
20
-122.15
11
81.375
21
-110.15
0
LINE
8
BLACK
6
CONTINUOUS
10
81.375
20
-122.15
11
80.375
21
-123.15
0
LINE
8
BLACK
6
CONTINUOUS
10
67.775
20
-123.15
11
80.375
21
-123.15
0
LINE
8
BLACK
6
CONTINUOUS
10
49.325
20
-85.35
11
61.925
21
-85.35
0
LINE
8
BLACK
6
CONTINUOUS
10
49.325
20
-85.35
11
48.325
21
-84.35
0
LINE
8
BLACK
6
CONTINUOUS
10
61.925
20
-71.35
11
49.325
21
-71.35
0
LINE
8
BLACK
6
CONTINUOUS
10
61.925
20
-71.35
11
62.925
21
-72.35
0
LINE
8
BLACK
6
CONTINUOUS
10
256.65
20
-46.55
11
256.65
21
-34.55
0
LINE
8
BLACK
6
CONTINUOUS
10
62.925
20
-84.35
11
62.925
21
-72.35
0
LINE
8
BLACK
6
CONTINUOUS
10
62.925
20
-84.35
11
61.925
21
-85.35
0
LINE
8
BLACK
6
CONTINUOUS
10
242.05
20
-34.55
11
242.05
21
-46.55
0
LINE
8
BLACK
6
CONTINUOUS
10
242.05
20
-34.55
11
243.05
21
-33.55
0
CIRCLE
8
BLACK
10
275.337
20
-16.925
40
0.8
0
LINE
8
BLACK
6
CONTINUOUS
10
255.65
20
-33.55
11
243.05
21
-33.55
0
LINE
8
BLACK
6
CONTINUOUS
10
256.65
20
-46.55
11
255.65
21
-47.55
0
LINE
8
BLACK
6
CONTINUOUS
10
243.05
20
-47.55
11
255.65
21
-47.55
0
LINE
8
BLACK
6
CONTINUOUS
10
243.05
20
-47.55
11
242.05
21
-46.55
0
LINE
8
BLACK
6
CONTINUOUS
10
223.15
20
-34.55
11
223.15
21
-46.55
0
LINE
8
BLACK
6
CONTINUOUS
10
223.15
20
-34.55
11
224.15
21
-33.55
0
LINE
8
BLACK
6
CONTINUOUS
10
224.15
20
-47.55
11
236.75
21
-47.55
0
LINE
8
BLACK
6
CONTINUOUS
10
101.3
20
-66.45
11
100.3
21
-65.45
0
LINE
8
BLACK
6
CONTINUOUS
10
100.3
20
-53.45
11
100.3
21
-65.45
0
LINE
8
BLACK
6
CONTINUOUS
10
113.9
20
-52.45
11
101.3
21
-52.45
0
LINE
8
BLACK
6
CONTINUOUS
10
106.025
20
-85.35
11
118.625
21
-85.35
0
LINE
8
BLACK
6
CONTINUOUS
10
106.025
20
-85.35
11
105.025
21
-84.35
0
LINE
8
BLACK
6
CONTINUOUS
10
105.025
20
-72.35
11
105.025
21
-84.35
0
LINE
8
BLACK
6
CONTINUOUS
10
118.625
20
-71.35
11
106.025
21
-71.35
0
LINE
8
BLACK
6
CONTINUOUS
10
161.15
20
-109.15
11
162.15
21
-110.15
0
LINE
8
BLACK
6
CONTINUOUS
10
118.625
20
-71.35
11
119.625
21
-72.35
0
LINE
8
BLACK
6
CONTINUOUS
10
119.625
20
-84.35
11
119.625
21
-72.35
0
LINE
8
BLACK
6
CONTINUOUS
10
128.075
20
-90.25
11
115.475
21
-90.25
0
LINE
8
BLACK
6
CONTINUOUS
10
128.075
20
-90.25
11
129.075
21
-91.25
0
LINE
8
BLACK
6
CONTINUOUS
10
120.2
20
-66.45
11
132.8
21
-66.45
0
LINE
8
BLACK
6
CONTINUOUS
10
120.2
20
-66.45
11
119.2
21
-65.45
0
LINE
8
BLACK
6
CONTINUOUS
10
119.2
20
-53.45
11
119.2
21
-65.45
0
LINE
8
BLACK
6
CONTINUOUS
10
119.2
20
-53.45
11
120.2
21
-52.45
0
LINE
8
BLACK
6
CONTINUOUS
10
82.4
20
-66.45
11
81.4
21
-65.45
0
LINE
8
BLACK
6
CONTINUOUS
10
132.8
20
-52.45
11
120.2
21
-52.45
0
LINE
8
BLACK
6
CONTINUOUS
10
264.595
20
-109.85
11
265.595
21
-110.85
0
LINE
8
BLACK
6
CONTINUOUS
10
133.8
20
-65.45
11
132.8
21
-66.45
0
LINE
8
BLACK
6
CONTINUOUS
10
90.275
20
-90.25
11
91.275
21
-91.25
0
LINE
8
BLACK
6
CONTINUOUS
10
91.275
20
-103.25
11
90.275
21
-104.25
0
LINE
8
BLACK
6
CONTINUOUS
10
76.675
20
-91.25
11
77.675
21
-90.25
0
LINE
8
BLACK
6
CONTINUOUS
10
81.4
20
-53.45
11
81.4
21
-65.45
0
LINE
8
BLACK
6
CONTINUOUS
10
95
20
-52.45
11
82.4
21
-52.45
0
LINE
8
BLACK
6
CONTINUOUS
10
87.125
20
-85.35
11
99.725
21
-85.35
0
LINE
8
BLACK
6
CONTINUOUS
10
86.125
20
-72.35
11
86.125
21
-84.35
0
LINE
8
BLACK
6
CONTINUOUS
10
99.725
20
-71.35
11
100.725
21
-72.35
0
LINE
8
BLACK
6
CONTINUOUS
10
100.725
20
-84.35
11
100.725
21
-72.35
0
LINE
8
BLACK
6
CONTINUOUS
10
100.725
20
-84.35
11
99.725
21
-85.35
0
LINE
8
BLACK
6
CONTINUOUS
10
109.175
20
-90.25
11
110.175
21
-91.25
0
LINE
8
BLACK
6
CONTINUOUS
10
110.175
20
-103.25
11
110.175
21
-91.25
0
LINE
8
BLACK
6
CONTINUOUS
10
110.175
20
-103.25
11
109.175
21
-104.25
0
LINE
8
BLACK
6
CONTINUOUS
10
96.575
20
-104.25
11
95.575
21
-103.25
0
LINE
8
BLACK
6
CONTINUOUS
10
95.575
20
-91.25
11
95.575
21
-103.25
0
LINE
8
BLACK
6
CONTINUOUS
10
95.575
20
-91.25
11
96.575
21
-90.25
0
LINE
8
BLACK
6
CONTINUOUS
10
148.55
20
-123.15
11
161.15
21
-123.15
0
LINE
8
BLACK
6
CONTINUOUS
10
148.55
20
-123.15
11
147.55
21
-122.15
0
LINE
8
BLACK
6
CONTINUOUS
10
147.55
20
-110.15
11
147.55
21
-122.15
0
LINE
8
BLACK
6
CONTINUOUS
10
162.15
20
-122.15
11
162.15
21
-110.15
0
LINE
8
BLACK
6
CONTINUOUS
10
162.15
20
-122.15
11
161.15
21
-123.15
0
LINE
8
BLACK
6
CONTINUOUS
10
45.105
20
-122.45
11
44.105
21
-121.45
0
LINE
8
BLACK
6
CONTINUOUS
10
44.105
20
-110.85
11
44.105
21
-121.45
0
LINE
8
BLACK
6
CONTINUOUS
10
44.105
20
-110.85
11
45.105
21
-109.85
0
LINE
8
BLACK
6
CONTINUOUS
10
56.245
20
-109.85
11
57.245
21
-110.85
0
LINE
8
BLACK
6
CONTINUOUS
10
57.245
20
-121.45
11
56.245
21
-122.45
0
LINE
8
BLACK
6
CONTINUOUS
10
253.455
20
-122.45
11
264.595
21
-122.45
0
LINE
8
BLACK
6
CONTINUOUS
10
253.455
20
-122.45
11
252.455
21
-121.45
0
LINE
8
BLACK
6
CONTINUOUS
10
252.455
20
-110.85
11
252.455
21
-121.45
0
LINE
8
BLACK
6
CONTINUOUS
10
264.595
20
-109.85
11
253.455
21
-109.85
0
LINE
8
BLACK
6
CONTINUOUS
10
265.595
20
-121.45
11
264.595
21
-122.45
0
LINE
8
BLACK
6
CONTINUOUS
10
205.7
20
-109.2
11
218.3
21
-109.2
0
ARC
8
BLACK
10
218.3
20
-109.7
40
0.5
50
-0
51
90
0
LINE
8
BLACK
6
CONTINUOUS
10
218.8
20
-109.7
11
218.8
21
-122.6
0
ARC
8
BLACK
10
205.7
20
-122.6
40
0.5
50
-180
51
-90
0
LINE
8
BLACK
6
CONTINUOUS
10
205.2
20
-109.7
11
205.2
21
-122.6
0
ARC
8
BLACK
10
205.7
20
-109.7
40
0.5
50
90
51
180
0
ARC
8
BLACK
10
104
20
-109.7
40
0.500001
50
0.000114591
51
89.9999
0
ARC
8
BLACK
10
104
20
-122.6
40
0.500001
50
-89.9999
51
-0.000114591
0
ARC
8
BLACK
10
91.4
20
-122.6
40
0.500001
50
-180
51
-90.0001
0
LINE
8
BLACK
6
CONTINUOUS
10
90.9
20
-109.7
11
90.9
21
-122.6
  0
ENDSEC
  0
EOF
