  0
SECTION
  2
HEADER
  9
$ANGBASE
  50
0.0
  9
$ANGDIR
  70
1
  9
$MEASUREMENT
  70
1
  0
ENDSEC
  0
SECTION
  2
TABLES
  0
TABLE
  2
LTYPE
  70
4
  0
LTYPE
  5
40F
  2
CONTINUOUS
  70
0
  3
Solid line
  72
65
  73
0
  40
0.0
  0
LTYPE
  5
410
  2
DASHDOT
 70
0
  3
Dash Dot ____ _ ____ _
 72
65
 73
4
 40
2.0
 49
1.25
 49
-0.25
 49
0.25
 49
-0.25
  0
LTYPE
  5
411
  2
DASHED
 70
0
  3
Dashed __ __ __ __ __
 72
65
 73
2
 40
0.75
 49
0.5
 49
-0.25
  0
LTYPE
  5
43B
  2
DOTTED
 70
0
  3
Dotted .  .  .  .
 72
65
 73
2
 40
0.2
 49
0.0
 49
-0.2
  0
ENDTAB
  0
TABLE
  2
STYLE
  70
4
  0
STYLE
  2
KICAD
  70
0
  40
0
  41
1
  42
1
  50
0
  71
0
  3
isocp.shx
  0
STYLE
  2
KICADB
  70
0
  40
0
  41
1
  42
1
  50
0
  71
0
  3
isocp.shx
  0
STYLE
  2
KICADI
  70
0
  40
0
  41
1
  42
1
  50
15
  71
0
  3
isocp.shx
  0
STYLE
  2
KICADBI
  70
0
  40
0
  41
1
  42
1
  50
15
  71
0
  3
isocp.shx
  0
ENDTAB
  0
TABLE
  2
LAYER
  70
1
  0
LAYER
  2
BLACK
  70
0
  62
7
  6
CONTINUOUS
  0
ENDTAB
  0
ENDSEC
  0
SECTION
  2
ENTITIES
0
LINE
8
BLACK
6
CONTINUOUS
10
245.6
20
-54.55
11
248.6
21
-52.8179
0
LINE
8
BLACK
6
CONTINUOUS
10
247.6
20
-40.55
11
248.6
21
-41.55
0
LINE
8
BLACK
6
CONTINUOUS
10
216.6
20
-52.8179
11
219.6
21
-54.55
0
LINE
8
BLACK
6
CONTINUOUS
10
248.6
20
-52.8179
11
248.6
21
-41.55
0
LINE
8
BLACK
6
CONTINUOUS
10
247.6
20
-40.55
11
217.6
21
-40.55
0
LINE
8
BLACK
6
CONTINUOUS
10
216.6
20
-41.55
11
216.6
21
-52.8179
0
LINE
8
BLACK
6
CONTINUOUS
10
219.6
20
-54.55
11
245.6
21
-54.55
0
LINE
8
BLACK
6
CONTINUOUS
10
216.6
20
-41.55
11
217.6
21
-40.55
0
LINE
8
BLACK
6
CONTINUOUS
10
209.763
20
-111.25
11
222.363
21
-111.25
0
LINE
8
BLACK
6
CONTINUOUS
10
222.363
20
-97.25
11
223.363
21
-98.25
0
LINE
8
BLACK
6
CONTINUOUS
10
209.763
20
-111.25
11
208.763
21
-110.25
0
LINE
8
BLACK
6
CONTINUOUS
10
208.763
20
-98.25
11
208.763
21
-110.25
0
LINE
8
BLACK
6
CONTINUOUS
10
223.363
20
-110.25
11
222.363
21
-111.25
0
LINE
8
BLACK
6
CONTINUOUS
10
222.363
20
-97.25
11
209.763
21
-97.25
0
LINE
8
BLACK
6
CONTINUOUS
10
208.763
20
-98.25
11
209.763
21
-97.25
0
LINE
8
BLACK
6
CONTINUOUS
10
223.363
20
-110.25
11
223.363
21
-98.25
0
LINE
8
BLACK
6
CONTINUOUS
10
234.75
20
-98.25
11
235.75
21
-97.25
0
LINE
8
BLACK
6
CONTINUOUS
10
249.35
20
-110.25
11
248.35
21
-111.25
0
LINE
8
BLACK
6
CONTINUOUS
10
248.35
20
-97.25
11
249.35
21
-98.25
0
LINE
8
BLACK
6
CONTINUOUS
10
234.75
20
-98.25
11
234.75
21
-110.25
0
LINE
8
BLACK
6
CONTINUOUS
10
235.75
20
-111.25
11
234.75
21
-110.25
0
LINE
8
BLACK
6
CONTINUOUS
10
249.35
20
-110.25
11
249.35
21
-98.25
0
LINE
8
BLACK
6
CONTINUOUS
10
248.35
20
-97.25
11
235.75
21
-97.25
0
LINE
8
BLACK
6
CONTINUOUS
10
235.75
20
-111.25
11
248.35
21
-111.25
0
LINE
8
BLACK
6
CONTINUOUS
10
248.35
20
-16.925
11
235.75
21
-16.925
0
LINE
8
BLACK
6
CONTINUOUS
10
83.975
20
-110.25
11
83.975
21
-98.25
0
CIRCLE
8
BLACK
10
275.125
20
-47.55
40
0.8
0
LINE
8
BLACK
6
CONTINUOUS
10
56.2
20
-73.45
11
68.8
21
-73.45
0
LINE
8
BLACK
6
CONTINUOUS
10
309.775
20
-40.55
11
297.175
21
-40.55
0
CIRCLE
8
BLACK
10
71.95
20
-66.45
40
0.8
0
LINE
8
BLACK
6
CONTINUOUS
10
258.375
20
-41.55
11
258.375
21
-53.55
0
ARC
8
BLACK
10
305.213
20
-136.2
40
3.5
50
67.2012
51
89.9994
0
CIRCLE
8
BLACK
10
203.425
20
-123.15
40
0.8
0
LINE
8
BLACK
6
CONTINUOUS
10
-16.25
20
-40.55
11
-15.25
21
-41.55
0
CIRCLE
8
BLACK
10
251.5
20
-123.15
40
0.8
0
LINE
8
BLACK
6
CONTINUOUS
10
290.875
20
-59.45
11
278.275
21
-59.45
0
ARC
8
BLACK
10
259.175
20
-92.95
40
0.5
50
-180
51
-90
0
CIRCLE
8
BLACK
10
300.167
20
-104.25
40
0.8
0
ARC
8
BLACK
10
80.2688
20
-11.775
40
2.9
50
-1.97572e-05
51
90
0
CIRCLE
8
BLACK
10
294.025
20
-66.45
40
0.8
0
LINE
8
BLACK
6
CONTINUOUS
10
297.175
20
-73.45
11
309.775
21
-73.45
0
CIRCLE
8
BLACK
10
275.125
20
-123.15
40
0.8
0
LINE
8
BLACK
6
CONTINUOUS
10
186.925
20
-78.35
11
174.325
21
-78.35
0
CIRCLE
8
BLACK
10
166.45
20
-66.45
40
0.8
0
CIRCLE
8
BLACK
10
294.025
20
-23.925
40
0.8
0
CIRCLE
8
BLACK
10
294.025
20
-123.15
40
0.8
0
LINE
8
BLACK
6
CONTINUOUS
10
272.975
20
-29.925
11
272.975
21
-17.925
0
LINE
8
BLACK
6
CONTINUOUS
10
272.975
20
-129.15
11
272.975
21
-117.15
0
ARC
8
BLACK
10
301.737
20
-136.2
40
3.50001
50
90.0006
51
112.799
0
LINE
8
BLACK
6
CONTINUOUS
10
154.425
20
-17.925
11
155.425
21
-16.925
0
LINE
8
BLACK
6
CONTINUOUS
10
203.475
20
-138.2
11
203.375
21
-138.2
0
LINE
8
BLACK
6
CONTINUOUS
10
19.025
20
-133.2
11
19.025
21
-135.3
0
LINE
8
BLACK
6
CONTINUOUS
10
-10.525
20
-72.45
11
-10.525
21
-60.45
0
LINE
8
BLACK
6
CONTINUOUS
10
197.825
20
-129.15
11
197.825
21
-117.15
0
CIRCLE
8
BLACK
10
-10.7375
20
-11.325
40
1.35
0
CIRCLE
8
BLACK
10
275.125
20
-23.925
40
0.8
0
LINE
8
BLACK
6
CONTINUOUS
10
40.45
20
-40.55
11
27.85
21
-40.55
0
LINE
8
BLACK
6
CONTINUOUS
10
278.075
20
-133.2
11
278.075
21
-135.3
0
LINE
8
BLACK
6
CONTINUOUS
10
177.475
20
-97.25
11
178.475
21
-98.25
0
LINE
8
BLACK
6
CONTINUOUS
10
297.175
20
-54.55
11
296.175
21
-53.55
0
CIRCLE
8
BLACK
10
225.512
20
-66.45
40
0.8
0
LINE
8
BLACK
6
CONTINUOUS
10
12.675
20
-98.25
11
12.675
21
-110.25
0
CIRCLE
8
BLACK
10
-6.0125
20
-85.35
40
0.8
0
CIRCLE
8
BLACK
10
119.2
20
-47.55
40
0.8
0
CIRCLE
8
BLACK
10
-10.7375
20
-23.925
40
0.8
0
CIRCLE
8
BLACK
10
208.975
20
-85.35
40
0.8
0
LINE
8
BLACK
6
CONTINUOUS
10
187.925
20
-29.925
11
187.925
21
-17.925
0
LINE
8
BLACK
6
CONTINUOUS
10
13.1
20
-72.45
11
13.1
21
-60.45
0
CIRCLE
8
BLACK
10
171.175
20
-23.925
40
0.8
0
CIRCLE
8
BLACK
10
272.325
20
-104.25
40
0.8
0
LINE
8
BLACK
6
CONTINUOUS
10
78.25
20
-40.55
11
65.65
21
-40.55
0
CIRCLE
8
BLACK
10
149.912
20
-23.925
40
0.8
0
LINE
8
BLACK
6
CONTINUOUS
10
182.775
20
-98.25
11
183.775
21
-97.25
0
LINE
8
BLACK
6
CONTINUOUS
10
301.737
20
-132.7
11
305.213
21
-132.7
0
LINE
8
BLACK
6
CONTINUOUS
10
93.425
20
-91.35
11
92.425
21
-92.35
0
LINE
8
BLACK
6
CONTINUOUS
10
214.237
20
-79.35
11
214.237
21
-90.6179
0
CIRCLE
8
BLACK
10
114.475
20
-85.35
40
0.8
0
LINE
8
BLACK
6
CONTINUOUS
10
275.175
20
-138.2
11
275.075
21
-138.2
0
LINE
8
BLACK
6
CONTINUOUS
10
93
20
-60.45
11
93
21
-72.45
0
CIRCLE
8
BLACK
10
203.425
20
-135.75
40
1.35
0
CIRCLE
8
BLACK
10
133.375
20
-123.15
40
0.8
0
LINE
8
BLACK
6
CONTINUOUS
10
173.75
20
-53.55
11
173.75
21
-41.55
0
CIRCLE
8
BLACK
10
86.125
20
-123.15
40
0.8
0
LINE
8
BLACK
6
CONTINUOUS
10
206.4
20
-60.45
11
206.4
21
-72.45
0
LINE
8
BLACK
6
CONTINUOUS
10
258.375
20
-60.45
11
259.375
21
-59.45
0
ARC
8
BLACK
10
-31
20
-15.475
40
1.6
50
-270
51
-180
0
LINE
8
BLACK
6
CONTINUOUS
10
51.475
20
-30.925
11
64.075
21
-30.925
0
CIRCLE
8
BLACK
10
48.325
20
-104.25
40
0.8
0
LINE
8
BLACK
6
CONTINUOUS
10
246.237
20
-90.6179
11
246.237
21
-79.35
0
CIRCLE
8
BLACK
10
16.075
20
-123.15
40
0.8
0
LINE
8
BLACK
6
CONTINUOUS
10
164.875
20
-111.25
11
163.875
21
-110.25
0
CIRCLE
8
BLACK
10
-8.375
20
-123.15
40
0.8
0
CIRCLE
8
BLACK
10
171.175
20
-85.35
40
0.8
0
CIRCLE
8
BLACK
10
19.975
20
-85.35
40
0.8
0
CIRCLE
8
BLACK
10
171.175
20
-11.325
40
1.35
0
LINE
8
BLACK
6
CONTINUOUS
10
126.5
20
-72.45
11
126.5
21
-60.45
0
CIRCLE
8
BLACK
10
-6.0125
20
-66.45
40
0.8
0
LINE
8
BLACK
6
CONTINUOUS
10
309.775
20
-116.15
11
310.775
21
-117.15
0
LINE
8
BLACK
6
CONTINUOUS
10
258.375
20
-117.15
11
259.375
21
-116.15
0
LINE
8
BLACK
6
CONTINUOUS
10
206.375
20
-133.2
11
206.375
21
-135.3
0
LINE
8
BLACK
6
CONTINUOUS
10
291.875
20
-53.55
11
291.875
21
-41.55
0
CIRCLE
8
BLACK
10
-27.275
20
-66.45
40
0.8
0
LINE
8
BLACK
6
CONTINUOUS
10
211.125
20
-17.925
11
212.125
21
-16.925
0
LINE
8
BLACK
6
CONTINUOUS
10
101.875
20
-97.25
11
89.275
21
-97.25
0
LINE
8
BLACK
6
CONTINUOUS
10
107.6
20
-29.925
11
106.6
21
-30.925
0
LINE
8
BLACK
6
CONTINUOUS
10
259.375
20
-73.45
11
271.975
21
-73.45
0
ARC
8
BLACK
10
-19.5626
20
-136.2
40
3.5
50
90
51
112.798
0
CIRCLE
8
BLACK
10
-13.1
20
-47.55
40
0.8
0
ARC
8
BLACK
10
-13.6074
20
-130.3
40
2.90002
50
-112.798
51
-90.0001
0
ARC
8
BLACK
10
299.257
20
-130.3
40
2.90002
50
-89.9991
51
-67.201
0
CIRCLE
8
BLACK
10
-27.275
20
-123.15
40
0.8
0
LINE
8
BLACK
6
CONTINUOUS
10
45.175
20
-97.25
11
32.575
21
-97.25
0
CIRCLE
8
BLACK
10
161.725
20
-104.25
40
0.8
0
LINE
8
BLACK
6
CONTINUOUS
10
220.495
20
-128.45
11
220.495
21
-117.85
0
CIRCLE
8
BLACK
10
29.425
20
-23.925
40
0.8
0
LINE
8
BLACK
6
CONTINUOUS
10
21.55
20
-40.55
11
8.95
21
-40.55
0
ARC
8
BLACK
10
203.475
20
-135.3
40
2.9
50
-90
51
-0
0
LINE
8
BLACK
6
CONTINUOUS
10
78.825
20
-79.35
11
78.825
21
-91.35
0
ARC
8
BLACK
10
-18.3324
20
-16.775
40
2.90002
50
90.0001
51
112.798
0
ARC
8
BLACK
10
203.375
20
-135.3
40
2.9
50
-180
51
-90
0
LINE
8
BLACK
6
CONTINUOUS
10
310.775
20
-29.925
11
309.775
21
-30.925
0
LINE
8
BLACK
6
CONTINUOUS
10
277.275
20
-117.15
11
277.275
21
-129.15
0
CIRCLE
8
BLACK
10
303.475
20
-35.7375
40
0.8
0
LINE
8
BLACK
6
CONTINUOUS
10
206.825
20
-91.35
11
206.825
21
-79.35
0
LINE
8
BLACK
6
CONTINUOUS
10
168.225
20
-13.875
11
168.225
21
-11.775
0
LINE
8
BLACK
6
CONTINUOUS
10
163.875
20
-98.25
11
163.875
21
-110.25
0
CIRCLE
8
BLACK
10
43.6
20
-47.55
40
0.8
0
LINE
8
BLACK
6
CONTINUOUS
10
231.025
20
-130.15
11
230.025
21
-129.15
0
ARC
8
BLACK
10
259.175
20
-77.75
40
0.5
50
90
51
180
0
CIRCLE
8
BLACK
10
194.8
20
-47.55
40
0.8
0
LINE
8
BLACK
6
CONTINUOUS
10
290.875
20
-16.925
11
278.275
21
-16.925
0
LINE
8
BLACK
6
CONTINUOUS
10
272.175
20
-133.2
11
206.375
21
-133.2
0
LINE
8
BLACK
6
CONTINUOUS
10
64.075
20
-16.925
11
51.475
21
-16.925
0
LINE
8
BLACK
6
CONTINUOUS
10
2.263
20
-111.25
11
5.263
21
-109.518
0
LINE
8
BLACK
6
CONTINUOUS
10
271.975
20
-40.55
11
272.975
21
-41.55
0
LINE
8
BLACK
6
CONTINUOUS
10
87.7
20
-16.925
11
75.1
21
-16.925
0
LINE
8
BLACK
6
CONTINUOUS
10
168.6
20
-60.45
11
168.6
21
-72.45
0
CIRCLE
8
BLACK
10
157
20
-47.55
40
0.8
0
LINE
8
BLACK
6
CONTINUOUS
10
13.675
20
-30.925
11
26.275
21
-30.925
0
LINE
8
BLACK
6
CONTINUOUS
10
135.95
20
-53.55
11
134.95
21
-54.55
0
LINE
8
BLACK
6
CONTINUOUS
10
310.775
20
-29.925
11
310.775
21
-17.925
0
LINE
8
BLACK
6
CONTINUOUS
10
272.175
20
-135.3
11
272.175
21
-133.2
0
ARC
8
BLACK
10
275.175
20
-135.3
40
2.9
50
-90
51
-0
0
LINE
8
BLACK
6
CONTINUOUS
10
230.025
20
-60.45
11
230.025
21
-72.45
0
LINE
8
BLACK
6
CONTINUOUS
10
211.125
20
-17.925
11
211.125
21
-29.925
0
LINE
8
BLACK
6
CONTINUOUS
10
225.725
20
-29.925
11
225.725
21
-17.925
0
CIRCLE
8
BLACK
10
199.525
20
-104.25
40
0.8
0
LINE
8
BLACK
6
CONTINUOUS
10
210.55
20
-40.55
11
211.55
21
-41.55
0
LINE
8
BLACK
6
CONTINUOUS
10
-10.525
20
-129.15
11
-11.525
21
-130.15
0
LINE
8
BLACK
6
CONTINUOUS
10
291.875
20
-110.25
11
291.875
21
-98.25
0
CIRCLE
8
BLACK
10
16.075
20
-135.75
40
1.35
0
LINE
8
BLACK
6
CONTINUOUS
10
0.005
20
-129.45
11
11.145
21
-129.45
0
CIRCLE
8
BLACK
10
86.125
20
-104.25
40
0.8
0
LINE
8
BLACK
6
CONTINUOUS
10
-10.525
20
-129.15
11
-10.525
21
-117.15
0
CIRCLE
8
BLACK
10
10.525
20
-104.25
40
0.8
0
LINE
8
BLACK
6
CONTINUOUS
10
37.3
20
-73.45
11
49.9
21
-73.45
0
LINE
8
BLACK
6
CONTINUOUS
10
2.65
20
-40.55
11
-9.95
21
-40.55
0
CIRCLE
8
BLACK
10
142.825
20
-104.25
40
0.8
0
LINE
8
BLACK
6
CONTINUOUS
10
200.475
20
-133.2
11
19.025
21
-133.2
0
LINE
8
BLACK
6
CONTINUOUS
10
46.175
20
-29.925
11
46.175
21
-17.925
0
CIRCLE
8
BLACK
10
80.2188
20
-11.325
40
1.35
0
LINE
8
BLACK
6
CONTINUOUS
10
278.275
20
-30.925
11
290.875
21
-30.925
0
LINE
8
BLACK
6
CONTINUOUS
10
197.375
20
-110.25
11
196.375
21
-111.25
0
LINE
8
BLACK
6
CONTINUOUS
10
-9.95
20
-54.55
11
2.65
21
-54.55
0
CIRCLE
8
BLACK
10
275.125
20
-135.75
40
1.35
0
CIRCLE
8
BLACK
10
294.025
20
-11.325
40
1.35
0
LINE
8
BLACK
6
CONTINUOUS
10
299.257
20
-133.2
11
278.075
21
-133.2
0
LINE
8
BLACK
6
CONTINUOUS
10
88.7
20
-29.925
11
87.7
21
-30.925
0
LINE
8
BLACK
6
CONTINUOUS
10
50.9
20
-72.45
11
50.9
21
-60.45
0
ARC
8
BLACK
10
275.075
20
-135.3
40
2.9
50
-180
51
-90
0
LINE
8
BLACK
6
CONTINUOUS
10
200.475
20
-135.3
11
200.475
21
-133.2
0
LINE
8
BLACK
6
CONTINUOUS
10
160.15
20
-54.55
11
159.15
21
-53.55
0
ARC
8
BLACK
10
307.693
20
-130.3
40
2.9
50
-112.799
51
-90.0009
0
LINE
8
BLACK
6
CONTINUOUS
10
59.925
20
-79.35
11
60.925
21
-78.35
0
LINE
8
BLACK
6
CONTINUOUS
10
311.925
20
-133.2
11
307.693
21
-133.2
0
LINE
8
BLACK
6
CONTINUOUS
10
224.725
20
-16.925
11
225.725
21
-17.925
0
ARC
8
BLACK
10
311.925
20
-131.6
40
1.6
50
-90
51
-0
0
LINE
8
BLACK
6
CONTINUOUS
10
12.675
20
-17.925
11
13.675
21
-16.925
0
LINE
8
BLACK
6
CONTINUOUS
10
-15.25
20
-53.55
11
-15.25
21
-41.55
0
LINE
8
BLACK
6
CONTINUOUS
10
214.237
20
-90.6179
11
217.237
21
-92.35
0
LINE
8
BLACK
6
CONTINUOUS
10
-24.125
20
-130.15
11
-11.525
21
-130.15
0
LINE
8
BLACK
6
CONTINUOUS
10
313.525
20
-15.475
11
313.525
21
-131.6
0
ARC
8
BLACK
10
311.925
20
-15.475
40
1.6
50
-0
51
90
0
LINE
8
BLACK
6
CONTINUOUS
10
307.693
20
-13.875
11
311.925
21
-13.875
0
LINE
8
BLACK
6
CONTINUOUS
10
172.75
20
-40.55
11
160.15
21
-40.55
0
LINE
8
BLACK
6
CONTINUOUS
10
230.025
20
-117.15
11
231.025
21
-116.15
0
ARC
8
BLACK
10
307.693
20
-16.775
40
2.90002
50
90.0009
51
112.799
0
ARC
8
BLACK
10
305.213
20
-10.875
40
3.50001
50
-89.9994
51
-67.2012
0
LINE
8
BLACK
6
CONTINUOUS
10
93
20
-60.45
11
94
21
-59.45
0
LINE
8
BLACK
6
CONTINUOUS
10
234.75
20
-17.925
11
234.75
21
-29.925
0
LINE
8
BLACK
6
CONTINUOUS
10
305.213
20
-14.375
11
301.737
21
-14.375
0
LINE
8
BLACK
6
CONTINUOUS
10
290.875
20
-116.15
11
291.875
21
-117.15
0
LINE
8
BLACK
6
CONTINUOUS
10
64.65
20
-41.55
11
65.65
21
-40.55
0
ARC
8
BLACK
10
301.737
20
-10.875
40
3.5
50
-112.799
51
-90.0006
0
LINE
8
BLACK
6
CONTINUOUS
10
-24.125
20
-130.15
11
-25.125
21
-129.15
0
LINE
8
BLACK
6
CONTINUOUS
10
291.875
20
-53.55
11
290.875
21
-54.55
0
ARC
8
BLACK
10
299.257
20
-16.775
40
2.9
50
67.201
51
89.9991
0
LINE
8
BLACK
6
CONTINUOUS
10
160.15
20
-54.55
11
172.75
21
-54.55
0
LINE
8
BLACK
6
CONTINUOUS
10
296.975
20
-13.875
11
299.257
21
-13.875
0
LINE
8
BLACK
6
CONTINUOUS
10
278.275
20
-73.45
11
290.875
21
-73.45
0
LINE
8
BLACK
6
CONTINUOUS
10
296.175
20
-117.15
11
297.175
21
-116.15
0
LINE
8
BLACK
6
CONTINUOUS
10
7.375
20
-16.925
11
8.375
21
-17.925
0
LINE
8
BLACK
6
CONTINUOUS
10
69.375
20
-98.25
11
70.375
21
-97.25
0
LINE
8
BLACK
6
CONTINUOUS
10
296.975
20
-11.775
11
296.975
21
-13.875
0
LINE
8
BLACK
6
CONTINUOUS
10
36.725
20
-91.35
11
36.725
21
-79.35
0
LINE
8
BLACK
6
CONTINUOUS
10
141.25
20
-54.55
11
153.85
21
-54.55
0
LINE
8
BLACK
6
CONTINUOUS
10
259.375
20
-130.15
11
271.975
21
-130.15
0
ARC
8
BLACK
10
294.075
20
-11.775
40
2.9
50
-0
51
90
0
LINE
8
BLACK
6
CONTINUOUS
10
293.975
20
-8.875
11
294.075
21
-8.875
0
ARC
8
BLACK
10
293.975
20
-11.775
40
2.9
50
90
51
180
0
LINE
8
BLACK
6
CONTINUOUS
10
93
20
-17.925
11
93
21
-29.925
0
LINE
8
BLACK
6
CONTINUOUS
10
103.45
20
-54.55
11
102.45
21
-53.55
0
LINE
8
BLACK
6
CONTINUOUS
10
291.075
20
-13.875
11
291.075
21
-11.775
0
LINE
8
BLACK
6
CONTINUOUS
10
35.725
20
-78.35
11
36.725
21
-79.35
0
LINE
8
BLACK
6
CONTINUOUS
10
174.125
20
-13.875
11
291.075
21
-13.875
0
LINE
8
BLACK
6
CONTINUOUS
10
297.175
20
-30.925
11
309.775
21
-30.925
0
LINE
8
BLACK
6
CONTINUOUS
10
174.125
20
-11.775
11
174.125
21
-13.875
0
ARC
8
BLACK
10
171.225
20
-11.775
40
2.9
50
-0
51
90
0
LINE
8
BLACK
6
CONTINUOUS
10
102.45
20
-117.15
11
103.45
21
-116.15
0
LINE
8
BLACK
6
CONTINUOUS
10
171.125
20
-8.875
11
171.225
21
-8.875
0
LINE
8
BLACK
6
CONTINUOUS
10
111.9
20
-60.45
11
111.9
21
-72.45
0
ARC
8
BLACK
10
171.125
20
-11.775
40
2.9
50
90
51
180
0
LINE
8
BLACK
6
CONTINUOUS
10
74.1
20
-17.925
11
75.1
21
-16.925
0
LINE
8
BLACK
6
CONTINUOUS
10
154.425
20
-17.925
11
154.425
21
-29.925
0
LINE
8
BLACK
6
CONTINUOUS
10
83.1688
20
-13.875
11
168.225
21
-13.875
0
LINE
8
BLACK
6
CONTINUOUS
10
120.775
20
-97.25
11
121.775
21
-98.25
0
LINE
8
BLACK
6
CONTINUOUS
10
83.1688
20
-11.775
11
83.1688
21
-13.875
0
LINE
8
BLACK
6
CONTINUOUS
10
68.8
20
-59.45
11
69.8
21
-60.45
0
LINE
8
BLACK
6
CONTINUOUS
10
297.175
20
-54.55
11
309.775
21
-54.55
0
LINE
8
BLACK
6
CONTINUOUS
10
80.1688
20
-8.875
11
80.2687
21
-8.875
0
ARC
8
BLACK
10
80.1687
20
-11.775
40
2.9
50
-270
51
-180
0
LINE
8
BLACK
6
CONTINUOUS
10
77.2687
20
-13.875
11
77.2687
21
-11.775
0
LINE
8
BLACK
6
CONTINUOUS
10
64.65
20
-41.55
11
64.65
21
-53.55
0
LINE
8
BLACK
6
CONTINUOUS
10
-7.7875
20
-13.875
11
77.2687
21
-13.875
0
LINE
8
BLACK
6
CONTINUOUS
10
-7.7875
20
-11.775
11
-7.7875
21
-13.875
0
LINE
8
BLACK
6
CONTINUOUS
10
271.975
20
-16.925
11
259.375
21
-16.925
0
ARC
8
BLACK
10
-10.6875
20
-11.775
40
2.9
50
-1.97572e-05
51
90
0
LINE
8
BLACK
6
CONTINUOUS
10
-15.25
20
-29.925
11
-16.25
21
-30.925
0
LINE
8
BLACK
6
CONTINUOUS
10
-10.7875
20
-8.875
11
-10.6875
21
-8.875
0
ARC
8
BLACK
10
-10.7875
20
-11.775
40
2.9
50
-270
51
-180
0
LINE
8
BLACK
6
CONTINUOUS
10
46.75
20
-54.55
11
59.35
21
-54.55
0
LINE
8
BLACK
6
CONTINUOUS
10
187.925
20
-91.35
11
186.925
21
-92.35
0
LINE
8
BLACK
6
CONTINUOUS
10
-13.6875
20
-13.875
11
-13.6875
21
-11.775
0
LINE
8
BLACK
6
CONTINUOUS
10
-18.3324
20
-13.875
11
-13.6875
21
-13.875
0
LINE
8
BLACK
6
CONTINUOUS
10
212.125
20
-30.925
11
224.725
21
-30.925
0
ARC
8
BLACK
10
-20.8124
20
-10.875
40
3.5
50
-90
51
-67.2018
0
LINE
8
BLACK
6
CONTINUOUS
10
144.4
20
-16.925
11
131.8
21
-16.925
0
LINE
8
BLACK
6
CONTINUOUS
10
290.875
20
-97.25
11
278.275
21
-97.25
0
LINE
8
BLACK
6
CONTINUOUS
10
-20.8124
20
-14.375
11
-24.2876
21
-14.375
0
LINE
8
BLACK
6
CONTINUOUS
10
121.775
20
-110.25
11
121.775
21
-98.25
0
LINE
8
BLACK
6
CONTINUOUS
10
50.475
20
-17.925
11
50.475
21
-29.925
0
ARC
8
BLACK
10
-24.2876
20
-10.875
40
3.5
50
-112.798
51
-90
0
LINE
8
BLACK
6
CONTINUOUS
10
59.4
20
-116.7
11
59.4
21
-129.6
0
LINE
8
BLACK
6
CONTINUOUS
10
-15.25
20
-53.55
11
-16.25
21
-54.55
0
LINE
8
BLACK
6
CONTINUOUS
10
116.05
20
-40.55
11
103.45
21
-40.55
0
LINE
8
BLACK
6
CONTINUOUS
10
193.225
20
-92.35
11
192.225
21
-91.35
0
ARC
8
BLACK
10
-26.7676
20
-16.775
40
2.90002
50
67.2019
51
89.9999
0
LINE
8
BLACK
6
CONTINUOUS
10
-9.95
20
-54.55
11
-10.95
21
-53.55
0
LINE
8
BLACK
6
CONTINUOUS
10
32.575
20
-30.925
11
31.575
21
-29.925
0
LINE
8
BLACK
6
CONTINUOUS
10
41.025
20
-79.35
11
42.025
21
-78.35
0
LINE
8
BLACK
6
CONTINUOUS
10
217.237
20
-92.35
11
243.237
21
-92.35
0
LINE
8
BLACK
6
CONTINUOUS
10
-31
20
-13.875
11
-26.7676
21
-13.875
0
LINE
8
BLACK
6
CONTINUOUS
10
-11.525
20
-116.15
11
-24.125
21
-116.15
0
LINE
8
BLACK
6
CONTINUOUS
10
-32.6
20
-131.6
11
-32.6
21
-15.475
0
ARC
8
BLACK
10
-31
20
-131.6
40
1.6
50
-180
51
-90
0
LINE
8
BLACK
6
CONTINUOUS
10
-24.125
20
-73.45
11
-11.525
21
-73.45
0
LINE
8
BLACK
6
CONTINUOUS
10
75.1
20
-30.925
11
74.1
21
-29.925
0
LINE
8
BLACK
6
CONTINUOUS
10
-22.0426
20
-133.2
11
-31
21
-133.2
0
LINE
8
BLACK
6
CONTINUOUS
10
135.525
20
-79.35
11
136.525
21
-78.35
0
ARC
8
BLACK
10
-22.0426
20
-130.3
40
2.90002
50
-89.9999
51
-67.2019
0
LINE
8
BLACK
6
CONTINUOUS
10
125.5
20
-59.45
11
112.9
21
-59.45
0
LINE
8
BLACK
6
CONTINUOUS
10
145.4
20
-72.45
11
144.4
21
-73.45
0
LINE
8
BLACK
6
CONTINUOUS
10
-11.525
20
-59.45
11
-10.525
21
-60.45
0
LINE
8
BLACK
6
CONTINUOUS
10
-19.5626
20
-132.7
11
-16.0874
21
-132.7
0
ARC
8
BLACK
10
-16.0874
20
-136.2
40
3.5
50
67.2018
51
90
0
LINE
8
BLACK
6
CONTINUOUS
10
106.6
20
-59.45
11
107.6
21
-60.45
0
LINE
8
BLACK
6
CONTINUOUS
10
197.825
20
-129.15
11
196.825
21
-130.15
0
LINE
8
BLACK
6
CONTINUOUS
10
13.125
20
-133.2
11
-13.6074
21
-133.2
0
LINE
8
BLACK
6
CONTINUOUS
10
13.125
20
-135.3
11
13.125
21
-133.2
0
LINE
8
BLACK
6
CONTINUOUS
10
-28.85
20
-54.55
11
-29.85
21
-53.55
0
LINE
8
BLACK
6
CONTINUOUS
10
278.275
20
-73.45
11
277.275
21
-72.45
0
ARC
8
BLACK
10
16.025
20
-135.3
40
2.9
50
-180
51
-90
0
LINE
8
BLACK
6
CONTINUOUS
10
207.4
20
-73.45
11
220
21
-73.45
0
LINE
8
BLACK
6
CONTINUOUS
10
16.125
20
-138.2
11
16.025
21
-138.2
0
LINE
8
BLACK
6
CONTINUOUS
10
196.825
20
-116.15
11
197.825
21
-117.15
0
ARC
8
BLACK
10
16.125
20
-135.3
40
2.9
50
-90
51
1.97572e-05
0
LINE
8
BLACK
6
CONTINUOUS
10
231.025
20
-73.45
11
243.625
21
-73.45
0
LINE
8
BLACK
6
CONTINUOUS
10
310.775
20
-72.45
11
309.775
21
-73.45
0
ARC
8
BLACK
10
309.975
20
-77.75
40
0.5
50
-0
51
90
0
LINE
8
BLACK
6
CONTINUOUS
10
310.475
20
-77.75
11
310.475
21
-92.95
0
LINE
8
BLACK
6
CONTINUOUS
10
277.275
20
-98.25
11
277.275
21
-110.25
0
LINE
8
BLACK
6
CONTINUOUS
10
297.175
20
-130.15
11
296.175
21
-129.15
0
ARC
8
BLACK
10
309.975
20
-92.95
40
0.5
50
-90
51
-0
0
LINE
8
BLACK
6
CONTINUOUS
10
278.275
20
-30.925
11
277.275
21
-29.925
0
LINE
8
BLACK
6
CONTINUOUS
10
126.5
20
-29.925
11
125.5
21
-30.925
0
LINE
8
BLACK
6
CONTINUOUS
10
259.175
20
-93.45
11
309.975
21
-93.45
0
LINE
8
BLACK
6
CONTINUOUS
10
106.6
20
-16.925
11
94
21
-16.925
0
LINE
8
BLACK
6
CONTINUOUS
10
245.237
20
-78.35
11
246.237
21
-79.35
0
LINE
8
BLACK
6
CONTINUOUS
10
258.675
20
-77.75
11
258.675
21
-92.95
0
LINE
8
BLACK
6
CONTINUOUS
10
278.275
20
-130.15
11
277.275
21
-129.15
0
LINE
8
BLACK
6
CONTINUOUS
10
259.175
20
-77.25
11
309.975
21
-77.25
0
LINE
8
BLACK
6
CONTINUOUS
10
131.8
20
-30.925
11
130.8
21
-29.925
0
LINE
8
BLACK
6
CONTINUOUS
10
-16.25
20
-16.925
11
-15.25
21
-17.925
0
LINE
8
BLACK
6
CONTINUOUS
10
-28.85
20
-30.925
11
-16.25
21
-30.925
0
LINE
8
BLACK
6
CONTINUOUS
10
169.6
20
-73.45
11
182.2
21
-73.45
0
LINE
8
BLACK
6
CONTINUOUS
10
-28.85
20
-30.925
11
-29.85
21
-29.925
0
LINE
8
BLACK
6
CONTINUOUS
10
-9.1625
20
-78.35
11
-8.1625
21
-79.35
0
LINE
8
BLACK
6
CONTINUOUS
10
244.625
20
-129.15
11
243.625
21
-130.15
0
LINE
8
BLACK
6
CONTINUOUS
10
-29.85
20
-17.925
11
-29.85
21
-29.925
0
LINE
8
BLACK
6
CONTINUOUS
10
-29.85
20
-17.925
11
-28.85
21
-16.925
0
LINE
8
BLACK
6
CONTINUOUS
10
-16.25
20
-40.55
11
-28.85
21
-40.55
0
LINE
8
BLACK
6
CONTINUOUS
10
-16.25
20
-16.925
11
-28.85
21
-16.925
0
LINE
8
BLACK
6
CONTINUOUS
10
-15.25
20
-29.925
11
-15.25
21
-17.925
0
LINE
8
BLACK
6
CONTINUOUS
10
45.175
20
-16.925
11
32.575
21
-16.925
0
LINE
8
BLACK
6
CONTINUOUS
10
117.05
20
-53.55
11
117.05
21
-41.55
0
LINE
8
BLACK
6
CONTINUOUS
10
-29.85
20
-41.55
11
-29.85
21
-53.55
0
LINE
8
BLACK
6
CONTINUOUS
10
272.975
20
-72.45
11
271.975
21
-73.45
0
LINE
8
BLACK
6
CONTINUOUS
10
258.375
20
-41.55
11
259.375
21
-40.55
0
LINE
8
BLACK
6
CONTINUOUS
10
130.8
20
-17.925
11
130.8
21
-29.925
0
LINE
8
BLACK
6
CONTINUOUS
10
36.3
20
-60.45
11
37.3
21
-59.45
0
LINE
8
BLACK
6
CONTINUOUS
10
271.975
20
-40.55
11
259.375
21
-40.55
0
LINE
8
BLACK
6
CONTINUOUS
10
31.575
20
-17.925
11
32.575
21
-16.925
0
LINE
8
BLACK
6
CONTINUOUS
10
291.875
20
-110.25
11
290.875
21
-111.25
0
LINE
8
BLACK
6
CONTINUOUS
10
290.875
20
-116.15
11
278.275
21
-116.15
0
LINE
8
BLACK
6
CONTINUOUS
10
272.975
20
-53.55
11
272.975
21
-41.55
0
LINE
8
BLACK
6
CONTINUOUS
10
116.625
20
-79.35
11
116.625
21
-91.35
0
LINE
8
BLACK
6
CONTINUOUS
10
290.875
20
-59.45
11
291.875
21
-60.45
0
LINE
8
BLACK
6
CONTINUOUS
10
272.975
20
-53.55
11
271.975
21
-54.55
0
LINE
8
BLACK
6
CONTINUOUS
10
106.6
20
-16.925
11
107.6
21
-17.925
0
LINE
8
BLACK
6
CONTINUOUS
10
259.375
20
-54.55
11
271.975
21
-54.55
0
LINE
8
BLACK
6
CONTINUOUS
10
259.375
20
-54.55
11
258.375
21
-53.55
0
LINE
8
BLACK
6
CONTINUOUS
10
144.4
20
-59.45
11
145.4
21
-60.45
0
LINE
8
BLACK
6
CONTINUOUS
10
296.175
20
-41.55
11
296.175
21
-53.55
0
LINE
8
BLACK
6
CONTINUOUS
10
296.175
20
-41.55
11
297.175
21
-40.55
0
LINE
8
BLACK
6
CONTINUOUS
10
135.525
20
-79.35
11
135.525
21
-91.35
0
LINE
8
BLACK
6
CONTINUOUS
10
309.775
20
-40.55
11
310.775
21
-41.55
0
LINE
8
BLACK
6
CONTINUOUS
10
310.775
20
-53.55
11
310.775
21
-41.55
0
LINE
8
BLACK
6
CONTINUOUS
10
310.775
20
-53.55
11
309.775
21
-54.55
0
LINE
8
BLACK
6
CONTINUOUS
10
296.175
20
-17.925
11
297.175
21
-16.925
0
LINE
8
BLACK
6
CONTINUOUS
10
277.275
20
-60.45
11
277.275
21
-72.45
0
LINE
8
BLACK
6
CONTINUOUS
10
134.95
20
-40.55
11
135.95
21
-41.55
0
LINE
8
BLACK
6
CONTINUOUS
10
277.275
20
-60.45
11
278.275
21
-59.45
0
LINE
8
BLACK
6
CONTINUOUS
10
309.775
20
-16.925
11
297.175
21
-16.925
0
LINE
8
BLACK
6
CONTINUOUS
10
172.75
20
-40.55
11
173.75
21
-41.55
0
LINE
8
BLACK
6
CONTINUOUS
10
291.875
20
-72.45
11
291.875
21
-60.45
0
LINE
8
BLACK
6
CONTINUOUS
10
259.375
20
-30.925
11
271.975
21
-30.925
0
LINE
8
BLACK
6
CONTINUOUS
10
291.875
20
-72.45
11
290.875
21
-73.45
0
LINE
8
BLACK
6
CONTINUOUS
10
258.375
20
-60.45
11
258.375
21
-72.45
0
LINE
8
BLACK
6
CONTINUOUS
10
84.55
20
-54.55
11
97.15
21
-54.55
0
LINE
8
BLACK
6
CONTINUOUS
10
214.237
20
-79.35
11
215.237
21
-78.35
0
LINE
8
BLACK
6
CONTINUOUS
10
4.263
20
-97.25
11
-25.737
21
-97.25
0
LINE
8
BLACK
6
CONTINUOUS
10
271.975
20
-59.45
11
259.375
21
-59.45
0
LINE
8
BLACK
6
CONTINUOUS
10
97.15
20
-40.55
11
84.55
21
-40.55
0
LINE
8
BLACK
6
CONTINUOUS
10
271.975
20
-59.45
11
272.975
21
-60.45
0
LINE
8
BLACK
6
CONTINUOUS
10
70.375
20
-111.25
11
69.375
21
-110.25
0
LINE
8
BLACK
6
CONTINUOUS
10
249.35
20
-29.925
11
248.35
21
-30.925
0
LINE
8
BLACK
6
CONTINUOUS
10
169.025
20
-91.35
11
169.025
21
-79.35
0
LINE
8
BLACK
6
CONTINUOUS
10
272.975
20
-72.45
11
272.975
21
-60.45
0
LINE
8
BLACK
6
CONTINUOUS
10
145.975
20
-111.25
11
158.575
21
-111.25
0
LINE
8
BLACK
6
CONTINUOUS
10
243.625
20
-59.45
11
231.025
21
-59.45
0
LINE
8
BLACK
6
CONTINUOUS
10
259.375
20
-73.45
11
258.375
21
-72.45
0
LINE
8
BLACK
6
CONTINUOUS
10
277.275
20
-41.55
11
278.275
21
-40.55
0
LINE
8
BLACK
6
CONTINUOUS
10
258.375
20
-117.15
11
258.375
21
-129.15
0
LINE
8
BLACK
6
CONTINUOUS
10
271.975
20
-116.15
11
259.375
21
-116.15
0
LINE
8
BLACK
6
CONTINUOUS
10
310.775
20
-129.15
11
309.775
21
-130.15
0
LINE
8
BLACK
6
CONTINUOUS
10
271.975
20
-116.15
11
272.975
21
-117.15
0
ARC
8
BLACK
10
46.3
20
-116.7
40
0.500001
50
90.0001
51
180
0
LINE
8
BLACK
6
CONTINUOUS
10
98.15
20
-53.55
11
98.15
21
-41.55
0
LINE
8
BLACK
6
CONTINUOUS
10
272.975
20
-129.15
11
271.975
21
-130.15
0
LINE
8
BLACK
6
CONTINUOUS
10
84.55
20
-54.55
11
83.55
21
-53.55
0
LINE
8
BLACK
6
CONTINUOUS
10
193.225
20
-92.35
11
205.825
21
-92.35
0
LINE
8
BLACK
6
CONTINUOUS
10
196.375
20
-97.25
11
183.775
21
-97.25
0
LINE
8
BLACK
6
CONTINUOUS
10
259.375
20
-130.15
11
258.375
21
-129.15
0
LINE
8
BLACK
6
CONTINUOUS
10
277.275
20
-117.15
11
278.275
21
-116.15
0
LINE
8
BLACK
6
CONTINUOUS
10
-29.85
20
-41.55
11
-28.85
21
-40.55
0
LINE
8
BLACK
6
CONTINUOUS
10
291.875
20
-129.15
11
291.875
21
-117.15
0
LINE
8
BLACK
6
CONTINUOUS
10
192.225
20
-17.925
11
192.225
21
-29.925
0
LINE
8
BLACK
6
CONTINUOUS
10
164.3
20
-72.45
11
164.3
21
-60.45
0
LINE
8
BLACK
6
CONTINUOUS
10
291.875
20
-129.15
11
290.875
21
-130.15
0
LINE
8
BLACK
6
CONTINUOUS
10
278.275
20
-130.15
11
290.875
21
-130.15
0
LINE
8
BLACK
6
CONTINUOUS
10
112.325
20
-91.35
11
111.325
21
-92.35
0
LINE
8
BLACK
6
CONTINUOUS
10
107.6
20
-29.925
11
107.6
21
-17.925
0
LINE
8
BLACK
6
CONTINUOUS
10
297.175
20
-73.45
11
296.175
21
-72.45
0
LINE
8
BLACK
6
CONTINUOUS
10
196.825
20
-116.15
11
184.225
21
-116.15
0
LINE
8
BLACK
6
CONTINUOUS
10
5.263
20
-109.518
11
5.263
21
-98.25
0
LINE
8
BLACK
6
CONTINUOUS
10
112.9
20
-73.45
11
125.5
21
-73.45
0
LINE
8
BLACK
6
CONTINUOUS
10
184.225
20
-130.15
11
196.825
21
-130.15
0
LINE
8
BLACK
6
CONTINUOUS
10
140.25
20
-41.55
11
141.25
21
-40.55
0
LINE
8
BLACK
6
CONTINUOUS
10
184.225
20
-130.15
11
183.225
21
-129.15
0
LINE
8
BLACK
6
CONTINUOUS
10
205.825
20
-16.925
11
206.825
21
-17.925
0
LINE
8
BLACK
6
CONTINUOUS
10
22.675
20
-130.15
11
21.675
21
-129.15
0
LINE
8
BLACK
6
CONTINUOUS
10
183.225
20
-117.15
11
183.225
21
-129.15
0
LINE
8
BLACK
6
CONTINUOUS
10
159.15
20
-41.55
11
159.15
21
-53.55
0
LINE
8
BLACK
6
CONTINUOUS
10
55.2
20
-60.45
11
56.2
21
-59.45
0
LINE
8
BLACK
6
CONTINUOUS
10
183.225
20
-117.15
11
184.225
21
-116.15
0
LINE
8
BLACK
6
CONTINUOUS
10
174.325
20
-92.35
11
186.925
21
-92.35
0
LINE
8
BLACK
6
CONTINUOUS
10
2.65
20
-40.55
11
3.65
21
-41.55
0
LINE
8
BLACK
6
CONTINUOUS
10
296.175
20
-60.45
11
296.175
21
-72.45
0
LINE
8
BLACK
6
CONTINUOUS
10
278.275
20
-54.55
11
277.275
21
-53.55
0
LINE
8
BLACK
6
CONTINUOUS
10
296.175
20
-60.45
11
297.175
21
-59.45
0
LINE
8
BLACK
6
CONTINUOUS
10
309.775
20
-59.45
11
297.175
21
-59.45
0
LINE
8
BLACK
6
CONTINUOUS
10
159.575
20
-110.25
11
158.575
21
-111.25
0
LINE
8
BLACK
6
CONTINUOUS
10
243.625
20
-116.15
11
231.025
21
-116.15
0
LINE
8
BLACK
6
CONTINUOUS
10
309.775
20
-59.45
11
310.775
21
-60.45
0
LINE
8
BLACK
6
CONTINUOUS
10
310.775
20
-72.45
11
310.775
21
-60.45
0
LINE
8
BLACK
6
CONTINUOUS
10
144.975
20
-98.25
11
145.975
21
-97.25
0
LINE
8
BLACK
6
CONTINUOUS
10
193.225
20
-30.925
11
205.825
21
-30.925
0
LINE
8
BLACK
6
CONTINUOUS
10
46.75
20
-54.55
11
45.75
21
-53.55
0
LINE
8
BLACK
6
CONTINUOUS
10
149.7
20
-60.45
11
149.7
21
-72.45
0
LINE
8
BLACK
6
CONTINUOUS
10
112.325
20
-91.35
11
112.325
21
-79.35
0
LINE
8
BLACK
6
CONTINUOUS
10
290.875
20
-16.925
11
291.875
21
-17.925
0
LINE
8
BLACK
6
CONTINUOUS
10
-6.225
20
-17.925
11
-5.225
21
-16.925
0
LINE
8
BLACK
6
CONTINUOUS
10
40.45
20
-40.55
11
41.45
21
-41.55
0
LINE
8
BLACK
6
CONTINUOUS
10
296.175
20
-117.15
11
296.175
21
-129.15
0
LINE
8
BLACK
6
CONTINUOUS
10
207.4
20
-73.45
11
206.4
21
-72.45
0
LINE
8
BLACK
6
CONTINUOUS
10
153.85
20
-40.55
11
141.25
21
-40.55
0
LINE
8
BLACK
6
CONTINUOUS
10
121.35
20
-41.55
11
122.35
21
-40.55
0
LINE
8
BLACK
6
CONTINUOUS
10
206.4
20
-60.45
11
207.4
21
-59.45
0
LINE
8
BLACK
6
CONTINUOUS
10
220
20
-59.45
11
207.4
21
-59.45
0
LINE
8
BLACK
6
CONTINUOUS
10
35.725
20
-78.35
11
23.125
21
-78.35
0
LINE
8
BLACK
6
CONTINUOUS
10
220
20
-59.45
11
221
21
-60.45
0
LINE
8
BLACK
6
CONTINUOUS
10
83.55
20
-41.55
11
84.55
21
-40.55
0
LINE
8
BLACK
6
CONTINUOUS
10
221
20
-72.45
11
221
21
-60.45
0
LINE
8
BLACK
6
CONTINUOUS
10
221
20
-72.45
11
220
21
-73.45
0
LINE
8
BLACK
6
CONTINUOUS
10
13.675
20
-111.25
11
26.275
21
-111.25
0
LINE
8
BLACK
6
CONTINUOUS
10
78.25
20
-40.55
11
79.25
21
-41.55
0
LINE
8
BLACK
6
CONTINUOUS
10
192.225
20
-79.35
11
192.225
21
-91.35
0
LINE
8
BLACK
6
CONTINUOUS
10
155.425
20
-92.35
11
168.025
21
-92.35
0
LINE
8
BLACK
6
CONTINUOUS
10
18.4
20
-73.45
11
17.4
21
-72.45
0
LINE
8
BLACK
6
CONTINUOUS
10
192.225
20
-79.35
11
193.225
21
-78.35
0
LINE
8
BLACK
6
CONTINUOUS
10
69.8
20
-72.45
11
68.8
21
-73.45
0
LINE
8
BLACK
6
CONTINUOUS
10
277.275
20
-41.55
11
277.275
21
-53.55
0
LINE
8
BLACK
6
CONTINUOUS
10
205.825
20
-78.35
11
193.225
21
-78.35
0
LINE
8
BLACK
6
CONTINUOUS
10
235.75
20
-30.925
11
248.35
21
-30.925
0
LINE
8
BLACK
6
CONTINUOUS
10
205.825
20
-78.35
11
206.825
21
-79.35
0
LINE
8
BLACK
6
CONTINUOUS
10
153.85
20
-40.55
11
154.85
21
-41.55
0
LINE
8
BLACK
6
CONTINUOUS
10
206.825
20
-91.35
11
205.825
21
-92.35
0
LINE
8
BLACK
6
CONTINUOUS
10
111.9
20
-60.45
11
112.9
21
-59.45
0
LINE
8
BLACK
6
CONTINUOUS
10
-22.7625
20
-79.35
11
-22.7625
21
-91.35
0
LINE
8
BLACK
6
CONTINUOUS
10
196.375
20
-97.25
11
197.375
21
-98.25
0
LINE
8
BLACK
6
CONTINUOUS
10
108.175
20
-111.25
11
107.175
21
-110.25
0
LINE
8
BLACK
6
CONTINUOUS
10
197.375
20
-110.25
11
197.375
21
-98.25
0
LINE
8
BLACK
6
CONTINUOUS
10
-22.7625
20
-79.35
11
-21.7625
21
-78.35
0
LINE
8
BLACK
6
CONTINUOUS
10
183.775
20
-111.25
11
196.375
21
-111.25
0
LINE
8
BLACK
6
CONTINUOUS
10
309.775
20
-16.925
11
310.775
21
-17.925
0
LINE
8
BLACK
6
CONTINUOUS
10
183.775
20
-111.25
11
182.775
21
-110.25
0
LINE
8
BLACK
6
CONTINUOUS
10
-10.95
20
-41.55
11
-10.95
21
-53.55
0
LINE
8
BLACK
6
CONTINUOUS
10
182.775
20
-98.25
11
182.775
21
-110.25
0
LINE
8
BLACK
6
CONTINUOUS
10
42.025
20
-92.35
11
41.025
21
-91.35
0
LINE
8
BLACK
6
CONTINUOUS
10
-26.737
20
-98.25
11
-25.737
21
-97.25
0
LINE
8
BLACK
6
CONTINUOUS
10
290.875
20
-40.55
11
278.275
21
-40.55
0
LINE
8
BLACK
6
CONTINUOUS
10
54.625
20
-78.35
11
42.025
21
-78.35
0
LINE
8
BLACK
6
CONTINUOUS
10
116.05
20
-116.15
11
103.45
21
-116.15
0
LINE
8
BLACK
6
CONTINUOUS
10
-25.125
20
-117.15
11
-25.125
21
-129.15
0
LINE
8
BLACK
6
CONTINUOUS
10
120.775
20
-97.25
11
108.175
21
-97.25
0
LINE
8
BLACK
6
CONTINUOUS
10
290.875
20
-40.55
11
291.875
21
-41.55
0
LINE
8
BLACK
6
CONTINUOUS
10
97.15
20
-40.55
11
98.15
21
-41.55
0
LINE
8
BLACK
6
CONTINUOUS
10
-9.1625
20
-78.35
11
-21.7625
21
-78.35
0
LINE
8
BLACK
6
CONTINUOUS
10
278.275
20
-54.55
11
290.875
21
-54.55
0
LINE
8
BLACK
6
CONTINUOUS
10
154.85
20
-53.55
11
153.85
21
-54.55
0
LINE
8
BLACK
6
CONTINUOUS
10
231.025
20
-73.45
11
230.025
21
-72.45
0
LINE
8
BLACK
6
CONTINUOUS
10
79.825
20
-92.35
11
78.825
21
-91.35
0
LINE
8
BLACK
6
CONTINUOUS
10
3.225
20
-79.35
11
3.225
21
-91.35
0
LINE
8
BLACK
6
CONTINUOUS
10
230.025
20
-60.45
11
231.025
21
-59.45
0
LINE
8
BLACK
6
CONTINUOUS
10
32.575
20
-111.25
11
45.175
21
-111.25
0
LINE
8
BLACK
6
CONTINUOUS
10
22.55
20
-53.55
11
21.55
21
-54.55
0
LINE
8
BLACK
6
CONTINUOUS
10
243.625
20
-59.45
11
244.625
21
-60.45
0
LINE
8
BLACK
6
CONTINUOUS
10
224.725
20
-16.925
11
212.125
21
-16.925
0
LINE
8
BLACK
6
CONTINUOUS
10
155.425
20
-30.925
11
168.025
21
-30.925
0
LINE
8
BLACK
6
CONTINUOUS
10
21.675
20
-117.15
11
22.675
21
-116.15
0
LINE
8
BLACK
6
CONTINUOUS
10
244.625
20
-72.45
11
244.625
21
-60.45
0
LINE
8
BLACK
6
CONTINUOUS
10
117.05
20
-53.55
11
116.05
21
-54.55
0
LINE
8
BLACK
6
CONTINUOUS
10
244.625
20
-72.45
11
243.625
21
-73.45
0
LINE
8
BLACK
6
CONTINUOUS
10
116.05
20
-40.55
11
117.05
21
-41.55
0
LINE
8
BLACK
6
CONTINUOUS
10
-0.5
20
-73.45
11
12.1
21
-73.45
0
LINE
8
BLACK
6
CONTINUOUS
10
64.075
20
-97.25
11
51.475
21
-97.25
0
LINE
8
BLACK
6
CONTINUOUS
10
202.1
20
-72.45
11
202.1
21
-60.45
0
LINE
8
BLACK
6
CONTINUOUS
10
-26.737
20
-98.25
11
-26.737
21
-109.518
0
LINE
8
BLACK
6
CONTINUOUS
10
102.875
20
-110.25
11
102.875
21
-98.25
0
LINE
8
BLACK
6
CONTINUOUS
10
245.237
20
-78.35
11
215.237
21
-78.35
0
LINE
8
BLACK
6
CONTINUOUS
10
243.237
20
-92.35
11
246.237
21
-90.6179
0
LINE
8
BLACK
6
CONTINUOUS
10
-23.737
20
-111.25
11
2.263
21
-111.25
0
LINE
8
BLACK
6
CONTINUOUS
10
309.775
20
-116.15
11
297.175
21
-116.15
0
ARC
8
BLACK
10
173.2
20
-129.6
40
0.5
50
-90
51
-0
0
LINE
8
BLACK
6
CONTINUOUS
10
111.9
20
-17.925
11
112.9
21
-16.925
0
LINE
8
BLACK
6
CONTINUOUS
10
310.775
20
-129.15
11
310.775
21
-117.15
0
LINE
8
BLACK
6
CONTINUOUS
10
69.375
20
-98.25
11
69.375
21
-110.25
0
LINE
8
BLACK
6
CONTINUOUS
10
-24.125
20
-73.45
11
-25.125
21
-72.45
0
LINE
8
BLACK
6
CONTINUOUS
10
296.175
20
-17.925
11
296.175
21
-29.925
0
LINE
8
BLACK
6
CONTINUOUS
10
169.025
20
-29.925
11
169.025
21
-17.925
0
LINE
8
BLACK
6
CONTINUOUS
10
297.175
20
-130.15
11
309.775
21
-130.15
0
LINE
8
BLACK
6
CONTINUOUS
10
192.65
20
-53.55
11
192.65
21
-41.55
0
LINE
8
BLACK
6
CONTINUOUS
10
259.375
20
-30.925
11
258.375
21
-29.925
0
LINE
8
BLACK
6
CONTINUOUS
10
277.275
20
-98.25
11
278.275
21
-97.25
0
LINE
8
BLACK
6
CONTINUOUS
10
8.375
20
-29.925
11
7.375
21
-30.925
0
LINE
8
BLACK
6
CONTINUOUS
10
12.1
20
-59.45
11
-0.5
21
-59.45
0
LINE
8
BLACK
6
CONTINUOUS
10
58.9
20
-130.1
11
46.3
21
-130.1
0
LINE
8
BLACK
6
CONTINUOUS
10
-25.125
20
-60.45
11
-24.125
21
-59.45
0
LINE
8
BLACK
6
CONTINUOUS
10
-0.5
20
-73.45
11
-1.5
21
-72.45
0
LINE
8
BLACK
6
CONTINUOUS
10
277.275
20
-17.925
11
278.275
21
-16.925
0
LINE
8
BLACK
6
CONTINUOUS
10
168.025
20
-16.925
11
155.425
21
-16.925
0
LINE
8
BLACK
6
CONTINUOUS
10
290.875
20
-97.25
11
291.875
21
-98.25
0
LINE
8
BLACK
6
CONTINUOUS
10
145.4
20
-29.925
11
144.4
21
-30.925
0
LINE
8
BLACK
6
CONTINUOUS
10
278.275
20
-111.25
11
290.875
21
-111.25
0
LINE
8
BLACK
6
CONTINUOUS
10
278.275
20
-111.25
11
277.275
21
-110.25
0
LINE
8
BLACK
6
CONTINUOUS
10
111.325
20
-78.35
11
112.325
21
-79.35
0
LINE
8
BLACK
6
CONTINUOUS
10
-8.1625
20
-91.35
11
-9.1625
21
-92.35
0
LINE
8
BLACK
6
CONTINUOUS
10
243.625
20
-116.15
11
244.625
21
-117.15
0
LINE
8
BLACK
6
CONTINUOUS
10
94
20
-30.925
11
106.6
21
-30.925
0
LINE
8
BLACK
6
CONTINUOUS
10
-8.1625
20
-91.35
11
-8.1625
21
-79.35
0
LINE
8
BLACK
6
CONTINUOUS
10
-5.225
20
-30.925
11
-6.225
21
-29.925
0
LINE
8
BLACK
6
CONTINUOUS
10
244.625
20
-129.15
11
244.625
21
-117.15
0
LINE
8
BLACK
6
CONTINUOUS
10
126.5
20
-29.925
11
126.5
21
-17.925
0
LINE
8
BLACK
6
CONTINUOUS
10
231.025
20
-130.15
11
243.625
21
-130.15
0
LINE
8
BLACK
6
CONTINUOUS
10
230.025
20
-117.15
11
230.025
21
-129.15
0
LINE
8
BLACK
6
CONTINUOUS
10
7.95
20
-41.55
11
7.95
21
-53.55
0
LINE
8
BLACK
6
CONTINUOUS
10
7.95
20
-41.55
11
8.95
21
-40.55
0
LINE
8
BLACK
6
CONTINUOUS
10
21.55
20
-40.55
11
22.55
21
-41.55
0
LINE
8
BLACK
6
CONTINUOUS
10
69.8
20
-72.45
11
69.8
21
-60.45
0
LINE
8
BLACK
6
CONTINUOUS
10
22.55
20
-53.55
11
22.55
21
-41.55
0
LINE
8
BLACK
6
CONTINUOUS
10
8.95
20
-54.55
11
21.55
21
-54.55
0
LINE
8
BLACK
6
CONTINUOUS
10
8.95
20
-54.55
11
7.95
21
-53.55
0
LINE
8
BLACK
6
CONTINUOUS
10
173.325
20
-17.925
11
173.325
21
-29.925
0
LINE
8
BLACK
6
CONTINUOUS
10
-10.95
20
-41.55
11
-9.95
21
-40.55
0
LINE
8
BLACK
6
CONTINUOUS
10
3.65
20
-53.55
11
3.65
21
-41.55
0
LINE
8
BLACK
6
CONTINUOUS
10
65.075
20
-29.925
11
65.075
21
-17.925
0
LINE
8
BLACK
6
CONTINUOUS
10
3.65
20
-53.55
11
2.65
21
-54.55
0
LINE
8
BLACK
6
CONTINUOUS
10
-1.5
20
-60.45
11
-1.5
21
-72.45
0
LINE
8
BLACK
6
CONTINUOUS
10
-1.5
20
-60.45
11
-0.5
21
-59.45
0
LINE
8
BLACK
6
CONTINUOUS
10
12.1
20
-59.45
11
13.1
21
-60.45
0
LINE
8
BLACK
6
CONTINUOUS
10
13.1
20
-72.45
11
12.1
21
-73.45
0
LINE
8
BLACK
6
CONTINUOUS
10
-11.525
20
-116.15
11
-10.525
21
-117.15
0
LINE
8
BLACK
6
CONTINUOUS
10
-25.125
20
-117.15
11
-24.125
21
-116.15
0
LINE
8
BLACK
6
CONTINUOUS
10
4.263
20
-97.25
11
5.263
21
-98.25
0
LINE
8
BLACK
6
CONTINUOUS
10
121.775
20
-110.25
11
120.775
21
-111.25
0
LINE
8
BLACK
6
CONTINUOUS
10
-26.737
20
-109.518
11
-23.737
21
-111.25
0
LINE
8
BLACK
6
CONTINUOUS
10
-21.7625
20
-92.35
11
-9.1625
21
-92.35
0
LINE
8
BLACK
6
CONTINUOUS
10
-21.7625
20
-92.35
11
-22.7625
21
-91.35
0
LINE
8
BLACK
6
CONTINUOUS
10
121.35
20
-41.55
11
121.35
21
-53.55
0
LINE
8
BLACK
6
CONTINUOUS
10
-28.85
20
-54.55
11
-16.25
21
-54.55
0
LINE
8
BLACK
6
CONTINUOUS
10
297.175
20
-30.925
11
296.175
21
-29.925
0
LINE
8
BLACK
6
CONTINUOUS
10
89.275
20
-111.25
11
88.275
21
-110.25
0
LINE
8
BLACK
6
CONTINUOUS
10
26.85
20
-41.55
11
26.85
21
-53.55
0
LINE
8
BLACK
6
CONTINUOUS
10
26.85
20
-41.55
11
27.85
21
-40.55
0
LINE
8
BLACK
6
CONTINUOUS
10
41.45
20
-53.55
11
41.45
21
-41.55
0
LINE
8
BLACK
6
CONTINUOUS
10
41.45
20
-53.55
11
40.45
21
-54.55
0
LINE
8
BLACK
6
CONTINUOUS
10
27.85
20
-54.55
11
40.45
21
-54.55
0
LINE
8
BLACK
6
CONTINUOUS
10
291.875
20
-29.925
11
290.875
21
-30.925
0
LINE
8
BLACK
6
CONTINUOUS
10
27.85
20
-54.55
11
26.85
21
-53.55
0
LINE
8
BLACK
6
CONTINUOUS
10
150.7
20
-73.45
11
149.7
21
-72.45
0
LINE
8
BLACK
6
CONTINUOUS
10
45.75
20
-41.55
11
45.75
21
-53.55
0
LINE
8
BLACK
6
CONTINUOUS
10
107.6
20
-72.45
11
106.6
21
-73.45
0
LINE
8
BLACK
6
CONTINUOUS
10
45.75
20
-41.55
11
46.75
21
-40.55
0
LINE
8
BLACK
6
CONTINUOUS
10
59.35
20
-40.55
11
46.75
21
-40.55
0
LINE
8
BLACK
6
CONTINUOUS
10
35.275
20
-116.15
11
22.675
21
-116.15
0
LINE
8
BLACK
6
CONTINUOUS
10
59.35
20
-40.55
11
60.35
21
-41.55
0
LINE
8
BLACK
6
CONTINUOUS
10
173.325
20
-79.35
11
174.325
21
-78.35
0
LINE
8
BLACK
6
CONTINUOUS
10
60.35
20
-53.55
11
60.35
21
-41.55
0
LINE
8
BLACK
6
CONTINUOUS
10
60.35
20
-53.55
11
59.35
21
-54.55
0
LINE
8
BLACK
6
CONTINUOUS
10
79.25
20
-53.55
11
79.25
21
-41.55
0
LINE
8
BLACK
6
CONTINUOUS
10
3.225
20
-79.35
11
4.225
21
-78.35
0
LINE
8
BLACK
6
CONTINUOUS
10
79.25
20
-53.55
11
78.25
21
-54.55
0
LINE
8
BLACK
6
CONTINUOUS
10
144.4
20
-16.925
11
145.4
21
-17.925
0
LINE
8
BLACK
6
CONTINUOUS
10
187.5
20
-60.45
11
188.5
21
-59.45
0
LINE
8
BLACK
6
CONTINUOUS
10
122.35
20
-54.55
11
121.35
21
-53.55
0
LINE
8
BLACK
6
CONTINUOUS
10
65.65
20
-54.55
11
78.25
21
-54.55
0
LINE
8
BLACK
6
CONTINUOUS
10
65.65
20
-54.55
11
64.65
21
-53.55
0
LINE
8
BLACK
6
CONTINUOUS
10
83.55
20
-41.55
11
83.55
21
-53.55
0
LINE
8
BLACK
6
CONTINUOUS
10
98.15
20
-53.55
11
97.15
21
-54.55
0
LINE
8
BLACK
6
CONTINUOUS
10
102.45
20
-41.55
11
102.45
21
-53.55
0
LINE
8
BLACK
6
CONTINUOUS
10
102.45
20
-41.55
11
103.45
21
-40.55
0
LINE
8
BLACK
6
CONTINUOUS
10
191.65
20
-40.55
11
192.65
21
-41.55
0
LINE
8
BLACK
6
CONTINUOUS
10
103.45
20
-54.55
11
116.05
21
-54.55
0
CIRCLE
8
BLACK
10
69.5875
20
-23.925
40
0.8
0
LINE
8
BLACK
6
CONTINUOUS
10
134.95
20
-40.55
11
122.35
21
-40.55
0
LINE
8
BLACK
6
CONTINUOUS
10
74.525
20
-91.35
11
73.525
21
-92.35
0
LINE
8
BLACK
6
CONTINUOUS
10
135.95
20
-53.55
11
135.95
21
-41.55
0
LINE
8
BLACK
6
CONTINUOUS
10
174.325
20
-92.35
11
173.325
21
-91.35
0
LINE
8
BLACK
6
CONTINUOUS
10
149.7
20
-60.45
11
150.7
21
-59.45
0
LINE
8
BLACK
6
CONTINUOUS
10
277.275
20
-17.925
11
277.275
21
-29.925
0
LINE
8
BLACK
6
CONTINUOUS
10
141.25
20
-54.55
11
140.25
21
-53.55
0
LINE
8
BLACK
6
CONTINUOUS
10
163.3
20
-59.45
11
150.7
21
-59.45
0
LINE
8
BLACK
6
CONTINUOUS
10
13.675
20
-111.25
11
12.675
21
-110.25
0
LINE
8
BLACK
6
CONTINUOUS
10
122.35
20
-54.55
11
134.95
21
-54.55
0
LINE
8
BLACK
6
CONTINUOUS
10
192.65
20
-53.55
11
191.65
21
-54.55
0
LINE
8
BLACK
6
CONTINUOUS
10
140.25
20
-41.55
11
140.25
21
-53.55
0
LINE
8
BLACK
6
CONTINUOUS
10
154.85
20
-53.55
11
154.85
21
-41.55
0
LINE
8
BLACK
6
CONTINUOUS
10
88.7
20
-72.45
11
88.7
21
-60.45
0
LINE
8
BLACK
6
CONTINUOUS
10
159.15
20
-41.55
11
160.15
21
-40.55
0
LINE
8
BLACK
6
CONTINUOUS
10
11.145
20
-116.85
11
0.005
21
-116.85
0
LINE
8
BLACK
6
CONTINUOUS
10
173.75
20
-53.55
11
172.75
21
-54.55
0
LINE
8
BLACK
6
CONTINUOUS
10
192.225
20
-17.925
11
193.225
21
-16.925
0
LINE
8
BLACK
6
CONTINUOUS
10
205.825
20
-16.925
11
193.225
21
-16.925
0
LINE
8
BLACK
6
CONTINUOUS
10
83.975
20
-110.25
11
82.975
21
-111.25
0
LINE
8
BLACK
6
CONTINUOUS
10
206.825
20
-29.925
11
206.825
21
-17.925
0
LINE
8
BLACK
6
CONTINUOUS
10
158.575
20
-97.25
11
159.575
21
-98.25
0
LINE
8
BLACK
6
CONTINUOUS
10
206.825
20
-29.925
11
205.825
21
-30.925
0
LINE
8
BLACK
6
CONTINUOUS
10
193.225
20
-30.925
11
192.225
21
-29.925
0
LINE
8
BLACK
6
CONTINUOUS
10
234.75
20
-17.925
11
235.75
21
-16.925
0
LINE
8
BLACK
6
CONTINUOUS
10
248.35
20
-16.925
11
249.35
21
-17.925
0
LINE
8
BLACK
6
CONTINUOUS
10
174.325
20
-30.925
11
186.925
21
-30.925
0
LINE
8
BLACK
6
CONTINUOUS
10
249.35
20
-29.925
11
249.35
21
-17.925
0
LINE
8
BLACK
6
CONTINUOUS
10
235.75
20
-30.925
11
234.75
21
-29.925
0
LINE
8
BLACK
6
CONTINUOUS
10
173.325
20
-17.925
11
174.325
21
-16.925
0
LINE
8
BLACK
6
CONTINUOUS
10
186.925
20
-16.925
11
174.325
21
-16.925
0
LINE
8
BLACK
6
CONTINUOUS
10
169.025
20
-91.35
11
168.025
21
-92.35
0
LINE
8
BLACK
6
CONTINUOUS
10
186.925
20
-16.925
11
187.925
21
-17.925
0
LINE
8
BLACK
6
CONTINUOUS
10
187.925
20
-29.925
11
186.925
21
-30.925
0
LINE
8
BLACK
6
CONTINUOUS
10
178.475
20
-110.25
11
177.475
21
-111.25
0
LINE
8
BLACK
6
CONTINUOUS
10
174.325
20
-30.925
11
173.325
21
-29.925
0
LINE
8
BLACK
6
CONTINUOUS
10
130.8
20
-17.925
11
131.8
21
-16.925
0
LINE
8
BLACK
6
CONTINUOUS
10
145.4
20
-29.925
11
145.4
21
-17.925
0
LINE
8
BLACK
6
CONTINUOUS
10
131.8
20
-30.925
11
144.4
21
-30.925
0
LINE
8
BLACK
6
CONTINUOUS
10
111.9
20
-17.925
11
111.9
21
-29.925
0
LINE
8
BLACK
6
CONTINUOUS
10
125.5
20
-16.925
11
112.9
21
-16.925
0
LINE
8
BLACK
6
CONTINUOUS
10
125.5
20
-16.925
11
126.5
21
-17.925
0
LINE
8
BLACK
6
CONTINUOUS
10
155.425
20
-92.35
11
154.425
21
-91.35
0
LINE
8
BLACK
6
CONTINUOUS
10
112.9
20
-30.925
11
125.5
21
-30.925
0
LINE
8
BLACK
6
CONTINUOUS
10
112.9
20
-30.925
11
111.9
21
-29.925
0
LINE
8
BLACK
6
CONTINUOUS
10
-11.525
20
-59.45
11
-24.125
21
-59.45
0
LINE
8
BLACK
6
CONTINUOUS
10
168.025
20
-16.925
11
169.025
21
-17.925
0
LINE
8
BLACK
6
CONTINUOUS
10
169.025
20
-29.925
11
168.025
21
-30.925
0
LINE
8
BLACK
6
CONTINUOUS
10
160.6
20
-130.1
11
173.2
21
-130.1
0
LINE
8
BLACK
6
CONTINUOUS
10
155.425
20
-30.925
11
154.425
21
-29.925
0
LINE
8
BLACK
6
CONTINUOUS
10
74.1
20
-17.925
11
74.1
21
-29.925
0
LINE
8
BLACK
6
CONTINUOUS
10
106.6
20
-59.45
11
94
21
-59.45
0
LINE
8
BLACK
6
CONTINUOUS
10
87.7
20
-16.925
11
88.7
21
-17.925
0
LINE
8
BLACK
6
CONTINUOUS
10
88.7
20
-29.925
11
88.7
21
-17.925
0
LINE
8
BLACK
6
CONTINUOUS
10
75.1
20
-30.925
11
87.7
21
-30.925
0
LINE
8
BLACK
6
CONTINUOUS
10
183.2
20
-72.45
11
182.2
21
-73.45
0
LINE
8
BLACK
6
CONTINUOUS
10
93
20
-17.925
11
94
21
-16.925
0
LINE
8
BLACK
6
CONTINUOUS
10
150.125
20
-91.35
11
150.125
21
-79.35
0
LINE
8
BLACK
6
CONTINUOUS
10
94
20
-30.925
11
93
21
-29.925
0
LINE
8
BLACK
6
CONTINUOUS
10
178.475
20
-110.25
11
178.475
21
-98.25
0
LINE
8
BLACK
6
CONTINUOUS
10
50.475
20
-17.925
11
51.475
21
-16.925
0
LINE
8
BLACK
6
CONTINUOUS
10
64.075
20
-16.925
11
65.075
21
-17.925
0
LINE
8
BLACK
6
CONTINUOUS
10
65.075
20
-29.925
11
64.075
21
-30.925
0
LINE
8
BLACK
6
CONTINUOUS
10
51.475
20
-30.925
11
50.475
21
-29.925
0
LINE
8
BLACK
6
CONTINUOUS
10
291.875
20
-29.925
11
291.875
21
-17.925
0
LINE
8
BLACK
6
CONTINUOUS
10
258.375
20
-17.925
11
258.375
21
-29.925
0
LINE
8
BLACK
6
CONTINUOUS
10
258.375
20
-17.925
11
259.375
21
-16.925
0
LINE
8
BLACK
6
CONTINUOUS
10
271.975
20
-16.925
11
272.975
21
-17.925
0
LINE
8
BLACK
6
CONTINUOUS
10
163.875
20
-98.25
11
164.875
21
-97.25
0
LINE
8
BLACK
6
CONTINUOUS
10
272.975
20
-29.925
11
271.975
21
-30.925
0
LINE
8
BLACK
6
CONTINUOUS
10
92.425
20
-78.35
11
79.825
21
-78.35
0
LINE
8
BLACK
6
CONTINUOUS
10
-25.125
20
-60.45
11
-25.125
21
-72.45
0
LINE
8
BLACK
6
CONTINUOUS
10
13.675
20
-30.925
11
12.675
21
-29.925
0
LINE
8
BLACK
6
CONTINUOUS
10
-10.525
20
-72.45
11
-11.525
21
-73.45
0
LINE
8
BLACK
6
CONTINUOUS
10
112.9
20
-73.45
11
111.9
21
-72.45
0
LINE
8
BLACK
6
CONTINUOUS
10
12.675
20
-17.925
11
12.675
21
-29.925
0
LINE
8
BLACK
6
CONTINUOUS
10
26.275
20
-16.925
11
13.675
21
-16.925
0
LINE
8
BLACK
6
CONTINUOUS
10
26.275
20
-16.925
11
27.275
21
-17.925
0
LINE
8
BLACK
6
CONTINUOUS
10
51.475
20
-111.25
11
64.075
21
-111.25
0
LINE
8
BLACK
6
CONTINUOUS
10
27.275
20
-29.925
11
27.275
21
-17.925
0
LINE
8
BLACK
6
CONTINUOUS
10
27.275
20
-29.925
11
26.275
21
-30.925
0
LINE
8
BLACK
6
CONTINUOUS
10
225.725
20
-29.925
11
224.725
21
-30.925
0
LINE
8
BLACK
6
CONTINUOUS
10
212.125
20
-30.925
11
211.125
21
-29.925
0
LINE
8
BLACK
6
CONTINUOUS
10
12.145
20
-128.45
11
12.145
21
-117.85
0
LINE
8
BLACK
6
CONTINUOUS
10
-6.225
20
-17.925
11
-6.225
21
-29.925
0
LINE
8
BLACK
6
CONTINUOUS
10
49.9
20
-59.45
11
50.9
21
-60.45
0
LINE
8
BLACK
6
CONTINUOUS
10
7.375
20
-16.925
11
-5.225
21
-16.925
0
LINE
8
BLACK
6
CONTINUOUS
10
8.375
20
-29.925
11
8.375
21
-17.925
0
LINE
8
BLACK
6
CONTINUOUS
10
-5.225
20
-30.925
11
7.375
21
-30.925
0
LINE
8
BLACK
6
CONTINUOUS
10
31.575
20
-17.925
11
31.575
21
-29.925
0
LINE
8
BLACK
6
CONTINUOUS
10
45.175
20
-16.925
11
46.175
21
-17.925
0
LINE
8
BLACK
6
CONTINUOUS
10
46.175
20
-29.925
11
45.175
21
-30.925
0
LINE
8
BLACK
6
CONTINUOUS
10
32.575
20
-30.925
11
45.175
21
-30.925
0
LINE
8
BLACK
6
CONTINUOUS
10
108.175
20
-111.25
11
120.775
21
-111.25
0
LINE
8
BLACK
6
CONTINUOUS
10
107.175
20
-98.25
11
107.175
21
-110.25
0
LINE
8
BLACK
6
CONTINUOUS
10
107.175
20
-98.25
11
108.175
21
-97.25
0
LINE
8
BLACK
6
CONTINUOUS
10
125.5
20
-59.45
11
126.5
21
-60.45
0
LINE
8
BLACK
6
CONTINUOUS
10
126.5
20
-72.45
11
125.5
21
-73.45
0
LINE
8
BLACK
6
CONTINUOUS
10
117.625
20
-92.35
11
130.225
21
-92.35
0
LINE
8
BLACK
6
CONTINUOUS
10
117.625
20
-92.35
11
116.625
21
-91.35
0
LINE
8
BLACK
6
CONTINUOUS
10
116.625
20
-79.35
11
117.625
21
-78.35
0
LINE
8
BLACK
6
CONTINUOUS
10
130.225
20
-78.35
11
117.625
21
-78.35
0
LINE
8
BLACK
6
CONTINUOUS
10
130.225
20
-78.35
11
131.225
21
-79.35
0
LINE
8
BLACK
6
CONTINUOUS
10
131.225
20
-91.35
11
131.225
21
-79.35
0
LINE
8
BLACK
6
CONTINUOUS
10
179.05
20
-54.55
11
178.05
21
-53.55
0
LINE
8
BLACK
6
CONTINUOUS
10
131.225
20
-91.35
11
130.225
21
-92.35
0
LINE
8
BLACK
6
CONTINUOUS
10
139.675
20
-97.25
11
127.075
21
-97.25
0
LINE
8
BLACK
6
CONTINUOUS
10
139.675
20
-97.25
11
140.675
21
-98.25
0
LINE
8
BLACK
6
CONTINUOUS
10
87.7
20
-59.45
11
88.7
21
-60.45
0
LINE
8
BLACK
6
CONTINUOUS
10
140.675
20
-110.25
11
140.675
21
-98.25
0
LINE
8
BLACK
6
CONTINUOUS
10
140.675
20
-110.25
11
139.675
21
-111.25
0
LINE
8
BLACK
6
CONTINUOUS
10
127.075
20
-111.25
11
139.675
21
-111.25
0
LINE
8
BLACK
6
CONTINUOUS
10
127.075
20
-111.25
11
126.075
21
-110.25
0
LINE
8
BLACK
6
CONTINUOUS
10
126.075
20
-98.25
11
126.075
21
-110.25
0
LINE
8
BLACK
6
CONTINUOUS
10
126.075
20
-98.25
11
127.075
21
-97.25
0
LINE
8
BLACK
6
CONTINUOUS
10
79.825
20
-92.35
11
92.425
21
-92.35
0
LINE
8
BLACK
6
CONTINUOUS
10
78.825
20
-79.35
11
79.825
21
-78.35
0
LINE
8
BLACK
6
CONTINUOUS
10
92.425
20
-78.35
11
93.425
21
-79.35
0
LINE
8
BLACK
6
CONTINUOUS
10
93.425
20
-91.35
11
93.425
21
-79.35
0
LINE
8
BLACK
6
CONTINUOUS
10
101.875
20
-97.25
11
102.875
21
-98.25
0
LINE
8
BLACK
6
CONTINUOUS
10
102.875
20
-110.25
11
101.875
21
-111.25
0
LINE
8
BLACK
6
CONTINUOUS
10
89.275
20
-111.25
11
101.875
21
-111.25
0
LINE
8
BLACK
6
CONTINUOUS
10
88.275
20
-98.25
11
88.275
21
-110.25
0
LINE
8
BLACK
6
CONTINUOUS
10
88.275
20
-98.25
11
89.275
21
-97.25
0
LINE
8
BLACK
6
CONTINUOUS
10
94
20
-73.45
11
106.6
21
-73.45
0
LINE
8
BLACK
6
CONTINUOUS
10
94
20
-73.45
11
93
21
-72.45
0
LINE
8
BLACK
6
CONTINUOUS
10
107.6
20
-72.45
11
107.6
21
-60.45
0
LINE
8
BLACK
6
CONTINUOUS
10
98.725
20
-92.35
11
111.325
21
-92.35
0
LINE
8
BLACK
6
CONTINUOUS
10
98.725
20
-92.35
11
97.725
21
-91.35
0
LINE
8
BLACK
6
CONTINUOUS
10
97.725
20
-79.35
11
97.725
21
-91.35
0
LINE
8
BLACK
6
CONTINUOUS
10
97.725
20
-79.35
11
98.725
21
-78.35
0
LINE
8
BLACK
6
CONTINUOUS
10
111.325
20
-78.35
11
98.725
21
-78.35
0
LINE
8
BLACK
6
CONTINUOUS
10
154.425
20
-79.35
11
154.425
21
-91.35
0
LINE
8
BLACK
6
CONTINUOUS
10
154.425
20
-79.35
11
155.425
21
-78.35
0
LINE
8
BLACK
6
CONTINUOUS
10
32.575
20
-111.25
11
31.575
21
-110.25
0
LINE
8
BLACK
6
CONTINUOUS
10
168.025
20
-78.35
11
155.425
21
-78.35
0
LINE
8
BLACK
6
CONTINUOUS
10
168.025
20
-78.35
11
169.025
21
-79.35
0
LINE
8
BLACK
6
CONTINUOUS
10
70.375
20
-111.25
11
82.975
21
-111.25
0
LINE
8
BLACK
6
CONTINUOUS
10
177.475
20
-97.25
11
164.875
21
-97.25
0
LINE
8
BLACK
6
CONTINUOUS
10
164.875
20
-111.25
11
177.475
21
-111.25
0
LINE
8
BLACK
6
CONTINUOUS
10
169.6
20
-73.45
11
168.6
21
-72.45
0
LINE
8
BLACK
6
CONTINUOUS
10
31
20
-59.45
11
32
21
-60.45
0
LINE
8
BLACK
6
CONTINUOUS
10
168.6
20
-60.45
11
169.6
21
-59.45
0
LINE
8
BLACK
6
CONTINUOUS
10
182.2
20
-59.45
11
169.6
21
-59.45
0
LINE
8
BLACK
6
CONTINUOUS
10
182.2
20
-59.45
11
183.2
21
-60.45
0
LINE
8
BLACK
6
CONTINUOUS
10
183.2
20
-72.45
11
183.2
21
-60.45
0
LINE
8
BLACK
6
CONTINUOUS
10
173.325
20
-79.35
11
173.325
21
-91.35
0
LINE
8
BLACK
6
CONTINUOUS
10
186.925
20
-78.35
11
187.925
21
-79.35
0
LINE
8
BLACK
6
CONTINUOUS
10
187.925
20
-91.35
11
187.925
21
-79.35
0
LINE
8
BLACK
6
CONTINUOUS
10
131.8
20
-73.45
11
144.4
21
-73.45
0
LINE
8
BLACK
6
CONTINUOUS
10
131.8
20
-73.45
11
130.8
21
-72.45
0
LINE
8
BLACK
6
CONTINUOUS
10
130.8
20
-60.45
11
130.8
21
-72.45
0
LINE
8
BLACK
6
CONTINUOUS
10
130.8
20
-60.45
11
131.8
21
-59.45
0
LINE
8
BLACK
6
CONTINUOUS
10
144.4
20
-59.45
11
131.8
21
-59.45
0
LINE
8
BLACK
6
CONTINUOUS
10
145.4
20
-72.45
11
145.4
21
-60.45
0
LINE
8
BLACK
6
CONTINUOUS
10
158.575
20
-97.25
11
145.975
21
-97.25
0
LINE
8
BLACK
6
CONTINUOUS
10
136.525
20
-92.35
11
149.125
21
-92.35
0
LINE
8
BLACK
6
CONTINUOUS
10
207.355
20
-117.85
11
208.355
21
-116.85
0
LINE
8
BLACK
6
CONTINUOUS
10
136.525
20
-92.35
11
135.525
21
-91.35
0
LINE
8
BLACK
6
CONTINUOUS
10
149.125
20
-78.35
11
136.525
21
-78.35
0
LINE
8
BLACK
6
CONTINUOUS
10
149.125
20
-78.35
11
150.125
21
-79.35
0
LINE
8
BLACK
6
CONTINUOUS
10
150.125
20
-91.35
11
149.125
21
-92.35
0
LINE
8
BLACK
6
CONTINUOUS
10
159.575
20
-110.25
11
159.575
21
-98.25
0
LINE
8
BLACK
6
CONTINUOUS
10
17.4
20
-60.45
11
18.4
21
-59.45
0
LINE
8
BLACK
6
CONTINUOUS
10
145.975
20
-111.25
11
144.975
21
-110.25
0
LINE
8
BLACK
6
CONTINUOUS
10
144.975
20
-98.25
11
144.975
21
-110.25
0
LINE
8
BLACK
6
CONTINUOUS
10
150.7
20
-73.45
11
163.3
21
-73.45
0
LINE
8
BLACK
6
CONTINUOUS
10
163.3
20
-59.45
11
164.3
21
-60.45
0
LINE
8
BLACK
6
CONTINUOUS
10
164.3
20
-72.45
11
163.3
21
-73.45
0
LINE
8
BLACK
6
CONTINUOUS
10
26.275
20
-97.25
11
13.675
21
-97.25
0
LINE
8
BLACK
6
CONTINUOUS
10
46.175
20
-110.25
11
46.175
21
-98.25
0
LINE
8
BLACK
6
CONTINUOUS
10
31.575
20
-98.25
11
31.575
21
-110.25
0
LINE
8
BLACK
6
CONTINUOUS
10
26.275
20
-97.25
11
27.275
21
-98.25
0
LINE
8
BLACK
6
CONTINUOUS
10
27.275
20
-110.25
11
27.275
21
-98.25
0
LINE
8
BLACK
6
CONTINUOUS
10
27.275
20
-110.25
11
26.275
21
-111.25
0
LINE
8
BLACK
6
CONTINUOUS
10
12.675
20
-98.25
11
13.675
21
-97.25
0
LINE
8
BLACK
6
CONTINUOUS
10
18.4
20
-73.45
11
31
21
-73.45
0
LINE
8
BLACK
6
CONTINUOUS
10
17.4
20
-60.45
11
17.4
21
-72.45
0
LINE
8
BLACK
6
CONTINUOUS
10
31
20
-59.45
11
18.4
21
-59.45
0
LINE
8
BLACK
6
CONTINUOUS
10
58.9
20
-116.2
11
46.3
21
-116.2
0
LINE
8
BLACK
6
CONTINUOUS
10
32
20
-72.45
11
32
21
-60.45
0
LINE
8
BLACK
6
CONTINUOUS
10
50.9
20
-72.45
11
49.9
21
-73.45
0
LINE
8
BLACK
6
CONTINUOUS
10
32
20
-72.45
11
31
21
-73.45
0
LINE
8
BLACK
6
CONTINUOUS
10
188.5
20
-73.45
11
201.1
21
-73.45
0
LINE
8
BLACK
6
CONTINUOUS
10
188.5
20
-73.45
11
187.5
21
-72.45
0
LINE
8
BLACK
6
CONTINUOUS
10
187.5
20
-60.45
11
187.5
21
-72.45
0
LINE
8
BLACK
6
CONTINUOUS
10
201.1
20
-59.45
11
188.5
21
-59.45
0
LINE
8
BLACK
6
CONTINUOUS
10
201.1
20
-59.45
11
202.1
21
-60.45
0
LINE
8
BLACK
6
CONTINUOUS
10
202.1
20
-72.45
11
201.1
21
-73.45
0
LINE
8
BLACK
6
CONTINUOUS
10
23.125
20
-92.35
11
35.725
21
-92.35
0
LINE
8
BLACK
6
CONTINUOUS
10
23.125
20
-92.35
11
22.125
21
-91.35
0
LINE
8
BLACK
6
CONTINUOUS
10
21.675
20
-117.15
11
21.675
21
-129.15
0
LINE
8
BLACK
6
CONTINUOUS
10
22.125
20
-79.35
11
22.125
21
-91.35
0
LINE
8
BLACK
6
CONTINUOUS
10
22.125
20
-79.35
11
23.125
21
-78.35
0
LINE
8
BLACK
6
CONTINUOUS
10
191.65
20
-40.55
11
179.05
21
-40.55
0
LINE
8
BLACK
6
CONTINUOUS
10
36.725
20
-91.35
11
35.725
21
-92.35
0
LINE
8
BLACK
6
CONTINUOUS
10
35.275
20
-116.15
11
36.275
21
-117.15
0
LINE
8
BLACK
6
CONTINUOUS
10
36.275
20
-129.15
11
36.275
21
-117.15
0
LINE
8
BLACK
6
CONTINUOUS
10
36.275
20
-129.15
11
35.275
21
-130.15
0
LINE
8
BLACK
6
CONTINUOUS
10
22.675
20
-130.15
11
35.275
21
-130.15
0
LINE
8
BLACK
6
CONTINUOUS
10
4.225
20
-92.35
11
16.825
21
-92.35
0
LINE
8
BLACK
6
CONTINUOUS
10
4.225
20
-92.35
11
3.225
21
-91.35
0
LINE
8
BLACK
6
CONTINUOUS
10
16.825
20
-78.35
11
4.225
21
-78.35
0
LINE
8
BLACK
6
CONTINUOUS
10
16.825
20
-78.35
11
17.825
21
-79.35
0
LINE
8
BLACK
6
CONTINUOUS
10
211.55
20
-53.55
11
211.55
21
-41.55
0
LINE
8
BLACK
6
CONTINUOUS
10
17.825
20
-91.35
11
17.825
21
-79.35
0
LINE
8
BLACK
6
CONTINUOUS
10
17.825
20
-91.35
11
16.825
21
-92.35
0
LINE
8
BLACK
6
CONTINUOUS
10
196.95
20
-41.55
11
196.95
21
-53.55
0
LINE
8
BLACK
6
CONTINUOUS
10
196.95
20
-41.55
11
197.95
21
-40.55
0
CIRCLE
8
BLACK
10
230.237
20
-23.925
40
0.8
0
LINE
8
BLACK
6
CONTINUOUS
10
210.55
20
-40.55
11
197.95
21
-40.55
0
LINE
8
BLACK
6
CONTINUOUS
10
211.55
20
-53.55
11
210.55
21
-54.55
0
LINE
8
BLACK
6
CONTINUOUS
10
197.95
20
-54.55
11
210.55
21
-54.55
0
LINE
8
BLACK
6
CONTINUOUS
10
197.95
20
-54.55
11
196.95
21
-53.55
0
LINE
8
BLACK
6
CONTINUOUS
10
178.05
20
-41.55
11
178.05
21
-53.55
0
LINE
8
BLACK
6
CONTINUOUS
10
178.05
20
-41.55
11
179.05
21
-40.55
0
LINE
8
BLACK
6
CONTINUOUS
10
179.05
20
-54.55
11
191.65
21
-54.55
0
LINE
8
BLACK
6
CONTINUOUS
10
56.2
20
-73.45
11
55.2
21
-72.45
0
LINE
8
BLACK
6
CONTINUOUS
10
55.2
20
-60.45
11
55.2
21
-72.45
0
LINE
8
BLACK
6
CONTINUOUS
10
68.8
20
-59.45
11
56.2
21
-59.45
0
LINE
8
BLACK
6
CONTINUOUS
10
60.925
20
-92.35
11
73.525
21
-92.35
0
LINE
8
BLACK
6
CONTINUOUS
10
60.925
20
-92.35
11
59.925
21
-91.35
0
LINE
8
BLACK
6
CONTINUOUS
10
59.925
20
-79.35
11
59.925
21
-91.35
0
LINE
8
BLACK
6
CONTINUOUS
10
73.525
20
-78.35
11
60.925
21
-78.35
0
LINE
8
BLACK
6
CONTINUOUS
10
116.05
20
-116.15
11
117.05
21
-117.15
0
LINE
8
BLACK
6
CONTINUOUS
10
73.525
20
-78.35
11
74.525
21
-79.35
0
LINE
8
BLACK
6
CONTINUOUS
10
74.525
20
-91.35
11
74.525
21
-79.35
0
LINE
8
BLACK
6
CONTINUOUS
10
82.975
20
-97.25
11
70.375
21
-97.25
0
LINE
8
BLACK
6
CONTINUOUS
10
82.975
20
-97.25
11
83.975
21
-98.25
0
LINE
8
BLACK
6
CONTINUOUS
10
75.1
20
-73.45
11
87.7
21
-73.45
0
LINE
8
BLACK
6
CONTINUOUS
10
75.1
20
-73.45
11
74.1
21
-72.45
0
LINE
8
BLACK
6
CONTINUOUS
10
74.1
20
-60.45
11
74.1
21
-72.45
0
LINE
8
BLACK
6
CONTINUOUS
10
74.1
20
-60.45
11
75.1
21
-59.45
0
LINE
8
BLACK
6
CONTINUOUS
10
37.3
20
-73.45
11
36.3
21
-72.45
0
LINE
8
BLACK
6
CONTINUOUS
10
87.7
20
-59.45
11
75.1
21
-59.45
0
LINE
8
BLACK
6
CONTINUOUS
10
219.495
20
-116.85
11
220.495
21
-117.85
0
LINE
8
BLACK
6
CONTINUOUS
10
88.7
20
-72.45
11
87.7
21
-73.45
0
LINE
8
BLACK
6
CONTINUOUS
10
45.175
20
-97.25
11
46.175
21
-98.25
0
LINE
8
BLACK
6
CONTINUOUS
10
46.175
20
-110.25
11
45.175
21
-111.25
0
LINE
8
BLACK
6
CONTINUOUS
10
31.575
20
-98.25
11
32.575
21
-97.25
0
LINE
8
BLACK
6
CONTINUOUS
10
36.3
20
-60.45
11
36.3
21
-72.45
0
LINE
8
BLACK
6
CONTINUOUS
10
49.9
20
-59.45
11
37.3
21
-59.45
0
LINE
8
BLACK
6
CONTINUOUS
10
42.025
20
-92.35
11
54.625
21
-92.35
0
LINE
8
BLACK
6
CONTINUOUS
10
41.025
20
-79.35
11
41.025
21
-91.35
0
LINE
8
BLACK
6
CONTINUOUS
10
54.625
20
-78.35
11
55.625
21
-79.35
0
LINE
8
BLACK
6
CONTINUOUS
10
55.625
20
-91.35
11
55.625
21
-79.35
0
LINE
8
BLACK
6
CONTINUOUS
10
55.625
20
-91.35
11
54.625
21
-92.35
0
LINE
8
BLACK
6
CONTINUOUS
10
64.075
20
-97.25
11
65.075
21
-98.25
0
LINE
8
BLACK
6
CONTINUOUS
10
65.075
20
-110.25
11
65.075
21
-98.25
0
LINE
8
BLACK
6
CONTINUOUS
10
65.075
20
-110.25
11
64.075
21
-111.25
0
LINE
8
BLACK
6
CONTINUOUS
10
51.475
20
-111.25
11
50.475
21
-110.25
0
LINE
8
BLACK
6
CONTINUOUS
10
50.475
20
-98.25
11
50.475
21
-110.25
0
LINE
8
BLACK
6
CONTINUOUS
10
50.475
20
-98.25
11
51.475
21
-97.25
0
LINE
8
BLACK
6
CONTINUOUS
10
103.45
20
-130.15
11
116.05
21
-130.15
0
LINE
8
BLACK
6
CONTINUOUS
10
103.45
20
-130.15
11
102.45
21
-129.15
0
LINE
8
BLACK
6
CONTINUOUS
10
102.45
20
-117.15
11
102.45
21
-129.15
0
LINE
8
BLACK
6
CONTINUOUS
10
117.05
20
-129.15
11
117.05
21
-117.15
0
LINE
8
BLACK
6
CONTINUOUS
10
117.05
20
-129.15
11
116.05
21
-130.15
0
LINE
8
BLACK
6
CONTINUOUS
10
0.005
20
-129.45
11
-0.995
21
-128.45
0
LINE
8
BLACK
6
CONTINUOUS
10
-0.995
20
-117.85
11
-0.995
21
-128.45
0
LINE
8
BLACK
6
CONTINUOUS
10
-0.995
20
-117.85
11
0.005
21
-116.85
0
LINE
8
BLACK
6
CONTINUOUS
10
11.145
20
-116.85
11
12.145
21
-117.85
0
LINE
8
BLACK
6
CONTINUOUS
10
12.145
20
-128.45
11
11.145
21
-129.45
0
LINE
8
BLACK
6
CONTINUOUS
10
208.355
20
-129.45
11
219.495
21
-129.45
0
LINE
8
BLACK
6
CONTINUOUS
10
208.355
20
-129.45
11
207.355
21
-128.45
0
LINE
8
BLACK
6
CONTINUOUS
10
207.355
20
-117.85
11
207.355
21
-128.45
0
LINE
8
BLACK
6
CONTINUOUS
10
219.495
20
-116.85
11
208.355
21
-116.85
0
LINE
8
BLACK
6
CONTINUOUS
10
220.495
20
-128.45
11
219.495
21
-129.45
0
LINE
8
BLACK
6
CONTINUOUS
10
160.6
20
-116.2
11
173.2
21
-116.2
0
ARC
8
BLACK
10
173.2
20
-116.7
40
0.5
50
-0
51
90
0
LINE
8
BLACK
6
CONTINUOUS
10
173.7
20
-116.7
11
173.7
21
-129.6
0
ARC
8
BLACK
10
160.6
20
-129.6
40
0.5
50
-180
51
-90
0
LINE
8
BLACK
6
CONTINUOUS
10
160.1
20
-116.7
11
160.1
21
-129.6
0
ARC
8
BLACK
10
160.6
20
-116.7
40
0.5
50
90
51
180
0
ARC
8
BLACK
10
58.9
20
-116.7
40
0.500001
50
0.000114591
51
89.9999
0
ARC
8
BLACK
10
58.9
20
-129.6
40
0.500001
50
-89.9999
51
-0.000114591
0
ARC
8
BLACK
10
46.3
20
-129.6
40
0.500001
50
-180
51
-90.0001
0
LINE
8
BLACK
6
CONTINUOUS
10
45.8
20
-116.7
11
45.8
21
-129.6
  0
ENDSEC
  0
EOF
